<svg viewBox="0 0 110 110" version="1.1" xmlns="http://www.w3.org/2000/svg">
    <g stroke="none" stroke-width="1" fill="none" fill-rule="evenodd">
        <g transform="translate(-647.000000, -34.000000)" fill-rule="nonzero">
            <g transform="translate(647.000000, 34.000000)">
                <path d="M33.0002332,87.4713627 C29.8361393,91.7420999 27.9238216,96.9853794 27.8108291,102.66062 L27.8055242,103.193923 L27.8055242,106.822891 C27.8055242,107.797568 27.9545983,108.737703 28.2292185,109.623715 L28.3545308,110.000064 L3.19236664,110.000064 C1.4903728,110.000064 0.0992058139,108.673951 0.00528703708,107.003176 L0.00023320635,106.822891 L0.00023320635,103.194135 C-0.0789040894,86.3227086 20.000906,76.8710413 33.0002332,87.4713627 Z M89.7138695,83.0000639 C100.784533,83.0000639 109.812375,91.8729935 109.997339,102.849908 L110.000233,103.193614 L110.000233,106.822746 C110.000233,108.516965 108.667965,109.901559 106.989434,109.995034 L106.808312,110.000064 L81.6459686,110.000064 C81.955984,109.129876 82.1438086,108.202602 82.1859208,107.238251 L82.1949791,106.822746 L82.1949791,103.193614 C82.1949791,97.3134573 80.263441,91.8747364 77.0002332,87.4703383 C80.48113,84.6759932 84.9042821,83.0000639 89.7138695,83.0000639 Z M54.5001257,83.0000639 C65.8038489,83.0000639 75.0002332,92.058809 75.0002332,103.193614 L75.0002332,103.193614 L75.0002332,106.822746 C75.0002332,108.577473 73.5560609,110.000064 71.7747144,110.000064 L71.7747144,110.000064 L37.225752,110.000064 C35.4444055,110.000064 34.0002332,108.577473 34.0002332,106.822746 L34.0002332,106.822746 L34.0002332,103.193614 C34.0002332,92.0590208 43.1964024,83.0000639 54.5001257,83.0000639 Z M19.9691972,59.0000639 C26.6031148,59.0000639 32.0002332,64.3832596 32.0002332,71.0000639 C32.0002332,77.6168682 26.6033308,83.0000639 19.9691972,83.0000639 C4.0128466,82.3434032 4.00831067,59.6593099 19.9691972,59.0000639 Z M88.9691972,59.0000639 C95.6031148,59.0000639 101.000233,64.3832596 101.000233,71.0000639 C101.000233,77.6168682 95.6031148,83.0000639 88.9691972,83.0000639 C73.0128466,82.3434032 73.0083107,59.6593099 88.9691972,59.0000639 Z M54.9691972,59.0000639 C61.6031148,59.0000639 67.0002332,64.3832596 67.0002332,71.0000639 C67.0002332,77.6168682 61.6031148,83.0000639 54.9691972,83.0000639 C39.0128466,82.3434032 39.0083107,59.6593099 54.9691972,59.0000639 Z" id="Combined-Shape" fill="#00FDDD"></path>
                <path d="M29.5588882,0.953717623 C28.2874515,-0.317712109 26.2256272,-0.317929188 24.9539735,0.953717623 C23.6823198,2.22536443 23.6823198,4.2869605 24.9539735,5.55860731 L28.4415782,9.0464102 C29.713449,10.3182741 31.7750563,10.3176229 33.0464929,9.0464102 C34.3181466,7.77476339 34.3181466,5.71316732 33.0464929,4.44152051 L29.5588882,0.953717623 Z" fill="currentColor"></path>
                <path d="M28.44156,28.9537913 L24.9538417,32.4415658 C23.6823637,33.7132022 23.6823637,35.7747815 24.9538417,37.046418 C26.225971,38.3182715 28.2876454,38.3176203 29.5589064,37.046418 L33.0466247,33.5586435 C34.3181027,32.287007 34.3181027,30.2254277 33.0466247,28.9537913 C31.7749296,27.6821548 29.7134723,27.6821548 28.44156,28.9537913 Z" fill="currentColor"></path>
                <path d="M21.1227202,22.0000639 L25.8777462,22.0000639 C30.0426316,21.8414639 30.0394925,16.1570639 25.8777462,16.0000639 L21.1227202,16.0000639 C16.9578348,16.1586639 16.9609739,21.8430639 21.1227202,22.0000639 L21.1227202,22.0000639 Z" fill="currentColor"></path>
                <path d="M81.5590028,9.04640244 L85.0466454,5.55857116 C86.3180958,4.28691399 86.3180958,2.22530114 85.0466454,0.95364398 C83.7749779,-0.317796103 81.7131311,-0.317796103 80.4416807,0.95364398 L76.953821,4.44147526 C75.6823706,5.71313242 75.6823706,7.77474527 76.953821,9.04640244 C78.2254885,10.3176254 80.2871182,10.3182767 81.5590028,9.04640244 L81.5590028,9.04640244 Z" fill="currentColor"></path>
                <path d="M80.4415782,37.0463443 C81.7127978,38.3175363 83.774405,38.3184046 85.0464929,37.0463443 C86.3181466,35.7747182 86.3181466,33.7131557 85.0464929,32.4415296 L81.5588882,28.9537835 C80.2872345,27.6821574 78.2256272,27.6821574 76.9539735,28.9537835 C75.6823198,30.2254096 75.6823198,32.2869721 76.9539735,33.5585982 L80.4415782,37.0463443 Z" fill="currentColor"></path>
                <path d="M81.0002332,19.0000639 C81.0002332,20.6568639 82.403576,22.0000639 84.1345605,22.0000639 L88.8824394,22.0000639 C93.0410648,21.8414639 93.0379305,16.1570639 88.8824394,16.0000639 L84.1345605,16.0000639 C82.403576,16.0000639 81.0002332,17.3432639 81.0002332,19.0000639 Z" fill="currentColor"></path>
                <path d="M44.8882924,34.0000639 L65.1126437,34.0000639 C65.1126437,31.9598547 65.9150355,30.0159361 67.3185777,28.5244978 C77.5870481,17.900796 69.8366721,-0.0390698761 55.0001462,6.39177538e-05 C40.1642639,-0.0390698761 32.4130298,17.9031394 42.6821438,28.5244978 C44.0856859,30.0159361 44.8882924,31.9598547 44.8882924,34.0000639 Z" fill="currentColor"></path>
                <path d="M45.0002332,41.478676 C45.5512214,55.5125779 64.454337,55.5018075 65.0002332,41.478676 L65.0002332,41.0000639 L45.0002332,41.0000639 L45.0002332,41.478676 Z" fill="currentColor"></path>
            </g>
        </g>
    </g>
</svg>
