
<svg version="1.1" id="Layer_1" xmlns="http://www.w3.org/2000/svg" xmlns:xlink="http://www.w3.org/1999/xlink" x="0px" y="0px"
     viewBox="0 0 422.482 632.557" enable-background="new 0 0 422.482 632.557" xml:space="preserve">
<path d="M420.469,575.767l-4.185-6.792c0.929-2.086,2.372-8.002-6.61-14.74c-11.18-8.385-29.429-9.151-41.661-7.259
	c-13.994,2.164-47.45,13.911-55.668,17.042c-5.016,1.912-9.903,2.084-13.122,1.889c-1.553-0.093-2.872-1.172-3.285-2.684
	c-2.173-7.961-7.322-27.177-8.199-33.643c-0.126-0.93-0.338-2.2-0.607-3.807c-2.109-12.631-7.699-46.12,1.471-79.942
	c1.272-1.355,8.665-8.812,19.922-11.87c5.824-1.583,9.43-3.862,10.716-6.773c0.401-0.908,0.515-1.737,0.499-2.423
	c5.408-0.166,22.219-2.462,31.101-23.827c3.878-9.328,7.954-21.158,11.542-32.834c0.127-0.415,0.252-0.828,0.378-1.242l2.079-7.783
	c0.318-1.188,0.648-2.415,0.908-3.649l0.426-1.875c0.085-0.372,0.17-0.748,0.255-1.123c0.504-2.22,1.004-4.489,1.389-6.736
	c1.208-6.134,2.283-12.804,3.384-20.983c0.868-6.272,1.555-13.178,2.104-21.117c0.516-7.652,0.607-15.337,0.271-22.843
	c-0.646-14.259-2.208-27.596-4.747-40.709c-0.113-0.582-0.216-1.166-0.332-1.747c-0.684-3.427-1.487-6.795-2.384-10.001
	c-0.033-0.119-0.068-0.24-0.102-0.36c0.672-0.243,1.341-0.484,2.032-0.742c1.01,0.026,1.758,0.166,2.673,0.267
	c4.924,0.851,18.544,2.207,28.113-6.42c8.397-7.573,11.32-20.751,8.689-39.17l-0.563-3.941l-1.886,3.506
	c-0.092,0.173-9.341,17.022-23.108,13.289c-1.572-3.814-10.706-22.914-38.383-30.063c-1.02-1.679-4.67-5.6-16.307-5.008
	c-1.076-2.746-4.193-11.676-1.779-17.578c0.885-2.165,2.4-3.646,4.63-4.528c6.657-2.632,15.239-4.357,21.347-5.349
	c2.029-0.329,3.883-1.461,4.93-3.229c0.91-1.538,1.16-3.308,0.776-4.96l21.316,1.206c2.815,0.156,5.25-1.444,6.22-4.085
	c0.967-2.632-0.033-5.59-2.275-7.274l-11.869-8.917c0.556-0.778,1.458-1.268,2.449-1.281l30.128-0.378
	c4.357-0.055,8.033-2.331,9.592-5.942c1.683-3.897,0.644-8.45-2.779-12.179c-4.531-4.935-10.244-8.777-14.081-10.727
	c-14.5-7.368-38.864-15.587-64.083-5.8c3.776-4.086,7.191-8.895,5.654-11.59c-1.336-2.341-5.304-3.556-24.614,5.162
	c-22.062,9.961-29.021,23.606-30.96,33.353c-0.566-4.046-1.886-9.106-3.927-15.062c-0.872-2.544-3.272-4.255-5.962-4.255h-0.009
	c-2.685,0-5.079,1.694-5.956,4.232c-4.275,12.373-8.718,35.412,9.631,50.557c22.456,18.535,35.724,37.068,39.024,41.937
	c-0.124,0.121-0.239,0.255-0.343,0.402c-3.252,4.538,3.464,25.444,5.226,30.688c-4.053,11.105-3.857,19.364,0.583,24.551
	c3.445,4.022,8.897,6.982,19.856,5.959c0.011-0.001,0.021-0.002,0.032-0.003c1.009-0.095,2.067-0.225,3.172-0.39
	c0.701,1.173,1.329,2.266,1.903,3.324c0.509,0.932,1.011,1.897,1.507,2.877c0.777,1.536,1.538,3.12,2.27,4.751
	c4.994,11.057,8.038,23.69,8.804,36.533c0.408,6.796,0.325,13.742-0.247,20.64c-0.565,6.685-1.625,13.028-3.153,18.863
	c-1.675,6.498-3.742,12.521-6.173,17.968c-0.866,2.09-1.881,4.193-2.864,6.227l-0.86,1.79c-0.418,0.913-0.897,1.811-1.403,2.761
	c-0.192,0.359-0.383,0.717-0.563,1.064l-0.921,1.742c-0.611,1.155-1.683,1.986-2.943,2.332c-0.566,0.155-1.143,0.286-1.729,0.39
	c-13.013,2.307-30.985,5.958-42.699,10.251c-15.853,5.808-29.269,3.697-32.061,3.154c-5.559-10.118-5.818-42.879-6.049-71.84
	c-0.078-9.906-0.153-19.263-0.433-27.283c-0.798-22.881-3.522-38.19-5.023-45.103c-0.175-0.808-0.343-1.524-0.492-2.134
	c-0.346-1.417-0.85-2.788-1.505-4.091c-0.7-1.393-1.399-2.776-2.097-4.149C177.801,79.163,119.426,41.526,91.163,23.303
	C68.136,8.458,10.092-3.567,1.627,0.972C0.23,1.721,0.008,2.793,0,3.366c-0.018,1.345,0.819,3.381,7.517,7.213
	c61.573,35.229,98.378,63.575,118.812,81.656c-5.778-4.258-11.304-7.658-14.857-8.25c-3.844-0.642-6.389,0.094-7.563,2.183
	c-2.135,3.795,1.666,10.439,5.936,15.392c5.356,6.213,26.181,27.011,42.29,41.89c-1.044-0.181-1.981-0.12-2.752,0.266
	c-1.369,0.684-2.188,1.887-2.368,3.479c-0.393,3.463,2.427,8.3,5.847,11.832c-4.475-1.737-9.001-3.094-13.346-3.79
	c-16.725-2.681-25.105-2.47-28.928,0.727c-1.587,1.327-2.415,3.207-2.462,5.59c-0.193,9.81,24.908,22.274,25.977,22.8
	c1.947,0.958,5.972,2.662,11.066,4.819c8.878,3.758,21.428,9.072,33.42,14.827c-0.126,0.136-0.222,0.274-0.296,0.401
	c-4.409,7.572,2.436,13.849,18.972,29.013c0.009,0.009,0.018,0.016,0.027,0.024c-0.658,0.314-1.177,0.919-1.474,1.74
	c-1.389,3.845,1.636,12.776,10.806,24.715c-3.706-2.349-7.125-3.72-8.72-2.234c-1.473,1.371-1.849,4.289,5.303,16.248
	c5.536,9.258,14.931,22.792,27.968,40.294c-7.201-5.249-18.487-13.953-25.39-21.654l-1.214-1.354l-0.898,1.581
	c-0.087,0.152-8.437,15.387,9.068,32.168c6.989,6.701,12.908,11.35,17.483,14.513c-0.536,0.121-0.901,0.346-1.146,0.614
	c-1.323,1.446,0.109,3.678,0.58,4.412c4.398,6.856,12.876,21.04,14.847,24.792c-2.096,2.579-4.63,5.261-5.596,5.711
	c-0.445-0.173-1.385-0.61-2.299-1.035c-3.959-1.841-10.582-4.93-14.345-4.693c-2.6,0.157-4.529,1.47-5.158,3.51
	c-0.709,2.299,0.453,4.969,3.033,6.966l0.803,0.625c4.831,3.77,19.537,15.245,37.166,22.507c2.426,1,4.601,2.374,6.464,4.082
	l4.093,3.751c1.112,1.019,1.184,2.762,0.179,3.886c-3.854,4.311-7.415,7.165-10.027,8.035l-0.239,0.079
	c-6.156,2.048-12.522,4.166-10.185,24.316c2.239,19.309,9.026,61.941,11.546,75.546c1.746,9.432,6.233,30.406,8.738,42.006
	c-23.581-3.02-31.994-0.377-34.875,2.415c-0.705,0.683-1.042,1.34-1.203,1.852c-7.953,3.254-14.746,9.134-17.326,14.494
	c-1.943,4.035-1.537,8.451,1.058,11.525c2.711,3.211,7.189,4.304,11.985,2.925c1.558-0.448,3.499-1.072,5.746-1.793
	c11.409-3.664,30.507-9.797,50.417-9.797c24.007,0,47.164,14.038,56.873,23.474c4.136,4.019,15.595,11.14,34.06,21.166
	c2.136,1.159,4.412,1.731,6.663,1.731c3.229,0,6.405-1.175,9.039-3.474c4.316-3.768,5.743-9.883,3.835-15.286l-0.942-2.665
	l1.326,0.395c3.764,1.122,7.916,0.383,10.868-2.207c3.482-3.054,4.712-7.806,3.221-12.112l-0.632-1.826l0.528,0.022
	c4.732,0.193,8.976-2.1,11.403-6.145C423.208,585.114,423.005,579.882,420.469,575.767z"/>
  <path d="M416.284,568.975c0.929-2.086,2.372-8.002-6.61-14.74c-11.18-8.385-29.429-9.151-41.661-7.259
	c-13.994,2.164-47.45,13.911-55.668,17.042c-5.016,1.912-9.903,2.084-13.122,1.889c-1.553-0.093-2.872-1.172-3.285-2.684
	c-2.173-7.961-7.322-27.177-8.199-33.643c-0.126-0.93-0.338-2.2-0.607-3.807c-2.109-12.631-7.699-46.12,1.471-79.942
	c1.272-1.355,8.665-8.812,19.922-11.87c5.824-1.583,9.43-3.862,10.716-6.773c0.401-0.908,0.515-1.737,0.499-2.423
	c5.408-0.166,22.219-2.462,31.101-23.827c3.878-9.328,7.954-21.158,11.542-32.834c0.127-0.415,0.252-0.828,0.378-1.242l2.079-7.783
	c0.318-1.188,0.648-2.415,0.908-3.649l0.426-1.875c0.085-0.372,0.17-0.748,0.255-1.123c0.504-2.22,1.004-4.489,1.389-6.736
	c1.208-6.134,2.283-12.804,3.384-20.983c0.868-6.272,1.555-13.178,2.104-21.117c0.516-7.652,0.607-15.337,0.271-22.843
	c-0.646-14.259-2.208-27.596-4.747-40.709c-0.113-0.582-0.216-1.166-0.332-1.747c-0.684-3.427-1.487-6.795-2.384-10.001
	c-0.033-0.119-0.068-0.24-0.102-0.36c0.672-0.243,1.341-0.484,2.032-0.742c1.01,0.026,1.758,0.166,2.673,0.267
	c4.924,0.851,18.544,2.207,28.113-6.42c8.397-7.573,11.32-20.751,8.689-39.17l-0.563-3.941l-1.886,3.506
	c-0.092,0.173-9.341,17.022-23.108,13.289c-1.572-3.814-10.706-22.914-38.383-30.063c-1.02-1.679-4.67-5.6-16.307-5.008
	c-1.076-2.746-4.193-11.676-1.779-17.578c0.885-2.165,2.4-3.646,4.63-4.528c6.657-2.632,15.239-4.357,21.347-5.349
	c2.029-0.329,3.883-1.461,4.93-3.229c0.91-1.538,1.16-3.308,0.776-4.96l21.316,1.206c2.815,0.156,5.25-1.444,6.22-4.085
	c0.967-2.632-0.033-5.59-2.275-7.274l-11.869-8.917c0.556-0.778,1.458-1.268,2.449-1.281l30.128-0.378
	c4.357-0.055,8.033-2.331,9.592-5.942c1.683-3.897,0.644-8.45-2.779-12.179c-4.531-4.935-10.244-8.777-14.081-10.727
	c-14.5-7.368-38.864-15.587-64.083-5.8c3.776-4.086,7.191-8.895,5.654-11.59c-1.336-2.341-5.304-3.556-24.614,5.162
	c-22.062,9.961-29.021,23.606-30.96,33.353c-0.566-4.046-1.886-9.106-3.927-15.062c-0.872-2.544-3.272-4.255-5.962-4.255h-0.009
	c-2.685,0-5.079,1.694-5.956,4.232c-4.275,12.373-8.718,35.412,9.631,50.557c22.456,18.535,35.724,37.068,39.024,41.937
	c-0.124,0.121-0.239,0.255-0.343,0.402c-3.252,4.538,3.464,25.444,5.226,30.688c-4.053,11.105-3.857,19.364,0.583,24.551
	c3.445,4.022,8.897,6.982,19.856,5.959c0.011-0.001,0.021-0.002,0.032-0.003c1.009-0.095,2.067-0.225,3.172-0.39
	c0.701,1.173,1.329,2.266,1.903,3.324c0.509,0.932,1.011,1.897,1.507,2.877c0.777,1.536,1.538,3.12,2.27,4.751
	c4.994,11.057,8.038,23.69,8.804,36.533c0.408,6.796,0.325,13.742-0.247,20.64c-0.565,6.685-1.625,13.028-3.153,18.863
	c-1.675,6.498-3.742,12.521-6.173,17.968c-0.866,2.09-1.881,4.193-2.864,6.227l-0.86,1.79c-0.418,0.913-0.897,1.811-1.403,2.761
	c-0.192,0.359-0.383,0.717-0.563,1.064l-0.921,1.742c-0.611,1.155-1.683,1.986-2.943,2.332c-0.566,0.155-1.143,0.286-1.729,0.39
	c-13.013,2.307-30.985,5.958-42.699,10.251c-15.853,5.808-29.269,3.697-32.061,3.154c-5.559-10.118-5.818-42.879-6.049-71.84
	c-0.078-9.906-0.153-19.263-0.433-27.283c-0.798-22.881-3.522-38.19-5.023-45.103c-0.175-0.808-0.343-1.524-0.492-2.134
	c-0.346-1.417-0.85-2.788-1.505-4.091c-0.7-1.393-1.399-2.776-2.097-4.149C177.801,79.163,119.426,41.526,91.163,23.303
	C68.136,8.458,10.092-3.567,1.627,0.972C0.23,1.721,0.008,2.793,0,3.366c-0.018,1.345,0.819,3.381,7.517,7.213
	c61.573,35.229,98.378,63.575,118.812,81.656c-5.778-4.258-11.304-7.658-14.857-8.25c-3.844-0.642-6.389,0.094-7.563,2.183
	c-2.135,3.795,1.666,10.439,5.936,15.392c5.356,6.213,26.181,27.011,42.29,41.89c-1.044-0.181-1.981-0.12-2.752,0.266
	c-1.369,0.684-2.188,1.887-2.368,3.479c-0.393,3.463,2.427,8.3,5.847,11.832c-4.475-1.737-9.001-3.094-13.346-3.79
	c-16.725-2.681-25.105-2.47-28.928,0.727c-1.587,1.327-2.415,3.207-2.462,5.59c-0.193,9.81,24.908,22.274,25.977,22.8
	c1.947,0.958,5.972,2.662,11.066,4.819c8.878,3.758,21.428,9.072,33.42,14.827c-0.126,0.136-0.222,0.274-0.296,0.401
	c-4.409,7.572,2.436,13.849,18.972,29.013c0.009,0.009,0.018,0.016,0.027,0.024c-0.658,0.314-1.177,0.919-1.474,1.74
	c-1.389,3.845,1.636,12.776,10.806,24.715c-3.706-2.349-7.125-3.72-8.72-2.234c-1.473,1.371-1.849,4.289,5.303,16.248
	c5.536,9.258,14.931,22.792,27.968,40.294c-7.201-5.249-18.487-13.953-25.39-21.654l-1.214-1.354l-0.898,1.581
	c-0.087,0.152-8.437,15.387,9.068,32.168c6.989,6.701,12.908,11.35,17.483,14.513c-0.536,0.121-0.901,0.346-1.146,0.614
	c-1.323,1.446,0.109,3.678,0.58,4.412c4.398,6.856,12.876,21.04,14.847,24.792c-2.096,2.579-4.63,5.261-5.596,5.711
	c-0.445-0.173-1.385-0.61-2.299-1.035c-3.959-1.841-10.582-4.93-14.345-4.693c-2.6,0.157-4.529,1.47-5.158,3.51
	c-0.709,2.299,0.453,4.969,3.033,6.966l0.803,0.625c4.831,3.77,19.537,15.245,37.166,22.507c2.426,1,4.601,2.374,6.464,4.082
	l4.093,3.751c1.112,1.019,1.184,2.762,0.179,3.886c-3.854,4.311-7.415,7.165-10.027,8.035l-0.239,0.079
	c-6.156,2.048-12.522,4.166-10.185,24.316c2.239,19.309,9.026,61.941,11.546,75.546c1.746,9.432,6.233,30.406,8.738,42.006
	c-23.581-3.02-31.994-0.377-34.875,2.415c-0.705,0.683-1.042,1.34-1.203,1.852c-7.953,3.254-14.746,9.134-17.326,14.494
	c-1.943,4.035-1.537,8.451,1.058,11.525c2.711,3.211,7.189,4.304,11.985,2.925c1.558-0.448,3.499-1.072,5.746-1.793
	c11.409-3.664,30.507-9.797,50.417-9.797c24.007,0,47.164,14.038,56.873,23.474c4.136,4.019,15.595,11.14,34.06,21.166
	c2.136,1.159,4.412,1.731,6.663,1.731c3.229,0,6.405-1.175,9.039-3.474c4.316-3.768,5.743-9.883,3.835-15.286l-0.942-2.665
	l1.326,0.395c3.764,1.122,7.916,0.383,10.868-2.207c3.482-3.054,4.712-7.806,3.221-12.112l-0.632-1.826l0.528,0.022
	c4.732,0.193,8.976-2.1,11.403-6.145c2.487-4.144,2.284-9.376-0.252-13.491L416.284,568.975z M316.814,426.199
	c-0.683,1.461-2.794,3.555-8.976,5.235c-10.724,2.914-17.979,9.405-20.462,11.895c-3.443-0.658-5.792-2.847-6.797-3.962
	c3.024-2.162,7.294-4.792,11.723-6.114c8.905-2.658,14.63-4.637,18.324-10.659c1.992,0.342,4.026,0.647,6.101,0.907l0.236,0.513
	C316.981,424.053,317.389,424.968,316.814,426.199z M342.096,166.986l0.273,0.068c16.551,4.138,26.319,12.886,31.691,19.729
	c-1.494,0.669-2.418,1.604-2.735,2.798c-0.873,3.289,2.59,7.774,3.749,9.157c-0.993,0.352-2.099,0.653-3.336,0.841
	c-5.727,0.87-14.775-0.333-25.347-10.986c-6.64-6.69-9.614-12.444-8.602-16.64C338.468,169.136,340.812,167.623,342.096,166.986z
	 M316.458,174.892c0.06-0.084,0.071-0.084,0.139-0.084h2.372l-1.264-2.007c-0.137-0.218-14.023-22.03-40.389-43.792
	c-16.264-13.424-13.778-33.331-8.829-47.666c0.632-1.833,2.215-2.486,3.487-2.486c0.001,0,0.003,0,0.004,0
	c1.275,0.001,2.863,0.659,3.493,2.5c2.137,6.238,3.456,11.43,3.917,15.43c0.779,6.751,6.181,17.086,6.181,17.086
	c-0.009-0.025-2.397-11.306-1.159-17.67c2.554-13.123,12.753-24.055,29.497-31.614c19.522-8.813,21.202-6.36,21.262-6.251
	c0.505,0.886-1.099,3.472-3.435,6.335c-3.074,3.767-6.83,6.911-10.995,9.419c-6.143,3.699-12.791,8.582-16.908,15.953
	c9.538-8.79,21.186-15.219,22.372-15.982c19.331-12.444,53.207-5.06,68.483,2.702c3.632,1.847,9.044,5.486,13.339,10.164
	c2.705,2.946,3.566,6.449,2.305,9.371c-1.162,2.689-3.862,4.319-7.221,4.361l-30.128,0.378c-0.743,0.009-1.453,0.179-2.111,0.455
	c-0.417-0.363-0.956-0.879-1.671-1.43c-1.537-1.234-3.751-2.768-6.277-4.027c-2.52-1.267-5.354-2.205-7.839-2.63
	c-2.485-0.431-4.607-0.356-5.669-0.014c5.247,0.619,10.762,2.927,14.658,5.367c0.504,0.277,0.951,0.612,1.397,0.9
	c0.437,0.303,0.879,0.555,1.255,0.856c0.761,0.587,1.467,1.061,2.004,1.519c0.203,0.167,0.384,0.317,0.555,0.458
	c-0.722,0.645-1.294,1.465-1.614,2.426l-0.194,0.583c-2.533-0.827-5.501-1.59-8.614-2.154c-8.977-1.688-18.98-1.859-22.49-1.259
	c8.585,0.76,18.398,1.986,25.837,3.848c0.936,0.209,1.823,0.462,2.668,0.714c0.847,0.246,1.663,0.46,2.403,0.741
	c0.748,0.261,1.453,0.506,2.107,0.734c0.634,0.271,1.219,0.521,1.75,0.749c0.259,0.099,0.496,0.203,0.719,0.308l9.167,6.888
	c1.589,1.194,1.677,2.926,1.23,4.15c-0.447,1.224-1.664,2.487-3.616,2.38l-24.151-1.366c-0.022-0.011-0.037-0.019-0.059-0.03
	c-0.378-0.193-0.839-0.428-1.37-0.7c-0.266-0.135-0.55-0.279-0.85-0.432c-0.308-0.134-0.645-0.251-0.991-0.386
	c-0.696-0.263-1.454-0.55-2.261-0.855c-0.82-0.267-1.719-0.464-2.642-0.714c-0.917-0.282-1.915-0.376-2.924-0.538
	c-0.507-0.062-1.015-0.181-1.538-0.196c-0.522-0.026-1.049-0.052-1.579-0.078c-4.242-0.175-8.691,0.569-12.218,1.893
	c-3.549,1.275-6.224,2.94-7.404,4.072c1.75-0.914,3.641-1.671,5.589-2.299c1.946-0.628,3.948-1.142,5.953-1.451
	c4.003-0.669,7.977-0.625,11.368-0.048c0.425,0.068,0.843,0.134,1.252,0.199c0.41,0.063,0.797,0.199,1.183,0.29
	c0.77,0.2,1.504,0.391,2.199,0.572c1.339,0.518,2.552,0.905,3.516,1.331c0.869,0.419,1.565,0.756,2.077,1.003l0.277,0.428
	c0.82,1.267,0.892,2.801,0.179,4.158c-0.613,1.168-1.792,1.933-3.095,2.143c-6.242,1.01-15.081,2.783-21.994,5.516
	c-2.887,1.142-4.936,3.15-6.09,5.971c-1.734,4.239-1.102,9.56-0.086,13.716c0.201,0.823,0.418,1.601,0.634,2.315
	c0.83,2.743,1.065,5.624,0.78,8.476c-0.151,1.513-0.237,3.055-0.105,4.004c0.325,2.372,1.178,4.768,2.293,6.562
	c1.106,1.802,2.394,3.037,3.316,3.392c-1.988-3.895-3.016-8.457-3.011-12.034c0.002-1.738,0.217-3.651,0.578-5.248
	c6.406-0.314,9.962,0.851,11.884,1.998c-1.607,0.898-3.917,2.686-4.681,5.821c-1.191,4.887,3.28,12.481,10.48,19.737
	c0.884,0.891,1.756,1.7,2.621,2.469c-3.314-0.746-6.999-0.941-13.283-0.501c-6.895,0.483-11.149,6.099-13.097,9.465
	C318.092,191.02,314.71,177.333,316.458,174.892z M344.684,231.592c-1.556,0.247-3.021,0.426-4.41,0.546
	c-9.021,0.776-14.616-1.105-18.15-5.239c-3.198-3.74-3.714-9.604-1.55-17.472c0.428-1.554,0.96-3.186,1.596-4.895
	c0.493-1.323,1.282-3.442,2.535-5.048c2.127-2.729,5.417-5.637,9.906-5.952c9.352-0.656,12.578,0.169,16.676,1.614
	c6.748,4.955,12.731,6.406,17.395,6.406c1.195,0,2.304-0.094,3.316-0.248c4.182-0.633,7.486-2.441,9.04-4.132
	c1.703,0.487,3.345,0.717,4.916,0.717c9.327-0.001,16.208-7.668,19.413-12.117c1.67,15.637-1.11,26.834-8.281,33.311
	c-10.566,9.545-27.407,5.504-27.578,5.46l-1.421-0.353c-1.741-1.046-3.163-2.176-4.327-3.346c-1.676-1.685-2.807-3.452-3.56-5.173
	c-1.98-4.527-1.333-8.733-0.988-10.247c2.189-0.072,4.391,0.016,6.614,0.333c-5.741-3.353-13.551-2.33-18.795,1.543
	c3.455-0.872,6.912-1.518,10.396-1.776c-0.364,2.044-0.754,6.439,1.316,11.064c0.343,0.767,1.998,4.317,6.124,7.529
	c0.691,0.538,1.446,1.048,2.269,1.545c-0.552,0.185-1.088,0.36-1.628,0.537c-0.846,0.278-1.679,0.546-2.496,0.804
	C355.854,229.266,349.799,230.78,344.684,231.592z M231.861,343.066c-0.354-0.551-0.533-0.926-0.623-1.165
	c1.059,0.021,2.602,0.014,5.458,0.89c3.282,1.006,5.189,0.383,5.189,0.383c-1.223-0.64-2.334-1.183-3.344-1.64
	c-4.322-2.364-12.786-7.743-23.988-18.483c-12.824-12.294-10.802-23.174-9.346-27.272c11.204,11.815,30.427,24.806,31.272,25.375
	l3.898,2.624c0.488,0.329,1.061-0.277,0.707-0.746l-2.829-3.752c-37.706-50.007-39.134-58.323-38.56-59.69
	c1.543-0.408,16.149,9.518,16.149,9.518c-12.062-16.925-17.997-28.55-17.71-32.266c0.049-0.627,0.197-0.93,0.242-1.012
	c1.238,0.293,4.889,3.23,9.495,7.381c4.34,4.063,15.734,13.367,15.734,13.367c-3.366-5.61-9.549-11.426-14.687-15.972
	c-3.619-3.38-6.912-6.4-9.883-9.125c-15.803-14.491-21.767-19.961-18.531-25.679c0.56-0.19,1.698,0.085,3.268,0.73
	c2.611,1.303,5.166,2.621,7.614,3.94c5.652,3.289,20.626,10.456,20.626,10.456c-4.272-3.966-11.149-8.297-19.097-12.595
	c-2.394-1.384-4.713-2.616-6.763-3.528c-13.854-6.992-29.458-13.599-39.964-18.047c-5.057-2.141-9.05-3.832-10.931-4.757
	c-11.963-5.887-24.62-15.037-24.515-20.4c0.032-1.636,0.516-2.79,1.523-3.632c3.091-2.584,11.366-2.63,26.835-0.151
	c21.294,3.412,48.227,24.08,48.497,24.288l9.653,7.462l-7.85-9.34c-5.385-6.406-15.16-11.519-23.015-15.627
	c-4.255-2.225-7.929-4.147-9.835-5.72c-4.078-3.365-7.255-8.583-6.935-11.395c0.08-0.706,0.369-1.148,0.937-1.432
	c1.445-0.722,5.53,0.782,10.308,4.019c2.425,1.643,6.358,4.917,8.042,6.265c0,0-4.481-5.696-7.156-7.725
	c-16.16-14.218-43.662-41.506-49.921-48.766c-5.01-5.812-6.628-10.637-5.637-12.399c0.757-1.345,3.365-1.131,4.851-0.883
	c9.591,1.599,39.305,26.07,39.305,26.07c-0.306-0.409-31.852-41.577-141.529-104.33C2.849,4.892,2.625,3.47,2.6,3.47h0
	c0.939-1.4,12.405-1.806,35.823,3.514c16.865,3.831,39.204,10.708,51.322,18.521c28.241,18.208,86.745,55.921,155.633,192.379
	c1.238,2.452,2.15,5.053,2.724,7.739c1.488,6.969,4.09,21.94,4.866,44.186c0.279,7.985,0.353,17.324,0.431,27.212
	c0.227,28.693,0.487,61.067,6.061,72.458h-11.967l-0.246-0.563C246.189,366.499,236.389,350.125,231.861,343.066z M246.301,371.225
	h14.416l0.199,0.049c0.344,0.084,5.011,1.176,12.21,1.024c-2.856,1.182-6.133,2.707-9.189,4.522
	c-3.796-0.719-15.448-1.083-21.595-1.23C243.805,374.249,245.267,372.511,246.301,371.225z M261.663,378.259
	c-1.941,1.311-3.707,2.745-5.107,4.289c-5.479-0.814-11.222-3.449-14.609-5.221C247.135,377.45,256.79,377.737,261.663,378.259z
	 M222.552,378.294l-0.811-0.631c-1.696-1.313-2.513-2.893-2.134-4.125c0.299-0.97,1.325-1.578,2.815-1.669
	c3.095-0.189,9.593,2.832,13.082,4.454c1.619,0.753,12.732,6.491,19.792,7.787c-1.394,1.978-2.144,4.111-1.889,6.373
	c0.462,4.093,2.28,7.279,5.293,9.79C241.583,393.139,227.277,381.98,222.552,378.294z M255.143,390.288
	c-1.002-8.878,17.405-16.102,23.979-18.389c4.742-0.531,10.15-1.646,15.905-3.754c2.466-0.903,5.239-1.78,8.178-2.619
	c9.807,0.102,29.138,0.929,29.304,14.585c0.084,6.887-2.985,13.727-8.42,18.765c-7.285,6.753-18.104,9.871-30.463,8.78
	C266.734,405.284,256.305,400.576,255.143,390.288z M267.289,405.885l-0.948-0.869c-0.381-0.35-0.786-0.672-1.19-0.996
	c6.875,2.841,16.512,4.333,28.319,5.375c1.667,0.147,3.306,0.22,4.916,0.22c10.808,0,20.228-3.286,26.887-9.459
	c5.797-5.373,9.07-12.687,8.979-20.067c-0.154-12.683-14.759-15.474-25.28-16.117c10.188-2.592,21.25-4.707,28.308-5.959
	c0.735-0.13,1.454-0.303,2.162-0.503c0.144-0.04,0.301-0.087,0.466-0.138c1.788-0.549,3.257-1.839,4.051-3.532l0.771-1.646
	c0.019-0.036,0.038-0.072,0.057-0.108c0.669-1.276,1.375-2.542,1.975-3.851c1.277-2.676,2.621-5.349,3.763-8.107
	c2.618-5.865,4.666-12.019,6.289-18.316c1.648-6.295,2.675-12.775,3.227-19.296c0.58-6.989,0.672-14.024,0.251-21.018
	c-0.777-13.043-3.833-25.944-9.031-37.454c-0.552-1.232-1.128-2.445-1.717-3.646c-0.693-1.412-1.406-2.804-2.148-4.161
	c-0.467-0.862-0.949-1.702-1.434-2.532c4.907-0.928,10.707-2.512,17.573-4.897c0.017,0.06,0.036,0.12,0.052,0.181
	c0.915,3.272,1.686,6.54,2.339,9.816c0.093,0.464,0.174,0.928,0.264,1.393c2.644,13.569,4.153,27.096,4.768,40.669
	c0.336,7.519,0.237,15.051-0.268,22.548c-0.483,6.994-1.124,13.983-2.085,20.934c-0.936,6.952-1.998,13.918-3.36,20.836
	c-0.558,3.254-1.331,6.441-2.056,9.666c-0.342,1.622-0.798,3.197-1.215,4.794c0,0-0.568,2.263-1.031,4.198
	c-0.315,1.049-0.631,2.099-0.954,3.153c-3.586,11.687-7.677,23.57-11.569,32.932c-8.106,19.496-22.692,21.995-28.095,22.224l0-0.005
	C294.705,419.632,274.579,409.858,267.289,405.885z M270.83,416.29c1.6-1.793,1.761-4.368,0.578-6.33
	c7.894,3.832,21.117,9.285,37.371,12.305c-3.378,5.048-8.53,6.794-16.976,9.316c-5.04,1.505-9.856,4.593-13.007,6.92
	c-3.545,2.617-8.474,2.125-11.467-1.144c-4.285-4.683-6.619-10.154-7.443-12.344C263.728,423.623,267.946,419.52,270.83,416.29z
	 M269.069,566.377c0.45,2.078,0.812,3.747,1.051,4.843c-2.07,0.158-5.846,0.352-7.945-0.105c-0.746-0.162-1.586-0.612-2.651-1.18
	c-2.851-1.524-7.174-3.827-15.612-3.617c-2.786,0.069-5.596,0.59-8.321,1.442C238.352,565.738,246.297,563.398,269.069,566.377z
	 M404.919,606.933c-2.27,2.287-5.679,3.027-8.767,2.106l-3.714-1.107c-8.483-14.515-17.751-22.981-27.565-25.135
	c-6.994-1.537-12.167,0.646-14.255,1.786c-0.426-0.961-1.137-1.723-2.122-2.276c-4.421-2.481-13.488,0.159-16.755,1.245
	c-0.079-0.267-0.206-0.531-0.378-0.784c-1.128-1.653-3.903-2.558-7.626-2.503c-5.408,0.089-18.995-0.04-18.995-0.04
	c0.549,0.077,13.528,1.878,19.024,1.785c3.639-0.068,5.582,0.9,6.155,1.741c0.261,0.383,0.162,0.622,0.13,0.701l-0.761,1.849
	l1.873-0.699c3.281-1.225,12.637-3.93,16.479-1.773c0.897,0.503,1.427,1.237,1.621,2.242l0.257,1.338l1.108-0.794
	c0.055-0.04,5.607-3.928,13.871-2.114c8.962,1.967,17.525,9.6,25.484,22.699l-0.157-0.047l2.752,7.791
	c1.89,5.353-0.461,9.842-3.291,12.257c-2.831,2.417-7.635,4.034-12.625,1.323c-17.997-9.771-29.576-16.944-33.484-20.742
	c-10.016-9.733-33.913-24.214-58.699-24.214c-20.321,0-39.661,6.211-51.218,9.923c-2.227,0.715-4.15,1.333-5.669,1.77
	c-3.771,1.086-7.232,0.303-9.26-2.097c-1.92-2.274-2.188-5.608-0.699-8.7c3.422-7.108,15.415-15.259,26.344-15.529
	c7.755-0.197,11.548,1.832,14.313,3.309c1.196,0.639,2.228,1.191,3.33,1.43c3.392,0.738,9.957,0.052,10.235,0.023l1.451-0.155
	l-0.311-1.427c-0.08-0.366-8.02-36.741-10.481-50.031c-2.513-13.577-9.285-56.111-11.518-75.371
	c-1.944-16.766,2.126-19.345,7.235-21.131c0.85,2.294,3.255,7.974,7.812,12.953c2.045,2.236,4.847,3.39,7.667,3.39
	c0.64,0,1.28-0.067,1.913-0.187c-1.213,4.794-4.896,20.578-4.779,35.008c0.165,20.412,0.607,45.536,2.572,58.749
	c2.045,13.747,6.377,35.726,6.42,35.947l0.238,1.175l1.048-0.585c0.131-0.073,3.273-1.772,8.393,0.062
	c5.78,2.071,23.766,2.065,33.973,1.875c3.17-0.059,5.564-0.245,7.488-0.395c4.119-0.32,5.828-0.453,8.281,1.183l0.402,0.268
	l0.441-0.199c0.112-0.051,11.262-5.009,13.867,0.203l0.507,1.009l0.85-0.744c0.089-0.076,8.997-7.629,25.848-1.587
	c13.062,4.684,20.919,14.561,23.923,19.006l1.852,5.351C408.041,601.222,407.283,604.551,404.919,606.933z M418.653,587.606
	c-1.892,3.399-5.354,5.332-9.228,5.182l-2.237-0.092c-2.53-4.032-10.694-15.349-25.426-20.631
	c-15.129-5.423-24.128-0.542-26.778,1.298c-3.572-4.782-12.981-1.229-15.164-0.317c-2.754-1.695-4.895-1.528-8.981-1.211
	c-1.901,0.147-4.266,0.332-7.385,0.389c-8.12,0.15-27.628,0.28-33.353-1.772c-4.136-1.481-7.22-0.906-8.76-0.393
	c-0.885-4.54-4.417-22.83-6.201-34.82c-1.949-13.106-2.389-38.152-2.553-58.507c-0.127-15.534,4.225-32.696,4.983-35.562
	c0.537-0.218,1.061-0.48,1.566-0.794c1.001,1.161,3.389,3.501,7.023,4.463c-9.436,34.478-3.75,68.541-1.61,81.365
	c0.265,1.585,0.474,2.838,0.595,3.728c0.897,6.62,6.08,25.969,8.267,33.98c0.707,2.596,2.98,4.448,5.654,4.609
	c3.475,0.208,8.76,0.021,14.211-2.056c6.069-2.312,25.977-9.351,41.456-13.686c-0.294,0.663-0.368,1.229,0.437,0.961
	c0.829-0.276,1.771-1.052,2.514-1.767c3.113-0.83,5.974-1.517,8.423-1.997c-0.022,1.969,0.939,2.455,0.939,2.455
	c1.058-1.176,4.74-2.61,7.328-3.513c11.125-0.762,24.868,0.765,33.73,7.412c6.387,4.79,6.548,8.772,6.087,10.706
	c-22.509-17.093-39.098-10.245-44.502-7.087c0.112-1.286-0.215-2.244-0.978-2.861c-2.508-2.023-9.049,1.081-12.538,2.992
	c0.094-0.892-0.128-1.596-0.666-2.105c-2.974-2.819-15.394,3.619-19.13,5.658c0,0,16.516-5.727,17.93-4.391
	c0.231,0.219,0.243,0.944-0.416,2.327l-1.255,2.632l2.495-1.51c4.208-2.549,10.863-5.552,12.484-4.245
	c0.503,0.406,0.472,1.523-0.086,3.144l-1.012,2.938l2.394-1.981c0.179-0.147,17.922-14.329,44.539,6.109l-0.229,0.336l5.056,8.205
	C420.222,580.359,420.459,584.362,418.653,587.606z"/>
  <path fill="#F6B123" d="M365.51,226.201c0.539-0.177,1.076-0.352,1.628-0.537c-0.822-0.497-1.578-1.007-2.269-1.545
	c-4.126-3.212-5.781-6.762-6.124-7.529c-2.07-4.625-1.68-9.02-1.316-11.064c-3.485,0.258-6.941,0.904-10.396,1.776
	c5.244-3.873,13.054-4.896,18.795-1.543c-2.223-0.317-4.425-0.405-6.614-0.333c-0.345,1.514-0.992,5.72,0.988,10.247
	c0.753,1.722,1.885,3.489,3.56,5.173c1.164,1.17,2.586,2.301,4.327,3.346l1.421,0.353c0.17,0.043,17.011,4.084,27.578-5.46
	c7.171-6.477,9.951-17.674,8.281-33.311c-3.205,4.449-10.086,12.115-19.413,12.117c-1.572,0-3.213-0.23-4.916-0.717
	c-1.554,1.691-4.859,3.498-9.04,4.132c-1.013,0.153-2.121,0.248-3.316,0.248c-4.664,0-10.647-1.451-17.395-6.406
	c-4.098-1.445-7.325-2.27-16.676-1.614c-4.488,0.315-7.778,3.223-9.906,5.952c-1.253,1.607-2.042,3.725-2.535,5.048
	c-0.637,1.709-1.169,3.341-1.596,4.895c-2.165,7.868-1.648,13.732,1.55,17.472c3.534,4.133,9.128,6.015,18.15,5.239
	c1.388-0.119,2.854-0.299,4.41-0.546c5.115-0.812,11.17-2.326,18.33-4.587C363.831,226.747,364.664,226.478,365.51,226.201z"/>
  <path fill="#F2F2F3" d="M346.39,188.593c10.572,10.653,19.62,11.856,25.347,10.986c1.237-0.187,2.343-0.488,3.336-0.841
	c-1.159-1.383-4.621-5.868-3.749-9.157c0.317-1.193,1.241-2.128,2.735-2.798c-5.372-6.843-15.14-15.591-31.691-19.729l-0.273-0.068
	c-1.283,0.636-3.627,2.15-4.307,4.966C336.776,176.149,339.75,181.903,346.39,188.593z"/>
  <path fill="#B46329" d="M418.653,587.606c-1.892,3.399-5.354,5.332-9.228,5.182l-2.237-0.092
	c-2.53-4.032-10.694-15.349-25.426-20.631c-15.129-5.423-24.128-0.542-26.778,1.298c-3.572-4.782-12.981-1.229-15.164-0.317
	c-2.754-1.695-4.895-1.528-8.981-1.211c-1.901,0.147-4.266,0.332-7.385,0.389c-8.12,0.15-27.628,0.28-33.353-1.772
	c-4.136-1.481-7.22-0.906-8.76-0.393c-0.885-4.54-4.417-22.83-6.201-34.82c-1.949-13.106-2.389-38.152-2.553-58.507
	c-0.127-15.534,4.225-32.696,4.983-35.562c0.537-0.218,1.061-0.48,1.566-0.794c1.001,1.161,3.389,3.501,7.023,4.463
	c-9.436,34.478-3.75,68.541-1.61,81.365c0.265,1.585,0.474,2.838,0.595,3.728c0.897,6.62,6.08,25.969,8.267,33.98
	c0.707,2.596,2.98,4.448,5.654,4.609c3.475,0.208,8.76,0.021,14.211-2.056c6.069-2.312,25.977-9.351,41.456-13.686
	c-0.294,0.663-0.368,1.229,0.437,0.961c0.829-0.276,1.771-1.052,2.514-1.767c3.113-0.83,5.974-1.517,8.423-1.997
	c-0.022,1.969,0.939,2.455,0.939,2.455c1.058-1.176,4.74-2.61,7.328-3.513c11.125-0.762,24.868,0.765,33.73,7.412
	c6.387,4.79,6.548,8.772,6.087,10.706c-22.509-17.093-39.098-10.245-44.502-7.087c0.112-1.286-0.215-2.244-0.978-2.861
	c-2.508-2.023-9.049,1.081-12.538,2.992c0.094-0.892-0.128-1.596-0.666-2.105c-2.974-2.819-15.394,3.619-19.13,5.658
	c0,0,16.516-5.727,17.93-4.391c0.231,0.219,0.243,0.944-0.416,2.327l-1.255,2.632l2.495-1.51c4.208-2.549,10.863-5.552,12.484-4.245
	c0.503,0.406,0.472,1.523-0.086,3.144l-1.012,2.938l2.394-1.981c0.179-0.147,17.922-14.329,44.539,6.109l-0.229,0.336l5.056,8.205
	C420.222,580.359,420.459,584.362,418.653,587.606z M405.095,592.713c-3.005-4.445-10.861-14.322-23.923-19.006
	c-16.851-6.042-25.76,1.511-25.848,1.587l-0.85,0.744l-0.507-1.009c-2.605-5.212-13.756-0.254-13.867-0.203l-0.441,0.199
	l-0.402-0.268c-2.454-1.636-4.162-1.503-8.281-1.183c-1.924,0.15-4.318,0.336-7.488,0.395c-10.207,0.19-28.193,0.197-33.973-1.875
	c-5.12-1.834-8.262-0.135-8.393-0.062l-1.048,0.585l-0.238-1.175c-0.043-0.221-4.375-22.2-6.42-35.947
	c-1.965-13.213-2.407-38.338-2.572-58.749c-0.117-14.43,3.566-30.214,4.779-35.008c-0.633,0.12-1.273,0.187-1.913,0.187
	c-2.82,0-5.622-1.154-7.667-3.39c-4.557-4.98-6.962-10.659-7.812-12.953c-5.109,1.786-9.179,4.365-7.235,21.131
	c2.233,19.26,9.005,61.795,11.518,75.371c2.461,13.29,10.401,49.665,10.481,50.031l0.311,1.427l-1.451,0.155
	c-0.278,0.029-6.843,0.715-10.235-0.023c-1.102-0.239-2.134-0.791-3.33-1.43c-2.765-1.477-6.558-3.506-14.313-3.309
	c-10.929,0.27-22.922,8.421-26.344,15.529c-1.489,3.092-1.221,6.426,0.699,8.7c2.028,2.4,5.489,3.183,9.26,2.097
	c1.52-0.438,3.442-1.055,5.669-1.77c11.557-3.711,30.897-9.923,51.218-9.923c24.786,0,48.683,14.481,58.699,24.214
	c3.908,3.798,15.487,10.971,33.484,20.742c4.989,2.711,9.793,1.093,12.625-1.323c2.83-2.415,5.182-6.904,3.291-12.257l-2.752-7.791
	l0.157,0.047c-7.959-13.099-16.522-20.732-25.484-22.699c-8.264-1.814-13.816,2.074-13.871,2.114l-1.108,0.794l-0.257-1.338
	c-0.194-1.006-0.724-1.739-1.621-2.242c-3.843-2.158-13.198,0.548-16.479,1.773l-1.873,0.699l0.761-1.849
	c0.032-0.078,0.131-0.318-0.13-0.701c-0.574-0.841-2.516-1.809-6.155-1.741c-5.496,0.093-18.475-1.708-19.024-1.785
	c0,0,13.588,0.129,18.995,0.04c3.723-0.055,6.499,0.85,7.626,2.503c0.172,0.254,0.299,0.517,0.378,0.784
	c3.267-1.086,12.334-3.726,16.755-1.245c0.985,0.553,1.696,1.315,2.122,2.276c2.088-1.14,7.261-3.323,14.255-1.786
	c9.814,2.154,19.082,10.62,27.565,25.135l3.714,1.107c3.088,0.92,6.497,0.181,8.767-2.106c2.364-2.382,3.122-5.711,2.028-8.869
	L405.095,592.713z M259.523,569.935c1.065,0.569,1.906,1.018,2.651,1.18c2.099,0.456,5.875,0.263,7.945,0.105
	c-0.238-1.096-0.601-2.765-1.051-4.843c-22.771-2.979-30.716-0.639-33.479,1.382c2.725-0.851,5.535-1.373,8.321-1.442
	C252.349,566.108,256.672,568.411,259.523,569.935z"/>
  <g>
	<path fill="#29397A" d="M408.028,86.929c-4.295-4.678-9.706-8.317-13.339-10.164c-15.276-7.762-49.152-15.146-68.483-2.702
		c-1.186,0.764-12.835,7.193-22.372,15.982c4.116-7.372,10.764-12.254,16.908-15.953c4.165-2.508,7.922-5.652,10.995-9.419
		c2.337-2.863,3.94-5.45,3.435-6.335c-0.061-0.108-1.74-2.562-21.262,6.251c-16.744,7.56-26.943,18.492-29.497,31.614
		c-1.238,6.364,1.151,17.645,1.159,17.67c0,0-5.402-10.335-6.181-17.086c-0.461-4.001-1.78-9.192-3.917-15.43
		c-0.631-1.841-2.218-2.498-3.493-2.5c-0.002,0-0.003,0-0.004,0c-1.272,0-2.855,0.652-3.487,2.486
		c-4.949,14.336-7.435,34.242,8.829,47.666c26.366,21.762,40.252,43.574,40.389,43.792l1.264,2.007h-2.372
		c-0.068,0-0.078,0-0.139,0.084c-1.749,2.441,1.633,16.128,4.933,26.364c1.948-3.366,6.202-8.981,13.097-9.465
		c6.284-0.441,9.969-0.246,13.283,0.501c-0.865-0.769-1.737-1.578-2.621-2.469c-7.2-7.256-11.671-14.85-10.48-19.737
		c0.765-3.135,3.074-4.923,4.681-5.821c-1.923-1.148-5.479-2.313-11.884-1.998c-0.36,1.597-0.576,3.51-0.578,5.248
		c-0.004,3.577,1.023,8.139,3.011,12.034c-0.922-0.355-2.21-1.59-3.316-3.392c-1.115-1.795-1.968-4.19-2.293-6.562
		c-0.132-0.949-0.046-2.49,0.105-4.004c0.285-2.852,0.051-5.733-0.78-8.476c-0.216-0.714-0.433-1.492-0.634-2.315
		c-1.017-4.155-1.648-9.477,0.086-13.716c1.154-2.821,3.203-4.829,6.09-5.971c6.912-2.733,15.751-4.505,21.994-5.516
		c1.302-0.211,2.482-0.975,3.095-2.143c0.712-1.357,0.641-2.891-0.179-4.158l-0.277-0.428c-0.512-0.247-1.208-0.583-2.077-1.003
		c-0.964-0.426-2.177-0.813-3.516-1.331c-0.694-0.181-1.429-0.372-2.199-0.572c-0.387-0.091-0.773-0.227-1.183-0.29
		c-0.41-0.065-0.827-0.131-1.252-0.199c-3.391-0.578-7.366-0.621-11.368,0.048c-2.005,0.309-4.007,0.823-5.953,1.451
		c-1.948,0.628-3.839,1.385-5.589,2.299c1.18-1.131,3.855-2.797,7.404-4.072c3.527-1.324,7.976-2.068,12.218-1.893
		c0.53,0.026,1.057,0.052,1.579,0.078c0.523,0.015,1.031,0.134,1.538,0.196c1.009,0.163,2.006,0.257,2.924,0.538
		c0.923,0.249,1.822,0.447,2.642,0.714c0.807,0.305,1.565,0.592,2.261,0.855c0.346,0.135,0.683,0.252,0.991,0.386
		c0.3,0.152,0.584,0.296,0.85,0.432c0.531,0.271,0.992,0.507,1.37,0.7c0.022,0.011,0.037,0.019,0.059,0.03l24.151,1.366
		c1.953,0.107,3.169-1.155,3.616-2.38c0.447-1.224,0.359-2.957-1.23-4.15l-9.167-6.888c-0.223-0.105-0.461-0.209-0.719-0.308
		c-0.531-0.227-1.117-0.478-1.75-0.749c-0.655-0.228-1.359-0.474-2.107-0.734c-0.74-0.281-1.557-0.495-2.403-0.741
		c-0.845-0.252-1.732-0.505-2.668-0.714c-7.439-1.863-17.252-3.088-25.837-3.848c3.509-0.6,13.513-0.429,22.49,1.259
		c3.114,0.564,6.082,1.327,8.614,2.154l0.194-0.583c0.32-0.961,0.891-1.782,1.614-2.426c-0.171-0.141-0.352-0.291-0.555-0.458
		c-0.538-0.458-1.244-0.932-2.004-1.519c-0.376-0.301-0.818-0.553-1.255-0.856c-0.446-0.288-0.893-0.623-1.397-0.9
		c-3.896-2.44-9.411-4.748-14.658-5.367c1.062-0.342,3.184-0.417,5.669,0.014c2.485,0.425,5.319,1.363,7.839,2.63
		c2.526,1.259,4.74,2.793,6.277,4.027c0.715,0.551,1.254,1.067,1.671,1.43c0.658-0.276,1.368-0.445,2.111-0.455l30.128-0.378
		c3.36-0.042,6.06-1.673,7.221-4.361C411.594,93.378,410.733,89.875,408.028,86.929z"/>
    <path fill="#29397A" d="M256.556,382.549c-5.479-0.814-11.222-3.449-14.609-5.221c5.188,0.122,14.843,0.409,19.717,0.931
		C259.723,379.57,257.956,381.005,256.556,382.549z M273.127,372.297c-7.2,0.152-11.867-0.94-12.21-1.024l-0.199-0.049h-14.416
		c-1.035,1.286-2.496,3.024-3.959,4.365c6.147,0.146,17.8,0.511,21.595,1.23C266.993,375.005,270.271,373.48,273.127,372.297z
		 M253.408,390.484c-0.255-2.262,0.495-4.395,1.889-6.373c-7.059-1.296-18.172-7.035-19.792-7.787
		c-3.489-1.623-9.988-4.644-13.082-4.454c-1.49,0.09-2.516,0.698-2.815,1.669c-0.379,1.231,0.438,2.812,2.134,4.125l0.811,0.631
		c4.725,3.687,19.03,14.845,36.148,21.98C255.688,397.763,253.87,394.577,253.408,390.484z M303.204,365.525
		c-2.939,0.84-5.712,1.716-8.178,2.619c-5.754,2.109-11.162,3.223-15.905,3.754c-6.574,2.287-24.981,9.51-23.979,18.389
		c1.162,10.289,11.591,14.996,38.482,17.369c12.36,1.09,23.178-2.028,30.463-8.78c5.436-5.039,8.505-11.878,8.42-18.765
		C332.343,366.454,313.011,365.627,303.204,365.525z"/>
</g>
  <g>
	<path fill="#69A5B7" d="M252.967,269.809c-0.776-22.246-3.378-37.217-4.866-44.186c-0.574-2.687-1.486-5.287-2.724-7.739
		C176.49,81.425,117.985,43.712,89.744,25.504c-12.118-7.813-34.457-14.69-51.322-18.521C15.004,1.664,3.538,2.07,2.599,3.47h0
		c0.026,0,0.25,1.422,6.219,4.837c109.677,62.753,141.223,103.921,141.529,104.33c0,0-29.713-24.471-39.305-26.07
		c-1.486-0.248-4.094-0.462-4.851,0.883c-0.991,1.762,0.627,6.588,5.637,12.399c6.259,7.26,33.761,34.548,49.921,48.766
		c2.674,2.029,7.156,7.725,7.156,7.725c-1.683-1.347-5.616-4.622-8.042-6.265c-4.778-3.237-8.862-4.741-10.308-4.019
		c-0.568,0.284-0.857,0.726-0.937,1.432c-0.32,2.812,2.857,8.03,6.935,11.395c1.907,1.573,5.581,3.495,9.835,5.72
		c7.854,4.108,17.63,9.222,23.015,15.627l7.85,9.34l-9.653-7.462c-0.27-0.208-27.204-20.876-48.497-24.288
		c-15.469-2.479-23.744-2.433-26.835,0.151c-1.007,0.842-1.491,1.996-1.523,3.632c-0.106,5.363,12.551,14.513,24.515,20.4
		c1.881,0.925,5.875,2.616,10.931,4.757c10.506,4.448,26.11,11.054,39.964,18.047c2.05,0.912,4.369,2.144,6.763,3.528
		c7.947,4.298,14.825,8.628,19.097,12.595c0,0-14.973-7.166-20.626-10.456c-2.449-1.319-5.003-2.637-7.614-3.94
		c-1.571-0.644-2.708-0.92-3.268-0.73c-3.236,5.718,2.728,11.188,18.531,25.679c2.971,2.725,6.264,5.745,9.883,9.125
		c5.138,4.546,11.321,10.361,14.687,15.972c0,0-11.395-9.304-15.734-13.367c-4.606-4.151-8.257-7.088-9.495-7.381
		c-0.045,0.082-0.193,0.385-0.242,1.012c-0.286,3.716,5.648,15.341,17.71,32.266c0,0-14.606-9.926-16.149-9.518
		c-0.574,1.367,0.854,9.683,38.56,59.69l2.829,3.752c0.354,0.47-0.219,1.075-0.707,0.746l-3.898-2.624
		c-0.845-0.569-20.068-13.561-31.272-25.375c-1.456,4.097-3.478,14.977,9.346,27.272c11.202,10.74,19.666,16.119,23.988,18.483
		c1.01,0.458,2.121,1.001,3.344,1.64c0,0-1.907,0.623-5.189-0.383c-2.857-0.875-4.4-0.869-5.458-0.89
		c0.09,0.239,0.269,0.613,0.623,1.165c4.528,7.059,14.328,23.433,15.385,25.85l0.246,0.563h11.967
		c-5.573-11.391-5.833-43.765-6.061-72.458C253.32,287.133,253.246,277.794,252.967,269.809z"/>
    <path fill="#69A5B7" d="M316.963,424.014c0.018,0.039,0.426,0.954-0.149,2.186c-0.683,1.461-2.794,3.555-8.976,5.235
		c-10.724,2.914-17.979,9.405-20.462,11.895c-3.443-0.658-5.792-2.847-6.797-3.962c3.024-2.162,7.294-4.792,11.723-6.114
		c8.905-2.658,14.63-4.637,18.324-10.659c1.992,0.342,4.026,0.647,6.101,0.907L316.963,424.014z M370.961,280.87
		c-0.615-13.573-2.124-27.1-4.768-40.669c-0.09-0.464-0.171-0.928-0.264-1.393c-0.653-3.275-1.424-6.543-2.339-9.816
		c-0.017-0.06-0.036-0.12-0.052-0.181c-6.866,2.385-12.667,3.969-17.573,4.897c0.486,0.83,0.967,1.67,1.434,2.532
		c0.742,1.357,1.455,2.749,2.148,4.161c0.589,1.2,1.165,2.414,1.717,3.646c5.198,11.509,8.254,24.411,9.031,37.454
		c0.421,6.993,0.328,14.029-0.251,21.018c-0.552,6.52-1.578,13.001-3.227,19.296c-1.623,6.297-3.672,12.451-6.289,18.316
		c-1.142,2.758-2.486,5.431-3.763,8.107c-0.6,1.309-1.306,2.575-1.975,3.851c-0.019,0.036-0.038,0.072-0.057,0.108l-0.771,1.646
		c-0.794,1.693-2.263,2.983-4.051,3.532c-0.165,0.051-0.322,0.097-0.466,0.138c-0.708,0.199-1.427,0.372-2.162,0.503
		c-7.059,1.252-18.121,3.367-28.308,5.959c10.521,0.643,25.126,3.434,25.28,16.117c0.09,7.379-3.182,14.694-8.979,20.067
		c-6.66,6.173-16.08,9.459-26.887,9.459c-1.61,0-3.249-0.073-4.916-0.22c-11.807-1.042-21.444-2.533-28.319-5.375
		c0.404,0.324,0.809,0.647,1.19,0.996l0.948,0.869c7.29,3.973,27.416,13.747,53.039,16.265l0,0.005
		c5.403-0.229,19.99-2.728,28.095-22.224c3.892-9.362,7.983-21.246,11.569-32.932c0.323-1.054,0.639-2.104,0.954-3.153
		c0.463-1.935,1.031-4.198,1.031-4.198c0.417-1.597,0.872-3.172,1.215-4.794c0.726-3.225,1.498-6.412,2.056-9.666
		c1.362-6.918,2.423-13.884,3.36-20.836c0.961-6.951,1.602-13.94,2.085-20.934C371.199,295.921,371.297,288.389,370.961,280.87z
		 M308.779,422.265c-16.254-3.02-29.476-8.473-37.371-12.305c1.183,1.962,1.022,4.538-0.578,6.33
		c-2.883,3.23-7.102,7.332-10.945,8.722c0.824,2.189,3.158,7.66,7.443,12.344c2.993,3.269,7.922,3.761,11.467,1.144
		c3.152-2.326,7.967-5.415,13.007-6.92C300.249,429.059,305.401,427.313,308.779,422.265z"/>
</g>
  <g>
</g>
  <g>
</g>
  <g>
</g>
  <g>
</g>
  <g>
</g>
</svg>
