<svg height="66" viewBox="0 0 48 66" width="48" xmlns="http://www.w3.org/2000/svg"><path d="m10.4184401 8.88935391c.3096197-1.00691872 1.3057057-1.66700044 2.3794645-1.54191169.2964287.03555292.5844874.15515188.8698009.25194209 4.0284034 1.36016047 7.9988201 2.86370899 11.8747572 4.59822079 5.0114324 2.244866 9.6627579 5.0565527 13.6808495 8.7656892 4.9889341 4.6056058 7.8677808 10.2154508 8.0908221 16.997431.0317387 1.0060038-.087114 2.0156674-.134722 3.0235011-.5987498 3.8414795-2.1166494 7.3105031-4.30528 10.5184349-1.5255329 2.236566-3.2895079 4.2924265-5.3435503 6.074451-2.6853345 2.3279318-5.4623361 4.5526686-8.2064608 6.8139387-.3236811.2656665-.6744807.5157787-1.050457.7038693-.9689675.4829053-2.1699489.2035797-2.7881169-.6079941-.6537903-.8617661-.6079901-1.9609655.1804553-2.7715589.3722935-.3843506.8427493-.6800803 1.2608429-1.0233881 2.2840476-1.8732597 4.5952136-3.7182861 6.8380812-5.6371633 1.974361-1.6879139 3.7177794-3.5977068 5.2115737-5.7119943 1.3225794-1.8714297 2.3420343-3.8843522 3.0556861-6.0524919 1.5647711-4.7571632.8361873-9.2842781-1.490915-13.6159827-1.2523392-2.3334216-2.9536402-4.3445141-4.9917464-6.0954953-4.1594427-3.5721531-8.8752499-6.2506471-13.9671004-8.3137619-2.8639817-1.160306-5.7783838-2.2074179-8.6685466-3.3074669-.5097609-.1935151-1.0438281-.3523922-1.5161587-.6134839-.9034814-.4975448-1.2729626-1.49720911-.9792793-2.45478509zm-1.72426551-8.26849884.44594202.01067264c1.08899349.04665589 2.17331079.166059 3.59998439.28006391 1.5040962.35820932 3.3264335.79173642 5.1479023 1.2280269.176422.04222165.3499047.09781029.5179098.1642596 1.3539271.52696743 1.9184642 1.57010588 1.5013574 2.76844266-.3862447 1.1104232-1.4340886 1.61669751-2.7880824 1.31420536-.7072913-.1588614-1.3950099-.41199856-2.1069773-.54399748-1.7822564-.3276195-3.5645129-.69926007-5.36721059-.87971428-.99941302-.1005094-2.06402402.03952256-3.05221443.26573296-1.55179229.35364656-2.248863 1.3330348-2.04164562 2.84022591.1259871.9094044.37228319 1.84657099.78190825 2.67056815.65218029 1.3088071 1.41738824 2.5790557 2.26182243 3.7827907.98344753 1.4012835 2.10697721 2.7091909 3.15856196 4.064654.2874457.3708051.5953993.7469442.7856491 1.1660118.4124308.9002789.0774226 1.9074936-.7521149 2.4811169-.738955.5107728-1.8176611.5233686-2.55481254-.0080973-.28737884-.2073167-.55050884-.4641169-.76420593-.7414818-1.51812447-1.9667452-3.07552806-3.906628-4.50220167-5.9335889-.77542853-1.1032256-1.35392708-2.3419847-1.95019475-3.5520818-.57669491-1.168711-.85565679-2.42629944-.95178375-3.71807655-.25190739-3.41474893 1.70670431-6.15086664 5.12746107-7.15628193 1.28766027-.37787421 2.60892155-.55023112 3.94888718-.49277881z" fill="#bbd480" transform="matrix(-1 0 0 1 48 0)"/></svg>