<svg viewBox="0 0 1059 1059" version="1.1" xmlns="http://www.w3.org/2000/svg" xmlns:xlink="http://www.w3.org/1999/xlink">
    <g id="Artboard" stroke="none" stroke-width="1" fill="none" fill-rule="evenodd">
        <g id="abstract-156457" transform="translate(-227.000000, -227.000000)" fill="currentColor" fill-rule="nonzero">
            <path d="M757,763 L757,1511.97574 C725.640194,1512.22589 694.17472,1510.54338 662.770773,1506.85217 L660,1506.52126 L757,763 Z M759,762 L953,1487.31038 C922.936634,1495.59356 892.123705,1502.07699 860.685803,1506.6055 L857.910251,1507 L759,762 Z M756,763 L561.440927,1488 C531.18647,1480.11552 501.179254,1470.30036 471.608084,1458.48037 L469,1457.43222 L756,763 Z M760,762 L1135,1410.312 L1132.61212,1411.70788 C1106.31525,1427.01538 1079.02254,1440.79247 1050.83171,1452.90358 L1048.26644,1454 L760,762 Z M755,763 L380.225899,1412 C352.957863,1396.54777 326.565939,1379.37009 301.232548,1360.48223 L299,1358.81122 L755,763 Z M761,761 L1291.999,1291.389 L1290.06004,1293.34495 C1268.67618,1314.83168 1245.83066,1335.19996 1221.55455,1354.26995 L1219.34369,1356 L761,761 Z M753,762 L222.609,1293 L220.654356,1291.06004 C199.168302,1269.67618 178.800037,1246.83066 159.730053,1222.55455 L158,1220.34369 L753,762 Z M1292,1291.38854 L1292,1291.3908 L1291.999,1291.389 L1292,1291.38854 Z M762,759 L1411,1133.7741 C1395.54777,1161.04214 1378.37009,1187.43406 1359.48223,1212.76745 L1357.81122,1215 L762,759 Z M751,757 L100.482701,1133 C84.9837236,1105.67814 71.1250691,1077.30777 59.0599142,1048.00268 L58,1045.41451 L751,757 Z M763,756 L1488,950.559073 C1480.11552,980.81353 1470.30036,1010.82075 1458.48037,1040.39192 L1457.43222,1043 L763,756 Z M750.948,756.014 L27.1578247,950 C19.3662929,919.847885 13.3905881,888.974719 9.35137279,857.484428 L9,854.704274 L750.948,756.014 Z M1511.97574,755 C1512.22589,786.359806 1510.54338,817.824566 1506.85217,849.229166 L1506.52126,852 L763,755 L1511.97574,755 Z M751,756 L751,756.007558 L750.948,756.014 L751,756 Z M1488.31,560 L1489.03657,562.654592 C1496.97324,591.876432 1503.21018,621.800939 1507.6055,652.314197 L1508,655.089749 L763,754 L1488.31,560 Z M6.95402567,657 L751,753.969761 L751,753.971273 L0,754 C0.230931555,721.695394 2.52074454,689.298558 6.95402567,657 Z M763.002,752.999 L1292.55698,224 C1314.40519,246.217959 1335.03971,269.965704 1354.30379,295.216213 L1356,297.448099 L764.217,752.296 L1411.312,378 L1412.70788,380.387878 C1428.01538,406.684748 1441.79247,433.97746 1453.90358,462.168287 L1455,464.733561 L763.657,752.726 L762,754 L763.002,752.999 L1292.55698,224 Z M59.9197261,467 L752,752.992432 L752,753 L28,558.738562 C36.5733958,527.800069 47.1934027,497.16732 59.9197261,467 Z M155.568535,296 L752,752 L101,376.52039 C117.365567,348.661786 135.562897,321.75186 155.568535,296 Z M296.448099,157 L753,751 L223,220.443019 C245.871429,197.952212 270.363953,176.747546 296.448099,157 Z M953.261438,27 C983.315974,35.3284417 1013.08199,45.5882159 1042.41309,57.8340553 L1045,58.9197261 L759.007568,751 L759,751 L953.261438,27 Z M758,0 C789.381617,0.224260079 820.850269,2.39157461 852.231316,6.5792773 L855,6.95402567 L758.030239,751 L758.028727,751 L758,0 Z M755.984,749.941 L756,750 L755.992442,750 L755.984,749.941 Z M466.585491,57 L755,750 L379,99.4830715 C407.125448,83.5281029 436.361987,69.3113806 466.585491,57 Z M657.295726,8 L755.984,749.941 L562,26.1578247 C592.152115,18.3662929 623.025281,12.3905881 654.515572,8.35137279 L657.295726,8 Z M1136.47961,102 C1164.33821,118.366323 1191.24814,136.562897 1217,156.568535 L1217,156.568535 L761.001,752.999 Z" id="Combined-Shape"></path>
        </g>
    </g>
</svg>
