<svg viewBox="0 0 91 71" width="91" xmlns="http://www.w3.org/2000/svg" xmlns:xlink="http://www.w3.org/1999/xlink"><linearGradient id="a" x1="-4.924175%" x2="103.059151%" y1="14.405962%" y2="85.331452%"><stop offset="0" stop-color="#ffeea4"/><stop offset=".35406989" stop-color="#ffd96b"/><stop offset=".687077703" stop-color="#d6bc73"/><stop offset="1" stop-color="#ccb779"/></linearGradient><path d="m84.7645644 55.1097255-1.5025246 9.3918258c-.5967773 3.7448687-3.826147 6.4984487-7.6099694 6.4984487h-60.3041408c-3.7838224 0-7.01319208-2.75358-7.60996944-6.4984487l-1.50252457-9.3918258zm-39.2645644-55.1097255c1.570244 0 3.0685361.68204057 4.1012572 1.86819809l16.9129244 19.40214801 16.1383835-10.2009547c1.8072619-1.13955846 4.1139546-1.11837708 5.9000542.0593079 1.7860996 1.1776849 2.7172416 3.2958234 2.3786445 5.4097255l-5.1509081 32.2168855h-80.56071136l-5.15090815-32.2168855c-.33859708-2.1139021.5925449-4.2320406 2.37864452-5.4097255 1.78609962-1.17768498 4.09279226-1.19886636 5.9000542-.0593079l16.13838349 10.2009547 16.9129244-19.40214801c1.0327211-1.18615752 2.5310132-1.86819809 4.1012572-1.86819809zm7.5 25h-17v17.7965727l8.4008024-8.6138817 8.5991976 8.817309zm15.5 0-10.5 18h21zm-38.549769 2.416413c-3.4237843-4.0296154-9.4861406-4.5725494-13.5406518-1.2126771s-4.5658164 9.3502357-1.1420322 13.3798511c3.4237843 4.0296154 9.4861406 4.5725494 13.5406518 1.2126771.0076744-.0063596.0153362-.0127287.0229853-.0191071l-6.1492771-7.2373783 7.318093-6.0643212c-.0164963-.0197277-.0330859-.0394094-.049769-.0590445z" fill="url(#a)" fill-rule="evenodd"/></svg>