<?xml version="1.0" encoding="UTF-8"?>
<svg width="349px" height="303px" viewBox="0 0 349 303" version="1.1" xmlns="http://www.w3.org/2000/svg" xmlns:xlink="http://www.w3.org/1999/xlink">
    <defs>
        <circle id="path-1" cx="151.065" cy="151.065" r="151.065" />
    </defs>
    <g id="business" stroke="none" stroke-width="1" fill="none" fill-rule="evenodd">
        <g id="business-3" transform="translate(-755.000000, -145.000000)">
            <g id="Group-6" transform="translate(755.000000, 145.000000)">
                <g id="Group-2">
                    <mask id="mask-2" fill="white">
                        <use xlink:href="#path-1"></use>
                    </mask>
                    <use id="Mask" fill="#2C2C35" xlink:href="#path-1"></use>
                    <g id="skyscraper" mask="url(#mask-2)">
                        <g transform="translate(61.500000, 178.640000) scale(-1, 1) translate(-61.500000, -178.640000) translate(6.000000, 121.640000)">
                            <polygon id="Path" fill="#FFFFFF" fill-rule="nonzero" points="73.23 28.114386 73.23 0.36 69.23 0.36 41.23 18.2021053 41.23 40.0091228 25.23 49.9214035 25.23 113.36 73.23 113.36 73.23 57.8512281 81.23 57.8512281 81.23 34.0617544"></polygon>
                            <g id="Group" stroke-width="1" fill="none" fill-rule="evenodd" transform="translate(31.230000, 16.360000)">
                                <path d="M27.1224043,86.8095489 L27.1224043,90.7554375 L23.2477751,90.7554375 L23.2477751,86.8095489 L27.1224043,86.8095489 Z M34.8716627,86.8095489 L34.8716627,90.7554375 L30.9970335,90.7554375 L30.9970335,86.8095489 L34.8716627,86.8095489 Z M19.3731459,86.8095489 L19.3731459,90.7554375 L15.4985167,90.7554375 L15.4985167,86.8095489 L19.3731459,86.8095489 Z M11.6238876,86.8095489 L11.6238876,90.7554375 L7.74925837,90.7554375 L7.74925837,86.8095489 L11.6238876,86.8095489 Z M19.3731459,78.9177717 L19.3731459,82.8636603 L15.4985167,82.8636603 L15.4985167,78.9177717 L19.3731459,78.9177717 Z M27.1224043,78.9177717 L27.1224043,82.8636603 L23.2477751,82.8636603 L23.2477751,78.9177717 L27.1224043,78.9177717 Z M11.6238876,78.9177717 L11.6238876,82.8636603 L7.74925837,82.8636603 L7.74925837,78.9177717 L11.6238876,78.9177717 Z M34.8716627,78.9177717 L34.8716627,82.8636603 L30.9970335,82.8636603 L30.9970335,78.9177717 L34.8716627,78.9177717 Z M27.1224043,71.0259946 L27.1224043,74.9718832 L23.2477751,74.9718832 L23.2477751,71.0259946 L27.1224043,71.0259946 Z M34.8716627,71.0259946 L34.8716627,74.9718832 L30.9970335,74.9718832 L30.9970335,71.0259946 L34.8716627,71.0259946 Z M19.3731459,71.0259946 L19.3731459,74.9718832 L15.4985167,74.9718832 L15.4985167,71.0259946 L19.3731459,71.0259946 Z M11.6238876,71.0259946 L11.6238876,74.9718832 L7.74925837,74.9718832 L7.74925837,71.0259946 L11.6238876,71.0259946 Z M27.1224043,63.1342174 L27.1224043,67.080106 L23.2477751,67.080106 L23.2477751,63.1342174 L27.1224043,63.1342174 Z M34.8716627,63.1342174 L34.8716627,67.080106 L30.9970335,67.080106 L30.9970335,63.1342174 L34.8716627,63.1342174 Z M19.3731459,63.1342174 L19.3731459,67.080106 L15.4985167,67.080106 L15.4985167,63.1342174 L19.3731459,63.1342174 Z M11.6238876,63.1342174 L11.6238876,67.080106 L7.74925837,67.080106 L7.74925837,63.1342174 L11.6238876,63.1342174 Z M27.1224043,55.2424402 L27.1224043,59.1883288 L23.2477751,59.1883288 L23.2477751,55.2424402 L27.1224043,55.2424402 Z M34.8716627,55.2424402 L34.8716627,59.1883288 L30.9970335,59.1883288 L30.9970335,55.2424402 L34.8716627,55.2424402 Z M19.3731459,55.2424402 L19.3731459,59.1883288 L15.4985167,59.1883288 L15.4985167,55.2424402 L19.3731459,55.2424402 Z M11.6238876,55.2424402 L11.6238876,59.1883288 L7.74925837,59.1883288 L7.74925837,55.2424402 L11.6238876,55.2424402 Z M3.87462919,55.2424402 L3.87462919,59.1883288 L3.10862447e-15,59.1883288 L3.10862447e-15,55.2424402 L3.87462919,55.2424402 Z M19.3731459,47.350663 L19.3731459,51.2965516 L15.4985167,51.2965516 L15.4985167,47.350663 L19.3731459,47.350663 Z M27.1224043,47.350663 L27.1224043,51.2965516 L23.2477751,51.2965516 L23.2477751,47.350663 L27.1224043,47.350663 Z M11.6238876,47.350663 L11.6238876,51.2965516 L7.74925837,51.2965516 L7.74925837,47.350663 L11.6238876,47.350663 Z M34.8716627,47.350663 L34.8716627,51.2965516 L30.9970335,51.2965516 L30.9970335,47.350663 L34.8716627,47.350663 Z M3.87462919,47.350663 L3.87462919,51.2965516 L3.10862447e-15,51.2965516 L3.10862447e-15,47.350663 L3.87462919,47.350663 Z M19.3731459,39.4588859 L19.3731459,43.4047745 L15.4985167,43.4047745 L15.4985167,39.4588859 L19.3731459,39.4588859 Z M34.8716627,39.4588859 L34.8716627,43.4047745 L30.9970335,43.4047745 L30.9970335,39.4588859 L34.8716627,39.4588859 Z M27.1224043,39.4588859 L27.1224043,43.4047745 L23.2477751,43.4047745 L23.2477751,39.4588859 L27.1224043,39.4588859 Z M11.6238876,39.4588859 L11.6238876,43.4047745 L7.74925837,43.4047745 L7.74925837,39.4588859 L11.6238876,39.4588859 Z M3.87462919,39.4588859 L3.87462919,43.4047745 L3.10862447e-15,43.4047745 L3.10862447e-15,39.4588859 L3.87462919,39.4588859 Z M19.3731459,31.5671087 L19.3731459,35.5129973 L15.4985167,35.5129973 L15.4985167,31.5671087 L19.3731459,31.5671087 Z M42.6209211,31.5671087 L42.6209211,35.5129973 L38.7462919,35.5129973 L38.7462919,31.5671087 L42.6209211,31.5671087 Z M34.8716627,31.5671087 L34.8716627,35.5129973 L30.9970335,35.5129973 L30.9970335,31.5671087 L34.8716627,31.5671087 Z M27.1224043,31.5671087 L27.1224043,35.5129973 L23.2477751,35.5129973 L23.2477751,31.5671087 L27.1224043,31.5671087 Z M11.6238876,31.5671087 L11.6238876,35.5129973 L7.74925837,35.5129973 L7.74925837,31.5671087 L11.6238876,31.5671087 Z M27.1224043,23.6753315 L27.1224043,27.6212201 L23.2477751,27.6212201 L23.2477751,23.6753315 L27.1224043,23.6753315 Z M34.8716627,23.6753315 L34.8716627,27.6212201 L30.9970335,27.6212201 L30.9970335,23.6753315 L34.8716627,23.6753315 Z M42.6209211,23.6753315 L42.6209211,27.6212201 L38.7462919,27.6212201 L38.7462919,23.6753315 L42.6209211,23.6753315 Z M19.3731459,23.6753315 L19.3731459,27.6212201 L15.4985167,27.6212201 L15.4985167,23.6753315 L19.3731459,23.6753315 Z M27.1224043,15.7835543 L27.1224043,19.7294429 L23.2477751,19.7294429 L23.2477751,15.7835543 L27.1224043,15.7835543 Z M34.8716627,15.7835543 L34.8716627,19.7294429 L30.9970335,19.7294429 L30.9970335,15.7835543 L34.8716627,15.7835543 Z M19.3731459,15.7835543 L19.3731459,19.7294429 L15.4985167,19.7294429 L15.4985167,15.7835543 L19.3731459,15.7835543 Z M27.1224043,7.89177717 L27.1224043,11.8376658 L23.2477751,11.8376658 L23.2477751,7.89177717 L27.1224043,7.89177717 Z M34.8716627,7.89177717 L34.8716627,11.8376658 L30.9970335,11.8376658 L30.9970335,7.89177717 L34.8716627,7.89177717 Z M19.3731459,7.89177717 L19.3731459,11.8376658 L15.4985167,11.8376658 L15.4985167,7.89177717 L19.3731459,7.89177717 Z M27.1224043,3.10862447e-15 L27.1224043,3.94588859 L23.2477751,3.94588859 L23.2477751,3.10862447e-15 L27.1224043,3.10862447e-15 Z M34.8716627,3.10862447e-15 L34.8716627,3.94588859 L30.9970335,3.94588859 L30.9970335,3.10862447e-15 L34.8716627,3.10862447e-15 Z" id="Combined-Shape" fill="#00FDDD" fill-rule="nonzero"></path>
                            </g>
                            <g id="Group" stroke-width="1" fill="none" fill-rule="evenodd" transform="translate(70.230000, 48.360000)">
                                <rect id="Rectangle" fill="#00FDDD" fill-rule="nonzero" x="9.86086957" y="0" width="19.7217391" height="7.82466403"></rect>
                                <rect id="Rectangle" fill="#00FDDD" fill-rule="nonzero" x="0" y="7.82466403" width="39.4434783" height="56.7288142"></rect>
                            </g>
                            <g id="Group" stroke-width="1" fill="none" fill-rule="evenodd" transform="translate(80.230000, 63.360000)">
                                <path d="M19.44,39.974026 L19.44,43.9714286 L-1.0658141e-14,43.9714286 L-1.0658141e-14,39.974026 L19.44,39.974026 Z M19.44,31.9792208 L19.44,35.9766234 L-1.0658141e-14,35.9766234 L-1.0658141e-14,31.9792208 L19.44,31.9792208 Z M19.44,23.9844156 L19.44,27.9818182 L-1.0658141e-14,27.9818182 L-1.0658141e-14,23.9844156 L19.44,23.9844156 Z M19.44,15.9896104 L19.44,19.987013 L-1.0658141e-14,19.987013 L-1.0658141e-14,15.9896104 L19.44,15.9896104 Z M19.44,7.99480519 L19.44,11.9922078 L-1.0658141e-14,11.9922078 L-1.0658141e-14,7.99480519 L19.44,7.99480519 Z M19.44,-8.8817842e-16 L19.44,3.9974026 L-1.0658141e-14,3.9974026 L-1.0658141e-14,-8.8817842e-16 L19.44,-8.8817842e-16 Z" id="Combined-Shape" fill="#FFFFFF" fill-rule="nonzero"></path>
                            </g>
                            <g id="Group-3" stroke-width="1" fill="none" fill-rule="evenodd" transform="translate(0.230000, 40.360000)">
                                <path d="M15.345,0.05703125 C15.345,0.05703125 0.132037037,35.1797266 0.132037037,46.6800781 C0.132037037,55.3830469 6.82574074,62.2210938 15.345,62.2210938 C23.8642593,62.2210938 30.557963,55.3830469 30.557963,46.6800781 C30.557963,35.1797266 15.345,0.05703125 15.345,0.05703125 Z" id="Path" fill="#00FDDD" fill-rule="nonzero"></path>
                                <rect id="Rectangle" fill="#26B4A3" fill-rule="nonzero" x="12.7616667" y="43.4007812" width="6.31481481" height="29.0859375"></rect>
                            </g>
                        </g>
                    </g>
                    <g id="skyscraper" mask="url(#mask-2)">
                        <g transform="translate(176.000000, 111.000000)">
                            <polygon id="Path" fill="#FFFFFF" fill-rule="nonzero" points="52.9157143 30.4389474 52.9157143 0 48.5185714 0 17.7385714 19.5678947 17.7385714 43.4842105 0.15 54.3552632 0.15 123.93 52.9157143 123.93 52.9157143 63.0521053 61.71 63.0521053 61.71 36.9615789"></polygon>
                            <g id="Group" stroke-width="1" fill="none" fill-rule="evenodd" transform="translate(5.820000, 17.010000)">
                                <path d="M29.8963636,95.2982609 L29.8963636,99.63 L25.6254545,99.63 L25.6254545,95.2982609 L29.8963636,95.2982609 Z M38.4381818,95.2982609 L38.4381818,99.63 L34.1672727,99.63 L34.1672727,95.2982609 L38.4381818,95.2982609 Z M21.3545455,95.2982609 L21.3545455,99.63 L17.0836364,99.63 L17.0836364,95.2982609 L21.3545455,95.2982609 Z M12.8127273,95.2982609 L12.8127273,99.63 L8.54181818,99.63 L8.54181818,95.2982609 L12.8127273,95.2982609 Z M21.3545455,86.6347826 L21.3545455,90.9665217 L17.0836364,90.9665217 L17.0836364,86.6347826 L21.3545455,86.6347826 Z M29.8963636,86.6347826 L29.8963636,90.9665217 L25.6254545,90.9665217 L25.6254545,86.6347826 L29.8963636,86.6347826 Z M12.8127273,86.6347826 L12.8127273,90.9665217 L8.54181818,90.9665217 L8.54181818,86.6347826 L12.8127273,86.6347826 Z M38.4381818,86.6347826 L38.4381818,90.9665217 L34.1672727,90.9665217 L34.1672727,86.6347826 L38.4381818,86.6347826 Z M29.8963636,77.9713043 L29.8963636,82.3030435 L25.6254545,82.3030435 L25.6254545,77.9713043 L29.8963636,77.9713043 Z M38.4381818,77.9713043 L38.4381818,82.3030435 L34.1672727,82.3030435 L34.1672727,77.9713043 L38.4381818,77.9713043 Z M21.3545455,77.9713043 L21.3545455,82.3030435 L17.0836364,82.3030435 L17.0836364,77.9713043 L21.3545455,77.9713043 Z M12.8127273,77.9713043 L12.8127273,82.3030435 L8.54181818,82.3030435 L8.54181818,77.9713043 L12.8127273,77.9713043 Z M29.8963636,69.3078261 L29.8963636,73.6395652 L25.6254545,73.6395652 L25.6254545,69.3078261 L29.8963636,69.3078261 Z M38.4381818,69.3078261 L38.4381818,73.6395652 L34.1672727,73.6395652 L34.1672727,69.3078261 L38.4381818,69.3078261 Z M21.3545455,69.3078261 L21.3545455,73.6395652 L17.0836364,73.6395652 L17.0836364,69.3078261 L21.3545455,69.3078261 Z M12.8127273,69.3078261 L12.8127273,73.6395652 L8.54181818,73.6395652 L8.54181818,69.3078261 L12.8127273,69.3078261 Z M29.8963636,60.6443478 L29.8963636,64.976087 L25.6254545,64.976087 L25.6254545,60.6443478 L29.8963636,60.6443478 Z M38.4381818,60.6443478 L38.4381818,64.976087 L34.1672727,64.976087 L34.1672727,60.6443478 L38.4381818,60.6443478 Z M21.3545455,60.6443478 L21.3545455,64.976087 L17.0836364,64.976087 L17.0836364,60.6443478 L21.3545455,60.6443478 Z M12.8127273,60.6443478 L12.8127273,64.976087 L8.54181818,64.976087 L8.54181818,60.6443478 L12.8127273,60.6443478 Z M4.27090909,60.6443478 L4.27090909,64.976087 L3.10862447e-15,64.976087 L3.10862447e-15,60.6443478 L4.27090909,60.6443478 Z M21.3545455,51.9808696 L21.3545455,56.3126087 L17.0836364,56.3126087 L17.0836364,51.9808696 L21.3545455,51.9808696 Z M29.8963636,51.9808696 L29.8963636,56.3126087 L25.6254545,56.3126087 L25.6254545,51.9808696 L29.8963636,51.9808696 Z M12.8127273,51.9808696 L12.8127273,56.3126087 L8.54181818,56.3126087 L8.54181818,51.9808696 L12.8127273,51.9808696 Z M38.4381818,51.9808696 L38.4381818,56.3126087 L34.1672727,56.3126087 L34.1672727,51.9808696 L38.4381818,51.9808696 Z M4.27090909,51.9808696 L4.27090909,56.3126087 L3.10862447e-15,56.3126087 L3.10862447e-15,51.9808696 L4.27090909,51.9808696 Z M21.3545455,43.3173913 L21.3545455,47.6491304 L17.0836364,47.6491304 L17.0836364,43.3173913 L21.3545455,43.3173913 Z M38.4381818,43.3173913 L38.4381818,47.6491304 L34.1672727,47.6491304 L34.1672727,43.3173913 L38.4381818,43.3173913 Z M29.8963636,43.3173913 L29.8963636,47.6491304 L25.6254545,47.6491304 L25.6254545,43.3173913 L29.8963636,43.3173913 Z M12.8127273,43.3173913 L12.8127273,47.6491304 L8.54181818,47.6491304 L8.54181818,43.3173913 L12.8127273,43.3173913 Z M4.27090909,43.3173913 L4.27090909,47.6491304 L3.10862447e-15,47.6491304 L3.10862447e-15,43.3173913 L4.27090909,43.3173913 Z M21.3545455,34.653913 L21.3545455,38.9856522 L17.0836364,38.9856522 L17.0836364,34.653913 L21.3545455,34.653913 Z M46.98,34.653913 L46.98,38.9856522 L42.7090909,38.9856522 L42.7090909,34.653913 L46.98,34.653913 Z M38.4381818,34.653913 L38.4381818,38.9856522 L34.1672727,38.9856522 L34.1672727,34.653913 L38.4381818,34.653913 Z M29.8963636,34.653913 L29.8963636,38.9856522 L25.6254545,38.9856522 L25.6254545,34.653913 L29.8963636,34.653913 Z M12.8127273,34.653913 L12.8127273,38.9856522 L8.54181818,38.9856522 L8.54181818,34.653913 L12.8127273,34.653913 Z M29.8963636,25.9904348 L29.8963636,30.3221739 L25.6254545,30.3221739 L25.6254545,25.9904348 L29.8963636,25.9904348 Z M38.4381818,25.9904348 L38.4381818,30.3221739 L34.1672727,30.3221739 L34.1672727,25.9904348 L38.4381818,25.9904348 Z M46.98,25.9904348 L46.98,30.3221739 L42.7090909,30.3221739 L42.7090909,25.9904348 L46.98,25.9904348 Z M21.3545455,25.9904348 L21.3545455,30.3221739 L17.0836364,30.3221739 L17.0836364,25.9904348 L21.3545455,25.9904348 Z M29.8963636,17.3269565 L29.8963636,21.6586957 L25.6254545,21.6586957 L25.6254545,17.3269565 L29.8963636,17.3269565 Z M38.4381818,17.3269565 L38.4381818,21.6586957 L34.1672727,21.6586957 L34.1672727,17.3269565 L38.4381818,17.3269565 Z M21.3545455,17.3269565 L21.3545455,21.6586957 L17.0836364,21.6586957 L17.0836364,17.3269565 L21.3545455,17.3269565 Z M29.8963636,8.66347826 L29.8963636,12.9952174 L25.6254545,12.9952174 L25.6254545,8.66347826 L29.8963636,8.66347826 Z M38.4381818,8.66347826 L38.4381818,12.9952174 L34.1672727,12.9952174 L34.1672727,8.66347826 L38.4381818,8.66347826 Z M21.3545455,8.66347826 L21.3545455,12.9952174 L17.0836364,12.9952174 L17.0836364,8.66347826 L21.3545455,8.66347826 Z M29.8963636,3.10862447e-15 L29.8963636,4.33173913 L25.6254545,4.33173913 L25.6254545,3.10862447e-15 L29.8963636,3.10862447e-15 Z M38.4381818,3.10862447e-15 L38.4381818,4.33173913 L34.1672727,4.33173913 L34.1672727,3.10862447e-15 L38.4381818,3.10862447e-15 Z" id="Combined-Shape" fill="#00FDDD" fill-rule="nonzero"></path>
                            </g>
                            <g id="Group" stroke-width="1" fill="none" fill-rule="evenodd" transform="translate(49.560000, 52.650000)">
                                <rect id="Rectangle" fill="#00FDDD" fill-rule="nonzero" x="10.7325" y="0" width="21.465" height="8.64"></rect>
                                <rect id="Rectangle" fill="#00FDDD" fill-rule="nonzero" x="0" y="8.64" width="42.93" height="62.64"></rect>
                            </g>
                            <g id="Group" stroke-width="1" fill="none" fill-rule="evenodd" transform="translate(60.090000, 69.660000)">
                                <path d="M21.06,43.4454545 L21.06,47.79 L-1.0658141e-14,47.79 L-1.0658141e-14,43.4454545 L21.06,43.4454545 Z M21.06,34.7563636 L21.06,39.1009091 L-1.0658141e-14,39.1009091 L-1.0658141e-14,34.7563636 L21.06,34.7563636 Z M21.06,26.0672727 L21.06,30.4118182 L-1.0658141e-14,30.4118182 L-1.0658141e-14,26.0672727 L21.06,26.0672727 Z M21.06,17.3781818 L21.06,21.7227273 L-1.0658141e-14,21.7227273 L-1.0658141e-14,17.3781818 L21.06,17.3781818 Z M21.06,8.68909091 L21.06,13.0336364 L-1.0658141e-14,13.0336364 L-1.0658141e-14,8.68909091 L21.06,8.68909091 Z M21.06,-8.8817842e-16 L21.06,4.34454545 L-1.0658141e-14,4.34454545 L-1.0658141e-14,-8.8817842e-16 L21.06,-8.8817842e-16 Z" id="Combined-Shape" fill="#FFFFFF" fill-rule="nonzero"></path>
                            </g>
                            <g id="Group-5" stroke-width="1" fill="none" fill-rule="evenodd" transform="translate(98.000000, 73.710000)">
                                <path d="M10.53,-2.84217094e-14 C10.53,-2.84217094e-14 -2.55795385e-13,24.25545 -2.55795385e-13,32.1975 C-2.55795385e-13,38.2077 4.6332,42.93 10.53,42.93 C16.4268,42.93 21.06,38.2077 21.06,32.1975 C21.06,24.25545 10.53,-2.84217094e-14 10.53,-2.84217094e-14 Z" id="Path" fill="#00FDDD" fill-rule="nonzero"></path>
                                <rect id="Rectangle" fill="#26B4A3" fill-rule="nonzero" x="8.91" y="29.97" width="4.05" height="20.25"></rect>
                            </g>
                        </g>
                    </g>
                    <g mask="url(#mask-2)" fill="#26B4A3" fill-rule="nonzero" id="Rectangle">
                        <g transform="translate(-2.430000, 232.470000)">
                            <rect x="0" y="0" width="309.42" height="83.43"></rect>
                        </g>
                    </g>
                    <g id="Group-4" mask="url(#mask-2)">
                        <g transform="translate(56.000000, 233.000000)">
                            <path d="M196.98554,56.8613455 L116.046697,10.1334598 L111.487879,7.50222894 L98.4952474,-7.10542736e-15 L81.6028442,9.75190657 L76.0083815,12.9827211 L3.41060513e-13,56.8663007 C21.8922374,80.448274 52.148915,96.1514203 86.0526471,99.2633091 L86.5630365,99.3128615 L88.976237,99.5061158 L90.0465682,99.5754891 L92.1079468,99.6944148 L93.4458608,99.7439671 L95.2941642,99.8083852 L97.4348267,99.8331614 L98.4853369,99.8480271 L98.6389493,99.8480271 L101.656689,99.8133405 L102.137347,99.80343 L104.976697,99.6944148 L105.779446,99.6597281 L108.296706,99.4962053 L109.481008,99.4020558 L111.116236,99.2533987 C144.94564,96.1018679 175.132944,80.4086321 196.98554,56.8712559 L196.98554,56.8613455 Z" id="Path" fill="#4D4D4D" fill-rule="evenodd"></path>
                            <path d="M184.661865,68.5656154 L98.4952474,0 L189.77567,64.0613049 C188.11071,65.6073389 186.406108,67.1038205 184.661865,68.5656154 Z M98.4952474,0 L12.8737059,69.0264525 C10.9411635,67.4259109 9.05321814,65.7708617 7.20986995,64.0662602 L97.4645581,0.693733191 L98.4952474,0 Z" id="Shape" fill="#FFFFFF" fill-rule="nonzero"></path>
                            <path d="M90.2596434,86.0823785 L93.6440703,50.706941 L102.845946,50.706941 L105.883506,86.0823785 L90.2596434,86.0823785 Z M94.4864606,41.9014847 L96.1811517,24.161736 L100.566536,24.161736 L102.087794,41.9014847 L94.4815054,41.9014847 L94.4864606,41.9014847 Z M96.5329735,20.5146815 L97.3109457,12.3633165 L99.5556681,12.3633165 L100.254357,20.5146815 L96.5329735,20.5146815 Z M97.484379,10.5695207 L97.984858,5.32192462 L98.9511292,5.32192462 L99.4020558,10.5695207 L97.484379,10.5695207 Z M98.0938732,4.22186199 L98.4952474,-1.42108547e-14 L98.8569797,4.22186199 L98.0938732,4.22186199 Z" id="Shape" fill="#FFFFFF" fill-rule="nonzero"></path>
                        </g>
                    </g>
                    <g id="road-with-broken-line" mask="url(#mask-2)">
                        <g transform="translate(133.000000, 281.000000)"></g>
                    </g>
                </g>
                <g id="air-transport" transform="translate(269.000000, 11.000000)" fill="#00FDDD" fill-rule="nonzero">
                    <path d="M79.38,7.46028469 C79.38,21.2940217 13.181481,36.5633993 8.16886681,36.5633993 C5.35852908,36.5633993 2.16996894,35.9108473 2.16996894,33.3007699 C2.16996894,32.4286969 3.16909348,31.1682811 4.92232813,29.6487521 L4.92038255,29.6497975 L0.273538974,21.3320459 C-0.355664346,20.2059559 0.143184545,18.7793313 1.33388471,18.2989987 L2.13248393,17.976904 C3.57987207,17.393083 5.20884847,17.4801073 6.58671424,18.214849 L15.0226563,22.7139822 C18.3071988,20.7513608 22.0331305,18.6964883 25.960236,16.673368 L9.5206617,5.92873438 C8.22010064,5.07861354 8.23397917,3.15597628 9.54673259,2.32519419 L10.8915234,1.47402802 C13.1297284,0.0574648467 15.8506987,-0.360931544 18.4064238,0.318145921 L45.7549128,7.58533321 C54.2820381,4.17570315 61.9916271,1.84852023 66.55494,1.84852023 C67.7736567,1.84852023 68.9941892,1.88105636 70.1720485,1.96585938 L61.9130253,5.72188819 L61.7153535,8.52051839 L74.4641464,2.61658206 C77.5201471,3.35080109 79.38,4.72110807 79.38,7.46028469 Z M46.109399,31.3402391 L56.3105086,43.0145699 C56.932189,43.7260528 57.9446733,43.9402164 58.797749,43.5407667 L60.1639412,42.9010201 C62.6553321,41.7344233 64.122695,39.0891964 63.8036185,36.3403504 L62.5265342,25.3400011 C62.4474136,24.6593556 61.7617882,24.2285458 61.1201331,24.4561681 L46.5531229,29.625624 C45.8442567,29.8774198 45.6124957,30.7717061 46.109399,31.3402391 Z" id="Shape"></path>
                </g>
                <polygon id="Path-3" fill="#FFFFFF" points="263.972222 48 181 91 268 55.3018868"></polygon>
            </g>
        </g>
    </g>
</svg>
