<?xml version="1.0" encoding="UTF-8"?>
<svg width="373px" height="373px" viewBox="0 0 373 373" version="1.1" xmlns="http://www.w3.org/2000/svg" xmlns:xlink="http://www.w3.org/1999/xlink">
    <!-- Generator: Sketch 57.1 (83088) - https://sketch.com -->
    <title>Group 3</title>
    <desc>Created with Sketch.</desc>
    <g id="home-page-2" stroke="none" stroke-width="1" fill="none" fill-rule="evenodd">
        <g id="control-2" transform="translate(-762.000000, -138.000000)">
            <g id="Group-3" transform="translate(762.000000, 138.000000)">
                <circle id="Oval" fill="#2C2C35" cx="186.5" cy="186.5" r="186.5"></circle>
                <g id="precision" transform="translate(119.000000, 70.000000)" fill-rule="nonzero">
                    <path d="M103.139474,130.591014 C94.8478947,134.882563 85.5489474,137.512476 75.6836842,138.039195 L75.6836842,125.749092 C75.6836842,123.716862 74.0342105,122.069421 71.9994737,122.069421 C69.9647368,122.069421 68.3152632,123.716862 68.3152632,125.749092 L68.3152632,138.039195 C58.45,137.512476 49.1510526,134.882563 40.8594737,130.591014 L64.0573684,78.1620041 C64.1826316,77.8781437 64.0405263,77.5527556 63.7463158,77.4523532 C58.4205263,75.6314415 53.8910526,72.0968542 50.8168421,67.5072526 C50.5863158,67.1624148 50.0684211,67.2065708 49.8989474,67.585577 L26.2952632,120.429339 C18.5136842,113.320739 12.3984211,104.421191 8.60421053,94.3835729 C7.88894737,92.4864394 5.76894737,91.5276222 3.86947368,92.2420041 C1.97,92.956386 1.01,95.0737741 1.72526316,96.9709076 C6.22210526,108.868337 13.6621053,119.32386 23.1578947,127.453306 L0.0747368421,179.132189 C0.0210526316,179.252041 0.0136842105,179.371893 0.0510526316,179.497002 L7.39052632,203.944214 C7.53105263,204.411532 8.17842105,204.452008 8.37578947,204.005717 L37.8836842,137.315877 C47.0957895,142.019548 57.4026316,144.879179 68.3147368,145.407474 L68.3147368,157.88524 C68.3147368,159.91747 69.9642105,161.564912 71.9989474,161.564912 C74.0336842,161.564912 75.6831579,159.91747 75.6831579,157.88524 L75.6831579,145.407474 C86.5952632,144.879704 96.9021053,142.020074 106.114211,137.315877 L135.622105,204.005717 C135.819474,204.452008 136.466842,204.411532 136.607368,203.944214 L143.946842,179.497002 C143.984211,179.371368 143.976842,179.251515 143.923684,179.132189 L120.84,127.453306 C130.335789,119.324386 137.775789,108.868337 142.272632,96.9709076 C142.987895,95.0737741 142.027895,92.956386 140.128421,92.2420041 C138.228947,91.5276222 136.108947,92.4864394 135.393684,94.3835729 C131.6,104.421191 125.484737,113.320739 117.702632,120.429339 L94.1,67.5861027 C93.9310526,67.2070965 93.4131579,67.1629405 93.1821053,67.5077782 C90.1078947,72.0968542 85.5784211,75.6314415 80.2526316,77.4528789 C79.9589474,77.5532813 79.8163158,77.8781437 79.9415789,78.1620041 L103.139474,130.591014 Z" id="Path" fill="#2DD4BF"></path>
                    <path d="M72,0 C76.7247368,0 80.5905263,3.86102669 80.5905263,8.57994251 L80.5905263,28.694078 C80.5905263,29.0531088 80.2431579,29.3049035 79.9010526,29.193462 C74.8010526,27.5323532 69.1989474,27.5323532 64.0989474,29.193462 C63.7573684,29.3049035 63.4094737,29.0531088 63.4094737,28.694078 L63.4094737,8.57994251 C63.4094737,3.86102669 67.2752632,0 72,0 Z" id="Path" fill="#FFFFFF"></path>
                    <path d="M72,35.3038193 C81.9968421,35.3038193 90.1005263,43.3975195 90.1005263,53.3820452 C90.1005263,63.3665708 81.9963158,71.460271 72,71.460271 C62.0036842,71.460271 53.8994737,63.3660452 53.8994737,53.3820452 C53.8994737,43.3980452 62.0031579,35.3038193 72,35.3038193 Z" id="Path" fill="#FFFFFF"></path>
                    <path d="M72,48.651039 C69.3836842,48.651039 67.2631579,50.7689528 67.2631579,53.3820452 C67.2631579,55.9946119 69.3836842,58.1130513 72,58.1130513 C74.6163158,58.1130513 76.7368421,55.9946119 76.7368421,53.3820452 C76.7368421,50.7689528 74.6157895,48.651039 72,48.651039 Z" id="Path" fill="#2DD4BF"></path>
                </g>
                <g id="Group-2" transform="translate(38.000000, 309.000000)" stroke="#FFFFFF" stroke-linecap="square" stroke-width="0.7">
                    <path d="M293.65,12.25 L0.35,12.25" id="Line"></path>
                    <path d="M0.35,0.35 L0.35,12.25" id="Line"></path>
                    <g id="Group" transform="translate(10.500000, 6.300000)">
                        <path d="M0.35,0.35 L0.35,5.95" id="Line"></path>
                        <path d="M15.05,0.35 L15.05,5.95" id="Line"></path>
                        <path d="M29.75,0.35 L29.75,5.95" id="Line"></path>
                        <path d="M45.15,0.35 L45.15,5.95" id="Line"></path>
                        <path d="M59.85,0.35 L59.85,5.95" id="Line"></path>
                        <path d="M74.55,0.35 L74.55,5.95" id="Line"></path>
                    </g>
                    <g id="Group" transform="translate(107.800000, 6.300000)">
                        <path d="M0.35,0.35 L0.35,5.95" id="Line"></path>
                        <path d="M15.05,0.35 L15.05,5.95" id="Line"></path>
                        <path d="M29.75,0.35 L29.75,5.95" id="Line"></path>
                        <path d="M45.15,0.35 L45.15,5.95" id="Line"></path>
                        <path d="M59.85,0.35 L59.85,5.95" id="Line"></path>
                        <path d="M74.55,0.35 L74.55,5.95" id="Line"></path>
                    </g>
                    <g id="Group" transform="translate(205.800000, 6.300000)">
                        <path d="M0.35,0.35 L0.35,5.95" id="Line"></path>
                        <path d="M15.05,0.35 L15.05,5.95" id="Line"></path>
                        <path d="M29.75,0.35 L29.75,5.95" id="Line"></path>
                        <path d="M45.15,0.35 L45.15,5.95" id="Line"></path>
                        <path d="M59.85,0.35 L59.85,5.95" id="Line"></path>
                        <path d="M74.55,0.35 L74.55,5.95" id="Line"></path>
                    </g>
                    <path d="M98.35,0.35 L98.35,12.25" id="Line"></path>
                    <path d="M195.65,0.35 L195.65,12.25" id="Line"></path>
                    <path d="M293.65,0.35 L293.65,12.25" id="Line"></path>
                </g>
                <g id="Group-2" transform="translate(44.000000, 175.000000) rotate(90.000000) translate(-44.000000, -175.000000) translate(-103.000000, 168.000000)" stroke="#FFFFFF" stroke-linecap="square" stroke-width="0.7">
                    <path d="M293.65,12.25 L0.35,12.25" id="Line"></path>
                    <path d="M0.35,0.35 L0.35,12.25" id="Line"></path>
                    <g id="Group" transform="translate(10.500000, 6.300000)">
                        <path d="M0.35,0.35 L0.35,5.95" id="Line"></path>
                        <path d="M15.05,0.35 L15.05,5.95" id="Line"></path>
                        <path d="M29.75,0.35 L29.75,5.95" id="Line"></path>
                        <path d="M45.15,0.35 L45.15,5.95" id="Line"></path>
                        <path d="M59.85,0.35 L59.85,5.95" id="Line"></path>
                        <path d="M74.55,0.35 L74.55,5.95" id="Line"></path>
                    </g>
                    <g id="Group" transform="translate(107.800000, 6.300000)">
                        <path d="M0.35,0.35 L0.35,5.95" id="Line"></path>
                        <path d="M15.05,0.35 L15.05,5.95" id="Line"></path>
                        <path d="M29.75,0.35 L29.75,5.95" id="Line"></path>
                        <path d="M45.15,0.35 L45.15,5.95" id="Line"></path>
                        <path d="M59.85,0.35 L59.85,5.95" id="Line"></path>
                        <path d="M74.55,0.35 L74.55,5.95" id="Line"></path>
                    </g>
                    <g id="Group" transform="translate(205.800000, 6.300000)">
                        <path d="M0.35,0.35 L0.35,5.95" id="Line"></path>
                        <path d="M15.05,0.35 L15.05,5.95" id="Line"></path>
                        <path d="M29.75,0.35 L29.75,5.95" id="Line"></path>
                        <path d="M45.15,0.35 L45.15,5.95" id="Line"></path>
                        <path d="M59.85,0.35 L59.85,5.95" id="Line"></path>
                        <path d="M74.55,0.35 L74.55,5.95" id="Line"></path>
                    </g>
                    <path d="M98.35,0.35 L98.35,12.25" id="Line"></path>
                    <path d="M195.65,0.35 L195.65,12.25" id="Line"></path>
                    <path d="M293.65,0.35 L293.65,12.25" id="Line"></path>
                </g>
                <g id="panel" transform="translate(289.500000, 86.500000) scale(1, -1) translate(-289.500000, -86.500000) translate(263.000000, 60.000000)" fill="#FFFFFF" fill-rule="nonzero">
                    <path d="M53,45.0498122 C53,45.7526886 52.7210458,46.4268296 52.2240348,46.9238384 C51.7270237,47.4208471 51.0528796,47.6999827 50.3499999,47.6997999 L26.0116845,47.6997999 C24.904866,50.8736526 21.9114009,53 18.5500795,53 C15.1887581,53 12.1952929,50.8736526 11.0884745,47.6997999 L2.65,47.6997999 C1.18644541,47.6997999 0,46.51336 0,45.0498122 C0,43.5862644 1.18644541,42.3998244 2.65,42.3998244 L11.0883155,42.3998244 C12.1952665,39.226065 15.188723,37.0998282 18.55,37.0998282 C21.911277,37.0998282 24.9047334,39.226065 26.0116845,42.3998244 L50.3499999,42.3998244 C51.0528796,42.3996416 51.7270237,42.6787772 52.2240348,43.175786 C52.7210458,43.6727947 53,44.3469357 53,45.0498122 Z M50.3499999,23.8499104 L44.5616844,23.8499104 C43.4547334,20.6761509 40.4612769,18.5499141 37.0999999,18.5499141 C33.7387229,18.5499141 30.7452665,20.6761509 29.6383154,23.8499104 L2.65,23.8499104 C1.18644541,23.8499104 0,25.0363503 0,26.4998981 C0,27.9634459 1.18644541,29.1498858 2.65,29.1498858 L29.6384744,29.1498858 C30.7452929,32.3237385 33.738758,34.4500859 37.1000794,34.4500859 C40.4614008,34.4500859 43.454866,32.3237385 44.5616844,29.1498858 L50.3499999,29.1498858 C51.8135545,29.1498858 53,27.9634459 53,26.4998981 C53,25.0363503 51.8135545,23.8499104 50.3499999,23.8499104 L50.3499999,23.8499104 Z M2.65,10.5999717 L16.3884745,10.5999717 C17.4952929,13.7738245 20.4887581,15.9001718 23.8500795,15.9001718 C27.2114009,15.9001718 30.204866,13.7738245 31.3116844,10.5999717 L50.3499999,10.5999717 C51.8135545,10.5999717 53,9.41353181 53,7.949984 C53,6.48643619 51.8135545,5.29999627 50.3499999,5.29999627 L31.3116844,5.29999627 C30.2047334,2.1262368 27.211277,0 23.85,0 C20.488723,0 17.4952665,2.1262368 16.3883155,5.29999627 L2.65,5.29999627 C1.18644541,5.29999627 0,6.48643619 0,7.949984 C0,9.41353181 1.18644541,10.5999717 2.65,10.5999717 Z" id="Shape"></path>
                </g>
            </g>
        </g>
    </g>
</svg>