<svg viewBox="0 0 324 303" version="1.1" xmlns="http://www.w3.org/2000/svg" xmlns:xlink="http://www.w3.org/1999/xlink">
    <defs>
        <circle id="path-1" cx="151.065" cy="151.065" r="151.065"></circle>
    </defs>
    <g id="about" stroke="none" stroke-width="1" fill="none" fill-rule="evenodd">
        <g id="about-speed-7" transform="translate(-183.000000, -151.000000)">
            <g id="Group-3" transform="translate(183.000000, 151.000000)">
                <mask id="mask-2" fill="white">
                    <use xlink:href="#path-1"></use>
                </mask>
                <use id="Mask" fill="#2C2C35" xlink:href="#path-1"></use>
                <path d="M171.547845,194.576833 C171.547845,189.788706 175.432786,185.893004 180.207688,185.893004 C182.422429,185.893004 184.442111,186.740604 185.974143,188.117955 L205.813352,175.795149 C206.959328,175.082023 208.462915,175.436548 209.170006,176.585699 C209.881162,177.730775 209.527616,179.238525 208.38164,179.951651 L188.550558,192.274457 C188.753746,193.012032 188.871594,193.782208 188.871594,194.580908 C188.871594,199.369035 184.986653,203.264737 180.211751,203.264737 C175.432786,203.260662 171.547845,199.36496 171.547845,194.576833 Z" id="Path" fill="#2C2C35"></path>
                <g id="flying" transform="translate(19.000000, 75.000000)" fill-rule="nonzero">
                    <path d="M303.83152,62.5712069 L287.788617,64.3095588 C281.13017,60.9434765 244.216033,57.6065148 244.216033,57.6065148 L238.955288,56.8806981 C238.955748,56.6011223 238.793702,56.343341 238.52646,56.2390381 C228.308566,52.2523578 215.941336,50.7271447 201.769496,51.7099642 C190.577351,52.4849562 181.354849,55.0619899 177.673845,58.3165807 L169.682679,59.7491207 L85.2880609,72.1900631 L43.4718766,40.520703 C39.6307566,37.515148 34.2460652,36.337413 29.0338979,37.3628145 L14.7602629,40.1709813 L43.3014666,75.7045413 L33.8361251,76.7301717 L34.2239137,80.2827448 L6,80.8120891 L7.9996527,82.7208605 L9.7576154,84.3989109 L60.3277664,84.5502829 L61.9299794,86.4967371 L34.8934212,86.4157856 L35.5219807,92.174105 L47.935122,90.829064 L48.318177,94.3380019 L104.734845,91.2202229 L109.402831,93.8490876 L145.918104,103 L209.591309,87.1310254 L210.851323,86.9944883 C213.590017,86.6977423 215.587142,84.2224017 215.289292,81.4938586 L215.11493,79.8965766 C215.112356,79.8730878 215.106611,79.8507438 215.103762,79.8273924 L248.390298,75.7964818 C248.390298,75.7964818 285.54516,69.5334515 288.615161,65.7822999 L304,64.1152385 L303.83152,62.5712069 Z M235.186505,56.4943468 C228.348089,57.1735522 211.597901,58.842262 202.77555,59.7700912 C193.603141,60.7350079 182.245044,59.8143673 178.463439,59.4526037 C181.290233,56.831477 189.282272,53.9514702 201.865134,53.0799591 C214.538394,52.2026789 225.73155,53.3513849 235.186505,56.4943468 Z M197.353863,83.6850904 L197.411631,85.8130903 L113.533988,92.3249276 L113.050976,92.3623814 L112.691359,92.1137576 L105.718885,87.2925164 L108.390619,86.0072733 L114.351387,90.1289339 L197.353863,83.6850904 Z" id="Shape" fill="#00FDDD"></path>
                    <g id="Group" transform="translate(32.583519, 116.196795)" fill="#FFFFFF">
                        <polygon id="Path" transform="translate(87.872652, 4.726555) rotate(-6.200971) translate(-87.872652, -4.726555) " points="54.590813 4 121.154283 4.00955612 121.15449 5.45311008 54.5910205 5.44355397"></polygon>
                        <polygon id="Path" transform="translate(75.022050, 14.833025) rotate(-6.200971) translate(-75.022050, -14.833025) " points="41.7402118 14.1064704 108.303681 14.1160265 108.303889 15.5595805 41.7404193 15.5500244"></polygon>
                        <polygon id="Path" transform="translate(47.756040, 13.435289) rotate(-6.200971) translate(-47.756040, -13.435289) " points="-1.16643681e-13 12.7066559 95.5118718 12.720368 95.5120793 14.1639219 0.000207513371 14.1502099"></polygon>
                    </g>
                    <g id="Group-2" fill="#FFFFFF">
                        <polygon id="Path" transform="translate(87.872602, 4.726555) rotate(-6.200971) translate(-87.872602, -4.726555) " points="54.5907632 4 121.154233 4.00955612 121.15444 5.45311008 54.5909708 5.44355397"></polygon>
                        <polygon id="Path" transform="translate(75.022968, 14.832973) rotate(-6.200971) translate(-75.022968, -14.832973) " points="41.7411295 14.106418 108.304599 14.1159741 108.304807 15.5595281 41.741337 15.549972"></polygon>
                        <polygon id="Path" transform="translate(47.756040, 13.435286) rotate(-6.200971) translate(-47.756040, -13.435286) " points="-6.49493221e-14 12.7066531 95.5118718 12.7203652 95.5120793 14.1639192 0.000207513372 14.1502071"></polygon>
                    </g>
                </g>
                <polygon id="Line" fill="#FFFFFF" fill-rule="nonzero" points="324 129 293 92 322.414913 130.201969"></polygon>
                <polygon id="Line" fill="#FFFFFF" fill-rule="nonzero" transform="translate(308.500000, 167.100984) scale(1, -1) translate(-308.500000, -167.100984) " points="324 185 293 148 322.414913 186.201969"></polygon>
                <polygon id="Line" fill="#FFFFFF" fill-rule="nonzero" transform="translate(296.500000, 164.100984) scale(1, -1) rotate(-10.000000) translate(-296.500000, -164.100984) " points="312 182 281 145 310.414913 183.201969"></polygon>
                <polygon id="Line" fill="#FFFFFF" fill-rule="nonzero" transform="translate(296.500000, 115.100984) rotate(-10.000000) translate(-296.500000, -115.100984) " points="312 133 281 96 310.414913 134.201969"></polygon>
                <path d="M216.635386,140.332444 C227.616307,202.608341 225.93618,254.95881 212.882716,257.260488 C199.829253,259.562165 180.345535,210.943454 169.364614,148.667556 C158.383693,86.3916585 160.06382,34.04119 173.117284,31.7395123 C186.170747,29.4378345 205.654465,78.056546 216.635386,140.332444 Z M174,35 C169.08368,35.8668799 164.893003,47.0264046 164.227025,67.7773564 C163.532588,89.4150804 164.677474,117.814457 170,148 C175.322526,178.185543 184.149842,206.341341 192.202938,226.436639 C199.925996,245.708377 207.08368,253.86688 212,253 C216.752606,252.161987 220.827093,242.639915 221.694821,223.260477 C220.304615,231.232542 217.899065,236.09015 214.520567,236.685871 C204.458523,238.460081 189.576687,201.759349 181.281057,154.712491 C172.985426,107.665634 174.417388,68.0883393 184.479433,66.3141294 C192.534503,64.8938031 203.678406,88.1307002 212.059436,121.593677 C206.86207,98.9109604 200.092961,78.2738358 193.797062,62.5633611 C186.074004,43.2916226 178.91632,34.1331201 174,35 Z M185.731409,68.2278155 C181.926592,68.8987075 178.649077,77.3408054 178.065782,93.0153007 C177.45756,109.359631 178.249507,130.804695 182.266295,153.585031 C186.283083,176.365366 193.016928,197.601191 199.17856,212.751813 C205.087671,227.281522 210.596121,233.41974 214.400939,232.748848 C218.011791,232.112157 221.14477,225.156613 221.953375,211.05167 C222.030225,191.029383 220.524561,166.660062 216,141 C215.098927,135.88976 214.097404,130.837693 213.016195,125.873062 C209.384115,111.779213 205.041201,99.0385963 200.950498,88.9801078 C195.041387,74.4503989 189.536226,67.5569236 185.731409,68.2278155 Z M218.938157,162.278047 L218.955936,162.414358 C222.522217,190.865345 220.748795,212.865425 214.200307,214.0201 C206.585787,215.362745 195.39845,188.012257 189.212691,152.931074 C183.026932,117.849892 184.185172,88.3225453 191.799693,86.9798999 C198.119744,85.8655043 206.901109,104.517808 213.241061,130.950762 L213.258157,131.025047 L213.144302,130.583836 C210.528349,120.529563 207.435325,111.414914 204.495406,104.108381 L204.22858,103.449156 C199.800733,92.5744824 195.673876,87.4157937 192.820263,87.9189626 C189.96665,88.4221316 187.506501,94.7422873 187.065043,106.475551 C186.60472,118.710224 187.193154,134.762684 190.199732,151.813834 C193.20631,168.864983 198.250953,184.759296 202.86802,196.098689 C207.295867,206.973362 211.425385,211.566704 214.278998,211.063535 C217.132611,210.560366 219.590099,204.805558 220.031557,193.072294 C220.353783,184.508023 220.162118,174.073036 218.986862,162.734284 L218.938157,162.278047 Z M218.935157,162.253047 L218.829364,161.419287 C218.271492,157.096173 217.591457,152.629479 216.787309,148.068926 C215.797587,142.455936 214.679825,137.040853 213.469144,131.909537 L213.276157,131.098047 L213.380784,131.500425 C214.713203,136.708824 215.913948,142.159597 216.896868,147.734011 C217.73871,152.508333 218.390969,157.204357 218.883707,161.7602 L218.935157,162.253047 Z M218.938157,162.278047 L218.935157,162.253047 L218.938157,162.278047 Z" id="Combined-Shape" fill="#FFFFFF" fill-rule="nonzero"></path>
                <path d="M220.769496,126.709964 C234.941336,125.727145 247.308566,127.252358 257.52646,131.239038 C257.793702,131.343341 257.955748,131.601122 257.955288,131.880698 L257.955288,131.880698 L263.216033,132.606515 C263.216033,132.606515 300.13017,135.943476 306.788617,139.309559 L306.788617,139.309559 L322.83152,137.571207 L323,139.115238 L307.615161,140.7823 C304.54516,144.533451 267.390298,150.796482 267.390298,150.796482 L267.390298,150.796482 L234.103762,154.827392 C234.106611,154.850744 234.112356,154.873088 234.11493,154.896577 L234.11493,154.896577 L234.289292,156.493859 C234.587142,159.222402 232.590017,161.697742 229.851323,161.994488 L229.851323,161.994488 L228.591309,162.131025 L206.848,167.549761 L205.082,161.692761 L216.411631,160.81309 L216.353863,158.68509 L204.454,159.608761 L196.532,133.340761 L196.673845,133.316581 C200.291383,130.118103 209.260981,127.574021 220.192367,126.751651 Z M254.186505,131.494347 C244.73155,128.351385 233.538394,127.202679 220.865134,128.079959 C208.282272,128.95147 200.290233,131.831477 197.463439,134.452604 C201.245044,134.814367 212.603141,135.735008 221.77555,134.770091 C230.597901,133.842262 247.348089,132.173552 254.186505,131.494347 Z" id="Combined-Shape" fill="#00FDDD" fill-rule="nonzero"></path>
            </g>
        </g>
    </g>
</svg>
