<?xml version="1.0" encoding="UTF-8"?>
<svg width="303px" height="303px" viewBox="0 0 303 303" version="1.1" xmlns="http://www.w3.org/2000/svg" xmlns:xlink="http://www.w3.org/1999/xlink">
    <!-- Generator: Sketch 57.1 (83088) - https://sketch.com -->
    <title>Group</title>
    <desc>Created with Sketch.</desc>
    <defs>
        <circle id="path-1" cx="151.065" cy="151.065" r="151.065"></circle>
    </defs>
    <g id="about" stroke="none" stroke-width="1" fill="none" fill-rule="evenodd">
        <g id="about-sync-4" transform="translate(-807.000000, -135.000000)">
            <g id="Group" transform="translate(807.000000, 135.000000)">
                <mask id="mask-2" fill="white">
                    <use xlink:href="#path-1"></use>
                </mask>
                <use id="Mask" fill="#2C2C35" xlink:href="#path-1"></use>
                <g id="Group-2" mask="url(#mask-2)" fill="#00FDDD" fill-rule="nonzero">
                    <g transform="translate(117.000000, 33.000000)" id="Path">
                        <path d="M23.3418493,35.5090238 C35.5209212,44.5380579 54.4275538,34.9343607 53.9926275,19.4982222 C53.9807086,8.73466653 45.2434088,0.0120303673 34.4616943,0 C15.3996268,-0.047356249 7.79316095,24.9410747 23.3418493,35.5090238 Z"></path>
                        <path d="M6.73182957,68 L61.2681704,68 C64.9786474,67.9823274 67.9821717,65.0050401 68,61.3269755 L68,54.3160763 C67.9991288,47.2850709 63.4552967,41.0450786 56.7234754,38.8301544 L51.1846282,37 C50.2311151,37.9346664 49.1949379,38.7826577 48.0885547,39.5337784 C38.377125,46.1852363 25.2810968,45.1251484 16.7869674,37 L11.2765246,38.8301544 C4.54470874,41.045086 0.000880077732,47.2850738 0,54.3160763 L0,61.3269755 C0.0178437428,65.0050337 3.02135902,67.9823121 6.73182957,68 L6.73182957,68 Z"></path>
                    </g>
                </g>
                <g id="Group-4" mask="url(#mask-2)" fill="#00FDDD" fill-rule="nonzero">
                    <g transform="translate(36.000000, 152.000000)" id="Path">
                        <path d="M14,19.5037022 C14.861013,45.4933851 52.1333333,45.5040095 53,19.5041122 C52.2020573,-6.50077288 14.8000417,-6.50183191 14,19.5037022 Z"></path>
                        <path d="M53.1126272,37 C48.1759764,42.2858688 41.2516698,45.2889379 34.0002889,45.2890139 C26.7489079,45.2890899 19.8245378,42.2861658 14.8877751,37.0004004 C6.46101206,38.3280943 0.194327987,45.4633918 0,53.9517423 L0,60.8590804 C0.00452709532,64.8010338 3.21447646,67.9954947 7.17554241,68 L60.8244576,68 C64.7855159,67.9954764 67.9954545,64.8010261 68,60.8590804 L68,53.9517423 C67.8048653,45.4637671 61.5388416,38.3288601 53.1126272,37 L53.1126272,37 Z"></path>
                    </g>
                </g>
                <g id="Group-3" mask="url(#mask-2)" fill="#00FDDD" fill-rule="nonzero">
                    <g transform="translate(198.000000, 152.000000)" id="Path">
                        <path d="M53,19.5041122 C52.2019896,-6.50077288 14.8000078,-6.50183191 14,19.5037022 C14.8609453,45.4933851 52.133401,45.5040095 53,19.5041122 L53,19.5041122 Z"></path>
                        <path d="M53.1126272,37 C48.1759558,42.2858322 41.2516569,45.2888753 34.0002889,45.2889513 C26.7489208,45.2890273 19.8245584,42.2861292 14.8877751,37.0004004 C6.46104685,38.328157 0.194395037,45.4634177 0,53.9517423 L0,60.8590804 C0.00452709532,64.8010338 3.21447646,67.9954947 7.17554241,68 L60.8244576,68 C64.7855235,67.9954947 67.9954729,64.8010338 68,60.8590804 L68,53.9517423 C67.8049457,45.463736 61.5388833,38.328785 53.1126272,37 L53.1126272,37 Z"></path>
                    </g>
                </g>
                <path d="M240.853,121.952 L251.884,121.952 L234.101,139.731 L216.324,121.952 L227.484,121.952 C225.908,101.001 214.995,84.075 200.847,79.96 C203.007,79.332 205.243,79 207.529,79 C224.812,79 239.037,97.8 240.853,121.952 Z" id="Path" fill="#FFFFFF" fill-rule="nonzero" mask="url(#mask-2)"></path>
                <path d="M92.853,121.952 L103.884,121.952 L86.101,139.731 L68.324,121.952 L79.484,121.952 C77.908,101.001 66.995,84.075 52.847,79.96 C55.007,79.332 57.243,79 59.529,79 C76.812,79 91.037,97.8 92.853,121.952 Z" id="Path" fill="#FFFFFF" fill-rule="nonzero" mask="url(#mask-2)" transform="translate(78.365500, 109.365500) scale(-1, 1) translate(-78.365500, -109.365500) "></path>
                <g id="time2" mask="url(#mask-2)" fill-rule="nonzero">
                    <g transform="translate(121.000000, 125.000000)">
                        <path d="M36.8537852,10.9670068 L36.8537852,9 L24.1462148,9 L24.1462148,10.9670068 C8.8816462,14.2565125 -1.46513235,28.6740579 0.169590919,44.376832 C1.80431418,60.079606 14.8929804,72 30.5,72 C46.1070196,72 59.1956858,60.079606 60.8304091,44.376832 C62.4651323,28.6740579 52.1183538,14.2565125 36.8537852,10.9670068 L36.8537852,10.9670068 Z M30.5,66.8531413 C16.4636053,66.8531413 5.0848591,55.3412597 5.0848591,41.1406341 C5.0848591,26.9400084 16.4636053,15.4281268 30.5,15.4281268 C44.5363947,15.4281268 55.9151409,26.9400084 55.9151409,41.1406341 C55.9010404,55.3353466 44.53055,66.8388759 30.5,66.8531413 L30.5,66.8531413 Z" id="Shape" fill="#00FDDD"></path>
                        <path d="M49.1986644,41 C49.200773,40.2939999 49.7725753,39.7221976 50.4785754,39.720089 L53,39.720089 C52.3404365,28.008486 42.991514,18.6595635 31.279911,18 L31.279911,20.5214246 C31.279911,21.2282999 30.7068753,21.8013356 30,21.8013356 C29.2931247,21.8013356 28.720089,21.2282999 28.720089,20.5214246 L28.720089,18 C17.008486,18.6595635 7.65956346,28.008486 7,39.720089 L9.5214246,39.720089 C10.2282999,39.720089 10.8013356,40.2931247 10.8013356,41 C10.8013356,41.7068753 10.2282999,42.279911 9.5214246,42.279911 L7,42.279911 C7.65953504,53.9915267 17.0084733,63.340465 28.720089,64 L28.720089,61.4785754 C28.7200891,60.7717001 29.2931247,60.1986645 30,60.1986645 C30.7068753,60.1986645 31.2799109,60.7717001 31.279911,61.4785754 L31.279911,64 C42.9915267,63.340465 52.340465,53.9915267 53,42.279911 L50.4785754,42.279911 C49.7725753,42.2778024 49.200773,41.7060001 49.1986644,41 L49.1986644,41 Z M31.279911,41 C31.2778024,41.7060001 30.7060001,42.2778024 30,42.279911 L18.4808013,42.279911 C17.773926,42.279911 17.2008904,41.7068753 17.2008904,41 C17.2008904,40.2931247 17.773926,39.720089 18.4808013,39.720089 L28.720089,39.720089 L28.720089,25.6410684 C28.720089,24.9341931 29.2931247,24.3611575 30,24.3611575 C30.7068753,24.3611575 31.279911,24.9341931 31.279911,25.6410684 L31.279911,41 Z" id="Shape" fill="#FFFFFF"></path>
                        <rect id="Rectangle" fill="#FFFFFF" x="19" y="0" width="23" height="6" rx="2"></rect>
                    </g>
                </g>
            </g>
        </g>
    </g>
</svg>