<?xml version="1.0" encoding="UTF-8"?>
<svg width="373px" height="373px" viewBox="0 0 373 373" version="1.1" xmlns="http://www.w3.org/2000/svg" xmlns:xlink="http://www.w3.org/1999/xlink">
    <!-- Generator: Sketch 57.1 (83088) - https://sketch.com -->
    <title>Group</title>
    <desc>Created with Sketch.</desc>
    <g id="home-page-2" stroke="none" stroke-width="1" fill="none" fill-rule="evenodd">
        <g id="control-2-copy-2" transform="translate(-762.000000, -138.000000)">
            <g id="Group" transform="translate(762.000000, 138.000000)">
                <circle id="Oval" fill="#2C2C35" cx="186.5" cy="186.5" r="186.5"></circle>
                <g id="delegation" transform="translate(73.000000, 68.000000)" fill-rule="nonzero">
                    <path d="M93.5502529,49.1663407 C110.413583,61.6680801 136.591998,48.3706533 135.989792,26.9975384 C135.973289,12.0941537 123.875489,0.0166574317 108.946961,0 C82.5533294,-0.0655701909 72.0212998,34.5337958 93.5502529,49.1663407 Z" id="Path" fill="#2DD4BF"></path>
                    <path d="M70.4047619,96 L146.595238,96 C151.778993,95.9749163 155.975093,91.7490891 156,86.5286104 L156,76.5776567 C155.998783,66.5981652 149.650782,57.7414019 140.246032,54.5976385 L132.507937,52 C131.175823,53.3266233 129.728222,54.5302239 128.18254,55.5963306 C114.615101,65.0371096 96.3191793,63.5324688 84.452381,52 L76.7539683,54.5976385 C67.3492254,57.7414124 61.0012295,66.5981692 61,76.5776567 L61,86.5286104 C61.0249288,91.7490801 65.2210163,95.9748946 70.4047619,96 L70.4047619,96 Z" id="Path" fill="#2DD4BF"></path>
                    <path d="M20,166.004367 C21.0155538,196.658864 64.9777778,196.671396 66,166.00485 C65.0588368,135.332422 20.9436389,135.331173 20,166.004367 Z" id="Path" fill="#2DD4BF"></path>
                    <path d="M65.4854438,186 C59.6776193,192.30894 51.5313763,195.893248 43.0003398,195.893339 C34.4693034,195.89343 26.3229856,192.309295 20.5150296,186.000478 C10.6011907,187.585145 3.22862116,196.101468 3,206.232725 L3,214.476967 C3.00532599,219.181879 6.78173702,222.994623 11.4418146,223 L74.5581854,223 C79.218254,222.994601 82.9946523,219.18187 83,214.476967 L83,206.232725 C82.7704298,196.101916 75.3986371,187.586059 65.4854438,186 L65.4854438,186 Z" id="Path" fill="#2DD4BF"></path>
                    <path d="M198,166.00485 C197.058757,135.332422 152.943599,135.331173 152,166.004367 C153.015474,196.658864 196.977858,196.671396 198,166.00485 L198,166.00485 Z" id="Path" fill="#2DD4BF"></path>
                    <path d="M197.485444,186 C191.677595,192.308897 183.531361,195.893174 175.00034,195.893264 C166.469319,195.893355 158.32301,192.309251 152.51503,186.000478 C142.601232,187.58522 135.2287,196.101499 135,206.232725 L135,214.476967 C135.005326,219.181879 138.781737,222.994623 143.441815,223 L206.558185,223 C211.218263,222.994623 214.994674,219.181879 215,214.476967 L215,206.232725 C214.770524,196.101878 207.398686,187.585969 197.485444,186 L197.485444,186 Z" id="Path" fill="#2DD4BF"></path>
                    <path d="M6.2142698,123.486096 C5.20450831,124.539203 4.8378877,126.064044 5.2565395,127.469469 C5.67519131,128.874894 6.81328689,129.939914 8.2296091,130.251642 L31.3912485,134.935162 C32.6827253,135.172428 34.0067131,134.750112 34.9308962,133.80611 C35.8550794,132.862108 36.2608342,131.517588 36.0156714,130.21157 L31.3912485,106.752139 C31.0816912,105.318918 30.0302198,104.167812 28.6434728,103.743991 C27.2567258,103.32017 25.7521164,103.69008 24.7115266,104.710666 L23.0910023,106.392044 C15.9171247,96.7790139 15.3202887,83.6867216 21.589053,73.445036 C27.3554328,70.6036677 33.6744353,69.0993491 40.0867445,69.0414262 C41.1320302,69.0435062 42.1345172,68.6211058 42.8699238,67.8687266 C43.6053303,67.1163475 44.0122763,66.0967862 44,65.0381446 C43.9935073,62.8300145 42.2275764,61.0416087 40.0474567,61.0355835 C7.70104152,59.7218266 -12.03394,95.0611555 8.19028174,121.484456 L6.2142698,123.486096 Z" id="Path" fill="#FFFFFF"></path>
                    <path d="M175.864068,69.0392158 C182.289886,69.0971248 188.6222,70.6012232 194.400725,73.4421802 C200.682717,83.6823588 200.084623,96.7727464 192.895612,106.384359 L191.271674,104.703227 C190.228892,103.682792 188.721114,103.312935 187.331445,103.736694 C185.941777,104.160453 184.888091,105.311391 184.577881,106.744402 L179.943717,130.200394 C179.677874,131.506545 180.079736,132.860246 181.01314,133.80282 C181.951995,134.76458 183.306021,135.185607 184.61749,134.923574 L207.788311,130.240221 C209.207593,129.928594 210.348107,128.863818 210.767726,127.458662 C211.187344,126.053505 210.820089,124.528898 209.808331,123.475867 L207.827681,121.47504 C227.918051,95.1961066 208.563325,59.7537641 175.903954,61.0337058 C173.746478,61.0654874 172.010915,62.8362118 172,65.0166986 C171.989188,67.1971855 173.707019,68.9854813 175.864068,69.0392158 L175.864068,69.0392158 Z" id="Path" fill="#FFFFFF"></path>
                    <path d="M144.275791,150.331395 C149.346303,134.231765 142.95844,116.725168 128.72805,107.721206 C114.49766,98.7172437 96.0071408,100.482599 83.7230421,112.017993 C71.4389434,123.553386 68.4536992,141.954866 76.4571055,156.806283 C83.631727,169.767529 97.7704219,177.23565 112.476053,175.831652 C127.181684,174.427653 139.664192,164.417912 144.275791,150.331395 L144.275791,150.331395 Z M126.850239,131.916389 L106.820869,152.021117 C105.245685,153.58714 102.707712,153.58714 101.132528,152.021117 L91.1178432,141.968753 C90.367831,141.217461 89.9463492,140.197564 89.9463492,139.133986 C89.9463492,138.070408 90.367831,137.050511 91.1178432,136.299219 C92.6921835,134.73114 95.231844,134.73114 96.8061842,136.299219 L103.976699,143.496712 L121.161898,126.246855 C122.730957,124.725433 125.22399,124.742641 126.772056,126.285578 C128.320123,127.828515 128.354901,130.330743 126.850319,131.916429 L126.850239,131.916389 Z" id="Shape" fill="#FFFFFF"></path>
                </g>
            </g>
        </g>
    </g>
</svg>