<svg height="104" viewBox="0 0 131 104" width="131" xmlns="http://www.w3.org/2000/svg" xmlns:xlink="http://www.w3.org/1999/xlink"><linearGradient id="a" x1="41.875122%" x2="57.848987%" y1="-8.471381%" y2="108.040023%"><stop offset="0" stop-color="#ffeea4"/><stop offset=".35406989" stop-color="#ffd96b"/><stop offset=".687077703" stop-color="#d6bc73"/><stop offset="1" stop-color="#ccb779"/></linearGradient><g fill="none" fill-rule="evenodd"><path d="m131 34v70h-23.65561v-70zm-26.780002 18.5761676v51.4238324h-23.6582403v-51.4238324zm-26.7826323 13.8704398v37.5533926h-23.6549089v-37.5533926zm-26.7794762 23.7833485v13.7402841h-23.6578895v-13.7402841z" fill="currentColor"/><path d="m5.48631718 100.894184h11.59632992c.859069 0 1.5576962.696062 1.5572557 1.552908 0 .809078-.6224507 1.475053-1.4153841 1.546553l-.1416071.006355h-11.59659442v-3.105816h11.59632992zm-.00017631-37.0544146c.58654712.1298236 1.18629631.2090118 1.78922754.2354942l.45263849.009947 4.418233.0000879v33.6748509h-6.65992272zm32.95660303 19.9420986c.8590691 0 1.5577844.6960614 1.5572558 1.5529958 0 .8565828-.6977459 1.5528201-1.556815 1.5528201h-11.5965944v-3.1058159zm-29.61288951-59.0577975c4.48895281 0 8.15316171 3.5734537 8.28733371 8.0154729l.0038064.2523445-.0002645 19.7829837c0 .819373.6280334 1.4905465 1.4282708 1.5625924l.1429131.0064029 11.2607245.0001758c1.8771459 0 3.4183632 1.4713962 3.5190253 3.3186809l.0052293.1923943v22.7936824h-6.6303027l-.0002644-13.0489102c0-3.585562-2.8629721-6.5199455-6.4314209-6.6431897l-.233703-.00403-12.4531951.0001759c-1.07725228 0-2.14895081-.2421886-3.10640066-.7097752-2.41763258-1.1449122-4.00513267-3.5557926-4.10503628-6.1923518l-.00500736-.2643697v-20.7943738c0-4.5582442 3.73097778-8.2679053 8.31829179-8.2679053zm1.01457419-24.7240705c5.42945732 0 9.84478122 4.40660161 9.84416412 9.82090115 0 5.41025575-4.4144424 9.81668155-9.84434043 9.81668155-5.42945731 0-9.84372334-4.4066016-9.84425227-9.81668155 0-5.41429954 4.41558836-9.82090115 9.84442858-9.82090115z" fill="url(#a)"/></g></svg>
