<svg height="118" viewBox="0 0 120 118" width="120" xmlns="http://www.w3.org/2000/svg" xmlns:xlink="http://www.w3.org/1999/xlink"><linearGradient id="a" x1="-10.467343%" x2="103.059151%" y1=".167059%" y2="77.79888%"><stop offset="0" stop-color="#ffeea4"/><stop offset=".35406989" stop-color="#ffd96b"/><stop offset=".687077703" stop-color="#d6bc73"/><stop offset="1" stop-color="#ccb779"/></linearGradient><g fill="none"><path d="m15.780767 72.9190332c1.4431428-.5285885 2.1919736-1.8967627 2.1681885-3.43355l-.2675159-17.2913994c-.0285956-1.8558138.2872923-3.6364209 1.7026413-4.8346439l10.0739388-8.5291426c.0750969-.0636982.1739789-.0768126.2632399-.0355961.0892611.0414842.1429781.1257907.1429781.2242821v20.8226379c0 2.4213365-1.7499444 10.1133021-3.4835865 17.3203045-.0181729.0760096-.0024052.1493429.0459668.2109001.048372.0615571.1157186.0942091.1940225.0942091h12.6531558c.1360295 0 .2469377-.1110704.2469377-.2470314v-5.3212129c0-4.0143282 3.2617701-7.2811386 7.270233-7.2811386h7.3389159c.0745623 0 .138702-.0294404.187074-.08618.0486393-.056472.0678812-.1244525.0566567-.198321-.1127789-.7416297-.1747806-1.4345489-.1507282-2.2198039l.5101777-16.7630786c.0232506-.7659848.150461-1.2627242.3728119-1.5873711.0689502-.1009002 18.1721082-4.5653984 19.915104-5.032965 2.333081-.625474 3.8702953-2.5117988 4.5750301-4.8258118l4.3882232-14.4110607c.0352769-.115888.1461851-.1878831.2661797-.1731629l12.6095942 1.549634c.0924681.0115085.1777204-.0264964.2317046-.1027737.0539843-.0762773.0606655-.1694159.0189747-.2531871-2.4215403-4.8416026-2.4252817-12.26325202-.0114917-17.11288375.0424925-.08537707.0342078-.18065681-.0224489-.25746941-.0566567-.07654496-.1453833-.11240868-.2389203-.09661794l-43.4883079 7.296394c-.1186584.0198054-.2319718-.0463016-.2728609-.1595132-.392321-1.08474381-.6021112-1.79934186-1.345597-2.77194461-1.9113626-2.50002262-4.9216516-4.11255193-8.3087614-4.11255193-5.7763128 0-10.4590441 4.68931553-10.4590441 10.47434804 0 3.3369321 1.558327 6.3096064 3.9857467 8.2275127.0758987.0599513.1087703.1517517.0884594.2462285s-.0881921.1645984-.1817291.1878831l-11.9123425 2.9641099c-2.0300209.5050362-3.3732128 1.8298528-4.640506 3.4961777l-11.28537701 14.8355373c-1.29375084 1.7005828-.99763931 3.7758612-.67774264 5.8899473l3.23745045 21.4039513c.2675159 1.7709721 2.5238965 2.5112635 4.2035544 1.894354zm38.1775422-57.3220047 22.2094339 2.7296575c.0812436.0099027.1469868.0545985.1862723.1263259.0395528.0719951.0416908.1512165.006414.2253527l-3.6091934 7.5784863c-.9353703 1.9639403-2.6850474 3.1993652-4.8462874 3.4220415l-8.1564296.8398534c-2.109661.2170558-4.0057904-.3797808-5.6122222-1.7664221l-6.0470357-5.2208481c-.0641397-.0554014-.0940716-.1327493-.0839161-.2170558.0101554-.0843065.0577257-.152287.1336243-.1905595 2.829629-1.4345489 4.9205826-4.1192429 5.5470135-7.3287784.0251214-.1276642.1435125-.2138441.2723264-.1980534zm61.4543668-2.2195362c-1.019553 0-1.846153-.8278097-1.846153-1.8488552s.8266-1.84885518 1.846153-1.84885518h2.74117c1.019554 0 1.846154.82780968 1.846154 1.84885518s-.8266 1.8488552-1.846154 1.8488552zm-.706605 8.4801645c-.939914-.3910216-1.385417-1.4709479-.995234-2.4122368s1.468799-1.3874443 2.408712-.9966903l2.529242 1.0579798c.939913.3910217 1.385417 1.4709479.995234 2.4122368-.390451.9412889-1.468799 1.3874443-2.408713.9966903zm1.413478-17.24911229c-.939913.39102163-2.018262-.05540143-2.408712-.99669032-.39045-.9412889.05532-2.02121517.995234-2.4122368l2.529241-1.05797981c.939914-.39102163 2.018262.05540142 2.408713.99669032.39045.94128889-.055321 2.02121516-.995234 2.41223679zm-12.249343-2.44756524c2.698143 0 4.885573 4.38099457 4.885573 9.78517583 0 5.4041812-2.187163 9.7851758-4.885573 9.7851758s-4.8855728-4.3809946-4.8855728-9.7851758c0-5.40418126 2.1871628-9.78517583 4.8855728-9.78517583z" fill="url(#a)"/><path d="m104.45361 42.6112436c1.970692 0 3.578193 1.609853 3.578193 3.5834283v68.2219001c0 1.973575-1.607234 3.583428-3.578193 3.583428h-17.7813905c-.1360296 0-.2466705-.11107-.2466705-.247031v-71.5585648c-.0002673-1.9735753 1.6069663-3.5831606 3.5779252-3.5831606zm-21.9673065 12.5873637c.1360296 0 .2466705.1110705.2466705.2470315v62.3067942c0 .136229-.1109082.247032-.2466705.247032h-17.4206049c-.1360295 0-.2466705-.111071-.2466705-.247032v-58.9703975c0-1.9735753 1.6075008-3.5834282 3.5781925-3.5834282zm-57.3018574 25.9656027h14.0890829c.1165968 0 .2147371.0816028.2403976.1907062l.0065402.0565929v36.3409239c0 .116538-.0814836.214789-.1904275.240483l-.0565103.006549h-17.4206049c-.1163677 0-.2144752-.081406-.2401311-.190454l-.0065394-.056578v-33.0047947c0-1.9099116 1.5054638-3.4791883 3.388656-3.5784445l.1895365-.0049838h14.0890829zm-7.5454991 12.8544682c.1360296 0 .2466706.1110704.2466706.2470314v23.4867234c0 .136229-.1109082.247032-.2466706.247032h-15.26631326c-1.30684602 0-2.37263374-1.609853-2.37263374-3.583428v-16.8144659c0-1.9733077 1.06578772-3.5828929 2.37263374-3.5828929zm43.2408356-25.7038511c.1360296 0 .2466706.1110705.2466706.2470314v49.1903075c0 .136228-.1109082.247031-.2466706.247031h-17.4203376c-.1360296 0-.2466705-.11107-.2466705-.247031v-45.8539107c0-1.9735753 1.6072335-3.5834282 3.5779252-3.5834282z" fill="#fff"/></g></svg>