<svg height="119" viewBox="0 0 144 119" width="144" xmlns="http://www.w3.org/2000/svg" xmlns:xlink="http://www.w3.org/1999/xlink"><linearGradient id="a" x1="-4.924175%" x2="103.059151%" y1="10.068807%" y2="89.636611%"><stop offset="0" stop-color="#ffeea4"/><stop offset=".35406989" stop-color="#ffd96b"/><stop offset=".687077703" stop-color="#d6bc73"/><stop offset="1" stop-color="#ccb779"/></linearGradient><g fill="none"><path d="m109.090909 55.9711284c-.004327 11.3992156-5.293198 22.1502321-14.3151933 29.09938-9.0219951 6.9491478-20.7542548 9.3085748-31.7552748 6.386174l-14.8366376 8.5816096c-1.530904.885475-3.4436464.760031-4.84619-.3178306-1.4025437-1.0778614-2.0186325-2.8958356-1.5609439-4.6060821l3.7918345-14.167374c-6.2794918-6.7980365-9.773461-15.7147368-9.7866857-24.9758769 0-20.2489443 16.4420632-36.7211284 36.653817-36.7211284 20.2117539 0 36.6552738 16.4721841 36.6552738 36.7211284zm-47.1281454.0288754c0-2.4162479-1.9536665-4.3750038-4.3636363-4.3750038h-.0072727c-2.4089044.0045083-4.3584839 1.9652561-4.355491 4.3804381.0029998 2.415182 1.9574384 4.371061 4.3663465 4.3695619 2.4089081-.0015008 4.3609263-1.9598123 4.3609263-4.3749962zm14.8372364-.0013629c-.0003582-.1432671-.0081265-.2864191-.0232735-.428879-.0137521-.1430121-.0350187-.2851969-.0637112-.4259615-.0260782-.1402203-.0611585-.2786054-.1050217-.4142913-.0404377-.1371246-.0898939-.2713316-.1422593-.4055386-.0523654-.1342071-.1163675-.2596615-.1832788-.3851159-.0664685-.1261671-.1392922-.2488625-.2181891-.3676106-.0795332-.1199948-.165076-.2358725-.2562995-.3471877-.0896581-.1115251-.1857276-.2177096-.2877186-.3180123-.0989124-.1021141-.2065524-.1983931-.3171015-.2917545-.1108401-.0875263-.2272076-.1750526-.3464843-.2538263-.1183088-.0791222-.2405558-.1521553-.3662668-.2188158-.125386-.0671036-.2560085-.128372-.3872129-.1838053-.1310032-.0550138-.2649322-.1027395-.401177-.1429597-.2720955-.0876421-.5531341-.1444028-.8378461-.1692176-.427402-.0412791-.8585035-.0206648-1.2800427.0612685-.140346.0287336-.2791076.0647653-.4157229.1079491-.1363701.0401267-.2704011.0878541-.4014679.1429597-.1309135.0554333-.2618269.1167017-.386922.1838053-.1250951.0671035-.247281.1400421-.3668486.2188158s-.2356442.1663-.3429933.2538263c-.1134583.0933614-.2181891.1896404-.3200106.2917545-.1021021.1003714-.1983613.206551-.2883005.3180123-.0900879.1113532-.1744665.2272324-.2528085.3471877-.0799533.1186427-.1537508.2413426-.2210983.3676106-.0671323.124995-.1274414.2535565-.1806605.3851159-.05523.1326504-.1037777.2680007-.1454594.4055386-.0404377.1342071-.075348.2742492-.1044399.4142913-.0287422.1407801-.0502019.2829573-.064293.4259615-.014255.1429596-.0203643.2859193-.0203643.428879 0 .1429596.0061093.2888369.0203643.4317965.0143094.142011.0357678.2832059.064293.4230439.0290919.1400422.0640022.2800843.1044399.4172089.0416891.1365799.0902376.2709584.1454594.4026211.0532112.1325116.1135192.2620447.1806605.3880334.0666204.1254544.1425503.2479912.2210983.3676106.0783583.1190066.1627381.2339136.2528085.3442702.0906571.111771.1868796.2188838.2883005.3209298.1018215.0991965.2065523.1983931.3200106.2888369.1094046.0911074.2239232.175855.3429933.2538264.1195676.0787737.2414626.1546298.3668486.2217333.25265.132076.5164796.2414259.7883899.326765.1364409.0408456.2760819.0758561.4157229.1050316.2804689.0575551.5661147.0859084.8523921.0846515 1.1559764-.0031191 2.2640842-.4633611 3.0837392-1.2808447.2010942-.2047157.3831852-.4273681.5440181-.6652.0785481-.1196194.1512778-.2421562.2181891-.3676106s.1280042-.2567439.1832788-.3880334.1018216-.2684141.1422593-.4026211c.0435237-.1367729.0785975-.2761068.1050217-.4172089.028476-.1398222.0497413-.2810244.0637112-.4230439.0148778-.1436443.0223546-.2879629.0224007-.43238zm13.9636364.0013632c0-2.4162481-1.9536666-4.3750041-4.3636364-4.3750041h-.0084363c-2.4088661.0046693-4.3582996 1.9654881-4.3552001 4.3806321.003107 2.4151439 1.957573 4.3709204 4.3664431 4.3693679 2.4088701-.0015543 4.3608297-1.9598499 4.3608297-4.3749959z" fill="currentColor"/><path d="m143.932 64.911066c.478244 11.4307919-8.383177 21.0918026-19.808771 21.5961686-.320904.0149086-.641228.0223629-.960971.0223629-1.458017-.0010147-2.911698-.1588493-4.335981-.4707826-8.54515 13.1983026-22.2535585 22.1843261-37.761505 24.7531121-1.8715027 5.500027-7.391879 8.888187-13.1412151 8.06549-5.749336-.822697-10.0988019-5.623175-10.3538713-11.427502-.2550695-5.804328 3.6565205-10.9680949 9.3115111-12.2923101 5.6549907-1.3242152 11.4512807 1.5662816 13.7980257 6.8808061 22.2824076-4.1224943 38.4309216-23.5935684 38.3677006-46.2618621 0-25.9511249-21.1050661-47.0637321-47.046923-47.0637321-25.9418534 0-47.0469193 21.1126072-47.0469193 47.0637321-.0014086 8.0245117 2.0486782 15.916062 5.9554057 22.9245827.1324107.2312889.2317952.4799856.295259.7388468.7837381 2.1791496-.2789112 4.5902236-2.4157818 5.4812331-2.5192693 1.0606262-5.2250633 1.6067774-7.9583474 1.606353-.3216784 0-.6440343-.0074543-.9670675-.0223629-11.42053396-.5107088-20.27421325-10.1702157-19.79454568-21.5961686.09261319-2.1883692.04093561-4.1409114-.00958068-6.0289788-.0470324-1.7777051-.09609707-3.6161094-.01538714-5.5343812.5005329-11.1343021 9.69856341-19.8876156 20.8400005-19.832404 8.6098334-19.7060682 28.2801206-33.513269 51.1169643-33.513269 22.8368472 0 42.507425 13.8072008 51.117258 33.5135594 11.143317-.0635402 20.345464 8.6923958 20.83942 19.8289189.081 1.9211761.032226 3.75929-.015387 5.536995-.049936 1.8883579-.101904 3.8417714-.009291 6.0315927z" fill="url(#a)"/></g></svg>
