<svg height="65" viewBox="0 0 39 65" width="39" xmlns="http://www.w3.org/2000/svg"><g fill="#fff" transform="matrix(-.76604444 -.64278761 .64278761 -.76604444 16.770134 68.412738)"><path d="m39.2233122 20.9632943c-4.0180916-3.7091365-8.6694171-6.5208232-13.6808495-8.7656892-3.8759371-1.7345118-7.8463538-3.23806032-11.8747572-4.59822079-.2853135-.09679021-.5733722-.21638917-.8698009-.25194209-1.0737588-.12508875-2.0698448.53499297-2.3794645 1.54191169-.2936833.95757598.0757979 1.95724029.9792793 2.45478509.4723306.2610917 1.0063978.4199688 1.5161587.6134839 2.8901628 1.100049 5.8045649 2.1471609 8.6685466 3.3074669 5.0918505 2.0631148 9.8076577 4.7416088 13.9671004 8.3137619 2.0381062 1.7509812 3.7394072 3.7620737 4.9917464 6.0954953 2.3271023 4.3317046 3.0556861 8.8588195 1.490915 13.6159827-.7136518 2.1681397-1.7331067 4.1810622-3.0556861 6.0524919-1.4937943 2.1142875-3.2372127 4.0240804-5.2115737 5.7119943-2.2428676 1.9188772-4.5540336 3.7639036-6.8380812 5.6371633-.4180936.3433078-.8885494.6390375-1.2608429 1.0233881-.7884454.8105934-.8342456 1.9097928-.1804553 2.7715589.618168.8115738 1.8191494 1.0908994 2.7881169.6079941.3759763-.1880906.7267759-.4382028 1.050457-.7038693 2.7441247-2.2612701 5.5211263-4.4860069 8.2064608-6.8139387 2.0540424-1.7820245 3.8180174-3.837885 5.3435503-6.074451 2.1886306-3.2079318 3.7065302-6.6769554 4.30528-10.5184349.047608-1.0078337.1664607-2.0174973.134722-3.0235011-.2230413-6.7819802-3.101888-12.3918252-8.0908221-16.997431z"/><path d="m10.7534328 18.5867861c-1.05158475-1.3554631-2.17511443-2.6633705-3.15856196-4.064654-.84443419-1.203735-1.60964214-2.4739836-2.26182243-3.7827907-.40962506-.82399716-.65592115-1.76116375-.78190825-2.67056815-.20721738-1.50719111.48985333-2.48657935 2.04164562-2.84022591.98819041-.2262104 2.05280141-.36624236 3.05221443-.26573296 1.80269769.18045421 3.58495419.55209478 5.36721059.87971428.7119674.13199892 1.399686.38513608 2.1069773.54399748 1.3539938.30249215 2.4018377-.20378216 2.7880824-1.31420536.4171068-1.19833678-.1474303-2.24147523-1.5013574-2.76844266-.1680051-.06644931-.3414878-.12203795-.5179098-.1642596-1.8214688-.43629048-3.6438061-.86981758-5.1479023-1.2280269-1.4266736-.11400491-2.5109909-.23340802-3.59998439-.28006391-1.33996563-.05745231-2.66122691.1149046-3.94888718.49277881-3.42075676 1.00541529-5.37936846 3.741533-5.12746107 7.15628193.09612696 1.29177711.37508884 2.54936555.95178375 3.71807655.59626767 1.2100971 1.17476622 2.4488562 1.95019475 3.5520818 1.42667361 2.0269609 2.9840772 3.9668437 4.50220167 5.9335889.21369709.2773649.47682709.5341651.76420593.7414818.73715144.5314659 1.81585754.5188701 2.55481254.0080973.8295375-.5736233 1.1645457-1.580838.7521149-2.4811169-.1902498-.4190676-.4982034-.7952067-.7856491-1.1660118z"/></g></svg>