<?xml version="1.0" encoding="UTF-8"?>
<svg width="308px" height="69px" viewBox="0 0 308 69" version="1.1" xmlns="http://www.w3.org/2000/svg" xmlns:xlink="http://www.w3.org/1999/xlink">
    <!-- Generator: Sketch 57.1 (83088) - https://sketch.com -->
    <title>Group 44</title>
    <desc>Created with Sketch.</desc>
    <g id="Page-4" stroke="none" stroke-width="1" fill="none" fill-rule="evenodd">
        <g id="cwa-vip-overview2c" transform="translate(-765.000000, -18148.000000)" fill-rule="nonzero">
            <g id="Group-44" transform="translate(766.000000, 18148.000000)">
                <g id="logo.9b8a614c">
                    <g id="Group-3">
                        <g id="Group" transform="translate(9.000000, 0.000000)" fill="#FFFFFF">
                            <g id="unlock">
                                <g id="Group-8">
                                    <path d="M20.6310956,1.70530257e-13 C32.0481375,1.70530257e-13 41.3367934,9.16496549 41.3367934,20.4296345 L41.336,26 L33.948,26 L33.9487861,20.4296345 C33.9487861,13.1837873 27.9748551,7.28950509 20.6310956,7.28950509 L20.6306066,7.28950509 L20.6306066,1.70530257e-13 L20.6310956,1.70530257e-13 Z M20.6286028,0.073334961 L20.6286028,7.33882129 C19.7142423,7.33882129 18.820999,7.43056601 17.9584296,7.60538317 C16.2323659,7.95501754 14.6277649,8.63633276 13.215531,9.57858054 C12.5095682,10.0496283 11.8518514,10.5860994 11.2511664,11.1790172 C8.84858085,13.5505359 7.36066403,16.8247441 7.36066403,20.4358063 L7.36066403,20.6542897 L6.39488462e-14,20.6542897 L6.39488462e-14,20.4358063 C6.39488462e-14,9.20810204 9.25412409,0.0736392553 20.6286028,0.073334961 Z" id="Combined-Shape"></path>
                                </g>
                            </g>
                        </g>
                        <g id="Group-7" transform="translate(0.000000, 26.000000)">
                            <path d="M5.71881188,-0.589323765 L53.9247525,-0.589323765 C57.4593749,-0.589323765 60.3247525,2.27605384 60.3247525,5.81067623 L60.3247525,34.9096024 C60.3247525,38.4442248 57.4593749,41.3096024 53.9247525,41.3096024 L5.71881188,41.3096024 C2.18418948,41.3096024 -0.681188119,38.4442248 -0.681188119,34.9096024 L-0.681188119,5.81067623 C-0.681188119,2.27605384 2.18418948,-0.589323765 5.71881188,-0.589323765 Z M5.71881188,1.01067623 C3.06784508,1.01067623 0.918811881,3.15970944 0.918811881,5.81067623 L0.918811881,34.9096024 C0.918811881,37.5605692 3.06784508,39.7096024 5.71881188,39.7096024 L53.9247525,39.7096024 C56.5757193,39.7096024 58.7247525,37.5605692 58.7247525,34.9096024 L58.7247525,5.81067623 C58.7247525,3.15970944 56.5757193,1.01067623 53.9247525,1.01067623 L5.71881188,1.01067623 Z" id="Rectangle" fill="#FFFFFF"></path>
                            <path d="M6,12.0264234 L17.7272084,12.0264234 L17.7272084,27.9932071 L6,27.9932071 L6,12.0264234 Z M7,13.0264234 L7,26.9932071 L16.7272084,26.9932071 L16.7272084,13.0264234 L7,13.0264234 Z" id="Rectangle-5" fill="#FFFFFF"></path>
                            <path d="M18.20587,12.0264234 L29.9330784,12.0264234 L29.9330784,27.9932071 L18.20587,27.9932071 L18.20587,12.0264234 Z M19.20587,26.9932071 L28.9330784,26.9932071 L28.9330784,13.0264234 L19.20587,13.0264234 L19.20587,26.9932071 Z" id="Rectangle-5" fill="#FFFFFF"></path>
                            <path d="M30.41174,12.0264234 L42.1389484,12.0264234 L42.1389484,27.9932071 L30.41174,27.9932071 L30.41174,12.0264234 Z M31.41174,26.9932071 L41.1389484,26.9932071 L41.1389484,13.0264234 L31.41174,13.0264234 L31.41174,26.9932071 Z" id="Rectangle-5" fill="#FFFFFF"></path>
                            <rect id="Rectangle-5" fill="#FFFFFF" x="42.61761" y="12.0264234" width="11.7272084" height="15.9667837"></rect>
                            <path d="M12.2544084,21.8536896 C12.505182,21.8536896 12.6943403,21.7617531 12.8218889,21.5778773 C12.9494376,21.3940015 13.013211,21.1288822 13.013211,20.7825115 L14.686468,20.7825115 L14.7059244,20.820997 C14.7188955,21.5479478 14.4929864,22.1444662 14.0281905,22.61057 C13.5633946,23.0766737 12.9721397,23.3097221 12.2544084,23.3097221 C11.3464349,23.3097221 10.6492514,23.0168081 10.1628371,22.4309712 C9.67642273,21.8451343 9.4332192,21.0882616 9.4332192,20.1603303 L9.4332192,19.2687509 C9.4332192,18.3450957 9.67534182,17.5871539 10.1595943,16.9949028 C10.6438468,16.4026516 11.3377876,16.1065305 12.2414374,16.1065305 C13.0024056,16.1065305 13.6066313,16.3481311 14.0541324,16.8313397 C14.5016337,17.3145481 14.7188955,17.9666561 14.7059244,18.7876829 L14.6929535,18.8197541 L13.013211,18.8197541 C13.013211,18.4434501 12.9494376,18.1409148 12.8218889,17.9121391 C12.6943403,17.6833634 12.5008584,17.5689773 12.2414374,17.5689773 C11.8739243,17.5689773 11.6209926,17.7229175 11.4826348,18.0308026 C11.3442769,18.3386876 11.275099,18.7513329 11.275099,19.2687509 L11.275099,20.1603303 C11.275099,20.6905768 11.3442769,21.1053601 11.4826348,21.4046928 C11.6209926,21.7040255 11.8782479,21.8536896 12.2544084,21.8536896 Z" id="c" fill="#FFFFFF"></path>
                            <path d="M21.1415711,19.2815794 C21.1415711,18.3493718 21.39126,17.5871539 21.8906454,16.9949028 C22.3900309,16.4026516 23.0893761,16.1065305 23.9887022,16.1065305 C24.8880283,16.1065305 25.5884545,16.4026516 26.0900017,16.9949028 C26.591549,17.5871539 26.8423188,18.3493718 26.8423188,19.2815794 L26.8423188,20.1410875 C26.8423188,21.0818475 26.591549,21.8451343 26.0900017,22.4309712 C25.5884545,23.0168081 24.8901901,23.3097221 23.9951877,23.3097221 C23.0915379,23.3097221 22.3900309,23.0168081 21.8906454,22.4309712 C21.39126,21.8451343 21.1415711,21.0818475 21.1415711,20.1410875 L21.1415711,19.2815794 Z M22.9769654,20.1410875 C22.9769654,20.6756102 23.0526287,21.0946697 23.2039577,21.3982786 C23.3552866,21.7018875 23.6190273,21.8536896 23.9951877,21.8536896 C24.3583771,21.8536896 24.6167133,21.7008184 24.770204,21.3950714 C24.9236948,21.0893245 25.000439,20.671334 25.000439,20.1410875 L25.000439,19.2815794 C25.000439,18.7598852 24.9236948,18.3440328 24.770204,18.0340097 C24.6167133,17.7239865 24.3562153,17.5689773 23.9887022,17.5689773 C23.6211891,17.5689773 23.3606911,17.7250555 23.2072004,18.0372168 C23.0537097,18.349378 22.9769654,18.7641614 22.9769654,19.2815794 L22.9769654,20.1410875 Z" id="o" fill="#FFFFFF"></path>
                            <path d="M33.8040505,16.2348153 L33.8753909,17.1199805 C34.0613093,16.7949907 34.2947847,16.5448378 34.5758241,16.3695144 C34.8568635,16.1941909 35.178973,16.1065305 35.5421624,16.1065305 C35.8967044,16.1065305 36.2058431,16.1995361 36.4695878,16.38555 C36.7333325,16.5715639 36.9343807,16.8548566 37.0727386,17.2354368 C37.2543333,16.8762375 37.4878087,16.5982899 37.7731718,16.4015856 C38.0585349,16.2048812 38.3914534,16.1065305 38.7719376,16.1065305 C39.3513111,16.1065305 39.8085337,16.342786 40.1436192,16.815304 C40.4787046,17.2878221 40.6462449,18.0094169 40.6462449,18.9801101 L40.6462449,23.1750231 L38.7978796,23.1750231 L38.7978796,18.9801101 C38.7978796,18.4455874 38.7395107,18.0767723 38.6227713,17.8736537 C38.5060318,17.670535 38.3244399,17.5689773 38.0779899,17.5689773 C37.9007189,17.5689773 37.7429068,17.6202907 37.604549,17.722919 C37.4661911,17.8255474 37.3516152,17.9666592 37.2608179,18.1462589 C37.2651416,18.2275063 37.2694652,18.3076835 37.2737889,18.3867929 C37.2781125,18.4659022 37.2802744,18.5482175 37.2802744,18.6337411 L37.2802744,23.1750231 L35.44488,23.1750231 L35.44488,18.9801101 C35.44488,18.4498636 35.3854303,18.0821175 35.266529,17.8768608 C35.1476277,17.6716041 34.962793,17.5689773 34.7120194,17.5689773 C34.5433958,17.5689773 34.39315,17.6106694 34.2612777,17.6940549 C34.1294053,17.7774405 34.0159103,17.8939647 33.9207893,18.043631 L33.9207893,23.1750231 L32.085395,23.1750231 L32.085395,16.2348153 L33.8040505,16.2348153 Z" id="m" fill="#FFFFFF"></path>
                            <path d="M45.2939982,24.1142456 L45.2939982,14.7751121 L48.0762744,14.7751121 C49.0491031,14.7751121 49.808979,14.988918 50.3559249,15.4165361 C50.9028709,15.8441543 51.1763397,16.4812958 51.1763397,17.3279797 C51.1763397,17.7727025 51.0768965,18.1671744 50.8780071,18.511407 C50.6791177,18.8556396 50.380788,19.1132756 49.9830091,19.2843229 C50.4802327,19.3997798 50.8477402,19.6499326 51.0855428,20.034789 C51.3233454,20.4196453 51.4422449,20.8707757 51.4422449,21.3881936 C51.4422449,22.2819156 51.1839087,22.9596801 50.6672286,23.4215077 C50.1505484,23.8833353 49.4101288,24.1142456 48.4459475,24.1142456 L45.2939982,24.1142456 Z M47.1423635,19.9963035 L47.1423635,22.6582131 L48.4459475,22.6582131 C48.835079,22.6582131 49.1258423,22.5513102 49.3182462,22.3375011 C49.5106501,22.1236921 49.6068506,21.8051213 49.6068506,21.3817794 C49.6068506,20.9370565 49.5247018,20.5949671 49.3604019,20.355501 C49.1961019,20.1160348 48.9323612,19.9963035 48.5691718,19.9963035 L47.1423635,19.9963035 Z M47.1423635,18.7198698 L48.1605858,18.7198698 C48.5367463,18.7113174 48.8253478,18.6033455 49.026399,18.3959507 C49.2274503,18.1885559 49.3279744,17.8902967 49.3279744,17.5011641 C49.3279744,17.0649937 49.2242076,16.7453539 49.0166708,16.5422353 C48.809134,16.3391167 48.4956717,16.2375589 48.0762744,16.2375589 L47.1423635,16.2375589 L47.1423635,18.7198698 Z" id="B" fill="#090B11"></path>
                        </g>
                    </g>
                </g>
                <path d="M93.7573242,2.49365234 L93.7573242,18.871582 C93.7573242,20.7283621 93.6967779,22.0326297 93.5756836,22.7844238 C93.4545892,23.536218 93.0963571,24.3081829 92.5009766,25.1003418 C91.905596,25.8925007 91.1210172,26.4929179 90.1472168,26.9016113 C89.1734164,27.3103048 88.02556,27.5146484 86.7036133,27.5146484 C85.2403898,27.5146484 83.9487361,27.2724634 82.8286133,26.7880859 C81.7084905,26.3037085 80.8709338,25.6730182 80.315918,24.8959961 C79.7609022,24.118974 79.4329432,23.2990766 79.3320312,22.4362793 C79.2311193,21.573482 79.1806641,19.7596167 79.1806641,16.9946289 L79.1806641,2.49365234 L85.5532227,2.49365234 L85.5532227,20.8696289 C85.5532227,21.9392957 85.6112462,22.622964 85.7272949,22.9206543 C85.8433437,23.2183446 86.0779605,23.3671875 86.4311523,23.3671875 C86.8348002,23.3671875 87.0946446,23.203208 87.2106934,22.8752441 C87.3267421,22.5472803 87.3847656,21.7727926 87.3847656,20.5517578 L87.3847656,2.49365234 L93.7573242,2.49365234 Z M102.03535,6.91357422 L101.929393,8.76025391 C102.373406,8.02359658 102.9158,7.47111187 103.556591,7.1027832 C104.197382,6.73445454 104.936551,6.55029297 105.77412,6.55029297 C106.823604,6.55029297 107.681343,6.79752357 108.347362,7.29199219 C109.013381,7.78646081 109.442251,8.40958283 109.633983,9.16137695 C109.825716,9.91317108 109.921581,11.1669834 109.921581,12.9228516 L109.921581,27 L103.806347,27 L103.806347,13.0893555 C103.806347,11.7068616 103.760937,10.8642593 103.670116,10.5615234 C103.579295,10.2587875 103.327019,10.1074219 102.91328,10.1074219 C102.479359,10.1074219 102.2069,10.2814924 102.095897,10.6296387 C101.984894,10.9777849 101.929393,11.9086838 101.929393,13.4223633 L101.929393,27 L95.8141591,27 L95.8141591,6.91357422 L102.03535,6.91357422 Z M118.09365,2.49365234 L118.09365,27 L111.796775,27 L111.796775,2.49365234 L118.09365,2.49365234 Z M133.894626,13.9672852 L133.894626,18.8867188 C133.894626,20.6930429 133.803806,22.0174925 133.622165,22.8601074 C133.440523,23.7027223 133.052018,24.4898238 132.456637,25.2214355 C131.861257,25.9530473 131.09686,26.4929182 130.163424,26.8410645 C129.229989,27.1892107 128.157815,27.3632812 126.946872,27.3632812 C125.594651,27.3632812 124.449318,27.2144383 123.510837,26.916748 C122.572355,26.6190578 121.843277,26.1700063 121.323581,25.5695801 C120.803884,24.9691539 120.433038,24.2425987 120.211032,23.3898926 C119.989026,22.5371865 119.878024,21.2581465 119.878024,19.5527344 L119.878024,14.40625 C119.878024,12.5393787 120.079845,11.0812227 120.483493,10.0317383 C120.887141,8.98225387 121.613696,8.13965162 122.66318,7.50390625 C123.712665,6.86816088 125.054774,6.55029297 126.689547,6.55029297 C128.06195,6.55029297 129.24008,6.75463663 130.223971,7.16333008 C131.207863,7.57202353 131.967214,8.10432615 132.502047,8.76025391 C133.036881,9.41618167 133.402681,10.0922817 133.59946,10.7885742 C133.796238,11.4848668 133.894626,12.5444265 133.894626,13.9672852 Z M127.779391,12.4536133 C127.779391,11.4243113 127.72389,10.7759616 127.612887,10.5085449 C127.501884,10.2411282 127.264745,10.1074219 126.901462,10.1074219 C126.538178,10.1074219 126.295993,10.2411282 126.174899,10.5085449 C126.053805,10.7759616 125.993258,11.4243113 125.993258,12.4536133 L125.993258,21.5205078 C125.993258,22.4690803 126.053805,23.0871568 126.174899,23.3747559 C126.295993,23.662355 126.533133,23.8061523 126.886325,23.8061523 C127.249608,23.8061523 127.48927,23.6749688 127.605319,23.4125977 C127.721368,23.1502266 127.779391,22.585128 127.779391,21.7172852 L127.779391,12.4536133 Z M149.196089,14.4970703 L143.428999,14.4970703 L143.428999,12.1811523 C143.428999,11.3738566 143.363408,10.8264175 143.232222,10.5388184 C143.101037,10.2512193 142.858852,10.1074219 142.50566,10.1074219 C142.152468,10.1074219 141.915328,10.2335599 141.794234,10.4858398 C141.67314,10.7381198 141.612593,11.3032183 141.612593,12.1811523 L141.612593,21.6567383 C141.612593,22.3732132 141.703413,22.9105614 141.885054,23.2687988 C142.066696,23.6270363 142.334108,23.8061523 142.6873,23.8061523 C143.101039,23.8061523 143.381066,23.619468 143.527388,23.2460938 C143.673711,22.8727195 143.746871,22.1663463 143.746871,21.1269531 L143.746871,18.7353516 L149.196089,18.7353516 C149.185998,20.3398518 149.127975,21.5432089 149.022017,22.345459 C148.91606,23.1477091 148.578009,23.9701293 148.007857,24.8127441 C147.437704,25.655359 146.69349,26.2910949 145.775191,26.7199707 C144.856892,27.1488465 143.721649,27.3632812 142.369429,27.3632812 C140.643835,27.3632812 139.276498,27.0681182 138.267378,26.4777832 C137.258259,25.8874482 136.544317,25.0599825 136.125533,23.9953613 C135.706748,22.9307401 135.497359,21.4196061 135.497359,19.4619141 L135.497359,13.7553711 C135.497359,12.0499589 135.668907,10.7633507 136.012007,9.89550781 C136.355108,9.02766493 137.086709,8.25317723 138.206832,7.57202148 C139.326954,6.89086573 140.689245,6.55029297 142.293746,6.55029297 C143.888155,6.55029297 145.250446,6.88834297 146.38066,7.56445312 C147.510874,8.24056328 148.262656,9.09325657 148.636031,10.1225586 C149.009405,11.1518606 149.196089,12.6100166 149.196089,14.4970703 Z M163.952631,6.91357422 L161.470209,14.9208984 L164.69433,27 L158.806147,27 L156.89892,18.2509766 L156.89892,27 L150.783686,27 L150.783686,2.49365234 L156.89892,2.49365234 L156.89892,12.7866211 L158.806147,6.91357422 L163.952631,6.91357422 Z M171.670599,2.49365234 L171.670599,5.6875 L165.373724,5.6875 L165.373724,2.49365234 L171.670599,2.49365234 Z M171.670599,6.91357422 L171.670599,27 L165.373724,27 L165.373724,6.91357422 L171.670599,6.91357422 Z M179.857805,6.91357422 L179.751848,8.76025391 C180.19586,8.02359658 180.738254,7.47111187 181.379045,7.1027832 C182.019836,6.73445454 182.759005,6.55029297 183.596574,6.55029297 C184.646059,6.55029297 185.503798,6.79752357 186.169816,7.29199219 C186.835835,7.78646081 187.264705,8.40958283 187.456438,9.16137695 C187.64817,9.91317108 187.744035,11.1669834 187.744035,12.9228516 L187.744035,27 L181.628801,27 L181.628801,13.0893555 C181.628801,11.7068616 181.583391,10.8642593 181.49257,10.5615234 C181.40175,10.2587875 181.149473,10.1074219 180.735734,10.1074219 C180.301813,10.1074219 180.029355,10.2814924 179.918352,10.6296387 C179.807348,10.9777849 179.751848,11.9086838 179.751848,13.4223633 L179.751848,27 L173.636613,27 L173.636613,6.91357422 L179.857805,6.91357422 Z M203.514737,6.91357422 L203.514737,22.3833008 C203.514737,24.4721784 203.466805,25.8218557 203.370938,26.432373 C203.275072,27.0428904 202.934499,27.6887173 202.34921,28.369873 C201.763921,29.0510288 200.949069,29.5707176 199.90463,29.9289551 C198.860191,30.2871925 197.545832,30.4663086 195.961515,30.4663086 C194.013914,30.4663086 192.449802,30.1358269 191.269132,29.4748535 C190.088462,28.8138802 189.477954,27.5146581 189.437589,25.5771484 L195.371183,25.5771484 C195.371183,26.4651737 195.694096,26.9091797 196.339933,26.9091797 C196.804128,26.9091797 197.111904,26.7729506 197.263272,26.5004883 C197.41464,26.228026 197.490323,25.6578819 197.490323,24.7900391 L197.490323,23.2763672 C196.965581,23.7506534 196.413096,24.1088855 195.832852,24.3510742 C195.252609,24.5932629 194.644623,24.7143555 194.008878,24.7143555 C192.908937,24.7143555 192.003266,24.4923525 191.291837,24.0483398 C190.580408,23.6043272 190.093515,23.0215694 189.831143,22.3000488 C189.568772,21.5785283 189.437589,20.5517645 189.437589,19.2197266 L189.437589,11.9238281 C189.437589,10.016592 189.780684,8.64420992 190.466886,7.80664062 C191.153087,6.96907133 192.19751,6.55029297 193.600186,6.55029297 C194.367117,6.55029297 195.065922,6.70670417 195.696622,7.01953125 C196.327322,7.33235833 196.889898,7.80159192 197.384366,8.42724609 L197.823331,6.91357422 L203.514737,6.91357422 Z M197.384366,12.2416992 C197.384366,11.3234004 197.331388,10.7381198 197.225431,10.4858398 C197.119473,10.2335599 196.884856,10.1074219 196.521573,10.1074219 C196.168381,10.1074219 195.918628,10.2512193 195.772306,10.5388184 C195.625983,10.8264175 195.552823,11.3940387 195.552823,12.2416992 L195.552823,18.9926758 C195.552823,19.8907923 195.608324,20.4735501 195.719327,20.7409668 C195.83033,21.0083835 196.062424,21.1420898 196.415616,21.1420898 C196.819264,21.1420898 197.081631,20.9806331 197.202726,20.6577148 C197.32382,20.3347966 197.384366,19.6031958 197.384366,18.4628906 L197.384366,12.2416992 Z M79.2714844,40.4936523 L85.6289062,40.4936523 C87.6370543,40.4936523 89.1582793,40.6500635 90.192627,40.9628906 C91.2269746,41.2757177 92.0620085,41.9089308 92.6977539,42.8625488 C93.3334993,43.8161669 93.6513672,45.3525285 93.6513672,47.4716797 C93.6513672,48.9046296 93.4268414,49.903643 92.9777832,50.46875 C92.528725,51.033857 91.6432358,51.4677719 90.3212891,51.7705078 C91.7946037,52.1035173 92.7936172,52.656002 93.3183594,53.4279785 C93.8431016,54.199955 94.1054688,55.38313 94.1054688,56.9775391 L94.1054688,59.2480469 C94.1054688,60.9030031 93.9162617,62.129065 93.5378418,62.9262695 C93.1594219,63.723474 92.556482,64.2683905 91.7290039,64.5610352 C90.9015258,64.8536798 89.2062303,65 86.6430664,65 L79.2714844,65 L79.2714844,40.4936523 Z M85.644043,44.6865234 L85.644043,50.1357422 C85.9165053,50.125651 86.1284172,50.1206055 86.2797852,50.1206055 C86.9054393,50.1206055 87.3040356,49.966717 87.4755859,49.6589355 C87.6471363,49.3511541 87.7329102,48.4707104 87.7329102,47.0175781 C87.7329102,46.2506472 87.6622728,45.7132991 87.5209961,45.4055176 C87.3797193,45.0977361 87.1955578,44.9034835 86.9685059,44.8227539 C86.7414539,44.7420243 86.2999707,44.6966146 85.644043,44.6865234 Z M85.644043,53.9501953 L85.644043,60.8071289 C86.5421594,60.7768553 87.1148262,60.6355807 87.3620605,60.3833008 C87.6092949,60.1310209 87.7329102,59.5104216 87.7329102,58.5214844 L87.7329102,56.2358398 C87.7329102,55.1863554 87.6219087,54.5506196 87.3999023,54.3286133 C87.177896,54.106607 86.5926154,53.9804689 85.644043,53.9501953 Z M109.830761,55.3125 L101.914257,55.3125 L101.914257,59.6567383 C101.914257,60.5649459 101.979848,61.1502266 102.111034,61.4125977 C102.24222,61.6749688 102.494496,61.8061523 102.86787,61.8061523 C103.332065,61.8061523 103.642365,61.6320818 103.798778,61.2839355 C103.955192,60.9357893 104.033397,60.262212 104.033397,59.2631836 L104.033397,56.6142578 L109.830761,56.6142578 L109.830761,58.0976562 C109.830761,59.3388734 109.752555,60.2924771 109.596141,60.9584961 C109.439728,61.624515 109.073928,62.3359337 108.498729,63.0927734 C107.923531,63.8496132 107.194453,64.4172344 106.311473,64.7956543 C105.428494,65.1740742 104.321002,65.3632812 102.988964,65.3632812 C101.697291,65.3632812 100.557003,65.1765969 99.5680653,64.8032227 C98.5791281,64.4298484 97.8096859,63.9177279 97.2597157,63.2668457 C96.7097455,62.6159635 96.3288085,61.8994994 96.1168934,61.1174316 C95.9049783,60.3353639 95.7990223,59.1975986 95.7990223,57.7041016 L95.7990223,51.8461914 C95.7990223,50.0903233 96.0361619,48.7053273 96.5104481,47.6911621 C96.9847343,46.6769969 97.7617448,45.8999864 98.8415028,45.3601074 C99.9212608,44.8202284 101.162459,44.550293 102.565136,44.550293 C104.280639,44.550293 105.695908,44.8757292 106.810985,45.5266113 C107.926062,46.1774935 108.708118,47.0402778 109.157177,48.1149902 C109.606235,49.1897026 109.830761,50.7008366 109.830761,52.6484375 L109.830761,55.3125 Z M103.70039,52.0429688 L103.70039,50.574707 C103.70039,49.5353138 103.644889,48.8642593 103.533886,48.5615234 C103.422882,48.2587875 103.195834,48.1074219 102.852733,48.1074219 C102.428903,48.1074219 102.166536,48.2360827 102.065624,48.4934082 C101.964712,48.7507337 101.914257,49.444493 101.914257,50.574707 L101.914257,52.0429688 L103.70039,52.0429688 Z M117.715232,40.4936523 L117.715232,46.003418 C118.239974,45.5190405 118.807596,45.1557629 119.418113,44.9135742 C120.02863,44.6713855 120.682026,44.550293 121.378318,44.550293 C122.447985,44.550293 123.358702,44.8227512 124.110496,45.3676758 C124.86229,45.9126004 125.321432,46.5407679 125.487937,47.2521973 C125.654442,47.9636266 125.737693,49.2628486 125.737693,51.1499023 L125.737693,65 L119.622459,65 L119.622459,50.8623047 C119.622459,49.6917259 119.564435,48.9399431 119.448386,48.6069336 C119.332338,48.2739241 119.072493,48.1074219 118.668845,48.1074219 C118.295471,48.1074219 118.043195,48.2789696 117.912009,48.6220703 C117.780824,48.965171 117.715232,49.6463165 117.715232,50.6655273 L117.715232,65 L111.599998,65 L111.599998,40.4936523 L117.715232,40.4936523 Z M133.077243,52.6938477 L127.340426,52.6938477 L127.340426,51.3466797 C127.340426,49.7926355 127.519542,48.5943239 127.87778,47.751709 C128.236017,46.9090941 128.955004,46.1648795 130.034762,45.519043 C131.11452,44.8732064 132.517176,44.550293 134.24277,44.550293 C136.311465,44.550293 137.870532,44.9160933 138.920016,45.6477051 C139.969501,46.3793168 140.600191,47.2774198 140.812106,48.342041 C141.024021,49.4066622 141.129977,51.5989417 141.129977,54.9189453 L141.129977,65 L135.181247,65 L135.181247,63.2138672 C134.807872,63.9303421 134.326025,64.4676903 133.73569,64.8259277 C133.145355,65.1841652 132.441505,65.3632812 131.624118,65.3632812 C130.554451,65.3632812 129.573097,65.0630727 128.680026,64.4626465 C127.786955,63.8622203 127.340426,62.5478617 127.340426,60.5195312 L127.340426,58.8696289 C127.340426,57.3660407 127.577566,56.3417996 128.051852,55.796875 C128.526138,55.2519504 129.701745,54.6162146 131.578708,53.8896484 C133.586856,53.1025351 134.661552,52.5727553 134.802829,52.300293 C134.944105,52.0278307 135.014743,51.4728232 135.014743,50.6352539 C135.014743,49.5857695 134.936537,48.9021012 134.780124,48.5842285 C134.62371,48.2663558 134.363866,48.1074219 134.000583,48.1074219 C133.586844,48.1074219 133.329522,48.2411282 133.22861,48.5085449 C133.127698,48.7759616 133.077243,49.469721 133.077243,50.5898438 L133.077243,52.6938477 Z M135.014743,55.4487305 C134.035897,56.1652054 133.468275,56.7656226 133.311862,57.25 C133.155448,57.7343774 133.077243,58.4306595 133.077243,59.3388672 C133.077243,60.3782604 133.145357,61.0493149 133.281588,61.3520508 C133.41782,61.6547867 133.687755,61.8061523 134.091403,61.8061523 C134.474868,61.8061523 134.724622,61.6875826 134.84067,61.4504395 C134.956719,61.2132963 135.014743,60.5901743 135.014743,59.5810547 L135.014743,55.4487305 Z M155.644331,44.9135742 L152.783492,65 L144.806441,65 L141.733687,44.9135742 L147.198042,44.9135742 L148.908492,59.565918 C149.039677,58.4962512 149.26168,55.8725795 149.574507,51.6948242 C149.756149,49.3637579 149.95797,47.1033638 150.179976,44.9135742 L155.644331,44.9135742 Z M162.6206,40.4936523 L162.6206,43.6875 L156.323725,43.6875 L156.323725,40.4936523 L162.6206,40.4936523 Z M162.6206,44.9135742 L162.6206,65 L156.323725,65 L156.323725,44.9135742 L162.6206,44.9135742 Z M178.421575,51.9672852 L178.421575,56.8867188 C178.421575,58.6930429 178.330756,60.0174925 178.149114,60.8601074 C177.967473,61.7027223 177.578968,62.4898238 176.983587,63.2214355 C176.388206,63.9530473 175.62381,64.4929182 174.690374,64.8410645 C173.756939,65.1892107 172.684765,65.3632812 171.473821,65.3632812 C170.121601,65.3632812 168.976268,65.2144383 168.037786,64.916748 C167.099305,64.6190578 166.370227,64.1700063 165.85053,63.5695801 C165.330834,62.9691539 164.959988,62.2425987 164.737982,61.3898926 C164.515975,60.5371865 164.404974,59.2581465 164.404974,57.5527344 L164.404974,52.40625 C164.404974,50.5393787 164.606795,49.0812227 165.010443,48.0317383 C165.41409,46.9822539 166.140646,46.1396516 167.19013,45.5039062 C168.239614,44.8681609 169.581723,44.550293 171.216497,44.550293 C172.5889,44.550293 173.767029,44.7546366 174.750921,45.1633301 C175.734813,45.5720235 176.494164,46.1043261 177.028997,46.7602539 C177.563831,47.4161817 177.929631,48.0922817 178.126409,48.7885742 C178.323188,49.4848668 178.421575,50.5444265 178.421575,51.9672852 Z M172.306341,50.4536133 C172.306341,49.4243113 172.25084,48.7759616 172.139837,48.5085449 C172.028834,48.2411282 171.791694,48.1074219 171.428411,48.1074219 C171.065128,48.1074219 170.822943,48.2411282 170.701849,48.5085449 C170.580754,48.7759616 170.520208,49.4243113 170.520208,50.4536133 L170.520208,59.5205078 C170.520208,60.4690803 170.580754,61.0871568 170.701849,61.3747559 C170.822943,61.662355 171.060083,61.8061523 171.413275,61.8061523 C171.776558,61.8061523 172.01622,61.6749688 172.132269,61.4125977 C172.248317,61.1502266 172.306341,60.585128 172.306341,59.7172852 L172.306341,50.4536133 Z M194.207414,44.9135742 L194.207414,65 L187.986223,65 L188.09218,63.3349609 C187.668349,64.0110711 187.146138,64.5181461 186.525529,64.8562012 C185.904921,65.1942562 185.190979,65.3632812 184.383684,65.3632812 C183.465385,65.3632812 182.703511,65.2018245 182.098039,64.8789062 C181.492567,64.555988 181.046039,64.1271186 180.758439,63.5922852 C180.47084,63.0574518 180.291724,62.4999215 180.221086,61.9196777 C180.150448,61.3394339 180.115129,60.1865321 180.115129,58.4609375 L180.115129,44.9135742 L186.230363,44.9135742 L186.230363,58.5820312 C186.230363,60.1461667 186.278296,61.0745428 186.374162,61.3671875 C186.470028,61.6598322 186.729873,61.8061523 187.153703,61.8061523 C187.607807,61.8061523 187.877742,61.6547867 187.963518,61.3520508 C188.049293,61.0493149 188.09218,60.0755291 188.09218,58.4306641 L188.09218,44.9135742 L194.207414,44.9135742 Z M202.288663,44.9135742 L202.046475,47.5473633 C202.934501,45.6603096 204.221109,44.6612961 205.906339,44.550293 L205.906339,51.6191406 C204.786216,51.6191406 203.963796,51.7705063 203.439054,52.0732422 C202.914311,52.3759781 202.591398,52.7972792 202.470304,53.3371582 C202.349209,53.8770372 202.288663,55.1207585 202.288663,57.0683594 L202.288663,65 L196.173429,65 L196.173429,44.9135742 L202.288663,44.9135742 Z M227.336415,51.1801758 L220.963856,51.1801758 L220.963856,46.9116211 C220.963856,45.670404 220.895741,44.8959163 220.75951,44.5881348 C220.623279,44.2803533 220.323071,44.1264648 219.858876,44.1264648 C219.334133,44.1264648 219.001129,44.3131492 218.859852,44.6865234 C218.718575,45.0598977 218.647938,45.8671813 218.647938,47.1083984 L218.647938,58.4912109 C218.647938,59.6819721 218.718575,60.4589826 218.859852,60.8222656 C219.001129,61.1855487 219.318997,61.3671875 219.813465,61.3671875 C220.287752,61.3671875 220.598051,61.1855487 220.744374,60.8222656 C220.890696,60.4589826 220.963856,59.6062893 220.963856,58.2641602 L220.963856,55.1914062 L227.336415,55.1914062 L227.336415,56.1450195 C227.336415,58.6779098 227.157299,60.4741158 226.799061,61.5336914 C226.440824,62.593267 225.648677,63.5216431 224.422596,64.3188477 C223.196516,65.1160522 221.685382,65.5146484 219.889149,65.5146484 C218.022278,65.5146484 216.483393,65.1765984 215.27245,64.5004883 C214.061506,63.8243781 213.259268,62.8884337 212.865711,61.692627 C212.472155,60.4968202 212.275379,58.6980914 212.275379,56.2963867 L212.275379,49.1367188 C212.275379,47.3707594 212.335926,46.0463098 212.45702,45.1633301 C212.578114,44.2803504 212.938869,43.4301799 213.539295,42.612793 C214.139722,41.7954061 214.972233,41.152102 216.036854,40.6828613 C217.101475,40.2136207 218.325014,39.9790039 219.707508,39.9790039 C221.584471,39.9790039 223.133446,40.3422815 224.354481,41.0688477 C225.575516,41.7954138 226.377754,42.7010851 226.761219,43.7858887 C227.144685,44.8706923 227.336415,46.5584195 227.336415,48.8491211 L227.336415,51.1801758 Z M235.326843,40.4936523 L235.326843,46.003418 C235.851585,45.5190405 236.419207,45.1557629 237.029724,44.9135742 C237.640241,44.6713855 238.293637,44.550293 238.989929,44.550293 C240.059596,44.550293 240.970313,44.8227512 241.722107,45.3676758 C242.473901,45.9126004 242.933044,46.5407679 243.099548,47.2521973 C243.266053,47.9636266 243.349304,49.2628486 243.349304,51.1499023 L243.349304,65 L237.23407,65 L237.23407,50.8623047 C237.23407,49.6917259 237.176046,48.9399431 237.059997,48.6069336 C236.943949,48.2739241 236.684104,48.1074219 236.280456,48.1074219 C235.907082,48.1074219 235.654806,48.2789696 235.523621,48.6220703 C235.392435,48.965171 235.326843,49.6463165 235.326843,50.6655273 L235.326843,65 L229.211609,65 L229.211609,40.4936523 L235.326843,40.4936523 Z M250.688854,52.6938477 L244.952037,52.6938477 L244.952037,51.3466797 C244.952037,49.7926355 245.131153,48.5943239 245.489391,47.751709 C245.847628,46.9090941 246.566615,46.1648795 247.646373,45.519043 C248.726131,44.8732064 250.128787,44.550293 251.854381,44.550293 C253.923076,44.550293 255.482143,44.9160933 256.531627,45.6477051 C257.581112,46.3793168 258.211802,47.2774198 258.423717,48.342041 C258.635632,49.4066622 258.741588,51.5989417 258.741588,54.9189453 L258.741588,65 L252.792858,65 L252.792858,63.2138672 C252.419483,63.9303421 251.937636,64.4676903 251.347301,64.8259277 C250.756966,65.1841652 250.053116,65.3632812 249.235729,65.3632812 C248.166062,65.3632812 247.184708,65.0630727 246.291637,64.4626465 C245.398566,63.8622203 244.952037,62.5478617 244.952037,60.5195312 L244.952037,58.8696289 C244.952037,57.3660407 245.189177,56.3417996 245.663463,55.796875 C246.137749,55.2519504 247.313356,54.6162146 249.190319,53.8896484 C251.198467,53.1025351 252.273163,52.5727553 252.41444,52.300293 C252.555716,52.0278307 252.626354,51.4728232 252.626354,50.6352539 C252.626354,49.5857695 252.548148,48.9021012 252.391735,48.5842285 C252.235321,48.2663558 251.975477,48.1074219 251.612194,48.1074219 C251.198455,48.1074219 250.941133,48.2411282 250.840221,48.5085449 C250.739309,48.7759616 250.688854,49.469721 250.688854,50.5898438 L250.688854,52.6938477 Z M252.626354,55.4487305 C251.647508,56.1652054 251.079886,56.7656226 250.923473,57.25 C250.767059,57.7343774 250.688854,58.4306595 250.688854,59.3388672 C250.688854,60.3782604 250.756968,61.0493149 250.893199,61.3520508 C251.029431,61.6547867 251.299366,61.8061523 251.703014,61.8061523 C252.086479,61.8061523 252.336233,61.6875826 252.452282,61.4504395 C252.56833,61.2132963 252.626354,60.5901743 252.626354,59.5810547 L252.626354,55.4487305 Z M266.837974,44.9135742 L266.732017,46.7602539 C267.176029,46.0235966 267.718423,45.4711119 268.359214,45.1027832 C269.000005,44.7344545 269.739174,44.550293 270.576743,44.550293 C271.626228,44.550293 272.483967,44.7975236 273.149985,45.2919922 C273.816004,45.7864608 274.244874,46.4095828 274.436607,47.161377 C274.628339,47.9131711 274.724204,49.1669834 274.724204,50.9228516 L274.724204,65 L268.60897,65 L268.60897,51.0893555 C268.60897,49.7068616 268.56356,48.8642593 268.472739,48.5615234 C268.381919,48.2587875 268.129642,48.1074219 267.715903,48.1074219 C267.281982,48.1074219 267.009524,48.2814924 266.898521,48.6296387 C266.787517,48.9777849 266.732017,49.9086838 266.732017,51.4223633 L266.732017,65 L260.616782,65 L260.616782,44.9135742 L266.837974,44.9135742 Z M290.494906,44.9135742 L290.494906,60.3833008 C290.494906,62.4721784 290.446974,63.8218557 290.351107,64.432373 C290.255241,65.0428904 289.914668,65.6887173 289.329379,66.369873 C288.74409,67.0510288 287.929238,67.5707176 286.884799,67.9289551 C285.84036,68.2871925 284.526001,68.4663086 282.941684,68.4663086 C280.994083,68.4663086 279.429971,68.1358269 278.249301,67.4748535 C277.068631,66.8138802 276.458123,65.5146581 276.417758,63.5771484 L282.351352,63.5771484 C282.351352,64.4651737 282.674265,64.9091797 283.320102,64.9091797 C283.784297,64.9091797 284.092073,64.7729506 284.243441,64.5004883 C284.394809,64.228026 284.470492,63.6578819 284.470492,62.7900391 L284.470492,61.2763672 C283.94575,61.7506534 283.393265,62.1088855 282.813021,62.3510742 C282.232778,62.5932629 281.624792,62.7143555 280.989047,62.7143555 C279.889106,62.7143555 278.983435,62.4923525 278.272006,62.0483398 C277.560577,61.6043272 277.073684,61.0215694 276.811312,60.3000488 C276.548941,59.5785283 276.417758,58.5517645 276.417758,57.2197266 L276.417758,49.9238281 C276.417758,48.016592 276.760853,46.6442099 277.447055,45.8066406 C278.133256,44.9690713 279.177679,44.550293 280.580355,44.550293 C281.347286,44.550293 282.046091,44.7067042 282.676791,45.0195312 C283.307491,45.3323583 283.870067,45.8015919 284.364535,46.4272461 L284.8035,44.9135742 L290.494906,44.9135742 Z M284.364535,50.2416992 C284.364535,49.3234004 284.311557,48.7381198 284.2056,48.4858398 C284.099642,48.2335599 283.865025,48.1074219 283.501742,48.1074219 C283.14855,48.1074219 282.898797,48.2512193 282.752475,48.5388184 C282.606152,48.8264175 282.532992,49.3940387 282.532992,50.2416992 L282.532992,56.9926758 C282.532992,57.8907923 282.588493,58.4735501 282.699496,58.7409668 C282.810499,59.0083835 283.042593,59.1420898 283.395785,59.1420898 C283.799433,59.1420898 284.0618,58.9806331 284.182895,58.6577148 C284.303989,58.3347966 284.364535,57.6031958 284.364535,56.4628906 L284.364535,50.2416992 Z M306.295882,55.3125 L298.379378,55.3125 L298.379378,59.6567383 C298.379378,60.5649459 298.44497,61.1502266 298.576155,61.4125977 C298.707341,61.6749688 298.959617,61.8061523 299.332991,61.8061523 C299.797186,61.8061523 300.107486,61.6320818 300.263899,61.2839355 C300.420313,60.9357893 300.498518,60.262212 300.498518,59.2631836 L300.498518,56.6142578 L306.295882,56.6142578 L306.295882,58.0976562 C306.295882,59.3388734 306.217676,60.2924771 306.061263,60.9584961 C305.904849,61.624515 305.539049,62.3359337 304.96385,63.0927734 C304.388652,63.8496132 303.659574,64.4172344 302.776595,64.7956543 C301.893615,65.1740742 300.786123,65.3632812 299.454085,65.3632812 C298.162412,65.3632812 297.022124,65.1765969 296.033186,64.8032227 C295.044249,64.4298484 294.274807,63.9177279 293.724837,63.2668457 C293.174867,62.6159635 292.79393,61.8994994 292.582014,61.1174316 C292.370099,60.3353639 292.264143,59.1975986 292.264143,57.7041016 L292.264143,51.8461914 C292.264143,50.0903233 292.501283,48.7053273 292.975569,47.6911621 C293.449855,46.6769969 294.226866,45.8999864 295.306624,45.3601074 C296.386382,44.8202284 297.62758,44.550293 299.030257,44.550293 C300.74576,44.550293 302.161029,44.8757292 303.276106,45.5266113 C304.391183,46.1774935 305.173239,47.0402778 305.622298,48.1149902 C306.071356,49.1897026 306.295882,50.7008366 306.295882,52.6484375 L306.295882,55.3125 Z M300.165511,52.0429688 L300.165511,50.574707 C300.165511,49.5353138 300.11001,48.8642593 299.999007,48.5615234 C299.888004,48.2587875 299.660955,48.1074219 299.317854,48.1074219 C298.894024,48.1074219 298.631657,48.2360827 298.530745,48.4934082 C298.429833,48.7507337 298.379378,49.444493 298.379378,50.574707 L298.379378,52.0429688 L300.165511,52.0429688 Z" id="UnlockingBehaviourChange" fill="#FFFFFF"></path>
            </g>
        </g>
    </g>
</svg>