<svg version="1.1" xmlns="http://www.w3.org/2000/svg" xmlns:xlink="http://www.w3.org/1999/xlink" x="0px" y="0px"
     viewBox="0 0 136.4 136.4" style="enable-background:new 0 0 600 136.4;" xml:space="preserve">
<style type="text/css">
	.st1{fill-rule:evenodd;clip-rule:evenodd;fill:#485568;}
	.st2{fill:url(#Circle_2_);}
	.st3{fill-rule:evenodd;clip-rule:evenodd;fill:url(#Flame_4_);}
	.st4{fill:url(#Circle_3_);}
	.st5{fill-rule:evenodd;clip-rule:evenodd;fill:url(#Flame_5_);}
</style>
  <defs>
</defs>
  <g id="Flame_2_">
    <linearGradient id="Circle_2_" gradientUnits="userSpaceOnUse" x1="0" y1="71.1673" x2="130.8823" y2="71.1673">
      <stop offset="0" style="stop-color:#FAA21B"/>
      <stop offset="0.9996" style="stop-color:#F26522"/>
    </linearGradient>
    <path id="Circle_1_" class="st2" d="M72.4,5.9c2,1.9,4,4.1,6,6.6c26.8,5.9,47,29.9,47,58.5c0,33-26.9,59.9-59.9,59.9
    S5.5,104,5.5,71c0-27.6,18.7-50.8,44.1-57.8c0.4-2,0.7-4,0.8-5.9C21.6,14.1,0,40.1,0,71c0,36.1,29.4,65.4,65.4,65.4
    s65.4-29.4,65.4-65.4C130.9,37.2,105.2,9.4,72.4,5.9z"/>
    <linearGradient id="Flame_4_" gradientUnits="userSpaceOnUse" x1="16.2712" y1="62.489" x2="114.525" y2="62.489">
      <stop offset="0" style="stop-color:#FAA21B"/>
        <stop offset="0.9996" style="stop-color:#F26522"/>
    </linearGradient>
    <path id="Flame_3_" class="st3" d="M89.3,22.1c2.8,6.1,3.3,16.4-2.3,21.4C77.4,7.4,53.9,0,53.9,0c2.8,18.6-10.1,38.9-22.5,54.2
    c-0.4-7.4-0.9-12.5-4.8-19.6c-0.9,14.1-11,27.8-10.3,41.4c0,10.4,3.4,20.1,9.1,28.1l29.5-29.5L68.4,88l-29.2,29.2
    c7.6,4.9,16.6,7.8,26.2,7.8c26.7,0,49.1-22.3,49.1-49.1C115.4,50.7,94.5,25.9,89.3,22.1z M81.6,53.6c0.8-0.8,2.1-0.8,2.9,0l5,5
    c0.8,0.8,0.8,2.1,0,2.9l-1.9,1.9l-7.9-7.9L81.6,53.6z M85.1,98.9c-0.8,0.8-2.1,0.8-2.9,0l-38-38c-0.8-0.8-0.8-2.1,0-2.9l16-16
    c0.8-0.8,2.1-0.8,2.9,0l38,38c0.8,0.8,0.8,2.1,0,2.9L85.1,98.9z"/>
  </g>
</svg>
