<?xml version="1.0" encoding="UTF-8"?>
<svg width="373px" height="373px" viewBox="0 0 373 373" version="1.1" xmlns="http://www.w3.org/2000/svg" xmlns:xlink="http://www.w3.org/1999/xlink">
    <!-- Generator: Sketch 57.1 (83088) - https://sketch.com -->
    <title>conference</title>
    <desc>Created with Sketch.</desc>
    <defs>
        <circle id="path-1" cx="186.5" cy="186.5" r="186.5"></circle>
    </defs>
    <g id="home-page-2" stroke="none" stroke-width="1" fill="none" fill-rule="evenodd">
        <g id="control-2-copy-3" transform="translate(-762.000000, -138.000000)">
            <g id="conference" transform="translate(762.000000, 138.000000)">
                <mask id="mask-2" fill="white">
                    <use xlink:href="#path-1"></use>
                </mask>
                <use id="Mask" fill="#2C2C35" xlink:href="#path-1"></use>
                <g mask="url(#mask-2)">
                    <g transform="translate(49.000000, 73.000000)">
                        <path d="M95,4 L263.071416,4 C270.233887,4 276,9.73429361 276,16.8571424 L276,141.142858 C276,148.265723 270.233887,154 263.071416,154 L95,154 L95,4 Z" id="path6428" fill="#FFFFFF" fill-rule="nonzero"></path>
                        <g id="Group" stroke-width="1" fill="none" fill-rule="evenodd" transform="translate(55.000000, 4.000000)">
                            <path d="M70.0005039,25.7145195 C70.0005039,39.9161286 58.4403578,51.4288073 44.1801961,51.4288073 C29.9200344,51.4288073 18.3598899,39.9161286 18.3598899,25.7145195 C18.3598899,11.5129112 29.9200344,0.00023179303 44.1801961,0.00023179303 C58.4403578,0.00023179303 70.0005039,11.5129105 70.0005039,25.7145195 Z" id="circle6597" fill="#E0E0E0" fill-rule="nonzero"></path>
                            <path d="M74.303891,97.980746 L83.5305803,107.169258 L112.414601,107.169258 C117.526,107.169258 121.6411,103.071089 121.6411,97.9805192 C121.6411,92.889949 117.526,88.791764 112.414601,88.791764 L97.3703451,88.791764 L78.9171454,65.8199084 C72.1860889,57.4405823 69.6904561,52.0367918 55.8505124,52.0367918 L32.784042,52.0367918 C14.8936839,52.0367918 0.490896942,66.3804232 0.490896942,84.1974188 L0.490896942,134.735734 L74.303891,134.735734 L74.303891,97.980746 Z" id="path6433" fill="#AFAFAF" fill-rule="nonzero"></path>
                            <path d="M207.860077,0.0169592804 C194.025279,109.684948 86.4628228,136.858575 39.8768106,143.521417 L39.8768106,150.000219 L207.708793,150.000219 C214.861061,150.000219 220.618959,144.265941 220.618959,137.143076 L220.618959,12.8573537 C220.618959,5.78625703 214.940044,0.09945557 207.860077,0.0169592804 L207.860077,0.0169592804 Z" id="path6435" fill="#E0E0E0" fill-rule="nonzero"></path>
                        </g>
                        <polygon id="rect6437" fill="#2DD4BF" fill-rule="nonzero" points="234 81 252 81 252 123 234 123"></polygon>
                        <path d="M121,29 C121,43.3594035 109.359403,55 95,55 C80.640597,55 69,43.3594035 69,29 C69,14.6405965 80.640597,3 95,3 C109.359403,3 121,14.6405965 121,29 Z" id="circle6445" fill="#2DD4BF" fill-rule="nonzero"></path>
                        <path d="M108.574282,7 C111.046658,11.0518943 112.358904,15.7055209 112.36775,20.4528222 C112.367748,34.7627356 100.773387,46.3632121 86.4710158,46.3632137 C81.7152129,46.351379 77.0545047,45.0294626 73,42.5424306 C77.6911916,50.2685503 86.0679363,54.9897468 95.1032659,55 C109.405638,55 121,43.3995219 121,29.0896085 C120.986309,20.063595 116.27895,11.6951652 108.574282,7 Z" id="path6450" fill="#1EAE9C" fill-rule="nonzero"></path>
                        <path d="M120.74078,97.2223251 L129.333438,105.666528 L159.407499,105.666528 C164.167659,105.666528 168,101.900322 168,97.2221017 C168,92.5438975 164.167659,88.7776749 159.407499,88.7776749 L142.222182,88.7776749 L125.037028,67.6666321 C118.768513,59.9660538 116.44437,55 103.555463,55 L82.0740608,55 C65.4130685,55 52,68.1817391 52,84.5554855 L52,131 L120.74078,131 L120.74078,97.2223251 Z" id="path6457" fill="#2DD4BF" fill-rule="nonzero"></path>
                        <path d="M231.708555,38 C231.037593,38.0050367 230.377307,38.1751648 229.780655,38.4966875 L199.344816,54.4236871 L192.707712,40.5165368 C191.693019,38.3651116 189.241938,37.4313123 187.145198,38.397352 L148.586831,56.3441941 C143.361437,58.7724255 146.838011,66.9842666 152.063405,64.5560352 L186.860751,48.3641392 L193.592676,62.4699639 C194.657028,64.6831235 197.23279,65.5727387 199.344816,64.456698 L233.60488,46.5098525 C237.671042,44.41001 236.241851,37.9964413 231.708555,38 L231.708555,38 Z" id="path6460" fill="#2DD4BF" fill-rule="nonzero"></path>
                        <path d="M219.08048,33.0117506 C214.266088,33.3578783 213.450573,40.0332443 218.042216,41.5104217 L227.030321,44.5042713 L223.785515,53.9365098 C221.387992,59.672093 230.470674,62.7344265 232.092205,56.737207 L236.764724,43.1522109 C237.547905,40.8673642 236.311853,38.3859369 234.006649,37.6151979 L220.832741,33.2370946 C220.270099,33.0451091 219.673911,32.96845 219.080546,33.011749 L219.08048,33.0117506 Z" id="path6463" fill="#2DD4BF" fill-rule="nonzero"></path>
                        <path d="M205.471453,71.0097515 C204.938437,71.0394093 204.415404,71.1741409 203.929731,71.4069468 L165.575263,89.3473163 C160.373236,91.7746749 163.834263,99.9835529 169.036295,97.5561943 L207.390796,79.6158247 C211.803609,77.6512595 210.254415,70.7046651 205.471517,71.009743 L205.471453,71.0097515 Z" id="path6471" fill="#0B0B0B" fill-rule="nonzero"></path>
                        <path d="M124.382519,67 C109.943326,101.460716 74.9513312,114.876919 52,120.109665 L52,132 L120.740732,132 L120.740732,97.7745348 L129.33333,106.330893 L159.407397,106.330893 C164.167551,106.330893 168,102.514774 168,97.7745348 C168,93.0343117 164.167551,89.2181604 159.407397,89.2181604 L142.222218,89.2181604 L125.037023,67.8272325 C124.792153,67.5224371 124.616137,67.2962255 124.382467,67 L124.382519,67 Z" id="path6469" fill="#26B4A3" fill-rule="nonzero"></path>
                        <polygon id="rect6473" fill="#2DD4BF" fill-rule="nonzero" transform="translate(206.000000, 116.000000) scale(-1, 1) translate(-206.000000, -116.000000) " points="197 107 215 107 215 125 197 125"></polygon>
                        <path d="M247.823573,81 C239.044049,103.933661 211.847018,114.646778 197,118.931253 L197,123 L214.333333,123 L231.666667,123 L249,123 L249,81 L247.823573,81 Z" id="path6476" fill="#26B4A3" fill-rule="nonzero"></path>
                        <polygon id="rect6489" fill="#2DD4BF" fill-rule="nonzero" transform="translate(224.000000, 108.500000) scale(-1, 1) translate(-224.000000, -108.500000) " points="215 94 233 94 233 123 215 123"></polygon>
                        <path d="M233,103 C227.336891,107.135046 221.072907,110.334037 215,112.913852 L215,123 L233,123 L233,103 Z" id="path6497" fill="#26B4A3" fill-rule="nonzero"></path>
                        <path d="M93.6156001,16.7610681 C93.6103498,21.2515301 89.9715166,24.8960163 85.4880098,24.9012624 C81.0045157,24.906497 77.374173,21.270507 77.3794119,16.780045 C77.3846621,12.2895831 81.0234953,8.6450968 85.5070021,8.63985078 C89.9904962,8.6346161 93.620839,12.2706061 93.6156001,16.7610681 Z" id="ellipse6514" fill="#2DD4BF" fill-rule="nonzero" transform="translate(85.497506, 16.770557) rotate(53.841121) translate(-85.497506, -16.770557) "></path>
                        <path d="M101.000099,11.3821355 C100.994848,15.8725675 97.356038,19.5170684 92.8725085,19.5223327 C88.3889789,19.5275492 84.7586716,15.8915689 84.7639105,11.4011124 C84.7691607,6.91068033 88.4079712,3.26618553 92.8915007,3.26092124 C97.3750303,3.25570476 101.005338,6.89168508 101.000099,11.3821355 Z" id="ellipse6516" fill="#FFE5DD" fill-rule="nonzero" transform="translate(92.882005, 11.391627) rotate(53.841121) translate(-92.882005, -11.391627) "></path>
                        <polygon id="path6439" fill="#2DD4BF" fill-rule="nonzero" points="0 134 0 172.454548 30.1857732 189.545451 30.1857732 275 142.706106 275 142.706106 189.545451 173 168.181826 173 134"></polygon>
                        <path d="M147.883909,134 C134.766161,227.075068 67.6227256,256.856641 30,263.825808 L30,275 L141.090941,275 L141.090941,189.545451 L171,168.181826 L171,134 L147.883909,134 Z" id="path6441" fill="#000000" fill-rule="nonzero" opacity="0.149879092"></path>
                        <path d="M22.3289145,273.296896 C16.5570285,273.27136 16.5570285,298.72864 22.3289145,298.703104 L255.671087,298.703104 C261.442971,298.72864 261.442971,273.27136 255.671087,273.296896 L22.3289145,273.296896 Z" id="path6589" fill="#26B4A3" fill-rule="nonzero"></path>
                        <path d="M69.4413855,88 C67.247808,88.0430026 65.5022115,89.9881885 65.543376,92.3439828 L65.543376,127.37686 C65.058786,133.541047 73.9412085,133.541047 73.4566245,127.37686 L73.4566245,92.3439828 C73.498425,89.9390338 71.68095,87.9728829 69.4413855,88 L69.4413855,88 Z" id="path6480" fill="#151515" fill-rule="nonzero"></path>
                    </g>
                </g>
            </g>
        </g>
    </g>
</svg>