<?xml version="1.0" encoding="UTF-8"?>
<svg width="420px" height="420px" viewBox="0 0 420 420" version="1.1" xmlns="http://www.w3.org/2000/svg" xmlns:xlink="http://www.w3.org/1999/xlink">
    <!-- Generator: Sketch 57.1 (83088) - https://sketch.com -->
    <title>Group 4</title>
    <desc>Created with Sketch.</desc>
    <defs>
        <circle id="path-1" cx="210" cy="210" r="210"></circle>
    </defs>
    <g id="home-page-2" stroke="none" stroke-width="1" fill="none" fill-rule="evenodd">
        <g id="giants-1-copy" transform="translate(-44.000000, -117.000000)">
            <g id="Group-4" transform="translate(44.000000, 117.000000)">
                <g id="Group-3">
                    <mask id="mask-2" fill="white">
                        <use xlink:href="#path-1"></use>
                    </mask>
                    <use id="Mask" fill="#2C2C35" xlink:href="#path-1"></use>
                    <g id="Group-2" mask="url(#mask-2)" fill="#FFFFFF" fill-rule="nonzero">
                        <g transform="translate(59.000000, 201.000000)" id="Shape">
                            <path d="M99,0.00330387379 L99,40 L104.841737,39.9950442 L104.841737,38.6437598 C104.841737,21.4850913 125.100379,7.52126869 150,7.52126869 C174.901573,7.52126869 195.158263,21.4850913 195.158263,38.6437598 L195.158263,39.9983481 L201,39.9983481 L201,0 L99,0.00330387379 L99,0.00330387379 Z M108.953601,20.7830181 C105.554382,24.5907326 103.207534,28.8956802 102.200069,33.5144957 L102.200069,2.71248038 L108.953601,2.71248038 L108.953601,20.7830181 Z M121.746066,11.2116957 C118.14184,13.0288263 114.916389,15.1895598 112.147812,17.6195589 L112.147812,2.71413232 L121.746066,2.71413232 L121.746066,11.2116957 Z M177.189847,8.43644173 C169.432755,6.19971917 160.066843,4.88973321 150,4.88973321 C140.833238,4.88642934 132.258068,5.97009994 124.944183,7.85165607 L124.944183,3.6144375 L177.189847,3.6144375 C177.189847,3.61278599 177.189847,8.43644173 177.189847,8.43644173 Z M189.984266,19.6349219 C187.143448,16.7192533 183.666131,14.1389279 179.694843,11.9666309 L180.386011,11.9666309 L180.386011,2.71082845 L189.984266,2.71082845 L189.984266,19.6349219 Z M197.805788,33.5095399 C197.024808,29.9347485 195.437464,26.543322 193.184334,23.4261171 L193.184334,2.71082845 L197.805788,2.71082845 L197.805788,33.5095399 Z"></path>
                            <path d="M198,0.00330387379 L198,40 L203.841737,39.9950442 L203.841737,38.6437598 C203.841737,21.4850913 224.100379,7.52126869 249,7.52126869 C273.901573,7.52126869 294.158263,21.4850913 294.158263,38.6437598 L294.158263,39.9983481 L300,39.9983481 L300,0 L198,0.00330387379 L198,0.00330387379 Z M207.953601,20.7830181 C204.554382,24.5907326 202.207534,28.8956802 201.200069,33.5144957 L201.200069,2.71248038 L207.953601,2.71248038 L207.953601,20.7830181 Z M220.746066,11.2116957 C217.14184,13.0288263 213.916389,15.1895598 211.147812,17.6195589 L211.147812,2.71413232 L220.746066,2.71413232 L220.746066,11.2116957 Z M276.189847,8.43644173 C268.432755,6.19971917 259.066843,4.88973321 249,4.88973321 C239.833238,4.88642934 231.258068,5.97009994 223.944183,7.85165607 L223.944183,3.6144375 L276.189847,3.6144375 C276.189847,3.61278599 276.189847,8.43644173 276.189847,8.43644173 Z M288.984266,19.6349219 C286.143448,16.7192533 282.666131,14.1389279 278.694843,11.9666309 L279.386011,11.9666309 L279.386011,2.71082845 L288.984266,2.71082845 L288.984266,19.6349219 Z M296.805788,33.5095399 C296.024808,29.9347485 294.437464,26.543322 292.184334,23.4261171 L292.184334,2.71082845 L296.805788,2.71082845 L296.805788,33.5095399 Z"></path>
                            <path d="M0,0.00330387379 L0,40 L5.84173653,39.9950442 L5.84173653,38.6437598 C5.84173653,21.4850913 26.100379,7.52126869 51,7.52126869 C75.9015734,7.52126869 96.1582635,21.4850913 96.1582635,38.6437598 L96.1582635,39.9983481 L102,39.9983481 L102,0 L0,0.00330387379 L0,0.00330387379 Z M9.95360055,20.7830181 C6.55438153,24.5907326 4.20753417,28.8956802 3.20006891,33.5144957 L3.20006891,2.71248038 L9.95360055,2.71248038 L9.95360055,20.7830181 Z M22.7460664,11.2116957 C19.1418399,13.0288263 15.9163891,15.1895598 13.1478121,17.6195589 L13.1478121,2.71413232 L22.7460664,2.71413232 L22.7460664,11.2116957 Z M78.1898472,8.43644173 C70.4327553,6.19971917 61.0668428,4.88973321 51,4.88973321 C41.8332376,4.88642934 33.2580682,5.97009994 25.9441828,7.85165607 L25.9441828,3.6144375 L78.1898472,3.6144375 C78.1898472,3.61278599 78.1898472,8.43644173 78.1898472,8.43644173 Z M90.9842655,19.6349219 C88.1434478,16.7192533 84.6661307,14.1389279 80.6948432,11.9666309 L81.3860113,11.9666309 L81.3860113,2.71082845 L90.9842655,2.71082845 L90.9842655,19.6349219 Z M98.8057884,33.5095399 C98.0248076,29.9347485 96.4374641,26.543322 94.1843344,23.4261171 L94.1843344,2.71082845 L98.8057884,2.71082845 L98.8057884,33.5095399 Z"></path>
                        </g>
                    </g>
                    <g id="Group-6" mask="url(#mask-2)" fill-rule="nonzero">
                        <g transform="translate(238.000000, 107.000000)">
                            <path d="M166,42 C166,65.1959596 147.419816,84 124.5,84 C101.580184,84 83,65.1959596 83,42 C83,18.8040404 101.580184,0 124.5,0 C147.419816,0 166,18.8040404 166,42 Z" id="circle6445" fill="#00FDDD"></path>
                            <path d="M146.325946,7 C150.240542,13.4999137 152.318264,20.9651064 152.332271,28.5805689 C152.332268,51.5360551 133.97453,70.1451527 111.329108,70.1451553 C103.799087,70.1261704 96.4196325,68.0055963 90,64.0159825 C97.42772,76.4099661 110.690899,83.9835522 124.996838,84 C147.64226,84 166,65.3908997 166,42.4354136 C165.978323,27.9561837 158.525003,14.5318275 146.325946,7 Z" id="path6450" fill="#1EAE9C"></path>
                            <path d="M197.926039,213.666963 L222.666969,237.999601 L309.259523,237.999601 C322.965501,237.999601 334,227.14698 334,213.666319 C334,200.185705 322.965501,189.333037 309.259523,189.333037 L259.777663,189.333037 L210.29627,128.4999 C192.24727,106.310076 185.55534,92 148.444179,92 L86.5925543,92 C38.620387,92 0,129.984222 0,177.166465 L0,311 L197.926039,311 L197.926039,213.666963 Z" id="path6457" fill="#00FDDD"></path>
                            <path d="M208.411734,125 C166.836819,224.670993 66.0840052,263.474781 0,278.609494 L0,313 L197.925902,313 L197.925902,214.009424 L222.666657,238.757044 L309.259231,238.757044 C322.965189,238.757044 334,227.719654 334,214.009424 C334,200.29924 322.965189,189.261756 309.259231,189.261756 L259.777767,189.261756 L210.296256,127.392611 C209.591199,126.511049 209.084395,125.856775 208.411585,125 L208.411734,125 Z" id="path6469" fill="#26B4A3"></path>
                            <path d="M37.0158261,154.60197 L37.0158261,305.909505 C36.4666241,316.696832 46.5333696,316.696832 45.9841744,305.909505 L45.9841744,154.60197 C46.0315483,150.393309 43.9717433,146.952545 41.4335702,146.999515 C38.9475157,147.075255 36.969173,150.47933 37.0158261,154.60197 Z" id="path6480" fill="#151515"></path>
                        </g>
                    </g>
                    <g id="Group-6" mask="url(#mask-2)" fill-rule="nonzero">
                        <g transform="translate(-151.000000, 110.000000)">
                            <path d="M258,42 C258,65.1959596 239.419816,84 216.5,84 C193.580184,84 175,65.1959596 175,42 C175,18.8040404 193.580184,0 216.5,0 C239.419816,0 258,18.8040404 258,42 Z" id="circle6445" fill="#00FDDD"></path>
                            <path d="M238.325946,7 C242.240542,13.4999137 244.318264,20.9651064 244.332271,28.5805689 C244.332268,51.5360551 225.97453,70.1451527 203.329108,70.1451553 C195.799087,70.1261704 188.419632,68.0055963 182,64.0159825 C189.42772,76.4099661 202.690899,83.9835522 216.996838,84 C239.64226,84 258,65.3908997 258,42.4354136 C257.978323,27.9561837 250.525003,14.5318275 238.325946,7 Z" id="path6450" fill="#1EAE9C"></path>
                            <path d="M197.926039,211.666963 L222.666969,235.999601 L309.259523,235.999601 C322.965501,235.999601 334,225.14698 334,211.666319 C334,198.185705 322.965501,187.333037 309.259523,187.333037 L259.777663,187.333037 L210.29627,126.4999 C192.24727,104.310076 185.55534,90 148.444179,90 L86.5925543,90 C38.620387,90 0,127.984222 0,175.166465 L0,309 L197.926039,309 L197.926039,211.666963 Z" id="path6457" fill="#00FDDD" transform="translate(167.000000, 199.500000) scale(-1, 1) translate(-167.000000, -199.500000) "></path>
                            <path d="M332,155 C290.425085,254.670946 202.084005,259.474781 136,274.609494 L136,309 L333.925902,309 L333.925902,210.009424 C335.090507,181.240991 335.44854,166.571184 335,166 L332,155 Z" id="path6469" fill="#26B4A3"></path>
                        </g>
                    </g>
                    <g id="logo-apiplatform" mask="url(#mask-2)" fill="#2C2C35" fill-rule="nonzero">
                        <g transform="translate(34.000000, 241.000000)">
                            <path d="M59.6562314,38.0815532 L60.7778625,39.2633811 L61.8994937,38.0815532 C62.520896,37.4395726 63.4040641,37.4395726 63.979638,38.0815532 L65.4849851,39.6281428 C65.9424925,40.1388092 66.3262085,40.4597995 66.4,41.1747325 L66.4,46.732933 C66.4,48.380888 63.8025383,48.380888 63.8025383,46.732933 L63.8025383,40.2701234 L62.0765934,40.2701234 L62.0765934,46.732933 C62.0765934,48.4223557 59.49389,48.4223557 59.49389,46.732933 L59.49389,40.2701234 L57.7966849,40.2701234 L57.7966849,46.732933 C57.7966849,48.380888 55.2,48.380888 55.2,46.732933 L55.2,41.1747325 C55.2295166,40.4597995 55.6427492,40.1388092 56.1150149,39.6281428 L57.6226923,38.0815532 C58.1951592,37.4395726 59.0806575,37.4395726 59.6562314,38.0815532 Z M21.0494841,38.0498096 L23.0518796,39.6145325 C23.6326226,40.082487 23.9540047,40.4611607 24,41.1792553 L24,46.7208217 C24.0027341,47.0549793 23.8650601,47.3762329 23.6177743,47.6125256 C23.3704885,47.8488184 23.0342894,47.9803722 22.6845858,47.9776798 C22.3309016,47.9838603 21.9893664,47.854397 21.736298,47.6182192 C21.4832296,47.3820414 21.3397217,47.0588349 21.3378419,46.7208217 L21.3378419,45.4778176 L18.6773784,43.1234215 L18.6773784,46.7208217 C18.6773784,47.4272924 18.0780268,48 17.3386892,48 C16.5993516,48 16,47.4272924 16,46.7208217 L16,41.1792553 C16.0612156,40.4627 16.4124,40.082487 16.9786446,39.6145325 L18.9375448,38.0498096 C19.7180441,37.4648665 20.2842887,37.4356193 21.0494841,38.0498096 Z M29.167764,37.6000677 C30.8107453,37.6000677 30.8107453,40.1653753 29.167764,40.1653753 L28.078055,40.1653753 L28.078055,46.6958135 C28.078055,48.4347288 25.533615,48.4347288 25.533615,46.6958135 L25.533615,40.1653753 L24.4431407,40.1653753 C22.7856198,40.1653753 22.7856198,37.6000677 24.4431407,37.6000677 L29.167764,37.6000677 Z M36.3701716,37.6000677 C37.0413596,37.5928667 37.5915189,38.1608594 37.6,38.8699007 C37.6,39.5785669 37.0270118,40.1838859 36.3701716,40.1838859 L33.6449836,40.1838859 L33.6449836,41.8933877 L35.8405804,41.8933877 C36.5114481,41.9001859 37.0525783,42.4753122 37.0549624,43.1840615 C37.0417976,43.9008729 36.4898032,44.475737 35.8111587,44.4793976 L33.6449836,44.4793976 L33.6449836,46.7382711 C33.6449836,48.4205763 31.2,48.4205763 31.2,46.7382711 L31.2,39.7852612 C31.1976924,39.2075493 31.4129342,38.6525709 31.7983101,38.2426807 C32.1836864,37.8327906 32.7075512,37.6016461 33.2544101,37.6000677 L36.3701716,37.6000677 Z M51.1171926,37.6000677 C51.6844937,37.6000677 52.1555433,37.8221127 52.5711752,38.2365095 L53.7487991,39.4501 C54.1644311,39.8940966 54.4,40.4120926 54.4,41.0484876 L54.4,41.6249042 C54.4036017,42.6460963 53.960261,43.326891 53.1844147,43.7428456 C54.0433874,44.3052413 54.3511009,45.0156358 54.3511009,45.9480285 L54.3511009,46.7028226 C54.3617756,47.162388 54.138365,47.5920091 53.7674727,47.8251468 C53.3965808,48.0582844 52.9365188,48.0582844 52.5656269,47.8251468 C52.1947345,47.5920091 51.971324,47.162388 51.9819987,46.7028226 L51.9819987,45.9776283 L49.6107091,42.8976943 L49.6107091,46.7028226 C49.6136244,47.0426225 49.4894523,47.3696097 49.2657533,47.6112072 C49.0420544,47.8528047 48.7373353,47.9890252 48.4192308,47.9896337 C48.0975815,47.9925373 47.7881095,47.8583951 47.5592965,47.6168908 C47.3304839,47.3753865 47.2011963,47.0464328 47.2,46.7028226 L47.2,38.9025043 C47.1980886,38.556453 47.3259103,38.2239702 47.5549774,37.9792705 C47.7840445,37.7345709 48.0952867,37.5980259 48.4192308,37.6000677 L51.1171926,37.6000677 Z M4.67354845,37.6001893 C5.20272873,37.5941618 5.71282354,37.8124252 6.09339005,38.2077223 L7.41601204,39.6278989 C8.2866354,40.5169716 8.13282527,42.7092377 7.29194821,43.5834925 L6.09339005,44.8118166 C5.72172575,45.2234727 5.20705001,45.4496329 4.67354845,45.4357272 L3.18478249,45.4341674 L3.18478249,46.6819887 C3.18478249,47.4072849 2.68852718,48 2.01306855,48 C1.34116815,47.9918844 0.800354943,47.4042854 0.8,46.6819887 L0.8,39.7893358 C0.809099559,38.5828599 1.7177782,37.6078236 2.84016075,37.6001893 L4.67354845,37.6001893 Z M10.164953,37.6002959 C10.5243543,37.5938483 10.871649,37.7242499 11.1300745,37.9626781 C11.3885,38.2011062 11.5367762,38.5279273 11.5421296,38.8709043 L11.5421296,45.4300118 C12.9046379,45.4300118 12.5200064,45.4004628 13.864587,45.4004628 C15.6451377,45.4004628 15.6451377,48 13.864587,48 L11.1526086,48 C9.86060193,47.9970676 8.81160393,47.0026615 8.8,45.7698257 L8.8,38.8709043 C8.8,38.1765021 9.43154544,37.6002959 10.164953,37.6002959 Z M44.2685756,37.6000677 C45.4426317,37.6077704 46.3925557,38.5906977 46.4,39.8055436 L46.4,45.7953085 C46.4,46.8682427 45.4062954,48 44.3405832,48 L41.3306664,48 C40.2649542,48 39.2,46.8682427 39.2,45.7953085 L39.2,39.8055436 C39.2,38.5090814 40.2369091,37.6000677 41.3882724,37.6000677 L44.2685756,37.6000677 Z M44,40.8000469 L41.6,40.8000469 L41.6,45.6000156 L44,45.6000156 L44,40.8000469 Z M20.8,40.0000521 L18.4,40.0000521 L18.4,42.4000365 L20.8,42.4000365 L20.8,40.0000521 Z M3.2,40.0000521 L3.2,42.4000365 L5.6,42.4000365 L5.6,40.026579 L3.2,40.0000521 Z M52,40.0000521 L49.6,40.0015563 L49.6,42.4000365 L52,42.4000365 L52,40.0000521 Z" id="Combined-Shape"></path>
                            <path d="M15.54712,1.46072 L21.71984,6.50256 C23.5104,8.0104 24.49992,9.23056 24.6415379,11.54192 L24.6415379,29.39792 C24.6499741,30.4761658 24.2251432,31.512704 23.4622174,32.2746973 C22.6992915,33.0366904 21.6622344,33.460253 20.584,33.45024 C19.4958747,33.4688133 18.4455885,33.0510627 17.6674842,32.2901978 C16.8893798,31.529333 16.4482066,30.4886683 16.4424,29.4004 L16.4424,25.3952 L8.2584,17.80888 L8.2584,29.4004 C8.25580808,30.4823051 7.82147709,31.5184222 7.05181042,32.2787766 C6.28214376,33.0391309 5.24081653,33.4608176 4.15896,33.45024 C3.07018426,33.465468 2.0200304,33.0471672 1.23990826,32.2875134 C0.459786107,31.5278595 0.0137184981,30.4891958 -1.43884904e-13,29.4004 L-1.43884904e-13,11.5444 C0.18848,9.238 1.27224,8.01288 3.01568,6.50504 L9.04704,1.46072 C11.44768,-0.42408 13.19112,-0.51832 15.54712,1.46072 Z M16.4424,8.62296 L8.2584,8.62296 L8.2584,17.19632 L16.4424,17.19632 L16.4424,8.62296 Z" id="Combined-Shape"></path>
                            <path d="M60.35576,10.59208 C62.71176,10.59208 64.54944,12.24872 64.54944,14.27736 L64.54944,29.69056 C64.54944,31.7192 62.71176,33.4105817 60.35576,33.4105817 C58.094,33.41552 56.2092,31.7192 56.2092,29.69056 L56.2092,14.4832 C56.2092,12.4124 57.9452,10.59208 60.35576,10.59208 Z" id="Combined-Shape-path"></path>
                            <path d="M42.02856,0.248 C43.8322547,0.228123856 45.5716018,0.91745032 46.872,2.16752 L51.40544,6.696 C54.38144,9.5232 53.85568,16.49448 50.98136,19.27456 L46.872,23.18056 C45.6015621,24.4896029 43.8422766,25.2087794 42.01864,25.16456 L36.952,25.1596 L36.952,29.1276 C36.952,31.434 35.25816,33.3188 32.94928,33.3188 C30.6525629,33.292993 28.8039333,31.4244618 28.80272,29.1276 L28.80272,7.20936 C28.8337368,3.37762816 31.9323482,0.279016768 35.76408,0.248 L42.02856,0.248 Z M37.03384,8.38736 L37.03384,16.9136 L44.85576,16.9136 L44.85576,8.4816 L37.03384,8.38736 Z" id="Combined-Shape"></path>
                            <polygon id="Combined-Shape-path" points="64.3684 0.3224 64.3684 8.68 56.37784 8.68 56.37784 0.3224"></polygon>
                        </g>
                    </g>
                    <g id="logo-nuxt" mask="url(#mask-2)">
                        <g transform="translate(329.000000, 234.000000)">
                            <path d="M19.5450009,0 C20.1294309,0 20.6887809,0.0397043182 21.1950009,0.324 C21.7012209,0.608295682 22.0576209,1.12717023 22.3500009,1.6196175 L22.3500009,1.6196175 L28.6200009,11.988 L31.7550009,6.642 C32.0470509,6.14952 32.4039459,5.79234273 32.9100009,5.508 C33.4160559,5.22365727 33.9755709,5.022 34.5600009,5.022 C35.1444309,5.022 35.8689459,5.22365727 36.3750009,5.508 C36.8810559,5.79234273 37.2379509,6.14952 37.5300009,6.642 L37.5300009,6.642 L49.9050009,27.5401616 C50.1975459,28.03248 50.4,28.5910558 50.4,29.1598384 C50.4,29.72862 50.1970509,30.2873584 49.9050009,30.78 C49.6129509,31.2726416 49.0912209,31.6295284 48.5850009,31.914 C48.0787809,32.1984716 47.5194309,32.4 46.9350009,32.4 L46.9350009,32.4 L28.6200009,32.4 L31.5900009,27.216 L43.6350009,27.216 L34.5600009,11.988 L31.5900009,17.01 L25.9800009,26.568 C23.6576259,30.3843958 20.3266059,32.4 15.7500009,32.4 L15.7500009,32.4 L4.20000093,32.4 C3.61553793,32.4 3.05613843,32.1984716 2.55000093,31.914 C2.04385518,31.6295284 1.52210868,31.27248 1.23000093,30.78 C0.937892869,30.2873584 0.9,29.72862 0.9,29.1598384 C0.9,28.5910558 0.937452525,28.03248 1.23000093,27.5401616 L1.23000093,27.5401616 L16.5750009,1.6196175 C16.8673314,1.12717023 17.3888304,0.608295682 17.8950009,0.324 C18.4012209,0.0397043182 18.9605709,0 19.5450009,0 Z M19.1454545,6.3 L7.2,27 L15.2181818,27 C17.9162182,27 19.6599273,26.1802143 21.1894364,23.6691071 L21.1894364,23.6691071 L25.2,16.65 L19.1454545,6.3 Z" id="Combined-Shape" fill="#2C2C35" fill-rule="nonzero"></path>
                            <g id="Group-5" stroke-width="1" fill="none" fill-rule="evenodd" transform="translate(0.000000, 35.100000)">
                                <path d="M2.9952,-3.55271368e-15 C3.36258238,-3.55271368e-15 3.75803683,0.18306792 3.97685542,0.48943368 L4.032,0.576 L8.1792,7.6032 L10.2528,11.2896 L10.2528,0.4608 C10.2528,0.1983636 10.462445,0.03225816 10.6561817,0.00422568 L10.7136,-3.55271368e-15 L13.824,-3.55271368e-15 L13.824,17.28 L10.7136,17.28 C10.3673619,17.28 9.95211842,17.0581615 9.72854842,16.685159 L9.6768,16.5888 L5.184,8.8704 C4.18295174,7.20198648 3.61147205,6.17792544 3.57324998,6.10928424 L3.5712,6.1056 L3.5712,16.8192 C3.5712,17.0505425 3.39601982,17.2420884 3.17721773,17.2750032 L3.1104,17.28 L-8.52651283e-14,17.28 L-8.52651283e-14,-3.55271368e-15 L2.9952,-3.55271368e-15 Z" id="Combined-Shape-path" fill="#2C2C35" fill-rule="nonzero"></path>
                                <path d="M47.8702699,1.3824 L47.8702699,5.01613704 L51.1488,5.01613704 L51.1488,7.74144 L47.8702699,7.74144 L47.8702699,12.6242741 C47.8702699,13.8165941 48.484327,14.3275889 49.570249,14.3275889 L51.1488,14.3275889 L51.1488,17.28 L49.0845406,17.28 C46.2854045,17.28 44.4703133,15.5847478 44.4703133,12.7378289 L44.4703133,7.74144 L42.1632,7.74144 L42.1632,5.01613704 L43.741751,5.01613704 C44.1441605,5.01613704 44.4703133,4.71109608 44.4703133,4.33481112 L44.4703133,1.3824 L47.8702699,1.3824 Z" id="Combined-Shape-path" fill="#2C2C35" fill-rule="nonzero"></path>
                                <path d="M24.9500902,4.83972264 C24.984455,4.84019784 25.0667302,4.83996024 25.1251913,4.83981192 L26.9568,4.83972264 L26.9568,11.9813638 C26.9568,13.5944525 26.3706178,14.9542445 25.5075098,15.8977469 C24.6444012,16.84125 23.452416,17.28 21.828542,17.28 C20.2046679,17.28 18.9011984,16.84125 18.0380903,15.8977469 C17.1895866,14.9542445 16.5888,13.5944525 16.5888,11.9813638 L16.5888,4.83972264 L18.372542,4.83972264 C18.7529249,4.83972264 19.1271763,4.91136984 19.3758967,5.18528592 C19.6246173,5.44398624 19.7103484,5.59595376 19.7103484,5.99160024 L19.7103484,11.9813638 C19.7103484,12.9096612 19.7612965,13.4830663 20.1562839,13.939555 C20.5512713,14.3808394 21.0385673,14.5154938 21.828542,14.5154938 C22.633121,14.5154938 22.9943287,14.3808394 23.3893161,13.939555 C23.7843035,13.4830663 23.8352516,12.9096612 23.8352516,11.9813638 L23.8352516,5.99160024 C23.8352516,5.59595376 23.9209827,5.34401496 24.169703,5.07009816 C24.3882115,4.82943672 24.6187606,4.83510384 24.9500902,4.83972264 Z" id="Combined-Shape-path" fill="#2C2C35" fill-rule="nonzero"></path>
                                <path d="M29.3858741,4.8384 L32.34816,4.8384 C32.7040985,4.8384 33.1231615,5.04901728 33.3559123,5.3347212 L33.414583,5.4144 L35.1919541,8.064 L37.087817,5.2992 C37.2810528,5.0063868 37.5797686,4.86738936 37.9206475,4.84251768 L38.0357489,4.8384 L41.1165259,4.8384 L37.087817,10.8288 L41.472,17.28 L38.391223,17.28 C38.0411345,17.28 37.7221867,17.0693078 37.5052435,16.7897808 L37.4432911,16.704 L35.1919541,13.4784 L33.0591089,16.5888 C32.8616424,16.8831072 32.5532606,17.218651 32.2066116,17.2725314 L32.111177,17.28 L29.0304,17.28 L33.414583,10.7136 L29.3858741,4.8384 L32.34816,4.8384 L29.3858741,4.8384 Z" id="Combined-Shape-path" fill="#2C2C35" fill-rule="nonzero"></path>
                            </g>
                        </g>
                    </g>
                    <path d="M142.015826,272.60197 L142.015826,423.909505 C141.466624,434.696832 151.53337,434.696832 150.984174,423.909505 L150.984174,272.60197 C151.031548,268.393309 148.971743,264.952545 146.43357,264.999515 C143.947516,265.075255 141.969173,268.47933 142.015826,272.60197 Z" id="path6480" fill="#151515" fill-rule="nonzero" mask="url(#mask-2)"></path>
                    <g id="construction-site" mask="url(#mask-2)" fill="#FFFFFF" fill-rule="nonzero">
                        <g transform="translate(265.500000, 152.000000) scale(-1, 1) translate(-265.500000, -152.000000) translate(232.000000, 100.000000)" id="Shape">
                            <path d="M66.4801879,26.5930464 L59.3013586,19.0621431 C59.0412482,18.7559496 58.6915886,18.5682238 58.3066906,18.5682238 L56.0401699,18.5682238 L29.5379708,2.57507863 L29.5379708,1.82258065 C29.5379708,0.816060484 28.8873315,0 28.0848401,0 L23.1271212,0.00205040323 C22.4855639,0.00159475806 21.8984991,0.538572581 21.7250316,1.35258266 L21.3395887,3.14098992 L8.71860299,15.9011048 L1.45313077,15.9011048 C0.650639303,15.9011048 0,16.7171653 0,17.7236855 L0,30.6558065 C0,31.6623266 0.650639303,32.4783871 1.45313077,32.4783871 L11.7638202,32.4783871 C12.5663116,32.4783871 13.2169509,31.6623266 13.2169509,30.6558065 L13.2169509,29.8110403 L16.7162715,29.8110403 L16.7162715,100.784153 L11.8092305,100.784153 C11.006739,100.784153 10.3560997,101.600214 10.3560997,102.606734 L10.3560997,102.177419 C10.3560997,103.18394 11.006739,104 11.8092305,104 L34.4450118,104 C35.2475033,104 35.8981426,103.18394 35.8981426,102.177419 L35.8981426,102.606506 C35.8981426,101.599986 35.2475033,100.783925 34.4450118,100.783925 L29.5379708,100.783925 L29.5379708,29.8110403 L56.5754669,29.8110403 L56.5754669,57.756125 L59.4817285,57.756125 L59.4817285,29.8110403 L65.5496393,29.8078508 C65.9639632,29.807623 66.3753808,29.5859516 66.6621925,29.1560504 C67.1758743,28.3853266 67.0946806,27.2377843 66.4801879,26.5930464 Z M24.2376764,3.64516129 L26.6317093,3.64516129 L26.6317093,18.5682238 L21.0211714,18.5682238 L24.2376764,3.64516129 Z M12.7993575,16.4451452 L20.0526597,9.11221976 L18.0144622,18.5682238 L13.2169509,18.5682238 L13.2169509,17.7236855 C13.2169509,17.2254375 13.0576515,16.774121 12.7993575,16.4451452 L12.7993575,16.4451452 Z M16.1130406,25.148879 L14.5133252,22.2133851 L18.4534893,22.2133851 L16.1130406,25.148879 Z M21.9615286,22.9679335 L24.5110466,26.1656512 L19.4120107,26.1656512 L21.9615286,22.9679335 Z M19.6223514,32.3881694 L26.0299315,40.4246109 L19.6223514,48.4610524 L19.6223514,32.3881694 Z M26.0299315,65.297369 L19.6223514,73.3340383 L19.6223514,57.2609274 L26.0299315,65.297369 Z M19.6223514,82.1336855 L26.0299315,90.1703548 L19.6223514,98.2067964 L19.6223514,82.1336855 Z M26.6317093,100.783925 L21.6772599,100.783925 L26.6317093,94.5698367 L26.6317093,100.783925 Z M26.6317093,85.7704173 L20.2243108,77.7339758 L26.6317093,69.6973065 L26.6317093,85.7704173 Z M26.6317093,60.8976593 L20.2243108,52.8612177 L26.6317093,44.8247762 L26.6317093,60.8976593 Z M26.6317093,36.0249012 L21.6772599,29.8108125 L26.6317093,29.8108125 L26.6317093,36.0249012 Z M28.0190859,25.4111028 L25.469568,22.2133851 L30.5686038,22.2133851 L28.0190859,25.4111028 Z M31.5269436,26.165879 L34.0764615,22.9681613 L36.6261611,26.165879 L31.5269436,26.165879 Z M40.1340188,25.4111028 L37.5845009,22.2133851 L42.6837184,22.2133851 L40.1340188,25.4111028 Z M43.6420581,26.165879 L46.1917577,22.9681613 L48.7412756,26.165879 L43.6420581,26.165879 Z M29.5377892,18.5682238 L29.5377892,6.60366532 L49.3643055,18.5682238 L29.5377892,18.5682238 Z M52.2491333,25.4111028 L49.6994337,22.2133851 L54.7986513,22.2133851 L52.2491333,25.4111028 Z M58.0284161,26.165879 L55.7571727,26.165879 L58.3958765,22.8563004 L61.550805,26.165879 L58.0284161,26.165879 Z"></path>
                        </g>
                    </g>
                </g>
                <g id="construction-site" transform="translate(117.000000, 125.000000)" fill="#FFFFFF" fill-rule="nonzero">
                    <path d="M55.5655302,19.9447848 L49.5653147,14.2966074 C49.3479089,14.0669622 49.0556562,13.9261678 48.7339503,13.9261678 L46.839545,13.9261678 L24.6884532,1.93130897 L24.6884532,1.36693548 C24.6884532,0.612045363 24.1446353,0 23.4738962,0 L19.3301311,0.00153780242 C18.7939042,0.00119606855 18.3032231,0.403929435 18.1582354,1.014437 L17.8360741,2.35574244 L7.28719056,11.9258286 L1.21455706,11.9258286 C0.543817925,11.9258286 0,12.537874 0,13.2927641 L0,22.9918548 C0,23.746745 0.543817925,24.3587903 1.21455706,24.3587903 L9.83244671,24.3587903 C10.5031858,24.3587903 11.0470038,23.746745 11.0470038,22.9918548 L11.0470038,22.3582802 L13.971809,22.3582802 L13.971809,75.5881149 L9.87040161,75.5881149 C9.19966248,75.5881149 8.65584455,76.2001603 8.65584455,76.9550504 L8.65584455,76.6330645 C8.65584455,77.3879546 9.19966248,78 9.87040161,78 L28.7898606,78 C29.4605998,78 30.0044177,77.3879546 30.0044177,76.6330645 L30.0044177,76.9548795 C30.0044177,76.1999894 29.4605998,75.5879441 28.7898606,75.5879441 L24.6884532,75.5879441 L24.6884532,22.3582802 L47.2869574,22.3582802 L47.2869574,43.3170938 L49.7160716,43.3170938 L49.7160716,22.3582802 L54.7877582,22.3558881 C55.1340588,22.3557172 55.4779303,22.1894637 55.7176535,21.8670378 C56.1469994,21.288995 56.079136,20.4283382 55.5655302,19.9447848 Z M20.2583564,2.73387097 L22.2593391,2.73387097 L22.2593391,13.9261678 L17.5699343,13.9261678 L20.2583564,2.73387097 Z M10.6979704,12.3338589 L16.760432,6.83416482 L15.0568639,13.9261678 L11.0470038,13.9261678 L11.0470038,13.2927641 C11.0470038,12.9190781 10.913858,12.5805907 10.6979704,12.3338589 L10.6979704,12.3338589 Z M13.467616,18.8616593 L12.1305405,16.6600388 L15.423812,16.6600388 L13.467616,18.8616593 Z M18.3559045,17.2259501 L20.4868449,19.6242384 L16.2249642,19.6242384 L18.3559045,17.2259501 Z M16.4007713,24.291127 L21.7563607,30.3184582 L16.4007713,36.3457893 L16.4007713,24.291127 Z M21.7563607,48.9730267 L16.4007713,55.0005287 L16.4007713,42.9456956 L21.7563607,48.9730267 Z M16.4007713,61.6002641 L21.7563607,67.6277661 L16.4007713,73.6550973 L16.4007713,61.6002641 Z M22.2593391,75.5879441 L18.1183068,75.5879441 L22.2593391,70.9273775 L22.2593391,75.5879441 Z M22.2593391,64.327813 L16.9039016,58.3004819 L22.2593391,52.2729798 L22.2593391,64.327813 Z M22.2593391,45.6732445 L16.9039016,39.6459133 L22.2593391,33.6185822 L22.2593391,45.6732445 Z M22.2593391,27.0186759 L18.1183068,22.3581094 L22.2593391,22.3581094 L22.2593391,27.0186759 Z M23.4189375,19.0583271 L21.2879971,16.6600388 L25.5498778,16.6600388 L23.4189375,19.0583271 Z M26.3508782,19.6244093 L28.4818186,17.226121 L30.6129108,19.6244093 L26.3508782,19.6244093 Z M33.5448515,19.0583271 L31.4139112,16.6600388 L35.6759437,16.6600388 L33.5448515,19.0583271 Z M36.4769441,19.6244093 L38.6080363,17.226121 L40.7389767,19.6244093 L36.4769441,19.6244093 Z M24.6883014,13.9261678 L24.6883014,4.95274899 L41.259718,13.9261678 L24.6883014,13.9261678 Z M43.6709174,19.0583271 L41.5398252,16.6600388 L45.8018578,16.6600388 L43.6709174,19.0583271 Z M48.5013627,19.6244093 L46.60301,19.6244093 L48.8084938,17.1422253 L51.445449,19.6244093 L48.5013627,19.6244093 Z" id="Shape"></path>
                </g>
                <g id="Group" transform="translate(145.000000, 161.000000)" fill="#00FDDD">
                    <g id="Group-Copy-4" transform="translate(0.956522, 0.000000)">
                        <path d="M30.0434783,6.21923978 L17.1291965,17.0711829 L27.9808619,30.0222809 C27.9673636,30.0336949 27.9538428,30.0450922 27.9402996,30.0564726 C20.7852799,36.0688757 10.0870041,35.0973095 4.04503187,27.8864188 C-1.99694033,20.6755281 -1.09463698,9.95593049 6.0603828,3.94352739 C13.2154026,-2.06887571 23.9136784,-1.09730954 29.9556506,6.11358117 C29.9850913,6.14871772 30.0143672,6.18393757 30.0434783,6.21923978 Z" id="Path"></path>
                        <polygon id="Path" points="71.0434783 40 55.3625885 23.8349335 40.0434783 39.6270499 40.0434783 7 71.0434783 7 71.0434783 40"></polygon>
                    </g>
                </g>
                <ellipse id="Oval" fill="#2C2C35" cx="355" cy="145.5" rx="4" ry="7.5"></ellipse>
                <ellipse id="Oval" fill="#2C2C35" cx="370" cy="145.5" rx="4" ry="7.5"></ellipse>
                <ellipse id="Oval" fill="#2C2C35" cx="57.999999" cy="149.5" rx="4" ry="7.5"></ellipse>
                <ellipse id="Oval" fill="#2C2C35" cx="72.499999" cy="149.5" rx="4.5" ry="7.5"></ellipse>
                <polygon id="Path-46" fill="#00FDDD" points="224 172 257 172 240.5 143"></polygon>
            </g>
        </g>
    </g>
</svg>