<?xml version="1.0" encoding="UTF-8"?>
<svg width="425px" height="443px" viewBox="0 0 425 443" version="1.1" xmlns="http://www.w3.org/2000/svg" xmlns:xlink="http://www.w3.org/1999/xlink">
    <!-- Generator: Sketch 57.1 (83088) - https://sketch.com -->
    <title>Group 2</title>
    <desc>Created with Sketch.</desc>
    <g id="home-page-2" stroke="none" stroke-width="1" fill="none" fill-rule="evenodd">
        <g id="business-2" transform="translate(-104.000000, -116.000000)">
            <g id="Group-2" transform="translate(104.000000, 116.000000)">
                <circle id="Oval" fill="#2C2C35" cx="212.5" cy="230.5" r="212.5"></circle>
                <g id="online-analytical-2" transform="translate(75.000000, 88.000000)" fill-rule="nonzero">
                    <g id="online-analytical">
                        <path d="M169,296 L103,296 C111.040978,291.563455 116.029874,283.132331 116.029874,273.98036 L116.029874,262 L155.970126,262 L155.970126,273.98036 C155.970126,283.132331 160.959022,291.563455 169,296 Z" id="Path" fill="#26B4A3"></path>
                        <path d="M243,113.501196 L243,250.498804 C243,257.40305 237.379369,263 230.445912,263 L41.5540879,263 C34.6206306,263 29,257.40305 29,250.498804 L29,113.501196 C29,106.59695 34.6206306,101 41.5540879,101 L230.445912,101 C237.379369,101 243,106.59695 243,113.501196 Z" id="Path" fill="#00FDDD"></path>
                        <path d="M243,113.513832 L243,250.508942 C243,257.40061 237.376924,263 230.456102,263 L41.5667679,263 C34.6230764,263 29,257.40061 29,250.508942 L29,249.080991 L78.9026131,249.080991 C161.338392,249.080991 228.247453,182.929598 228.998754,101 L230.455615,101 C237.376437,101 243,106.59939 243,113.513832 Z" id="Path" fill="#26B4A3"></path>
                        <polygon id="Path" fill="#FFFFFF" points="47 118 225 118 225 235 47 235"></polygon>
                        <g id="Group" transform="translate(83.000000, 294.000000)" fill="#26B4A3">
                            <path d="M101.956944,5.6975 L2.84083333,5.6975 C1.41458333,5.6975 0.258125,4.508 0.258125,3.041 C0.258125,1.574 1.41458333,0.3845 2.84083333,0.3845 L101.956944,0.3845 C103.383194,0.3845 104.539653,1.574 104.539653,3.041 C104.539653,4.508 103.382708,5.6975 101.956944,5.6975 Z" id="Path"></path>
                        </g>
                        <path d="M212,220.33534 C212,221.80715 210.818505,223 209.360704,223 L197.639296,223 C196.181495,223 195,221.80715 195,220.33534 L195,169.66466 C195,168.19285 196.181495,167 197.639296,167 L209.360704,167 C210.818025,167 212,168.19285 212,169.66466 L212,220.33534 Z" id="Path" fill="#00FDDD"></path>
                        <path d="M212,169.66466 L212,220.33534 C212,221.809572 210.812705,223 209.361672,223 L197.638328,223 C196.187295,223 195,221.809572 195,220.33534 L195,220.068971 C201.824552,218.958453 207.039829,212.971927 207.039829,205.768337 L207.039829,167 L209.361672,167 C210.812705,167 212,168.189944 212,169.66466 L212,169.66466 Z" id="Path" fill="#26B4A3"></path>
                        <path d="M184,158.641212 L184,220.358788 C184,221.817647 182.818505,223 181.360704,223 L169.639296,223 C168.181495,223 167,221.817647 167,220.358788 L167,158.641212 C167,157.182353 168.181495,156 169.639296,156 L181.360704,156 C182.818505,156 184,157.182353 184,158.641212 Z" id="Path" fill="#00FDDD"></path>
                        <path d="M184,158.641212 L184,220.358788 C184,221.820047 182.812705,223 181.361672,223 L169.638328,223 C168.187295,223 167,221.820047 167,220.358788 L167,220.094762 C173.824552,218.994017 179.039829,213.060171 179.039829,205.919968 L179.039829,156 L181.361672,156 C182.812705,156 184,157.179473 184,158.641212 L184,158.641212 Z" id="Path" fill="#26B4A3"></path>
                        <path d="M158,179.66713 L158,220.33287 C158,221.806045 156.818505,223 155.360704,223 L143.639296,223 C142.181495,223 141,221.806045 141,220.33287 L141,179.66713 C141,178.193955 142.181495,177 143.639296,177 L155.360704,177 C156.818025,177 158,178.193955 158,179.66713 L158,179.66713 Z" id="Path" fill="#00FDDD"></path>
                        <path d="M158,179.66713 L158,220.33287 C158,221.808468 156.812705,223 155.361672,223 L143.638328,223 C142.187295,223 141,221.808468 141,220.33287 L141,220.066254 C147.824552,218.954707 153.039829,212.962632 153.039829,205.752363 L153.039829,177 L155.361672,177 C156.812705,177 158,178.191047 158,179.66713 L158,179.66713 Z" id="Path" fill="#26B4A3"></path>
                        <path d="M131,163.646485 L131,220.353515 C131,221.815287 129.818505,223 128.360704,223 L116.639296,223 C115.181495,223 114,221.815287 114,220.353515 L114,163.646485 C114,162.184714 115.181495,161 116.639296,161 L128.360704,161 C129.818505,161 131,162.184714 131,163.646485 L131,163.646485 Z" id="Path" fill="#00FDDD"></path>
                        <path d="M131,163.646946 L131,220.353535 C131,221.817701 129.812705,223 128.361672,223 L116.638328,223 C115.187295,223 114,221.817701 114,220.353535 L114,220.088985 C120.824552,218.986051 126.039829,213.040404 126.039829,205.886003 L126.039829,161 L128.361672,161 C129.812705,161 131,162.182299 131,163.646946 L131,163.646946 Z" id="Path" fill="#26B4A3"></path>
                        <path d="M122,78.8832691 L122,130.545231 C122,137.660389 116.161175,143.4285 108.958789,143.4285 L99.7322373,143.4285 L92.7839671,161.139208 C91.2865329,164.955761 85.8191453,164.952875 84.3256055,161.13488 L77.3992418,143.428019 L13.0412114,143.428019 C5.83882527,143.428019 0,137.659908 0,130.54475 L0,78.8832691 C0,71.7681112 5.83882527,66 13.0412114,66 L108.958789,66 C116.161175,66 122,71.7681112 122,78.8832691 L122,78.8832691 Z" id="Path" fill="#00FDDD"></path>
                        <path d="M108.958789,66 L106.293005,66 C106.293005,99.3568416 78.9205299,126.397808 45.1547504,126.397808 L0,126.397808 L0,130.54475 C0,137.659908 5.83882527,143.428019 13.0412114,143.428019 L77.3992418,143.428019 L84.3256055,161.13488 C85.8191453,164.952875 91.2865329,164.955761 92.7839671,161.139208 L99.7322373,143.4285 L108.958789,143.4285 C116.161175,143.4285 122,137.660389 122,130.545231 L122,78.8832691 C122,71.7681112 116.161175,66 108.958789,66 Z" id="Path" fill="#26B4A3"></path>
                        <path d="M22.3182903,115.876219 C21.0686013,115.165342 20.629985,113.57213 21.3396123,112.318391 C22.0487495,111.064652 23.6356096,110.624959 24.8887291,111.337311 L40.3241038,120.117905 L56.1191929,103.590364 C56.9189939,102.753228 58.1784844,102.547874 59.2032294,103.081892 L74.1622521,110.906461 L200.123966,12.3337899 C200.826733,11.0771033 202.413593,10.6300412 203.668183,11.3320761 C204.922772,12.0365673 205.37021,13.6273223 204.667444,14.8849915 L77.4697624,115.668901 C76.7807182,116.897584 75.2448258,117.358894 73.9941567,116.70746 L58.5269271,108.616619 L42.6818505,125.196236 C41.8560755,126.059409 40.5519883,126.249042 39.5169517,125.65951 L22.3182903,115.876219 Z" id="Path" fill="#FFFFFF"></path>
                        <path d="M208.317128,17.7212758 L196.397558,11.6936603 C194.451662,10.7099134 194.561789,7.88140037 196.57807,7.05310858 L205.979084,3.19079502 C207.40451,2.60507096 209.016195,3.42036805 209.398287,4.91957138 L211.916843,14.8090192 C212.456944,16.9305243 210.263024,18.7050227 208.317128,17.7212758 L208.317128,17.7212758 Z" id="Path" fill="#FFFFFF" transform="translate(203.500000, 10.500000) rotate(23.000000) translate(-203.500000, -10.500000) "></path>
                        <path d="M64.7852911,220.055 L97.9703418,220.055" id="Path" fill="#2DD4BF"></path>
                        <path d="M97.9703418,222.711 L64.7852911,222.711 C63.3368608,222.711 62.1624177,221.5215 62.1624177,220.0545 C62.1624177,218.5875 63.3368608,217.398 64.7852911,217.398 L97.9703418,217.398 C99.4187722,217.398 100.593215,218.5875 100.593215,220.0545 C100.592722,221.5215 99.4187722,222.711 97.9703418,222.711 Z" id="Path" fill="#00FDDD"></path>
                        <path d="M64.7852911,200.8925 L97.9703418,200.8925" id="Path" fill="#2DD4BF"></path>
                        <path d="M97.9703418,203.5485 L64.7852911,203.5485 C63.3368608,203.5485 62.1624177,202.359 62.1624177,200.892 C62.1624177,199.425 63.3368608,198.2355 64.7852911,198.2355 L97.9703418,198.2355 C99.4187722,198.2355 100.593215,199.425 100.593215,200.892 C100.592722,202.359 99.4187722,203.5485 97.9703418,203.5485 Z" id="Path" fill="#00FDDD"></path>
                        <path d="M86.7866216,181.481818 L98.1802973,181.481818" id="Path" fill="#2DD4BF"></path>
                        <path d="M98.1802973,183.896364 L86.7861622,183.896364 C85.4381081,183.896364 84.3450541,182.815 84.3450541,181.481364 C84.3450541,180.147727 85.4381081,179.066364 86.7861622,179.066364 L98.1802973,179.066364 C99.5283514,179.066364 100.621405,180.147727 100.621405,181.481364 C100.620946,182.815 99.5283514,183.896364 98.1802973,183.896364 Z" id="Path" fill="#00FDDD"></path>
                    </g>
                </g>
                <g id="rocket-(1)" transform="translate(300.000000, 0.000000)" fill-rule="nonzero">
                    <path d="M25.7303524,72.6441574 C25.7109528,72.6150589 25.6915512,72.5957184 25.6625099,72.5763168 C25.4396419,72.392189 25.1101322,72.4212265 24.9260063,72.6441574 C22.6680527,75.4544296 19.2181587,77.0243225 15.6229381,76.8789978 C15.1868438,76.8595962 14.8476333,76.5204468 14.8282928,76.0843506 C14.7023086,72.4600296 16.3206424,69.0004349 19.1697158,66.7618866 C19.1794166,66.752182 19.1988162,66.742485 19.2084579,66.7231445 C19.4022846,66.5099182 19.3829422,66.1804657 19.1697158,65.9866409 C8.7521925,58.3890877 2.9377608,67.7987976 0.825191,72.4794312 C0.6313648,72.9057694 0.7186074,73.4096985 1.0577588,73.7392121 C1.3097272,73.9911805 1.677979,74.0977631 2.0268307,74.0396195 C4.0618582,73.6810685 6.1550865,73.8457947 8.1126309,74.5241623 C-1.2776784,82.0441666 0.4569388,90.7658157 1.5616952,94.6808395 C1.6198374,94.9037094 1.7555214,95.0975341 1.9299475,95.2526245 C2.4047834,95.640213 3.112187,95.5626755 3.4998394,95.0878372 C6.765607,91.3569336 14.6926075,90.000206 19.0049892,89.5253753 C22.0284896,89.2443618 24.8097225,87.7810592 26.757566,85.4552612 C31.1765327,80.009079 27.18396,74.3787766 25.7303524,72.6441574 Z" id="Path" fill="#FFFFFF"></path>
                    <path d="M91.2783356,6.1561451 C87.6734161,35.1701622 74.658783,51.8575516 61.8185806,61.3060036 L62.0511474,65.773407 C62.2158737,69.0198364 60.9948348,72.1886597 58.6981391,74.4950562 L51.7208709,81.4723893 C51.6530265,81.5402299 51.5754852,81.5886689 51.488243,81.627411 C51.1200484,81.7825013 50.6936568,81.6080705 50.5385703,81.2398225 L45.9257773,70.1148912 C42.7569541,71.3649751 39.5008277,72.3727876 36.1769179,73.1092912 C34.9752768,73.3709642 33.7348975,73.0027086 32.8627089,72.1402208 L19.6639519,58.9802055 C18.8014641,58.108078 18.4332123,56.8676376 18.6948796,55.6659965 C19.4313851,52.3420867 20.4294987,49.0860214 21.6892796,45.9171371 L10.5643521,41.3043441 C10.4771691,41.265602 10.3996268,41.2171592 10.3317843,41.1493186 C10.0507746,40.8682517 10.0507746,40.4031142 10.3317843,40.1221045 L17.3091145,33.1447752 C19.6058102,30.8383787 22.7843361,29.6270388 26.0307618,29.791765 L30.498169,30.0243337 C40.0532036,17.1550884 56.7696953,4.0823174 85.9581375,0.5354807 C87.3827057,0.3610549 88.7975159,0.8358907 89.8344269,1.824363 C90.9682846,2.9581609 91.5012589,4.566853 91.2783356,6.1561451 L91.2783356,6.1561451 Z" id="Path" fill="#00FDDD"></path>
                    <path d="M89.8344269,1.824363 C90.9682846,2.9581609 91.5012589,4.566853 91.2783356,6.1561451 C87.6734161,35.1701622 74.658783,51.8575516 61.8185806,61.3060036 L62.0511474,65.773407 C62.2158737,69.0198364 60.9948348,72.1886597 58.6981391,74.4950562 L51.7208709,81.4723893 C51.6530265,81.5402299 51.5754852,81.5886689 51.488243,81.627411 C51.1200484,81.7825013 50.6936568,81.6080705 50.5385703,81.2398225 L45.9257773,70.1148912 C42.7569541,71.3649751 39.5008277,72.3727876 36.1769179,73.1092912 C34.9752768,73.3709642 33.7348975,73.0027086 32.8627089,72.1402208 L19.6639519,58.9802055 C18.8014641,58.108078 18.4332123,56.8676376 18.6948796,55.6659965 C19.2213701,53.2899015 19.881545,50.9484757 20.6754257,48.6487826 C27.3232422,57.9682735 36.3118954,62.1200436 51,56 C73.090705,46.7955396 92.8234453,22.8287111 89.4156188,1.46877008 C89.5611191,1.57831264 89.700906,1.69707947 89.8344269,1.824363 Z M17.971549,44.3751965 L10.5643521,41.3043441 C10.4771691,41.265602 10.3996268,41.2171592 10.3317843,41.1493186 C10.0507746,40.8682517 10.0507746,40.4031142 10.3317843,40.1221045 L14.0648989,36.3895911 C15.2961674,39.2437502 16.584902,41.9261158 17.971549,44.3751965 Z" id="Combined-Shape" fill="#26B4A3"></path>
                </g>
                <circle id="Oval" fill="#FFFFFF" cx="368.5" cy="25.5" r="7.5"></circle>
                <g id="sparkle" transform="translate(322.000000, 106.000000)" fill="#FFFFFF" fill-rule="nonzero">
                    <polygon id="Path" points="23.5 0 25.016129 21.983871 47 23.5 25.016129 25.016129 23.5 47 21.983871 25.016129 0 23.5 21.983871 21.983871"></polygon>
                    <polygon id="Path" points="12.5 13.5 23 22.9395 41 6 24.0605 24 33.5 34.5 23 25.0605 5 42 21.9395 24"></polygon>
                </g>
                <g id="sparkle" transform="translate(152.000000, 66.000000)" fill="#FFFFFF" fill-rule="nonzero">
                    <polygon id="Path" points="23.5 0 25.016129 21.983871 47 23.5 25.016129 25.016129 23.5 47 21.983871 25.016129 0 23.5 21.983871 21.983871"></polygon>
                    <polygon id="Path" points="12.5 13.5 23 22.9395 41 6 24.0605 24 33.5 34.5 23 25.0605 5 42 21.9395 24"></polygon>
                </g>
                <g id="sparkle" transform="translate(222.000000, 36.000000)" fill="#FFFFFF" fill-rule="nonzero">
                    <polygon id="Path" points="23.5 0 25.016129 21.983871 47 23.5 25.016129 25.016129 23.5 47 21.983871 25.016129 0 23.5 21.983871 21.983871"></polygon>
                    <polygon id="Path" points="12.5 13.5 23 22.9395 41 6 24.0605 24 33.5 34.5 23 25.0605 5 42 21.9395 24"></polygon>
                </g>
            </g>
        </g>
    </g>
</svg>