<?xml version="1.0" encoding="UTF-8"?>
<svg width="373px" height="373px" viewBox="0 0 373 373" version="1.1" xmlns="http://www.w3.org/2000/svg" xmlns:xlink="http://www.w3.org/1999/xlink">
    <!-- Generator: Sketch 57.1 (83088) - https://sketch.com -->
    <title>conference</title>
    <desc>Created with Sketch.</desc>
    <defs>
        <circle id="path-1" cx="186.5" cy="186.5" r="186.5"></circle>
        <filter x="-0.5%" y="-0.5%" width="101.1%" height="101.1%" filterUnits="objectBoundingBox" id="filter-3">
            <feGaussianBlur stdDeviation="1.5" in="SourceAlpha" result="shadowBlurInner1"></feGaussianBlur>
            <feOffset dx="0" dy="1" in="shadowBlurInner1" result="shadowOffsetInner1"></feOffset>
            <feComposite in="shadowOffsetInner1" in2="SourceAlpha" operator="arithmetic" k2="-1" k3="1" result="shadowInnerInner1"></feComposite>
            <feColorMatrix values="0 0 0 0 0   0 0 0 0 0   0 0 0 0 0  0 0 0 0.5 0" type="matrix" in="shadowInnerInner1"></feColorMatrix>
        </filter>
    </defs>
    <g id="home-page-2" stroke="none" stroke-width="1" fill="none" fill-rule="evenodd">
        <g id="professionals-4" transform="translate(-762.000000, -138.000000)">
            <g id="conference" transform="translate(762.000000, 138.000000)">
                <mask id="mask-2" fill="white">
                    <use xlink:href="#path-1"></use>
                </mask>
                <g id="Mask">
                    <use fill="#2C2C35" fill-rule="evenodd" xlink:href="#path-1"></use>
                    <use fill="black" fill-opacity="1" filter="url(#filter-3)" xlink:href="#path-1"></use>
                </g>
                <g mask="url(#mask-2)">
                    <g transform="translate(49.000000, 76.000000)">
                        <path d="M95,1 L263.071416,1 C270.233887,1 276,6.73429361 276,13.8571424 L276,138.142858 C276,145.265723 270.233887,151 263.071416,151 L95,151 L95,1 Z" id="path6428" fill="#FFFFFF" fill-rule="nonzero"></path>
                        <g id="Group" stroke-width="1" fill="none" fill-rule="evenodd" transform="translate(53.000000, 1.000000)">
                            <path d="M72.0005039,25.7145195 C72.0005039,39.9161286 60.4403578,51.4288073 46.1801961,51.4288073 C31.9200344,51.4288073 20.3598899,39.9161286 20.3598899,25.7145195 C20.3598899,11.5129112 31.9200344,0.00023179303 46.1801961,0.00023179303 C60.4403578,0.00023179303 72.0005039,11.5129105 72.0005039,25.7145195 Z" id="circle6597" fill="#E0E0E0" fill-rule="nonzero"></path>
                            <path d="M74.303891,104.980746 L83.5305803,114.169258 L112.414601,114.169258 C117.526,114.169258 121.6411,110.071089 121.6411,104.980519 C121.6411,99.889949 117.526,95.791764 112.414601,95.791764 L97.3703451,95.791764 L78.9171454,72.8199084 C72.1860889,64.4405823 69.6904561,59.0367918 55.8505124,59.0367918 L32.784042,59.0367918 C14.8936839,59.0367918 0.490896942,73.3804232 0.490896942,91.1974188 L0.490896942,141.735734 L74.303891,141.735734 L74.303891,104.980746 Z" id="path6433" fill="#E0E0E0" fill-rule="nonzero"></path>
                            <path d="M209.860077,0.0169592804 C196.025279,109.684948 88.4628228,136.858575 41.8768106,143.521417 L41.8768106,150.000219 L209.708793,150.000219 C216.861061,150.000219 222.618959,144.265941 222.618959,137.143076 L222.618959,12.8573537 C222.618959,5.78625703 216.940044,0.09945557 209.860077,0.0169592804 L209.860077,0.0169592804 Z" id="path6435" fill="#E0E0E0" fill-rule="nonzero"></path>
                        </g>
                        <path d="M202.471453,72.0097515 C201.938437,72.0394093 201.415404,72.1741409 200.929731,72.4069468 L162.575263,90.3473163 C157.373236,92.7746749 160.834263,100.983553 166.036295,98.5561943 L204.390796,80.6158247 C208.803609,78.6512595 207.254415,71.7046651 202.471517,72.009743 L202.471453,72.0097515 Z" id="path6471" fill="#2C2C35" fill-rule="nonzero"></path>
                        <polygon id="rect6437" fill="#00FDDD" fill-rule="nonzero" points="237 78 252 78 252 120 237 120"></polygon>
                        <path d="M121,26 C121,40.3594035 109.359403,52 95,52 C80.640597,52 69,40.3594035 69,26 C69,11.6405965 80.640597,0 95,0 C109.359403,0 121,11.6405965 121,26 Z" id="circle6445" fill="#00FDDD" fill-rule="nonzero"></path>
                        <path d="M108.574282,4 C111.046658,8.05189428 112.358904,12.7055209 112.36775,17.4528222 C112.367748,31.7627356 100.773387,43.3632121 86.4710158,43.3632137 C81.7152129,43.351379 77.0545047,42.0294626 73,39.5424306 C77.6911916,47.2685503 86.0679363,51.9897468 95.1032659,52 C109.405638,52 121,40.3995219 121,26.0896085 C120.986309,17.063595 116.27895,8.69516517 108.574282,4 Z" id="path6450" fill="#26B4A3" fill-rule="nonzero"></path>
                        <g id="Group-2" stroke-width="1" fill="none" fill-rule="evenodd" transform="translate(52.000000, 54.000000)">
                            <path d="M68.7407799,42.2223251 L77.3334383,50.6665284 L107.407499,50.6665284 C112.167659,50.6665284 116,46.9003217 116,42.2221017 C116,37.5438975 112.167659,33.7776749 107.407499,33.7776749 L90.2221824,33.7776749 L73.037028,12.6666321 C66.7685129,4.96605385 64.4443696,0 51.5554632,0 L30.0740608,0 C13.4130685,0 0,13.1817391 0,29.5554855 L0,76 L68.7407799,76 L68.7407799,42.2223251 Z" id="path6457" fill="#00FDDD" fill-rule="nonzero"></path>
                            <path d="M72.3825185,12 C57.9433265,46.4607155 22.9513312,59.8769189 0,65.1096654 L0,77 L68.7407324,77 L68.7407324,42.7745348 L77.3333301,51.330893 L107.407397,51.330893 C112.167551,51.330893 116,47.514774 116,42.7745348 C116,38.0343117 112.167551,34.2181604 107.407397,34.2181604 L90.2222184,34.2181604 L73.0370231,12.8272325 C72.7921528,12.5224371 72.6161371,12.2962255 72.3824666,12 L72.3825185,12 Z" id="path6469" fill="#26B4A3" fill-rule="nonzero"></path>
                        </g>
                        <path d="M69.4413855,91 C67.247808,91.0430026 65.5022115,92.9881885 65.543376,95.3439828 L65.543376,130.37686 C65.058786,136.541047 73.9412085,136.541047 73.4566245,130.37686 L73.4566245,95.3439828 C73.498425,92.9390338 71.68095,90.9728829 69.4413855,91 L69.4413855,91 Z" id="path6480" fill="#2C2C35" fill-rule="nonzero"></path>
                        <path d="M231.708555,35 C231.037593,35.0050367 230.377307,35.1751648 229.780655,35.4966875 L199.344816,51.4236871 L192.707712,37.5165368 C191.693019,35.3651116 189.241938,34.4313123 187.145198,35.397352 L148.586831,53.3441941 C143.361437,55.7724255 146.838011,63.9842666 152.063405,61.5560352 L186.860751,45.3641392 L193.592676,59.4699639 C194.657028,61.6831235 197.23279,62.5727387 199.344816,61.456698 L233.60488,43.5098525 C237.671042,41.41001 236.241851,34.9964413 231.708555,35 L231.708555,35 Z" id="path6460" fill="#00FDDD" fill-rule="nonzero"></path>
                        <path d="M219.08048,30.0117506 C214.266088,30.3578783 213.450573,37.0332443 218.042216,38.5104217 L227.030321,41.5042713 L223.785515,50.9365098 C221.387992,56.672093 230.470674,59.7344265 232.092205,53.737207 L236.764724,40.1522109 C237.547905,37.8673642 236.311853,35.3859369 234.006649,34.6151979 L220.832741,30.2370946 C220.270099,30.0451091 219.673911,29.96845 219.080546,30.011749 L219.08048,30.0117506 Z" id="path6463" fill="#00FDDD" fill-rule="nonzero"></path>
                        <polygon id="rect6473" fill="#00FDDD" fill-rule="nonzero" transform="translate(205.000000, 111.000000) scale(-1, 1) translate(-205.000000, -111.000000) " points="196 102 214 102 214 120 196 120"></polygon>
                        <polygon id="rect6489" fill="#00FDDD" fill-rule="nonzero" transform="translate(225.500000, 105.500000) scale(-1, 1) translate(-225.500000, -105.500000) " points="218 91 233 91 233 120 218 120"></polygon>
                        <path d="M233,108 C228.280742,110.481028 223.060756,112.400422 218,113.948311 L218,120 L233,120 L233,108 Z" id="path6497" fill="#26B4A3" fill-rule="nonzero"></path>
                        <path d="M252,93 C247.280742,98.5823122 242.060756,102.900951 237,106.3837 L237,120 L252,120 L252,93 Z" id="path6497" fill="#26B4A3" fill-rule="nonzero"></path>
                        <path d="M214,114 C208.336891,115.240514 202.072907,116.200211 196,116.974155 L196,120 L214,120 L214,114 Z" id="path6497" fill="#26B4A3" fill-rule="nonzero"></path>
                        <polygon id="path6439" fill="#00FDDD" fill-rule="nonzero" points="0 131 0 169.454548 30.1857732 186.545451 30.1857732 272 142.706106 272 142.706106 186.545451 173 165.181826 173 131"></polygon>
                        <path d="M149.883909,131 C136.766161,224.075068 65.6227256,262.030833 28,269 L32,272 L143.090941,272 L143.090941,186.545451 L173,165.181826 L173,131 L149.883909,131 Z" id="path6441" fill="#26B4A3" fill-rule="nonzero"></path>
                        <path d="M22.4720191,271.179712 C16.509327,271.14992 16.509327,300.85008 22.4720191,300.820288 L263.527982,300.820288 C269.490673,300.85008 269.490673,271.14992 263.527982,271.179712 L22.4720191,271.179712 Z" id="path6589" fill="#26B4A3" fill-rule="nonzero"></path>
                    </g>
                </g>
            </g>
        </g>
    </g>
</svg>