<?xml version="1.0" encoding="UTF-8"?>
<svg width="303px" height="303px" viewBox="0 0 303 303" version="1.1" xmlns="http://www.w3.org/2000/svg" xmlns:xlink="http://www.w3.org/1999/xlink">
    <!-- Generator: Sketch 57.1 (83088) - https://sketch.com -->
    <title>Group 5</title>
    <desc>Created with Sketch.</desc>
    <g id="about" stroke="none" stroke-width="1" fill="none" fill-rule="evenodd">
        <g id="about-link-10" transform="translate(-814.000000, -191.000000)">
            <g id="Group-5" transform="translate(814.000000, 191.000000)">
                <circle id="Mask" fill="#2C2C35" cx="151.065" cy="151.065" r="151.065"></circle>
                <g id="Group" transform="translate(69.000000, 27.000000)" fill-rule="nonzero">
                    <path d="M29,6.91989133 C29.6259978,6.32633942 30.4627425,5.97718013 31.37699,6.01553475 C33.1171014,6.08846521 34.5335563,7.59138058 34.5992865,9.43476405 C34.6717057,11.4638746 33.1402007,13.1329618 31.2407135,13.1329618 C30.3797101,13.1329618 29.5946934,12.7896596 29,12.2257711 L29,19.066497 L35.4581494,19.066497 C34.8977926,19.729484 34.5681605,20.6157969 34.6043701,21.5842038 C34.6732219,23.4273984 36.0920847,24.9277631 37.8323746,24.9973871 C39.7480045,25.0740963 41.3236566,23.451866 41.3236566,21.4398544 C41.3236566,20.5278458 40.9995541,19.6963252 40.4671126,19.0664026 L47,19.0664026 L47,2.37345187 C47,1.06259301 45.9969231,0 44.7594649,0 L29,0 L29,6.91989133 Z" id="Path" fill="#FFFFFF"></path>
                    <path d="M23.8698723,31.376889 C23.8316121,30.462646 24.1807714,29.6259055 24.7742289,29 L17.933503,29 L17.933503,35.4581174 C17.270516,34.8977634 16.3842031,34.5681329 15.4157962,34.6043424 C13.5726016,34.6731937 12.0722369,36.0920496 12.0026129,37.8323308 C11.9259037,39.7479512 13.548134,41.3235956 15.5601456,41.3235956 C16.4721542,41.3235956 17.3036748,40.9994946 17.9335974,40.467145 L17.9335974,47 L34.6265481,47 C35.9373125,47 37,45.9968389 37,44.7592976 L37,29 L30.0801087,29 C30.6439972,29.5946905 30.9872993,30.3797033 30.9872993,31.2407024 C30.9872993,33.1401802 29.3182121,34.6715884 27.289196,34.5992588 C25.4457181,34.5334397 23.9427083,33.1170811 23.8698723,31.376889 L23.8698723,31.376889 Z" id="Path" fill="#00FDDD"></path>
                    <path d="M21.439841,15.9265881 C20.5278289,15.9265881 19.6963052,16.2649789 19.0663801,16.8208934 L19.0663801,10 L2.37346084,10 C1.06259702,10 0,11.0473912 0,12.3394035 L0,26 L3.19497077,26 C3.426233,22.8263524 6.08187532,20.2768747 9.32767088,20.1560076 C9.40976519,20.1529347 9.49129268,20.1514448 9.57282018,20.1514448 C12.9436938,20.1514448 15.7136447,22.7358417 15.9505751,26 L19.0664746,26 L19.0664746,22.0506795 C19.7294641,22.6357399 20.6157804,22.979904 21.5841909,22.9420981 C23.4273924,22.870211 24.9277628,21.3887967 24.9973871,19.5717852 C25.0740966,17.5717969 23.4518601,15.9265881 21.439841,15.9265881 L21.439841,15.9265881 Z" id="Path" fill="#00FDDD"></path>
                    <path d="M11.9135642,41.8619912 C10.714684,40.5988392 10.0904282,38.9367422 10.1558894,37.1820652 C10.2767551,33.9363756 12.8262962,31.2807426 16,31.0494812 L16,27.9335927 L12.0505392,27.9335927 C12.6063541,27.3036699 12.944834,26.4721491 12.944834,25.5601403 C12.944834,23.5481282 11.2996444,21.925992 9.29967933,22.0026067 C7.48268898,22.0723253 6.001292,23.5725959 5.92940574,25.4157908 C5.89169339,26.384198 6.2358535,27.2705111 6.82081396,27.9334983 L0,27.9334983 L0,44.6264531 C0,45.9374067 1.04737905,47 2.33946935,47 L16,47 L16,43.8045682 C14.4590082,43.6899766 12.9900889,42.9962869 11.9135642,41.8619912 Z" id="Path" fill="#00FDDD"></path>
                </g>
                <path d="M267.383112,139.316836 C271.69447,139.950769 275.048026,143.627167 275.17788,148.140333 L275.181785,148.412109 L275.181785,156.322266 C275.181785,157.005423 274.670835,157.566375 274.014997,157.633825 L273.882006,157.640625 L270.970155,157.640625 L269.977557,169.792383 C269.925474,170.429191 269.431057,170.929259 268.81634,170.993105 L268.682891,171 L263.483776,171 C262.853516,171 262.320554,170.542386 262.206923,169.92664 L262.18911,169.792383 L261.196512,157.640625 L258.284661,157.640625 C257.611132,157.640625 257.058086,157.122371 256.991586,156.457158 L256.984882,156.322266 L256.984882,148.412109 C256.984882,143.866355 260.253901,140.113254 264.526041,139.358505 L264.783555,139.316836 L264.783555,148.412109 C264.783555,149.140811 265.364902,149.730469 266.083333,149.730469 C266.756862,149.730469 267.309908,149.212214 267.376408,148.547001 L267.383112,148.412109 L267.383112,139.316836 Z M251.699115,131.449219 C254.566514,131.449219 256.89823,133.814268 256.89823,136.722656 C256.89823,139.290307 255.080862,141.434473 252.681975,141.901637 C253.746675,142.048408 254.739297,142.431821 255.626539,142.978611 C254.846625,144.518234 254.343457,146.229549 254.279834,148.066567 L254.272988,148.462121 L254.272988,156.416667 C254.272988,157.935852 255.107537,159.249682 256.323713,159.918455 L256.5,160.009558 L255.550862,169.806288 C255.489977,170.438256 255.004168,170.930406 254.403376,170.993217 L254.272988,171 L249.136494,171 C248.520856,171 247.998064,170.549981 247.878057,169.939464 L247.85862,169.806288 L246.689896,157.742424 L245.284123,157.742424 C244.618707,157.742424 244.072322,157.221262 244.006623,156.552316 L244,156.416667 L244,149.787879 C244,145.748901 246.930294,142.403694 250.711441,141.89912 C248.314846,141.431496 246.5,139.288525 246.5,136.722656 C246.5,133.814268 248.831716,131.449219 251.699115,131.449219 Z M280.467552,131.449219 C283.33495,131.449219 285.666667,133.814268 285.666667,136.722656 C285.666667,139.199489 283.975586,141.282264 281.702721,141.845828 C285.76279,142.063853 289,145.542648 289,149.787879 L289,149.787879 L289,156.416667 C289,157.149457 288.425654,157.742424 287.715877,157.742424 L287.715877,157.742424 L286.310104,157.742424 L285.14138,169.806288 C285.076147,170.483396 284.523118,171 283.863506,171 L283.863506,171 L278.727012,171 C278.067401,171 277.514372,170.483396 277.449138,169.806288 L277.449138,169.806288 L276.5,160.009558 C277.81109,159.374343 278.727012,158.008194 278.727012,156.416667 L278.727012,156.416667 L278.727012,148.462121 C278.727012,146.474899 278.209083,144.628207 277.373461,142.978611 C278.152178,142.498703 279.012072,142.144648 279.931176,141.965342 C277.314921,141.695183 275.268437,139.447357 275.268437,136.722656 C275.268437,133.814268 277.600153,131.449219 280.467552,131.449219 Z M266.083333,126 C269.66665,126 272.582227,128.957256 272.582227,132.591797 C272.582227,136.226338 269.66665,139.183594 266.083333,139.183594 C262.500017,139.183594 259.58444,136.226338 259.58444,132.591797 C259.58444,128.957256 262.500017,126 266.083333,126 Z" id="Combined-Shape" fill="#FFFFFF" fill-rule="nonzero"></path>
                <g id="Group-4" transform="translate(192.000000, 32.000000)" fill-rule="nonzero">
                    <path d="M1.44439095,11 C2.24207992,11 2.8887819,10.353298 2.8887819,9.55560905 L2.8887819,2.8887819 L9.55560905,2.8887819 C10.353298,2.8887819 11,2.24207992 11,1.44439095 C11,0.646701974 10.353298,0 9.55560905,0 L1.44439095,0 C0.646701974,0 0,0.646701974 0,1.44439095 L0,9.55560905 C0,10.3533943 0.646701974,11 1.44439095,11 Z" id="Path" fill="#FFFFFF"></path>
                    <path d="M41.5556091,0 L33.4443909,0 C32.646702,0 32,0.646701974 32,1.44439095 C32,2.24207992 32.646702,2.8887819 33.4443909,2.8887819 L40.1112181,2.8887819 L40.1112181,9.55560905 C40.1112181,10.353298 40.7579201,11 41.5556091,11 C42.353298,11 43,10.353298 43,9.55560905 L43,1.44439095 C43,0.646701974 42.353298,0 41.5556091,0 Z" id="Path" fill="#FFFFFF"></path>
                    <path d="M41.5556091,32 C40.7579201,32 40.1112181,32.646702 40.1112181,33.4443909 L40.1112181,40.1112181 L33.4443909,40.1112181 C32.646702,40.1112181 32,40.7579201 32,41.5556091 C32,42.353298 32.646702,43 33.4443909,43 L41.5556091,43 C42.353298,43 43,42.353298 43,41.5556091 L43,33.4443909 C43,32.6466057 42.353298,32 41.5556091,32 Z" id="Path" fill="#FFFFFF"></path>
                    <path d="M9.55560905,40.1112181 L2.8887819,40.1112181 L2.8887819,33.4443909 C2.8887819,32.646702 2.24207992,32 1.44439095,32 C0.646701974,32 0,32.646702 0,33.4443909 L0,41.5556091 C0,42.353298 0.646701974,43 1.44439095,43 L9.55560905,43 C10.353298,43 11,42.353298 11,41.5556091 C11,40.7579201 10.3533943,40.1112181 9.55560905,40.1112181 Z" id="Path" fill="#FFFFFF"></path>
                    <path d="M34,15.5181518 L34,7.70214521 C34,7.31435644 33.6857204,7 33.2972015,7 L20.5,7 L7.70279848,7 C7.3142796,7 7,7.31435644 7,7.70214521 L7,15.5181518 C7,15.9067657 7.3142796,16.2211221 7.70279848,16.2211221 L11.4345595,16.2211221 C11.8222535,16.2211221 12.1365331,15.9067657 12.1365331,15.5181518 L12.1365331,12.8407591 C12.1365331,12.4521452 12.4516375,12.1377888 12.8393315,12.1377888 L17.2285225,12.1377888 C17.6170414,12.1377888 17.931321,12.4521452 17.931321,12.8407591 L17.931321,32.1592409 C17.931321,32.5478548 17.6170414,32.8622112 17.2285225,32.8622112 L15.3090248,32.8622112 C14.9205059,32.8622112 14.6062263,33.1765677 14.6062263,33.5651815 L14.6062263,37.2978548 C14.6062263,37.6856436 14.9205059,38 15.3090248,38 L20.5,38 L25.6909752,38 C26.0794941,38 26.3937737,37.6856436 26.3937737,37.2978548 L26.3937737,33.5651815 C26.3937737,33.1765677 26.0794941,32.8622112 25.6909752,32.8622112 L23.7714775,32.8622112 C23.3829586,32.8622112 23.068679,32.5478548 23.068679,32.1592409 L23.068679,12.8407591 C23.068679,12.4521452 23.3829586,12.1377888 23.7714775,12.1377888 L28.1606685,12.1377888 C28.5483625,12.1377888 28.8634669,12.4521452 28.8634669,12.8407591 L28.8634669,15.5181518 C28.8634669,15.9067657 29.1777465,16.2211221 29.5654405,16.2211221 L33.2972015,16.2211221 C33.6857204,16.2211221 34,15.9067657 34,15.5181518 Z" id="Path" fill="#00FDDD"></path>
                </g>
                <g id="color-palette" transform="translate(189.000000, 222.000000)" fill-rule="nonzero">
                    <path d="M38.7029427,20.2579299 C38.9268934,20.4993631 39.029528,20.8470128 38.9362342,21.1947214 C38.180372,23.9953112 37.0605615,27.1146683 35.7074595,30.2146329 C32.4880255,37.6121793 26.7304076,45 24.341505,45 C24.2015073,45 24.0708504,44.9807254 23.9495912,44.9227838 C23.5856429,44.7489 22.4564915,44.2274255 23.3149883,38.249537 C23.6509713,35.9510881 24.5467741,31.3059157 26.8237014,26.0716602 C28.1861442,22.9619699 29.7072093,20.0358301 31.2282743,17.5924978 C31.4149189,17.3027897 31.7321634,17.1482985 32.0494649,17.1579651 C32.5253887,16.1535653 33.0479593,15.0622825 33.5611892,14 C34.3170513,14.9850663 35.2875234,15.7769154 36.4260155,16.2984488 C37.4151691,16.7619818 38.516298,17.0130817 39.6080863,17.0130817 C39.7387431,17.0130817 39.8694001,17.0130817 40,17.0034149 C39.5707801,18.0946979 39.113538,19.2245888 38.7029427,20.2579299 L38.7029427,20.2579299 Z" id="Path" fill="#FFFFFF"></path>
                    <path d="M45.9998493,5.55507026 C46.0096661,7.70583741 45.538939,10.1951704 44.8622389,11.5954621 C43.8226766,13.7370116 41.5669695,15 39.1936406,15 C38.3502345,15 37.4773782,14.8352696 36.6536057,14.4874869 C35.1432565,13.8559927 33.9958292,12.7119855 33.4073605,11.2659455 C32.8189516,9.81996046 32.8679757,8.24577745 33.5544926,6.83638063 C34.8980761,4.56663224 36.4476327,4.16393949 37.8108498,3.8070516 C39.2819319,3.43178591 40.6745395,3.06573708 42.3809851,0.43910089 C42.6359822,0.0455132443 43.1655502,-0.110056094 43.6167036,0.0821572613 C45.5781463,0.905809087 45.9998493,3.51417924 45.9998493,5.55507026 L45.9998493,5.55507026 Z" id="Path" fill="#00FDDD"></path>
                    <path d="M30.9163914,12.6419448 C30.3127706,11.033921 30.2477549,9.31311693 30.7121047,7.69568039 C29.8855484,6.9434097 29.0032723,6.29456408 28.0745727,5.72096267 C25.334954,4.03769458 22.1866486,3.0691612 18.9176076,3.00332965 C13.9026634,2.90931732 9.14766808,4.80879075 5.56290187,8.36335149 C1.97813474,11.9272675 0,16.685449 0,21.7727892 C0,28.7877835 3.81694205,35.1634024 9.95568981,38.4076306 C10.6893421,38.8025627 11.4787142,39 12.277439,39 C13.2153789,39 14.1626707,38.7273184 15.0077625,38.1913104 C16.5401396,37.2133643 17.4131196,35.5677471 17.3573998,33.7716413 C17.2552564,30.6684888 18.2582113,28.1013443 20.1806264,26.5497394 C21.2486536,25.6940438 22.5673913,25.1862165 24.0347526,25.0451981 C25.3349548,22.1865466 26.7929634,19.506507 28.2324932,17.2402822 C28.5110918,16.8076992 28.8825377,16.4785987 29.3097598,16.2622786 C29.8484215,15.162082 30.4335069,13.9490477 31,12.8300266 C30.9628718,12.773608 30.9442796,12.7077764 30.9163914,12.6419448 L30.9163914,12.6419448 Z M10.4292783,28.8254344 C8.73903809,28.8254344 7.3831728,27.4430862 7.3831728,25.74105 C7.3831728,24.0390139 8.739038,22.656723 10.4292783,22.656723 C12.1102224,22.656723 13.4661452,24.0390139 13.4661452,25.74105 C13.4661452,27.4430862 12.1102224,28.8254344 10.4292783,28.8254344 Z M12.0637988,18.3028855 C10.3735586,18.3028855 9.01769331,16.9205372 9.01769331,15.2185011 C9.01769331,13.516465 10.3735585,12.1247623 12.0637988,12.1247623 C13.7447438,12.1247623 15.1006657,13.516465 15.1006657,15.2185011 C15.1006657,16.9205372 13.7447438,18.3028855 12.0637988,18.3028855 Z M22.7253103,16.6478555 C21.0350701,16.6478555 19.6791482,15.2560945 19.6791482,13.5634711 C19.6791482,11.861436 21.0350701,10.4697323 22.7253103,10.4697323 C24.4062544,10.4697323 25.7621196,11.861436 25.7621196,13.5634711 C25.7621196,15.2560945 24.4062544,16.6478555 22.7253103,16.6478555 Z" id="Shape" fill="#FFFFFF"></path>
                </g>
                <g id="Group-2" transform="translate(18.000000, 129.000000)" fill-rule="nonzero">
                    <path d="M39.2917701,31.2856971 L34.7424429,31.2856971 C34.0027598,28.8154326 31.7408686,27 29.0417501,27 C26.3426315,27 24.082422,28.8154326 23.3410573,31.2856971 L1.70830998,31.2856971 C0.765308135,31.2856971 0,32.0537524 0,33.0000402 C0,33.946328 0.765308135,34.7143029 1.70830998,34.7143029 L23.3409772,34.7143029 C24.0806603,37.1845674 26.3425515,39 29.04167,39 C31.7407886,39 34.000998,37.1845674 34.7423628,34.7143029 L39.29169,34.7143029 C40.2363735,34.7143029 41,33.946328 41,33.0000402 C41,32.0537524 40.2364536,31.2856971 39.2917701,31.2856971 Z M29.0417501,35.5714745 C27.628929,35.5714745 26.4792451,34.4177844 26.4792451,33.0000402 C26.4792451,31.5822959 27.628929,30.4286059 29.0417501,30.4286059 C30.4545712,30.4286059 31.6042551,31.5822959 31.6042551,33.0000402 C31.6042551,34.4177844 30.4544911,35.5714745 29.0417501,35.5714745 Z" id="Shape" fill="#FFFFFF"></path>
                    <path d="M39.2916934,4.28569707 L34.742375,4.28569707 C34.0009316,1.81543262 31.7408066,0 29.0416934,0 C26.3425801,0 24.082375,1.81543262 23.3409316,4.28569707 L1.70830664,4.28569707 C0.765306641,4.28569707 0,5.05367199 0,5.99995982 C0,6.94624765 0.765306641,7.71422258 1.70830664,7.71422258 L23.3409316,7.71422258 C24.082375,10.1845674 26.3425,12 29.0416934,12 C31.7408867,12 34.0010117,10.1845674 34.742375,7.71430293 L39.2916934,7.71430293 C40.236375,7.71430293 41,6.94632801 41,6.00004018 C41,5.05375235 40.236375,4.28569707 39.2916934,4.28569707 Z M29.0416934,8.57139413 C27.628875,8.57139413 26.4791934,7.41770406 26.4791934,5.99995982 C26.4791934,4.58221559 27.628875,3.42852551 29.0416934,3.42852551 C30.4545117,3.42852551 31.6041934,4.58221559 31.6041934,5.99995982 C31.6041934,7.41770406 30.4544316,8.57139413 29.0416934,8.57139413 Z" id="Shape" fill="#00FDDD"></path>
                    <path d="M39.2917701,18.2857258 L17.6591028,18.2857258 C16.917658,15.8154448 14.6575286,14 11.9584101,14 C9.25929152,14 6.99908203,15.8154448 6.2577173,18.2857258 L1.70830998,18.2857258 C0.765308135,18.2857258 0,19.0537058 0,20 C0,20.9462942 0.765308135,21.7142742 1.70830998,21.7142742 L6.25763722,21.7142742 C6.99908203,24.1845552 9.25921144,26 11.95833,26 C14.6574485,26 16.917658,24.1845552 17.6590228,21.7142742 L39.29169,21.7142742 C40.2363735,21.7142742 41,20.9462942 41,20 C41,19.0537058 40.2364536,18.2857258 39.2917701,18.2857258 Z M11.95833,22.5714515 C10.5455089,22.5714515 9.39582499,21.4177537 9.39582499,20 C9.39582499,18.5822463 10.5455089,17.4285485 11.95833,17.4285485 C13.3711511,17.4285485 14.520835,18.5822463 14.520835,20 C14.520835,21.4177537 13.3711511,22.5714515 11.95833,22.5714515 Z" id="Shape" fill="#FFFFFF"></path>
                </g>
                <g id="website" transform="translate(68.000000, 223.000000)" fill-rule="nonzero">
                    <path d="M22.9660552,39.4159091 L6.87097241,39.4159091 C4.6881931,39.4159091 2.85517241,37.4595341 2.85517241,35.171008 L2.85517241,13.9397727 L38.5448276,13.9397727 L38.5448276,21.4480227 C38.5448276,22.2704693 39.1582138,22.9376557 39.9724138,22.9376557 C40.7866138,22.9376557 41.4,22.27095 41.4,21.4480227 L41.4,7.159275 C41.4,3.27873068 38.3340207,0 34.5337862,0 L6.87097241,0 C3.06217241,0 0,3.21143523 0,7.159275 L0,35.171008 C0,39.1020239 3.06217241,42.3 6.87097241,42.3 L22.9660552,42.3 C23.7802552,42.3 24.4407517,41.6804011 24.4407517,40.8579545 C24.4407517,40.035508 23.7802552,39.4159091 22.9660552,39.4159091 L22.9660552,39.4159091 Z M2.85517241,7.159275 C2.85517241,4.89334091 4.72531034,2.88409091 6.87097241,2.88409091 L34.5337862,2.88409091 C36.7356,2.88409091 38.5448276,4.89334091 38.5448276,7.159275 L38.5448276,11.0556818 L2.85517241,11.0556818 L2.85517241,7.159275 Z" id="Shape" fill="#FFFFFF"></path>
                    <path d="M33.599879,5.4 L33.000121,5.4 C32.1718838,5.4 31.5,6.32005714 31.5,7.2 C31.5,8.07994286 32.1713998,9 33.000121,9 L33.599879,9 C34.4281162,9 35.1,8.07994286 35.1,7.2 C35.1,6.32005714 34.4281162,5.4 33.599879,5.4 Z" id="Path" fill="#FFFFFF"></path>
                    <path d="M29.099879,5.4 L28.500121,5.4 C27.6718838,5.4 27,6.32005714 27,7.2 C27,8.07994286 27.6713998,9 28.500121,9 L29.099879,9 C29.9281162,9 30.6,8.07994286 30.6,7.2 C30.6,6.32005714 29.9286002,5.4 29.099879,5.4 L29.099879,5.4 Z" id="Path" fill="#FFFFFF"></path>
                    <path d="M22.799879,5.4 L22.200121,5.4 C21.3718838,5.4 20.7,6.32005714 20.7,7.2 C20.7,8.07994286 21.3713998,9 22.200121,9 L22.799879,9 C23.6281162,9 24.3,8.07994286 24.3,7.2 C24.3,6.32005714 23.6281162,5.4 22.799879,5.4 L22.799879,5.4 Z" id="Path" fill="#FFFFFF"></path>
                    <path d="M22.6442232,27.372995 C21.3472835,26.0987673 21.3472835,24.0248778 22.6442232,22.7506501 L22.6646662,22.7305651 C23.9635076,21.4750212 26.0601001,21.4806263 27.3508594,22.7487817 L30.7852776,26.1230561 C31.3605331,26.6882377 32.2933028,26.6882377 32.8685583,26.1230561 C33.4438139,25.5578745 33.4438139,24.6414395 32.8685583,24.0762579 L29.4336648,20.7015164 C26.9881156,18.299261 23.0083933,18.2997281 20.5623687,20.7015164 L20.5181548,20.7454231 C17.5277769,23.7334122 19.3757259,28.2553322 20.560467,29.4193261 L23.9948852,32.7936005 C24.2825129,33.0761913 25.1938889,33.7758955 26.078166,32.7936005 C26.6172897,32.1947882 26.6534215,31.3119839 26.078166,30.7468023 L22.6442232,27.372995 Z" id="Path" fill="#00FDDD"></path>
                    <path d="M40.4876775,31.7203438 L37.094071,28.3263619 C36.5256513,27.7578794 35.6039659,27.7578794 35.0355462,28.3263619 C34.4671265,28.8948445 34.4671265,29.8166319 35.0355462,30.3851145 L38.4291526,33.7790963 C39.7106807,35.0607661 39.7106807,37.1467683 38.4291526,38.428438 L38.4159991,38.441593 C37.1330618,39.7119871 35.056216,39.7082285 33.7784461,38.4303173 L30.3848396,35.0358656 C29.8164199,34.4673831 28.8947345,34.4673831 28.3263148,35.0358656 C27.7578951,35.6043482 27.7578951,36.5261356 28.3263148,37.0946182 L31.720391,40.4890699 C32.9286352,41.6969779 37.0654151,43.8755346 40.4857984,40.4890699 L40.5083473,40.4665185 C42.9041658,38.0478836 42.8971193,34.1300521 40.4876775,31.7203438 L40.4876775,31.7203438 Z" id="Path" fill="#00FDDD"></path>
                    <path d="M24.7567564,25.653028 C24.1477479,26.2568158 24.1477479,27.2358503 24.7567564,27.8396381 L32.4760661,35.4927736 C32.7805704,35.7946675 33.9729186,36.4648221 34.6815831,35.4927736 C35.1859026,34.800663 35.2905917,33.9099513 34.6815831,33.3061634 L26.9622735,25.653028 C26.3532649,25.0492402 25.3662683,25.0487412 24.7567564,25.653028 L24.7567564,25.653028 Z" id="Path" fill="#00FDDD"></path>
                </g>
                <path d="M199.861269,80.1176524 L201.499573,81.2648052 L154.421485,148.499028 L236.5,148.500006 L236.5,150.500006 L154.419508,150.499028 L201.499576,217.735193 L199.861267,218.88235 L152.5,151.242746 L105.138733,218.88235 L103.500428,217.735196 L150.579503,150.499028 L68.5,150.500006 L68.5,148.500006 L150.577526,148.499028 L103.500431,81.2648024 L105.138731,80.1176524 L152.5,147.756295 L199.861269,80.1176524 Z M152.5,149.499737 L104.893152,81.5103798 L152.498474,149.499005 L152.019234,149.49901 L152.499496,149.499005 L152.97976,149.49901 L152.500515,149.499005 L200.106843,81.5103798 L152.5,149.499737 Z M235.5,149.499994 L152.97976,149.49901 L235.5,149.499994 Z M104.606368,217.899195 L104.893154,217.489618 L104.606368,217.899195 Z" id="Combined-Shape" fill="#FFFFFF" fill-rule="nonzero"></path>
                <circle id="Oval" fill="#2C2C35" cx="150.5" cy="153.5" r="61.5"></circle>
                <g id="Group-3" transform="translate(104.000000, 114.000000)">
                    <g id="tools" fill="#00FDDD" fill-rule="nonzero">
                        <polygon id="Path" points="29.3333333 13 36 0 32.6666667 0 26 13"></polygon>
                        <path d="M22.5555556,13 L29,0 L3.22222222,0 C1.44276257,0 0,1.45520017 0,3.25 L0,13 L22.5555556,13 Z M16.1111111,3.25 C17.8907673,3.25 19.3333333,4.70500192 19.3333333,6.5 C19.3333333,8.29499807 17.8907673,9.75 16.1111111,9.75 C14.3316515,9.75 12.8888889,8.29499807 12.8888889,6.5 C12.8888889,4.70500192 14.3316515,3.25 16.1111111,3.25 Z M6.44444444,3.25 C8.22410066,3.25 9.66666667,4.70500192 9.66666667,6.5 C9.66666667,8.29499807 8.22410066,9.75 6.44444444,9.75 C4.66498479,9.75 3.22222222,8.29499807 3.22222222,6.5 C3.22222222,4.70500192 4.66498479,3.25 6.44444444,3.25 Z" id="Shape"></path>
                        <path d="M91,13 L91,3.25 C91,1.45520017 89.5572374,0 87.7777778,0 L39.4444444,0 L33,13 L91,13 Z" id="Path"></path>
                    </g>
                    <rect id="Rectangle" fill="#FFFFFF" x="0" y="16" width="91" height="60"></rect>
                    <path d="M52,38 L52,55 L43.9066376,46.6725415 L36,54.8078742 L36,38 L52,38 Z M67,38 L77,55 L57,55 L67,38 Z M29.9531586,41.0567906 C29.9688603,41.0743589 29.9844741,41.0919688 30,41.1096199 L23.112383,46.5355915 L28.899938,53.0111404 C28.8927388,53.0168475 28.8855278,53.0225461 28.8783047,53.0282363 C25.0622942,56.0344379 19.3565471,55.5486548 16.1341619,51.9432094 C12.9117768,48.3377641 13.3930052,42.9779652 17.2090158,39.9717637 C21.0250263,36.9655621 26.7307734,37.4513452 29.9531586,41.0567906 Z" id="Combined-Shape" fill="#2C2C35"></path>
                </g>
            </g>
        </g>
    </g>
</svg>