<svg height="38" viewBox="0 0 149 38" width="149" xmlns="http://www.w3.org/2000/svg"><path d="m225.824009.66079295c10.244761 0 18.54978 8.30501957 18.54978 18.54978035 0 10.2447609-8.305019 18.5497804-18.54978 18.5497804s-18.549781-8.3050195-18.549781-18.5497804c0-10.24476078 8.30502-18.54978035 18.549781-18.54978035zm53.446915 13.66057335-5.185242 14.3742291-.14571.4080816c-.929121 2.5987229-2.012968 5.4141651-5.262219 5.4141651-.735389 0-1.18884-.0877142-1.610036-.1652182l-.156925-.0283942.070705-.8980176c.098458-.6363436.545154-1.0493392 1.136564-1.0169603.056167.0039647.114317.0105726.171145.0105726 2.318723 0 3.091851-3.1982378 3.091851-3.4757709 0-.2717841-.268692-.8802357-.443823-1.3417097l-.054415-.1477176-4.772908-13.1325991h1.808591c.005286 0 .007268.003304.013876.003304.503965 0 .992383.318158 1.246393.764625l.063299.1248023 3.489647 10.7511013h.055507l3.567621-10.7563877c.231278-.5081498.760573-.8834801 1.306388-.8834801l.007929-.001652.005947-.001652v-.0013216zm76.77489 0-5.186564 14.3742291c-.9674 2.7026431-1.987665 5.8222467-5.407929 5.8222467-.827974 0-1.299119-.1110132-1.767621-.1936124l.069383-.8980176c.101762-.6363436.546476-1.0493392 1.137886-1.0169603.058149.0039647.114977.0105726.171145.0105726 2.319383 0 3.093172-3.1982378 3.093172-3.4757709 0-.3019824-.333701-1.0196035-.498899-1.4894273l-4.773568-13.1325991h1.80859c.004626 0 .00793.003304.013216.003304.548458 0 1.079736.3786343 1.30837.8894273l3.490308 10.7511013h.05815l3.5663-10.7563877c.230616-.5081498.760572-.8834801 1.307048-.8834801.005286 0 .00793-.003304.014538-.003304v-.0013216zm-122.111894-6.7969163c-1.883921.0660793-3.529956 1.10484581-4.753084 2.5414097-1.356608 1.5753304-2.257929 3.4447136-2.908149 5.3517621-1.162335-.9528634-2.059031-2.1859031-3.923789-2.7237885-1.442511-.4143172-2.955727-.2438326-4.348018.7936123-.660132.4929515-1.114097 1.2376652-1.330176 1.9374449-.560352 1.8198238.587445 3.4394273 1.109472 4.0215859l1.139867 1.2198238c.235243.2398679.800221.864978.52467 1.7603524-.299339.9746696-1.472907 1.6044053-2.677533 1.2337005-.537886-.1665198-1.311013-.5662996-1.137225-1.1292952.071366-.2312775.236564-.405066.325771-.6026431.081278-.1718062.119604-.3.144053-.3753304.220044-.7189428-.080617-1.653304-.84978-1.8905287-.718282-.2193832-1.451762-.0449339-1.736564.8781939-.323788 1.0513215.179075 2.955066 2.870485 3.7856828 3.153304.9693832 5.820925-.7486784 6.198899-2.987445.238546-1.4022026-.395815-2.4449339-1.555507-3.7856828l-.944934-1.0447136c-.572907-.5729075-.769163-1.5475771-.177092-2.2962555.50022-.6323789 1.211894-.9019824 2.379515-.5854626 1.702864.4612335 2.462115 1.6433921 3.728194 2.5969163-.522687 1.7147577-.864978 3.4361234-1.173568 4.9810573l-.189648 1.1497797c-.905947 4.7484582-1.596476 7.3552864-3.392511 8.8519824-.361454.25837-.879515.6429515-1.65859.670044-.409031.0132159-.540529-.2682819-.547137-.3911894-.009251-.2867841.23326-.4182819.393833-.5471365.239868-.1314978.602643-.3482379.578194-1.0427313-.027093-.823348-.70771-1.5356828-1.69097-1.5019824-.738105.0244493-1.860792.7176211-1.818502 1.9889868.043613 1.3110132 1.26608 2.2949339 3.109692 2.2314978.985903-.0323789 3.186343-.4334802 5.354405-3.0112335 2.523568-2.9557269 3.229956-6.3436123 3.761234-8.8229075l.59207-3.2729075c.329736.0389868.681278.0660793 1.064538.0746696 3.143392.0674009 4.715418-1.5614537 4.739867-2.7455947.015199-.7169603-.470484-1.4220264-1.151101-1.4061674-.486344.0138767-1.098238.3376652-1.244934 1.0103524-.143392.660793 1.000441 1.2568282.106388 1.8363436-.635022.4116741-1.773568.7011014-3.376652.4658591l.29207-1.611674c.594053-3.0555066 1.328855-6.81409695 4.112776-6.90462559.202863-.01057268.945594.00925111.962775.49955948.004626.16387665-.035683.2061674-.227313.58149779-.196255.29207049-.269603.54118943-.261013.82797362.027753.7797356.620485 1.292511 1.478855 1.2621145 1.147797-.0376652 1.478193-1.1550661 1.459691-1.72995596-.047577-1.35132158-1.470925-2.20374449-3.353524-2.14295154zm85.811234 6.4671806c4.277973 0 7.145154 3.0905287 7.145154 7.365859 0 4.0288547-2.923348 7.3651983-7.145154 7.3651983-4.247578 0-7.170926-3.3363436-7.170926-7.3651983 0-4.2753303 2.86652-7.365859 7.170926-7.365859zm-59.375551-5.89030835c.864978 0 1.842776.10573719 2.801918.31278479l.409536.09492446-.047577.85044053c-.069384.58546255-.568282 1.04999997-1.162996 1.00638767-.00859 0-.007269.0092511-.014538.0092511-.562334-.1235683-1.137885-.1949339-1.858149-.1949339-.003965 0-.010573 0-.018503.0013216-1.657268-.0019824-3.80881.6132158-3.815418 2.9544052.040969 2.2044053 2.384802 2.949119 4.525771 4.0447137 2.183921 1.1101322 4.238326 2.4654185 4.242951 5.6914097-.012293 4.0950303-3.021896 5.7242968-6.938857 5.8183212l-.251231.0039255h-.014537c-1.182886 0-2.359348-.2917071-3.512046-.6501588l-.383329-.1216474.077974-.7572687c.075991-.6786344.552423-1.1914097 1.13326-1.0955947.927753.2927313 2.027974.5444934 3.04163.5484581 1.73326-.0039647 4.248238-.9640969 4.260132-3.5696035-.020485-2.4984581-2.376211-3.3522026-4.527753-4.3870044-2.195154-1.0625551-4.234361-2.2354625-4.238326-5.2618943.00859-3.46189424 2.685462-5.27577089 6.290088-5.29823785zm76.022247 5.88964755c3.558865 0 5.196037 2.1621425 5.268615 5.7876441l.00253.2553075v7.2343612c-.027753.5840529-.47341 1.0581615-1.046855 1.1187802l-.124731.0065502h-.003304v-.0013216h-1.421366v-7.2832599c0-3.284141-.713656-4.8832599-2.978193-5.0200441-2.876076 0-4.208267 2.2521527-4.274694 5.5315032l-.002619.2610079v5.4257709c-.044405.5649339-.483113 1.0210749-1.043201 1.0793829l-.121777.0062999h-1.427974v-14.0709251h1.320265c.004625 0 .005947.003304.013215.003304.647578 0 1.175551.5259911 1.175551 1.1781938l.001322.002478.001321.0014867v1.0513216h.054185c.77445-1.6011013 2.649119-2.5678414 4.60771-2.5678414zm-39.714978 0c3.503319 0 4.819687 2.2089919 4.880385 5.1633551l.002214.2174819v8.1039648c-.107964.4837004-.51434.8564815-1.016433.9109703l-.1274.0068711h-.003304v-.0013216h-1.443832v-8.3861233c0-1.7385463-.414318-3.9171807-2.511014-3.9171807-2.574247 0-3.637606 2.4508995-3.694695 4.9947763l-.002441.2182193v6.0178414c-.05119.56-.485745 1.0089046-1.0431 1.0662697l-.121217.0061973h-1.426652v-8.3861233c0-1.7385463-.416961-3.9171807-2.512335-3.9171807-2.574248 0-3.635733 2.4508995-3.692718 4.9947763l-.002436.2182193v5.8777533c-.005948.0118943-.011895.0185022-.011895.0363437 0 .6083425-.462297 1.1104031-1.055849 1.1707844l-.120362.0060878h-1.406828v-14.0709251h1.240308c.003965 0 .006608.003304.012555.003304.601938 0 1.096235.4530161 1.165913 1.0372362l.008316.1270809v.8748899h.055507c.992511-1.6288546 2.4-2.3735683 4.470264-2.3735683 1.626212 0 3.254405.8286344 3.998458 2.7323789.96608-2.0134361 3.089868-2.7323789 4.358591-2.7323789zm13.940088-6.44140967c.55066 0 1.026523.05690162 1.473094.12405164l.264791.0411466-.044934.84977974c-.03207.5785022-.484346 1.05627019-1.048447 1.08086852l-.122478-.00179363-.00859.00726872c-.042952-.00198238-.086564-.00594714-.127533-.00594714-2.163044 0-2.490477 1.34818152-2.508829 3.16323062l-.000863.1770778v1.3374449h3.725551v.9786343c-.02837.5698679-.45795 1.0332453-1.01152 1.1091509l-.120419.0102324h-2.594273v10.9546256c-.074858.5295311-.498413.9536557-1.0347 1.0115432l-.125652.0067387h-1.431938v-11.9729075h-2.142952l-.009251-.0026432c-.549166 0-1.0066-.3766149-1.137396-.8838281l-.024278-.1192556v-1.0922907h3.313877v-1.1167401c0-3.42158591.882158-5.65638767 4.71674-5.65638767zm9.128194 8.54008807c-2.785904 0-4.414097 2.5929516-4.414097 5.2678414 0 2.5123348 1.352643 5.2718062 4.414097 5.2718062 3.035022 0 4.385682-2.7594714 4.385682-5.2718062 0-2.6748898-1.627533-5.2678414-4.385682-5.2678414z" fill="#465279" transform="translate(-207)"/></svg>