<svg height="21" viewBox="0 0 186 21" width="186" xmlns="http://www.w3.org/2000/svg"><path d="m172.5429 9.97185 2.2382 2.38545 2.2382-2.38545c1.24-1.2958 3.00235-1.2958 4.1509 0l3.0039 3.1217c.91295 1.03075 1.67865 1.67865 1.8259 3.1217v11.2189c0 3.3263-5.1832 3.3263-5.1832 0v-13.0448h-3.4441v13.0448c0 3.41-5.15375 3.41-5.15375 0v-13.0448h-3.38675v13.0448c0 3.3263-5.18165 3.3263-5.18165 0v-11.2189c.0589-1.44305.8835-2.09095 1.8259-3.1217l3.00855-3.1217c1.14235-1.2958 2.90935-1.2958 4.0579 0zm-79.2112-.0589 3.8533 3.15115c1.11755.9424 1.736 1.705 1.8244316 3.15115v11.16c.0053406.6729503-.2595918 1.3199135-.735455 1.7957766-.4758631.4758632-1.1228263.7407956-1.7957766.7353734-.6806106.0124467-1.3378422-.2482756-1.8248331-.7239073s-.7631496-1.1265279-.7667669-1.8072427v-2.50325l-5.11965-4.74145v7.2447c0 1.4227407-1.1533593 2.5761-2.5761 2.5761s-2.5761-1.1533593-2.5761-2.5761v-11.16c.1178-1.44305.7936-2.20875 1.88325-3.15115l3.7696-3.15115c1.50195-1.178 2.5916-1.2369 4.0641 0zm17.9025-.73625c3.32785 0 3.32785 5.1243 0 5.1243h-2.2072v13.0448c0 3.47355-5.15375 3.47355-5.15375 0v-13.0448h-2.20875c-3.3573 0-3.3573-5.1243 0-5.1243zm14.8118-.00014033c1.414385-.01450179 2.573728 1.11849203 2.5916 2.53284033 0 1.4136-1.20745 2.62105-2.5916 2.62105h-5.74275v3.41h4.62675c1.41371.0135606 2.554026 1.1607842 2.55905 2.57455-.027742 1.4298474-1.190952 2.5765479-2.62105 2.58385h-4.56475v4.50585c0 3.35575-5.15224 3.35575-5.15224 0v-13.8694c-.004902-1.1523811.448674-2.259415 1.260771-3.0770365.812098-.81762147 1.916031-1.27869312 3.068419-1.28170383zm-116.32905.73639033 3.85795 3.15115c1.1191.9424 1.73755 1.705 1.8259818 3.1496v11.16c.005352.6739036-.2601673 1.32174-.7369959 1.7979858-.4768287.4762457-1.1249894.7409723-1.7988859.7347142-.6800783.0116083-1.3365072-.2494858-1.8228224-.7250264-.4863152-.4755405-.7620485-1.1259559-.7656776-1.8061236v-2.50325l-5.115-4.74145v7.2447c-.00161995.6761907-.27307682 1.3237639-.75411849 1.7989854-.48104166.4752214-1.13187118.7387756-1.80803151.7321646-.68048484.0095175-1.336831-.2519205-1.82440734-.7267041-.48757634-.4747837-.7663686-1.1239485-.77494266-1.8044459v-11.16c.1178-1.4415.79515-2.2072 1.8848-3.1496l3.7696-3.1527c1.5004-1.178 2.59005-1.2369 4.06255 0zm28.0054 5.7071c1.4725 0 2.62105 1.0354 2.62105 2.3033v9.63325c0 1.2679-1.14855 2.3250068-2.62105 2.3250068-1.4136.0030932-2.5916-1.0571068-2.5916-2.3250068v-9.5046c0-1.29425 1.085-2.43195 2.5916-2.43195zm117.23425-6.44339698c1.2059 0 2.2072.44179698 3.0907 1.26639698l2.50325 2.4149c.8835.8835 1.384197 1.91425 1.384197 3.1806v1.147c.007703 2.03205-.934697 3.38675-2.583897 4.21445 1.8259 1.1191 2.48 2.5327 2.48 4.38805v1.50195c.022691.9144801-.452208 1.7693747-1.240606 2.2332907-.788397.463916-1.766341.463916-2.554738 0-.788398-.463916-1.263297-1.3188106-1.240606-2.2332907v-1.44305l-5.0406-6.1287v7.57175c.006197.6761611-.257753 1.3268264-.733265 1.8075766-.475512.4807501-1.123247.7518126-1.799435.7530234-.683723.0057779-1.341561-.2611492-1.827944-.7417138-.486382-.4805647-.761206-1.1351432-.763703-1.8188862v-15.5217c-.004109-.6886007.267599-1.3502016.754522-1.83712469.486923-.48692307 1.148524-.75863113 1.837125-.75452229zm-128.68875-.02165302c1.1273092-.01242259 2.2144011.41840645 3.02715 1.1997l2.8334 2.8303c1.86 1.767 1.5314 6.12405-.26505 7.8616l-2.56835 2.44125c-.7940237.8181518-1.8935771 1.2676371-3.03335 1.24l-3.16665-.0031v2.48c0 1.4415-1.05865 2.6195-2.5017 2.6195-1.4354482-.0161294-2.5908417-1.1839614-2.5916-2.6195v-13.6989c.0193855-2.3948324 1.9560176-4.33146452 4.35085-4.35085zm35.23305 0c1.1305409-.01197939 2.2203076.42181123 3.03335 1.20745l2.82565 2.82255c1.86 1.767 1.5314 6.12405-.26505 7.8616l-2.5606 2.44125c-.7940237.8181518-1.8935771 1.2676371-3.03335 1.24l-3.1806-.0031v2.48c0 1.4415-1.0602 2.6195-2.50325 2.6195-1.4354482-.0161294-2.5908417-1.1839614-2.5916-2.6195v-13.6989c.0194403-2.3978276 1.9607416-4.3356771 4.3586-4.35085zm11.1941-.0961c.68361-.01285199 1.3441922.2470771 1.8357382.72233524.4915461.47525816.7735792 1.12670976.7837618 1.81036476v13.07425c2.5916 0 1.86-.0589 4.4175-.0589 3.38675 0 3.38675 5.18165 0 5.18165h-5.1584c-2.4575002-.0058451-4.4527784-1.987992-4.47485-4.4454v-13.7516c0-1.38415 1.20125-2.5327 2.59625-2.5327zm67.8404.14725c2.400855.0152225 4.343377 1.9577453 4.3586 4.3586v11.83735c0 2.1204-2.03205 4.35705-4.21135 4.35705h-6.15505c-2.1793 0-4.35705-2.23665-4.35705-4.35705v-11.83735c0-2.56215 2.1204-4.3586 4.47485-4.3586zm-.79515 5.15375h-4.4175v10.30595h4.4175zm-129.46375.02945h-5.115v5.35835h5.115zm83.61475 0h-5.1243v5.35835h5.1243zm-70.7451-.14725v5.3289h4.8887v-5.27zm35.23305 0v5.3289h4.8887v-5.27zm98.41105.08835-5.0344.0031v4.94295h5.0344zm-116.56-5.12895v5.2235h-4.9941v-5.2235z" fill="#465279" transform="translate(0 -9)"/></svg>