<svg viewBox="0 0 126 41" width="126" xmlns="http://www.w3.org/2000/svg"><g fill="#465279" fill-rule="evenodd"><path d="m.22109375 1.280625h3.459375l4.2890625 12.7828125c.22500112.609378.46406123 1.3945264.7171875 2.3554688.25312627.9609423.41718712 1.6757789.4921875 2.1445312.12187561-.7125036.30937373-1.5374953.5625-2.475s.45937425-1.6312477.61874995-2.08125l4.2890625-12.7265625h3.4875l-7.2 20.559375h-3.54374995zm20.13749995 15.1734375v-10.1671875h3.3328125v9.590625c0 1.190631.2437476 2.0835908.73125 2.6789063.4875025.5953154 1.2515573.8929687 2.2921875.8929687 1.387507 0 2.407028-.4148396 3.0585938-1.2445312.6515658-.8296917.9773437-2.2195215.9773437-4.1695313v-7.7484375h3.31875v15.553125h-2.6015625l-.4640625-2.0390625h-.16875c-.4593772.7218786-1.113277 1.2890604-1.9617187 1.7015625s-1.8164008.61875-2.9039063.61875c-1.8843844 0-3.2906203-.4687453-4.21875-1.40625-.9281296-.9375047-1.3921875-2.357803-1.3921875-4.2609375zm17.49375-2.278125c0-2.5406377.6328062-4.53749273 1.8984375-5.990625 1.2656314-1.45313227 3.0046765-2.1796875 5.2171875-2.1796875 2.0531353 0 3.6749941.62343127 4.865625 1.8703125 1.190631 1.24688123 1.7859375 2.9624891 1.7859375 5.146875v1.7859375h-10.3640625c.0468753 1.5093825.4546837 2.6695272 1.2234375 3.4804688.7687539.8109415 1.8515556 1.2164062 3.2484375 1.2164062.9187546 0 1.7742148-.0867179 2.5664063-.2601562.7921915-.1734384 1.6429642-.4617168 2.5523437-.8648438v2.6859375c-.806254.3843769-1.6218708.6562492-2.446875.815625-.8250041.1593758-1.7671822.2390625-2.8265625.2390625-2.418762 0-4.3101494-.7054617-5.6742187-2.1164062-1.3640693-1.4109446-2.0460938-3.3538939-2.0460938-5.8289063zm3.459375-1.7578125h7.059375c-.01875-1.2843814-.328122-2.2570279-.928125-2.91796875-.600003-.6609408-1.4249947-.99140625-2.475-.99140625-1.0500052 0-1.891403.33280917-2.5242187.9984375-.6328157.6656283-1.0101556 1.6359311-1.1320313 2.9109375zm13.5703125 7.6640625c0-.6843784.1781233-1.2093732.534375-1.575.3562518-.3656268.8718717-.5484375 1.546875-.5484375.6843785 0 1.2046858.1898419 1.5609375.5695313.3562518.3796893.534375.8976529.534375 1.5539062 0 .6656283-.1804669 1.1929668-.5414062 1.5820313-.3609393.3890644-.8789029.5835937-1.5539063.5835937-.6750033 0-1.1906232-.1921856-1.546875-.5765625-.3562517-.3843769-.534375-.9140591-.534375-1.5890625zm4.3453125 5.709375c.6375032.1687508 1.2890592.253125 1.9546875.253125 1.4062571 0 2.109375-.796867 2.109375-2.390625v-17.3671875h3.3046875v17.5921875c0 1.603133-.419527 2.8171834-1.2585937 3.6421875s-2.0507733 1.2375-3.6351563 1.2375c-.9937549 0-1.8187467-.1171863-2.475-.3515625zm3.8671875-23.625c0-.59062795.1617172-1.04531091.4851563-1.3640625s.7851532-.478125 1.3851562-.478125c.581253 0 1.0335922.15937341 1.3570313.478125s.4851562.77343455.4851562 1.3640625c0 .56250281-.1617171 1.00546713-.4851562 1.32890625s-.7757783.48515625-1.3570313.48515625c-.600003 0-1.0617171-.16171713-1.3851562-.48515625s-.4851563-.76640344-.4851563-1.32890625zm7.2421875 8.04375c0-1.33125666.5367134-2.36484007 1.6101563-3.10078125s2.5335845-1.10390625 4.3804687-1.10390625c1.8281342 0 3.5578044.3703088 5.1890625 1.1109375l-1.06875 2.4890625c-1.6781333-.69375347-3.0890567-1.040625-4.2328125-1.040625-1.7437587 0-2.615625.49687003-2.615625 1.490625 0 .4875024.2273415.8999983.6820313 1.2375s1.4460861.8015595 2.9742187 1.3921875c1.2843815.4968775 2.2171846.9515604 2.7984375 1.3640625.581253.4125021 1.0124986.8882786 1.29375 1.4273438.2812515.5390651.421875 1.18359.421875 1.9335937 0 1.5187576-.5531194 2.6835897-1.659375 3.4945313-1.1062555.8109415-2.6906146 1.2164062-4.753125 1.2164062-2.0718853 0-3.7359312-.3140594-4.9921875-.9421875v-2.8546875c1.8281342.8437542 3.5296797 1.265625 5.1046875 1.265625 2.0343852 0 3.0515625-.6140564 3.0515625-1.8421875 0-.393752-.1124988-.7218737-.3375-.984375-.2250011-.2625013-.5953099-.5343736-1.1109375-.815625-.5156275-.2812514-1.2328079-.5999982-2.1515625-.95625-1.7906339-.6937535-3.0023405-1.3874965-3.6351562-2.08125s-.9492188-1.5937445-.9492188-2.7z" fill-rule="nonzero" transform="translate(43.28 12)"/><g><path d="m13.6995316.01022204c1.0652692 0 2.1309835.01861362 3.1955848-.00970165.3903353-.01037851.6065946.13413092.7904651.46511505.7855678 1.41452284 1.5893891 2.81855436 2.3879792 4.22563175.7200111 1.26888531 1.441803 2.53664252 2.1629271 3.80485097.2626721.46184357.2722441.46274605.5289059.01207066 1.3978388-2.45417852 2.7946758-4.90880827 4.1926259-7.36287397.1758568-.30864778.3664054-.60928605.5309094-.92391275.1081853-.20689329.2774753-.21783584.4692482-.21761022 1.6118721.00157933 3.2236328.00033842 4.8353936.00112809.6299679.00033843 1.2598246.00157934 1.8896812.00631736.3556091.00270743.3897788.05008757.2115847.36832419-.6719288 1.19916882-1.3518712 2.39382524-2.0314797 3.58859447-1.6414783 2.88556341-3.2827341 5.77135245-4.9274401 8.65511091-1.0191902 1.787021-2.0472846 3.5687399-3.0661409 5.3559865-.7223484 1.267306-1.4367943 2.5392372-2.1525759 3.8103787-.1544869.2743536-.2336224.284168-.3916709.0069942-.7458331-1.3079175-1.4825394-2.6212499-2.228929-3.928829-1.4694058-2.5745466-2.947048-5.1442424-4.4137825-7.7203684-1.3881556-2.43804671-2.7657374-4.88241076-4.15022-7.32271366-.4751472-.83761321-.9574177-1.67116527-1.4351248-2.50742476-.0438529-.07693633-.14146457-.15060117-.0749061-.24930979.0588786-.08731484.1685108-.06159419.2588879-.061707 1.1392848-.00135372 2.2786809-.00090248 3.4180769-.00090248z"/><path d="m4.10236875.06201787c1.2454875 0 2.490975.00595677 3.73635-.00483286.2606625-.00224783.39915.09395966.5257125.31997983.5715 1.01950721 1.1660625 2.02620173 1.74959995 3.03907781.8494875 1.47469453 1.6929 2.9528732 2.54565 4.42576945 1.3822875 2.3875418 2.7725625 4.7704755 4.1547375 7.1580173.9792 1.6913862 1.9483875 3.3885043 2.9262375 5.0805648.875025 1.5141441 1.757925 3.0236802 2.6319375 4.5383862.1598625.2770461.222975.0672104.2901375-.0493401.4804875-.8347348.9513-1.6752017 1.4333625-2.5090374.8940375-1.5461758 1.7964-3.0876311 2.6899875-4.6340317.7907625-1.3682594 1.5708375-2.7425879 2.361825-4.1107349.82845-1.4328847 1.6680375-2.8594755 2.4957-4.29280979.79965-1.38478098 1.5868125-2.77675504 2.3859-4.1618732.8785125-1.52279827 1.766925-3.03986455 2.6434125-4.56378674.1035-.17993948.2336625-.24287896.430875-.24254179 2.5189875.00494525 5.0380875.00483286 7.557075.00865418.3639375.00056196.394875.04349568.2142.36089049-.740025 1.30026225-1.488375 2.59580404-2.2357125 3.89179539-1.181925 2.04957925-2.3635125 4.09927089-3.548925 6.14682706-1.57905 2.727415-3.1642875 5.4511211-4.7417625 8.1794352-1.4884875 2.5743372-2.9696625 5.1529452-4.4551125 7.7290807-.924975 1.6040576-1.850175 3.2080029-2.7783 4.8102622-.895275 1.5453891-1.8018 3.0844842-2.6892 4.6343689-.562275.9820807-1.114425 1.969781-1.702125 2.9371383-.2034.3348156-.276975.3296456-.4780125-.0201181-.9318375-1.6215908-1.8639-3.2431816-2.7981-4.8634237-1.3498875-2.3412363-2.6994375-4.6826974-4.0532625-7.0215734-1.3212-2.2824554-2.6503875-4.5601902-3.9704625-6.8430951-.9831375-1.7000404-1.95333745-3.407611-2.93692495-5.1075389-1.409625-2.4363199-2.83005-4.8665707-4.2384375-7.30367728-1.3336875-2.30751873-2.6575875-4.62065706-3.9859875-6.93132277-.0279-.0486657-.0621-.09429683-.0853875-.14498559-.0592875-.12891354-.245925-.23546109-.1508625-.38943804.07965-.12880115.2595375-.06923343.3956625-.0695706 1.2267-.00314698 2.4535125-.00179827 3.6802125-.00179827z"/></g></g></svg>