<svg height="33" viewBox="0 0 127 33" width="127" xmlns="http://www.w3.org/2000/svg"><path d="m70.84 130.48c.5102533 0 1.0594956.254261 1.3634103.679769l.0765897.120231 5.76 9.76 2.88 5.12v-15.04c0-.364495.2911736-.595197.5602524-.634131l.0797476-.005869h4.32v24h-4.32c-.4808862 0-1.0576133-.308109-1.3681272-.826168l-.0718728-.133832-6.24-10.72c-1.3903448-2.317241-2.1840666-3.739548-2.2371528-3.834883l-.0028472-.005117v14.88c0 .321309-.2433058.587345-.5471976.63306l-.0928024.00694h-4.32v-24zm62.326486 1.92v5.046857h4.553514v3.785143h-4.553514v6.781714c0 1.656.852857 2.365715 2.361082 2.365715h2.192432v4.100571h-2.867027c-3.887689 0-6.408649-2.354517-6.408649-6.308571v-6.939429h-3.204324v-3.785143h2.192432c.558902 0 1.011892-.423668 1.011892-.946286v-4.100571zm-31.833583 4.801837c.047729.00066.162.00033.243196.000124l2.543901-.000124v9.918946c0 2.240401-.814142 4.129001-2.012903 5.439421-1.198762 1.310421-2.854297 1.919796-5.1096776 1.919796-2.2553807 0-4.0657549-.609375-5.2645162-1.919796-1.1784774-1.31042-2.0129032-3.19902-2.0129032-5.439421v-9.918946h2.4774194c.5283096 0 1.0481032.09951 1.3935483.479949.3454452.359306.4645162.570372.4645162 1.119881v8.319116c0 1.289302.0707613 2.085698.6193548 2.71971.5485936.612895 1.2253936.799915 2.3225807.799915 1.1174709 0 1.6191483-.18702 2.1677419-.799915.5485935-.634012.6193548-1.430408.6193548-2.71971v-8.319116c0-.549509.119071-.899424.4645159-1.279864.303484-.334252.623691-.326381 1.083871-.319966zm6.160811-.001837h4.114286c.494359 0 1.076391.292524 1.399656.689335l.081487.110665 2.468571 3.68 2.633143-3.84c.268383-.406685.683266-.599737 1.156709-.634281l.159863-.005719h4.278857l-5.595429 8.32 6.089143 8.96h-4.278857c-.486234 0-.929217-.292628-1.230527-.68086l-.086045-.11914-3.126857-4.48-2.962285 4.32c-.274259.40876-.702567.874793-1.184024.949627l-.132548.010373h-4.278857l6.089143-9.12-5.595429-8.16h4.114286zm-78.4137131-14.4c.56672 0 1.10912.038822 1.6.3168s.83648.785322 1.12 1.266826l6.08 10.137974 3.04-5.2272c.2832-.481536.62928-.830776 1.12-1.1088s1.03328-.4752 1.6-.4752 1.26928.197176 1.76.4752.8368.627264 1.12 1.1088l12 20.433758c.28368.481378.4799991 1.027541.4799991 1.583684 0 .556142-.1967991 1.102464-.4799991 1.584158s-.78912.83065-1.28 1.1088-1.03328.4752-1.6.4752h-17.76l2.88-5.0688h11.68l-8.8-14.8896-2.88 4.9104-5.44 9.3456c-2.252 3.731587-5.48208 5.7024-9.92 5.7024h-11.2c-.566752 0-1.1092-.19705-1.6-.4752-.490808-.27815-.996744-.627264-1.28-1.1088-.2832563-.481694-.3200009-1.028016-.3200009-1.584158 0-.556143.0363176-1.102306.3200009-1.583684l14.88-25.344532c.283472-.481504.789168-.988848 1.28-1.266826.49088-.277978 1.03328-.3168 1.6-.3168zm0 6.6528-11.68 19.9584h7.84c2.63808 0 4.34304-.790416 5.83856-3.21156l3.92144-6.76764z" fill="#465279" transform="translate(-11 -122)"/></svg>