<?xml version="1.0" encoding="UTF-8"?>
<svg width="238px" height="70px" viewBox="0 0 238 70" version="1.1" xmlns="http://www.w3.org/2000/svg" xmlns:xlink="http://www.w3.org/1999/xlink">
    <!-- Generator: Sketch 57.1 (83088) - https://sketch.com -->
    <title>swa</title>
    <desc>Created with Sketch.</desc>
    <g id="Page-4" stroke="none" stroke-width="1" fill="none" fill-rule="evenodd">
        <g id="cwa-vip-overview2c" transform="translate(-343.000000, -18145.000000)" fill="#FFFFFF" fill-rule="nonzero">
            <g id="swa" transform="translate(343.000000, 18145.000000)">
                <g id="Group-5">
                    <path d="M29.0983623,26.2772747 L19.5698383,26.2772747 C18.2998893,26.2772747 17.3671533,25.911169 16.7710173,25.1746651 C16.1689061,24.4383201 15.8701487,23.6444285 15.8701487,22.7901285 C15.8701487,21.9375772 16.1689061,21.1436855 16.7710173,20.4071816 C17.3671533,19.6706778 18.2998893,19.3004387 19.5698383,19.3004387 L35.4847239,19.3004387 C41.3092685,19.3004387 44.2977622,16.0856066 44.4474474,9.64847076 L44.4474474,9.30032839 C44.4474474,9.26948837 44.4443831,9.2410329 44.4443831,9.2103519 L44.4443831,0.00763051693 L35.8188728,0.00763051693 C35.743494,0.00651773322 35.6734775,0 35.596873,0 L20.8037832,0 C8.34192074,0 1.4059985,5.82701246 0,17.4834219 C0.766044731,17.8093085 5.82301241,19.998949 7.05680406,21.5204423 C8.44395785,21.4422295 9.35018876,22.3839624 9.62749695,22.8807409 C10.1580595,22.9847067 10.0819147,23.5088278 10.0819147,23.5088278 C10.0819147,23.5088278 9.85501222,24.9465444 9.42618037,25.339198 C9.70425464,25.8092698 9.32506252,26.018791 9.32506252,26.018791 C9.32506252,26.018791 9.14871899,26.8557633 10.1822665,27.6925767 C11.1908411,28.1634431 11.8459625,27.9539219 13.0566196,29.470646 C13.786507,29.6801674 14.1142209,30.0470679 14.1142209,30.0470679 C14.1142209,30.0470679 14.2407715,30.8832455 15.0725429,31.4588727 C15.8796476,32.5570313 15.5013748,32.9231371 16.5349223,34.6501773 C17.4161801,35.0679482 17.6181095,35.6176633 17.1898905,36.3231682 C16.8877625,36.5845135 15.2994454,39.802366 12.8539241,39.5138371 C11.8533165,40.1899326 10.0583205,40.465744 8.73735299,41.0391457 C11.6193665,42.5151738 15.1923523,43.2540621 19.4578426,43.2540621 L28.9819236,43.2540621 C30.2549366,43.2540621 31.1873663,43.6244601 31.7851875,44.3623948 C32.3813235,45.0987396 32.6802342,45.8912006 32.6802342,46.7453415 C32.6802342,47.5996414 32.3813235,48.3919436 31.7851875,49.1284475 C31.1873663,49.8663819 30.2549366,50.2323289 28.9819236,50.2323289 L9.70793165,50.2323289 C3.88185507,50.2323289 0.889224721,53.4508172 0.743982641,59.8836609 L0.743982641,59.9563098 L0.732491971,59.9563098 L0.732491971,69.5116246 L8.86604851,69.5116246 C9.10689291,69.5227525 9.34543929,69.5364238 9.59731479,69.5364238 L27.97626,69.5364238 C41.8697068,69.5364238 48.8207967,62.1359353 48.8207967,47.3268505 C48.8207967,33.2970324 42.2447623,26.2772747 29.0983623,26.2772747" id="Fill-1"></path>
                </g>
                <path d="M76.5746504,27.3454546 C76.6111185,29.6606176 76.0094046,31.6363556 74.7694904,33.2727272 C73.955037,34.3878843 72.8063104,35.1696947 71.323276,35.6181818 C70.5209788,35.8727287 69.5910571,36 68.5334834,36 C66.564208,36 64.9353259,35.5151564 63.6467878,34.5454545 C62.577058,33.7454506 61.7261494,32.6636433 61.0940363,31.3 C60.4619232,29.936357 60.0972482,28.3636454 60,26.5818181 L64.7590581,26.2545454 C64.9778665,28.1818279 65.4944894,29.5757532 66.3089428,30.4363637 C66.9045878,31.0909123 67.5913926,31.4000002 68.3693779,31.3636363 C69.4634198,31.3272725 70.33864,30.7939444 70.9950651,29.7636363 C71.3354336,29.2424217 71.5056154,28.5090957 71.5056154,27.5636364 C71.5056154,26.1696901 70.8795897,24.7939461 69.6275197,23.4363636 C68.630726,22.5030256 67.141636,21.1030396 65.1602047,19.2363637 C63.4948299,17.6363557 62.3217917,16.2000064 61.6410545,14.9272728 C60.8995373,13.4969626 60.5287842,11.945463 60.5287842,10.2727273 C60.5287842,7.25453036 61.5437966,4.96970474 63.573852,3.41818183 C64.8259221,2.48484381 66.3818693,2.01818182 68.2417403,2.01818182 C70.0286754,2.01818182 71.5603107,2.41817781 72.8366929,3.21818183 C73.8213305,3.83636672 74.6175379,4.69999445 75.2253389,5.80909092 C75.8331399,6.91818737 76.2038929,8.19393221 76.3376091,9.63636363 L71.5238493,10.5090909 C71.3901331,9.15150837 71.0011463,8.09697346 70.3568772,7.34545456 C69.8949485,6.78787601 69.2324554,6.50909092 68.3693779,6.50909092 C67.4576763,6.50909092 66.7587159,6.91514746 66.2724749,7.72727272 C65.8834824,8.38182143 65.6889889,9.1939346 65.6889889,10.1636363 C65.6889889,11.6787955 66.3454042,13.2242346 67.6582543,14.8 C68.1566512,15.3939424 68.8981573,16.0969657 69.8827948,16.9090909 C71.0497727,17.8787928 71.8216685,18.5575738 72.198505,18.9454546 C73.4262632,20.1818243 74.3804963,21.399994 75.0612334,22.6 C75.37729,23.1575785 75.6325626,23.6787855 75.8270589,24.1636364 C76.3011436,25.3393999 76.5503382,26.3999954 76.5746504,27.3454546 Z M85.0169639,35.5818182 L80.0208647,35.5818182 L80.0208647,2.41818183 L85.0169639,2.41818183 L85.0169639,35.5818182 Z M102.138633,35.5818182 L88.4814121,35.5818182 L88.4814121,2.41818183 L93.4775113,2.41818183 L93.4775113,30.6181818 L102.138633,30.6181818 L102.138633,35.5818182 Z M105.867618,35.5818182 L99.9415877,2.41818183 L105.192962,2.41818183 L109.3503,28.2363636 L113.56234,2.41818183 L118.813714,2.41818183 L112.778281,35.5818182 L105.867618,35.5818182 Z M121.120452,35.5818182 L121.120452,2.41818183 L135.379392,2.41818183 L135.379392,7.41818183 L126.116551,7.41818183 L126.116551,16.4909091 L132.881343,16.4909091 L132.881343,21.509091 L126.116551,21.509091 L126.116551,30.5818182 L135.379392,30.5818182 L135.379392,35.5818182 L121.120452,35.5818182 Z M146.739136,2.41818183 C149.535021,2.41818183 151.58328,3.18787109 152.883974,4.72727273 C154.038795,6.072734 154.616198,7.93938196 154.616198,10.3272727 L154.616198,15.1454546 C154.616198,17.4969815 153.722744,19.4787798 151.935809,21.0909091 L155.655532,35.5818182 L150.240053,35.5818182 L147.176751,23.0545455 C147.030879,23.0666666 146.878931,23.0727272 146.720902,23.0727272 L143.83994,23.0727272 L143.83994,35.5818182 L138.84384,35.5818182 L138.84384,2.41818183 L146.739136,2.41818183 Z M149.729502,10.4181818 C149.729502,8.49089944 148.775269,7.52727274 146.866774,7.52727274 L143.83994,7.52727274 L143.83994,18.1272727 L146.866774,18.1272727 C147.669071,18.1272727 148.346759,17.8454574 148.899858,17.2818182 C149.452957,16.718179 149.729502,16.0424282 149.729502,15.2545455 L149.729502,10.4181818 Z M159.101747,35.5818182 L159.101747,2.41818183 L166.595896,2.41818183 C168.577327,2.41818183 170.364235,2.93938873 171.956674,3.9818182 C173.318148,4.86667109 174.290615,6.23029383 174.874104,8.07272727 C175.19016,9.06667165 175.348186,10.2424175 175.348186,11.6 C175.348186,13.8181929 174.758628,15.5999933 173.579494,16.9454546 C173.081097,17.5030331 172.497617,17.9333318 171.829036,18.2363636 C172.935234,18.6606082 173.877311,19.4969635 174.655297,20.7454546 C175.178005,21.5939437 175.560914,22.6848418 175.804035,24.0181818 C175.925595,24.7090943 175.986374,25.4787837 175.986374,26.3272727 C175.986374,28.4242528 175.59131,30.2060532 174.801168,31.6727273 C174.181211,32.8121269 173.305991,33.7272693 172.175481,34.4181818 C170.899098,35.1939433 169.634892,35.5818182 168.382821,35.5818182 L159.101747,35.5818182 Z M164.498992,30.6363636 L166.595896,30.6363636 C168.297739,30.6363636 169.476855,29.7636451 170.13328,28.0181818 C170.364244,27.4242394 170.479725,26.7393979 170.479725,25.9636364 C170.479725,24.1090816 170.121127,22.75758 169.403922,21.9090909 C168.771809,21.1333294 167.83581,20.7454546 166.595896,20.7454546 L164.498992,20.7454546 L164.498992,30.6363636 Z M164.498992,15.9636364 L166.595896,15.9636364 C168.151866,15.9636364 169.197268,15.2060682 169.732133,13.6909091 C169.92663,13.1212093 170.023876,12.4242465 170.023876,11.6 C170.023876,10.2181749 169.689591,9.17576112 169.021009,8.47272731 C168.401053,7.81817852 167.59269,7.4909091 166.595896,7.4909091 L164.498992,7.4909091 L164.498992,15.9636364 Z M185.887403,27.9636363 L184.665729,35.5818182 L179.450822,35.5818182 L185.08511,2.41818183 L191.995772,2.41818183 L197.557124,35.5818182 L192.30575,35.5818182 L191.120544,27.9636363 L185.887403,27.9636363 Z M188.51309,10.0181818 L186.653228,23.0909091 L190.372952,23.0909091 L188.51309,10.0181818 Z M208.971569,36 C206.759174,36 204.881097,35.2303107 203.337282,33.6909091 C201.793468,32.1515075 201.021572,30.2848596 201.021572,28.0909091 L201.021572,9.92727277 C201.021572,7.73332235 201.799546,5.86364408 203.355516,4.31818182 C204.911487,2.77271955 206.783486,2 208.971569,2 C211.183965,2 213.059003,2.77574983 214.59674,4.32727274 C216.134476,5.87879565 216.903333,7.74544367 216.903333,9.92727277 L216.903333,13.7090909 L211.70666,13.7090909 L211.70666,9.83636365 C211.70666,9.03635962 211.424037,8.35454829 210.858782,7.7909091 C210.293528,7.22726992 209.609761,6.94545456 208.807464,6.94545456 C208.017322,6.94545456 207.342674,7.22726992 206.783497,7.7909091 C206.22432,8.35454829 205.944736,9.03635962 205.944736,9.83636365 L205.944736,28.0363636 C205.944736,28.8363675 206.22432,29.5151488 206.783497,30.0727273 C207.342674,30.6303058 208.017322,30.9090909 208.807464,30.9090909 C209.609761,30.9090909 210.293528,30.6303058 210.858782,30.0727273 C211.424037,29.5151488 211.70666,28.8363675 211.70666,28.0363636 L211.70666,23.4727273 L216.903333,23.4727273 L216.903333,28.0909091 C216.903333,30.2969807 216.125359,32.166659 214.569389,33.7 C213.013418,35.233341 211.147497,36 208.971569,36 Z M225.382114,25.1090909 L225.382114,35.5818182 L220.349547,35.5818182 L220.349547,2.41818183 L225.382114,2.41818183 L225.382114,14.2363637 L231.47225,2.41818183 L236.833028,2.41818183 L229.977067,15.9818182 L238,35.5818182 L232.110438,35.5818182 L226.859063,22.1454546 L225.382114,25.1090909 Z" id="Silverback"></path>
                <path d="M76.7778472,42.3295879 L81.0539713,42.3295879 L76.8223903,69.6554307 L72.9026101,69.6554307 L70.601224,54.7490637 L68.4334668,69.6554307 L64.5285342,69.6554307 L60,42.3295879 L64.2761239,42.3295879 L66.4141859,56.9662921 L68.374076,42.3295879 L72.6501999,42.3295879 L74.7882619,56.9662921 L76.7778472,42.3295879 Z M83.8601777,69.6554307 L83.8601777,42.3295879 L95.4710415,42.3295879 L95.4710415,46.4494382 L87.9284344,46.4494382 L87.9284344,53.9250936 L93.4369136,53.9250936 L93.4369136,58.059925 L87.9284344,58.059925 L87.9284344,65.5355804 L95.4710415,65.5355804 L95.4710415,69.6554307 L83.8601777,69.6554307 Z M98.2920961,69.6554307 L98.2920961,42.3295879 L104.394481,42.3295879 C106.007934,42.3295879 107.46299,42.7590469 108.75969,43.6179774 C109.868321,44.3470697 110.660188,45.4706539 111.135315,46.988764 C111.392676,47.8077443 111.521354,48.7765237 111.521354,49.895131 C111.521354,51.7228557 111.041285,53.1910057 110.081132,54.2996254 C109.675294,54.7590534 109.200174,55.1136066 108.655757,55.3632958 C109.556519,55.7128607 110.32364,56.4019923 110.957143,57.4307114 C111.382778,58.1298412 111.694576,59.0287086 111.892546,60.1273409 C111.99153,60.696632 112.041022,61.330833 112.041022,62.0299625 C112.041022,63.7578114 111.719326,65.2259614 111.075924,66.4344569 C110.571102,67.3732879 109.858422,68.1273381 108.937863,68.6966292 C107.898522,69.3358334 106.869094,69.6554307 105.849551,69.6554307 L98.2920961,69.6554307 Z M102.687001,65.5805243 L104.394481,65.5805243 C105.780268,65.5805243 106.740408,64.8614304 107.274925,63.4232209 C107.462997,62.9338302 107.557031,62.3695411 107.557031,61.7303371 C107.557031,60.2022396 107.26503,59.0886427 106.681019,58.389513 C106.166298,57.750309 105.404127,57.4307114 104.394481,57.4307114 L102.687001,57.4307114 L102.687001,65.5805243 Z M102.687001,53.4906367 L104.394481,53.4906367 C105.661487,53.4906367 106.512744,52.8664232 106.948277,51.6179774 C107.106653,51.1485619 107.18584,50.5742855 107.18584,49.895131 C107.18584,48.7565486 106.913635,47.8976307 106.369218,47.3183519 C105.864396,46.7790234 105.206157,46.5093633 104.394481,46.5093633 L102.687001,46.5093633 L102.687001,53.4906367 Z M122.909503,63.3782772 L121.914711,69.6554307 L117.668282,69.6554307 L122.256206,42.3295879 L127.883467,42.3295879 L132.412001,69.6554307 L128.135877,69.6554307 L127.170779,63.3782772 L122.909503,63.3782772 Z M125.047565,48.5917602 L123.533105,59.3632958 L126.562026,59.3632958 L125.047565,48.5917602 Z M141.662088,42.3295879 C143.651683,42.3295879 145.235417,42.9637889 146.413337,44.2322096 C147.512069,45.4407052 148.061427,46.9787673 148.061427,48.846442 L148.061427,52.8164793 C148.061427,54.6142411 147.437831,56.1523031 146.190622,57.4307114 C144.943414,58.70912 143.433917,59.3483145 141.662088,59.3483145 L139.301312,59.3483145 L139.301312,69.6554307 L135.233055,69.6554307 L135.233055,42.3295879 L141.662088,42.3295879 Z M144.097104,48.9213482 C144.097104,48.2022435 143.886763,47.6254704 143.466078,47.1910112 C143.045393,46.756552 142.478713,46.5393258 141.766022,46.5393258 L139.301312,46.5393258 L139.301312,55.2734083 L141.766022,55.2734083 C142.419322,55.2734083 142.971154,55.0412007 143.421535,54.576779 C143.871916,54.1123573 144.097104,53.5555587 144.097104,52.906367 L144.097104,48.9213482 Z M157.296667,42.3295879 C159.286262,42.3295879 160.869995,42.9637889 162.047915,44.2322096 C163.146647,45.4407052 163.696005,46.9787673 163.696005,48.846442 L163.696005,52.8164793 C163.696005,54.6142411 163.07241,56.1523031 161.8252,57.4307114 C160.577992,58.70912 159.068495,59.3483145 157.296667,59.3483145 L154.93589,59.3483145 L154.93589,69.6554307 L150.867633,69.6554307 L150.867633,42.3295879 L157.296667,42.3295879 Z M159.731682,48.9213482 C159.731682,48.2022435 159.521342,47.6254704 159.100656,47.1910112 C158.679971,46.756552 158.113291,46.5393258 157.4006,46.5393258 L154.93589,46.5393258 L154.93589,55.2734083 L157.4006,55.2734083 C158.0539,55.2734083 158.605732,55.0412007 159.056114,54.576779 C159.506494,54.1123573 159.731682,53.5555587 159.731682,52.906367 L159.731682,48.9213482 Z M179.998727,62.8689138 C180.028422,64.7765389 179.538455,66.4044876 178.528809,67.752809 C177.865611,68.671665 176.930219,69.3158532 175.722603,69.6853932 C175.069303,69.895132 174.31208,70 173.450912,70 C171.847358,70 170.520981,69.6005034 169.471742,68.8014981 C168.600675,68.1423187 167.907791,67.2509418 167.39307,66.1273407 C166.878349,65.0037397 166.581399,63.7078724 166.502211,62.2397004 L170.377448,61.9700375 C170.555621,63.5580603 170.9763,64.7066131 171.639499,65.4157303 C172.124524,65.9550589 172.68378,66.2097378 173.317283,66.1797754 C174.208147,66.1498126 174.920827,65.7103662 175.455345,64.8614231 C175.732502,64.4319579 175.871079,63.8277192 175.871079,63.048689 C175.871079,61.9001192 175.361315,60.7665475 174.341772,59.6479402 C173.530096,58.8788974 172.31755,57.7253509 170.704096,56.1872659 C169.348004,54.8689072 168.392815,53.6853983 167.8385,52.6367042 C167.234692,51.4581713 166.932793,50.1797821 166.932793,48.8014981 C166.932793,46.3145942 167.759304,44.4319663 169.41235,43.153558 C170.431895,42.3845155 171.698882,42 173.21335,42 C174.668427,42 175.915618,42.3295846 176.954958,42.988764 C177.756736,43.4981298 178.405077,44.2097333 178.900001,45.1235954 C179.394925,46.0374577 179.696824,47.0886332 179.805708,48.2771534 L175.885927,48.9962546 C175.777044,47.8776472 175.460297,47.0087422 174.935678,46.389513 C174.559535,45.930085 174.020075,45.7003746 173.317283,45.7003746 C172.574897,45.7003746 172.005743,46.034953 171.609803,46.7041198 C171.293052,47.2434483 171.134679,47.9126051 171.134679,48.7116103 C171.134679,49.9600562 171.669189,51.2334516 172.738225,52.5318352 C173.144063,53.021226 173.747861,53.6004961 174.549639,54.2696629 C175.499893,55.0686682 176.128437,55.6279634 176.43529,55.9475655 C177.435037,56.9662972 178.212057,57.9700326 178.766372,58.9588015 C179.023732,59.4182295 179.231598,59.8476885 179.389973,60.247191 C179.776015,61.2159848 179.97893,62.0898838 179.998727,62.8689138 Z" id="Web-Apps"></path>
            </g>
        </g>
    </g>
</svg>