<?xml version="1.0" encoding="UTF-8"?>
<svg width="308px" height="69px" viewBox="0 0 308 69" version="1.1" xmlns="http://www.w3.org/2000/svg" xmlns:xlink="http://www.w3.org/1999/xlink">
    <g id="Page-4" stroke="none" stroke-width="1" fill="none" fill-rule="evenodd">
        <g id="cwa-vip-overview2c" transform="translate(-565.000000, -18148.000000)" fill="#FFFFFF" fill-rule="nonzero">
            <g id="Group-44" transform="translate(565.000000, 18148.000000)">
                <g id="logo.9b8a614c">
                    <g id="Group-3">
                        <g id="Group" transform="translate(10.000000, 0.000000)">
                            <g id="unlock">
                                <g id="Group-8">
                                    <path d="M20.6310956,1.70530257e-13 C32.0481375,1.70530257e-13 41.3367934,9.16496549 41.3367934,20.4296345 L41.336,26 L33.948,26 L33.9487861,20.4296345 C33.9487861,13.1837873 27.9748551,7.28950509 20.6310956,7.28950509 L20.6306066,7.28950509 L20.6306066,1.70530257e-13 L20.6310956,1.70530257e-13 Z M20.6286028,0.073334961 L20.6286028,7.33882129 C19.7142423,7.33882129 18.820999,7.43056601 17.9584296,7.60538317 C16.2323659,7.95501754 14.6277649,8.63633276 13.215531,9.57858054 C12.5095682,10.0496283 11.8518514,10.5860994 11.2511664,11.1790172 C8.84858085,13.5505359 7.36066403,16.8247441 7.36066403,20.4358063 L7.36066403,20.6542897 L6.39488462e-14,20.6542897 L6.39488462e-14,20.4358063 C6.39488462e-14,9.20810204 9.25412409,0.0736392553 20.6286028,0.073334961 Z" id="Combined-Shape"></path>
                                </g>
                            </g>
                        </g>
                        <g id="Group-7" transform="translate(0.000000, 25.000000)">
                            <path d="M6.71881188,0.410676235 L54.9247525,0.410676235 C58.4593749,0.410676235 61.3247525,3.27605384 61.3247525,6.81067623 L61.3247525,35.9096024 C61.3247525,39.4442248 58.4593749,42.3096024 54.9247525,42.3096024 L6.71881188,42.3096024 C3.18418948,42.3096024 0.318811881,39.4442248 0.318811881,35.9096024 L0.318811881,6.81067623 C0.318811881,3.27605384 3.18418948,0.410676235 6.71881188,0.410676235 Z M6.71881188,2.01067623 C4.06784508,2.01067623 1.91881188,4.15970944 1.91881188,6.81067623 L1.91881188,35.9096024 C1.91881188,38.5605692 4.06784508,40.7096024 6.71881188,40.7096024 L54.9247525,40.7096024 C57.5757193,40.7096024 59.7247525,38.5605692 59.7247525,35.9096024 L59.7247525,6.81067623 C59.7247525,4.15970944 57.5757193,2.01067623 54.9247525,2.01067623 L6.71881188,2.01067623 Z" id="Rectangle"></path>
                            <path d="M7,13.0264234 L18.7272084,13.0264234 L18.7272084,28.9932071 L7,28.9932071 L7,13.0264234 Z M8,14.0264234 L8,27.9932071 L17.7272084,27.9932071 L17.7272084,14.0264234 L8,14.0264234 Z" id="Rectangle-5"></path>
                            <path d="M19.20587,13.0264234 L30.9330784,13.0264234 L30.9330784,28.9932071 L19.20587,28.9932071 L19.20587,13.0264234 Z M20.20587,27.9932071 L29.9330784,27.9932071 L29.9330784,14.0264234 L20.20587,14.0264234 L20.20587,27.9932071 Z" id="Rectangle-5"></path>
                            <path d="M31.41174,13.0264234 L43.1389484,13.0264234 L43.1389484,28.9932071 L31.41174,28.9932071 L31.41174,13.0264234 Z M32.41174,27.9932071 L42.1389484,27.9932071 L42.1389484,14.0264234 L32.41174,14.0264234 L32.41174,27.9932071 Z" id="Rectangle-5"></path>
                            <path d="M55.3448184,13.0264234 L55.3448184,28.9932071 L43.61761,28.9932071 L43.61761,13.0264234 L55.3448184,13.0264234 Z M49.0762744,15.7751121 L46.2939982,15.7751121 L46.2939982,25.1142456 L49.4459475,25.1142456 C50.4101288,25.1142456 51.1505484,24.8833353 51.6672286,24.4215077 C52.1839087,23.9596801 52.4422449,23.2819156 52.4422449,22.3881936 C52.4422449,21.8707757 52.3233454,21.4196453 52.0855428,21.034789 C51.8477402,20.6499326 51.4802327,20.3997798 50.9830091,20.2843229 C51.380788,20.1132756 51.6791177,19.8556396 51.8780071,19.511407 C52.0768965,19.1671744 52.1763397,18.7727025 52.1763397,18.3279797 C52.1763397,17.4812958 51.9028709,16.8441543 51.3559249,16.4165361 C50.808979,15.988918 50.0491031,15.7751121 49.0762744,15.7751121 L49.0762744,15.7751121 Z M49.5691718,20.9963035 C49.9323612,20.9963035 50.1961019,21.1160348 50.3604019,21.355501 C50.5247018,21.5949671 50.6068506,21.9370565 50.6068506,22.3817794 C50.6068506,22.8051213 50.5106501,23.1236921 50.3182462,23.3375011 C50.1258423,23.5513102 49.835079,23.6582131 49.4459475,23.6582131 L49.4459475,23.6582131 L48.1423635,23.6582131 L48.1423635,20.9963035 Z M49.0762744,17.2375589 C49.4956717,17.2375589 49.809134,17.3391167 50.0166708,17.5422353 C50.2242076,17.7453539 50.3279744,18.0649937 50.3279744,18.5011641 C50.3279744,18.8902967 50.2274503,19.1885559 50.026399,19.3959507 C49.8253478,19.6033455 49.5367463,19.7113174 49.1605858,19.7198698 L49.1605858,19.7198698 L48.1423635,19.7198698 L48.1423635,17.2375589 Z" id="Combined-Shape"></path>
                            <path d="M13.2544084,22.8536896 C13.505182,22.8536896 13.6943403,22.7617531 13.8218889,22.5778773 C13.9494376,22.3940015 14.013211,22.1288822 14.013211,21.7825115 L15.686468,21.7825115 L15.7059244,21.820997 C15.7188955,22.5479478 15.4929864,23.1444662 15.0281905,23.61057 C14.5633946,24.0766737 13.9721397,24.3097221 13.2544084,24.3097221 C12.3464349,24.3097221 11.6492514,24.0168081 11.1628371,23.4309712 C10.6764227,22.8451343 10.4332192,22.0882616 10.4332192,21.1603303 L10.4332192,20.2687509 C10.4332192,19.3450957 10.6753418,18.5871539 11.1595943,17.9949028 C11.6438468,17.4026516 12.3377876,17.1065305 13.2414374,17.1065305 C14.0024056,17.1065305 14.6066313,17.3481311 15.0541324,17.8313397 C15.5016337,18.3145481 15.7188955,18.9666561 15.7059244,19.7876829 L15.6929535,19.8197541 L14.013211,19.8197541 C14.013211,19.4434501 13.9494376,19.1409148 13.8218889,18.9121391 C13.6943403,18.6833634 13.5008584,18.5689773 13.2414374,18.5689773 C12.8739243,18.5689773 12.6209926,18.7229175 12.4826348,19.0308026 C12.3442769,19.3386876 12.275099,19.7513329 12.275099,20.2687509 L12.275099,21.1603303 C12.275099,21.6905768 12.3442769,22.1053601 12.4826348,22.4046928 C12.6209926,22.7040255 12.8782479,22.8536896 13.2544084,22.8536896 Z" id="c"></path>
                            <path d="M22.1415711,20.2815794 C22.1415711,19.3493718 22.39126,18.5871539 22.8906454,17.9949028 C23.3900309,17.4026516 24.0893761,17.1065305 24.9887022,17.1065305 C25.8880283,17.1065305 26.5884545,17.4026516 27.0900017,17.9949028 C27.591549,18.5871539 27.8423188,19.3493718 27.8423188,20.2815794 L27.8423188,21.1410875 C27.8423188,22.0818475 27.591549,22.8451343 27.0900017,23.4309712 C26.5884545,24.0168081 25.8901901,24.3097221 24.9951877,24.3097221 C24.0915379,24.3097221 23.3900309,24.0168081 22.8906454,23.4309712 C22.39126,22.8451343 22.1415711,22.0818475 22.1415711,21.1410875 L22.1415711,20.2815794 Z M23.9769654,21.1410875 C23.9769654,21.6756102 24.0526287,22.0946697 24.2039577,22.3982786 C24.3552866,22.7018875 24.6190273,22.8536896 24.9951877,22.8536896 C25.3583771,22.8536896 25.6167133,22.7008184 25.770204,22.3950714 C25.9236948,22.0893245 26.000439,21.671334 26.000439,21.1410875 L26.000439,20.2815794 C26.000439,19.7598852 25.9236948,19.3440328 25.770204,19.0340097 C25.6167133,18.7239865 25.3562153,18.5689773 24.9887022,18.5689773 C24.6211891,18.5689773 24.3606911,18.7250555 24.2072004,19.0372168 C24.0537097,19.349378 23.9769654,19.7641614 23.9769654,20.2815794 L23.9769654,21.1410875 Z" id="o"></path>
                            <path d="M34.8040505,17.2348153 L34.8753909,18.1199805 C35.0613093,17.7949907 35.2947847,17.5448378 35.5758241,17.3695144 C35.8568635,17.1941909 36.178973,17.1065305 36.5421624,17.1065305 C36.8967044,17.1065305 37.2058431,17.1995361 37.4695878,17.38555 C37.7333325,17.5715639 37.9343807,17.8548566 38.0727386,18.2354368 C38.2543333,17.8762375 38.4878087,17.5982899 38.7731718,17.4015856 C39.0585349,17.2048812 39.3914534,17.1065305 39.7719376,17.1065305 C40.3513111,17.1065305 40.8085337,17.342786 41.1436192,17.815304 C41.4787046,18.2878221 41.6462449,19.0094169 41.6462449,19.9801101 L41.6462449,24.1750231 L39.7978796,24.1750231 L39.7978796,19.9801101 C39.7978796,19.4455874 39.7395107,19.0767723 39.6227713,18.8736537 C39.5060318,18.670535 39.3244399,18.5689773 39.0779899,18.5689773 C38.9007189,18.5689773 38.7429068,18.6202907 38.604549,18.722919 C38.4661911,18.8255474 38.3516152,18.9666592 38.2608179,19.1462589 C38.2651416,19.2275063 38.2694652,19.3076835 38.2737889,19.3867929 C38.2781125,19.4659022 38.2802744,19.5482175 38.2802744,19.6337411 L38.2802744,24.1750231 L36.44488,24.1750231 L36.44488,19.9801101 C36.44488,19.4498636 36.3854303,19.0821175 36.266529,18.8768608 C36.1476277,18.6716041 35.962793,18.5689773 35.7120194,18.5689773 C35.5433958,18.5689773 35.39315,18.6106694 35.2612777,18.6940549 C35.1294053,18.7774405 35.0159103,18.8939647 34.9207893,19.043631 L34.9207893,24.1750231 L33.085395,24.1750231 L33.085395,17.2348153 L34.8040505,17.2348153 Z" id="m"></path>
                        </g>
                    </g>
                </g>
                <path d="M94.7573242,2.49365234 L94.7573242,18.871582 C94.7573242,20.7283621 94.6967779,22.0326297 94.5756836,22.7844238 C94.4545892,23.536218 94.0963571,24.3081829 93.5009766,25.1003418 C92.905596,25.8925007 92.1210172,26.4929179 91.1472168,26.9016113 C90.1734164,27.3103048 89.02556,27.5146484 87.7036133,27.5146484 C86.2403898,27.5146484 84.9487361,27.2724634 83.8286133,26.7880859 C82.7084905,26.3037085 81.8709338,25.6730182 81.315918,24.8959961 C80.7609022,24.118974 80.4329432,23.2990766 80.3320312,22.4362793 C80.2311193,21.573482 80.1806641,19.7596167 80.1806641,16.9946289 L80.1806641,2.49365234 L86.5532227,2.49365234 L86.5532227,20.8696289 C86.5532227,21.9392957 86.6112462,22.622964 86.7272949,22.9206543 C86.8433437,23.2183446 87.0779605,23.3671875 87.4311523,23.3671875 C87.8348002,23.3671875 88.0946446,23.203208 88.2106934,22.8752441 C88.3267421,22.5472803 88.3847656,21.7727926 88.3847656,20.5517578 L88.3847656,2.49365234 L94.7573242,2.49365234 Z M103.03535,6.91357422 L102.929393,8.76025391 C103.373406,8.02359658 103.9158,7.47111187 104.556591,7.1027832 C105.197382,6.73445454 105.936551,6.55029297 106.77412,6.55029297 C107.823604,6.55029297 108.681343,6.79752357 109.347362,7.29199219 C110.013381,7.78646081 110.442251,8.40958283 110.633983,9.16137695 C110.825716,9.91317108 110.921581,11.1669834 110.921581,12.9228516 L110.921581,27 L104.806347,27 L104.806347,13.0893555 C104.806347,11.7068616 104.760937,10.8642593 104.670116,10.5615234 C104.579295,10.2587875 104.327019,10.1074219 103.91328,10.1074219 C103.479359,10.1074219 103.2069,10.2814924 103.095897,10.6296387 C102.984894,10.9777849 102.929393,11.9086838 102.929393,13.4223633 L102.929393,27 L96.8141591,27 L96.8141591,6.91357422 L103.03535,6.91357422 Z M119.09365,2.49365234 L119.09365,27 L112.796775,27 L112.796775,2.49365234 L119.09365,2.49365234 Z M134.894626,13.9672852 L134.894626,18.8867188 C134.894626,20.6930429 134.803806,22.0174925 134.622165,22.8601074 C134.440523,23.7027223 134.052018,24.4898238 133.456637,25.2214355 C132.861257,25.9530473 132.09686,26.4929182 131.163424,26.8410645 C130.229989,27.1892107 129.157815,27.3632812 127.946872,27.3632812 C126.594651,27.3632812 125.449318,27.2144383 124.510837,26.916748 C123.572355,26.6190578 122.843277,26.1700063 122.323581,25.5695801 C121.803884,24.9691539 121.433038,24.2425987 121.211032,23.3898926 C120.989026,22.5371865 120.878024,21.2581465 120.878024,19.5527344 L120.878024,14.40625 C120.878024,12.5393787 121.079845,11.0812227 121.483493,10.0317383 C121.887141,8.98225387 122.613696,8.13965162 123.66318,7.50390625 C124.712665,6.86816088 126.054774,6.55029297 127.689547,6.55029297 C129.06195,6.55029297 130.24008,6.75463663 131.223971,7.16333008 C132.207863,7.57202353 132.967214,8.10432615 133.502047,8.76025391 C134.036881,9.41618167 134.402681,10.0922817 134.59946,10.7885742 C134.796238,11.4848668 134.894626,12.5444265 134.894626,13.9672852 Z M128.779391,12.4536133 C128.779391,11.4243113 128.72389,10.7759616 128.612887,10.5085449 C128.501884,10.2411282 128.264745,10.1074219 127.901462,10.1074219 C127.538178,10.1074219 127.295993,10.2411282 127.174899,10.5085449 C127.053805,10.7759616 126.993258,11.4243113 126.993258,12.4536133 L126.993258,21.5205078 C126.993258,22.4690803 127.053805,23.0871568 127.174899,23.3747559 C127.295993,23.662355 127.533133,23.8061523 127.886325,23.8061523 C128.249608,23.8061523 128.48927,23.6749688 128.605319,23.4125977 C128.721368,23.1502266 128.779391,22.585128 128.779391,21.7172852 L128.779391,12.4536133 Z M150.196089,14.4970703 L144.428999,14.4970703 L144.428999,12.1811523 C144.428999,11.3738566 144.363408,10.8264175 144.232222,10.5388184 C144.101037,10.2512193 143.858852,10.1074219 143.50566,10.1074219 C143.152468,10.1074219 142.915328,10.2335599 142.794234,10.4858398 C142.67314,10.7381198 142.612593,11.3032183 142.612593,12.1811523 L142.612593,21.6567383 C142.612593,22.3732132 142.703413,22.9105614 142.885054,23.2687988 C143.066696,23.6270363 143.334108,23.8061523 143.6873,23.8061523 C144.101039,23.8061523 144.381066,23.619468 144.527388,23.2460938 C144.673711,22.8727195 144.746871,22.1663463 144.746871,21.1269531 L144.746871,18.7353516 L150.196089,18.7353516 C150.185998,20.3398518 150.127975,21.5432089 150.022017,22.345459 C149.91606,23.1477091 149.578009,23.9701293 149.007857,24.8127441 C148.437704,25.655359 147.69349,26.2910949 146.775191,26.7199707 C145.856892,27.1488465 144.721649,27.3632812 143.369429,27.3632812 C141.643835,27.3632812 140.276498,27.0681182 139.267378,26.4777832 C138.258259,25.8874482 137.544317,25.0599825 137.125533,23.9953613 C136.706748,22.9307401 136.497359,21.4196061 136.497359,19.4619141 L136.497359,13.7553711 C136.497359,12.0499589 136.668907,10.7633507 137.012007,9.89550781 C137.355108,9.02766493 138.086709,8.25317723 139.206832,7.57202148 C140.326954,6.89086573 141.689245,6.55029297 143.293746,6.55029297 C144.888155,6.55029297 146.250446,6.88834297 147.38066,7.56445312 C148.510874,8.24056328 149.262656,9.09325657 149.636031,10.1225586 C150.009405,11.1518606 150.196089,12.6100166 150.196089,14.4970703 Z M164.952631,6.91357422 L162.470209,14.9208984 L165.69433,27 L159.806147,27 L157.89892,18.2509766 L157.89892,27 L151.783686,27 L151.783686,2.49365234 L157.89892,2.49365234 L157.89892,12.7866211 L159.806147,6.91357422 L164.952631,6.91357422 Z M172.670599,2.49365234 L172.670599,5.6875 L166.373724,5.6875 L166.373724,2.49365234 L172.670599,2.49365234 Z M172.670599,6.91357422 L172.670599,27 L166.373724,27 L166.373724,6.91357422 L172.670599,6.91357422 Z M180.857805,6.91357422 L180.751848,8.76025391 C181.19586,8.02359658 181.738254,7.47111187 182.379045,7.1027832 C183.019836,6.73445454 183.759005,6.55029297 184.596574,6.55029297 C185.646059,6.55029297 186.503798,6.79752357 187.169816,7.29199219 C187.835835,7.78646081 188.264705,8.40958283 188.456438,9.16137695 C188.64817,9.91317108 188.744035,11.1669834 188.744035,12.9228516 L188.744035,27 L182.628801,27 L182.628801,13.0893555 C182.628801,11.7068616 182.583391,10.8642593 182.49257,10.5615234 C182.40175,10.2587875 182.149473,10.1074219 181.735734,10.1074219 C181.301813,10.1074219 181.029355,10.2814924 180.918352,10.6296387 C180.807348,10.9777849 180.751848,11.9086838 180.751848,13.4223633 L180.751848,27 L174.636613,27 L174.636613,6.91357422 L180.857805,6.91357422 Z M204.514737,6.91357422 L204.514737,22.3833008 C204.514737,24.4721784 204.466805,25.8218557 204.370938,26.432373 C204.275072,27.0428904 203.934499,27.6887173 203.34921,28.369873 C202.763921,29.0510288 201.949069,29.5707176 200.90463,29.9289551 C199.860191,30.2871925 198.545832,30.4663086 196.961515,30.4663086 C195.013914,30.4663086 193.449802,30.1358269 192.269132,29.4748535 C191.088462,28.8138802 190.477954,27.5146581 190.437589,25.5771484 L196.371183,25.5771484 C196.371183,26.4651737 196.694096,26.9091797 197.339933,26.9091797 C197.804128,26.9091797 198.111904,26.7729506 198.263272,26.5004883 C198.41464,26.228026 198.490323,25.6578819 198.490323,24.7900391 L198.490323,23.2763672 C197.965581,23.7506534 197.413096,24.1088855 196.832852,24.3510742 C196.252609,24.5932629 195.644623,24.7143555 195.008878,24.7143555 C193.908937,24.7143555 193.003266,24.4923525 192.291837,24.0483398 C191.580408,23.6043272 191.093515,23.0215694 190.831143,22.3000488 C190.568772,21.5785283 190.437589,20.5517645 190.437589,19.2197266 L190.437589,11.9238281 C190.437589,10.016592 190.780684,8.64420992 191.466886,7.80664062 C192.153087,6.96907133 193.19751,6.55029297 194.600186,6.55029297 C195.367117,6.55029297 196.065922,6.70670417 196.696622,7.01953125 C197.327322,7.33235833 197.889898,7.80159192 198.384366,8.42724609 L198.823331,6.91357422 L204.514737,6.91357422 Z M198.384366,12.2416992 C198.384366,11.3234004 198.331388,10.7381198 198.225431,10.4858398 C198.119473,10.2335599 197.884856,10.1074219 197.521573,10.1074219 C197.168381,10.1074219 196.918628,10.2512193 196.772306,10.5388184 C196.625983,10.8264175 196.552823,11.3940387 196.552823,12.2416992 L196.552823,18.9926758 C196.552823,19.8907923 196.608324,20.4735501 196.719327,20.7409668 C196.83033,21.0083835 197.062424,21.1420898 197.415616,21.1420898 C197.819264,21.1420898 198.081631,20.9806331 198.202726,20.6577148 C198.32382,20.3347966 198.384366,19.6031958 198.384366,18.4628906 L198.384366,12.2416992 Z M80.2714844,40.4936523 L86.6289062,40.4936523 C88.6370543,40.4936523 90.1582793,40.6500635 91.192627,40.9628906 C92.2269746,41.2757177 93.0620085,41.9089308 93.6977539,42.8625488 C94.3334993,43.8161669 94.6513672,45.3525285 94.6513672,47.4716797 C94.6513672,48.9046296 94.4268414,49.903643 93.9777832,50.46875 C93.528725,51.033857 92.6432358,51.4677719 91.3212891,51.7705078 C92.7946037,52.1035173 93.7936172,52.656002 94.3183594,53.4279785 C94.8431016,54.199955 95.1054688,55.38313 95.1054688,56.9775391 L95.1054688,59.2480469 C95.1054688,60.9030031 94.9162617,62.129065 94.5378418,62.9262695 C94.1594219,63.723474 93.556482,64.2683905 92.7290039,64.5610352 C91.9015258,64.8536798 90.2062303,65 87.6430664,65 L80.2714844,65 L80.2714844,40.4936523 Z M86.644043,44.6865234 L86.644043,50.1357422 C86.9165053,50.125651 87.1284172,50.1206055 87.2797852,50.1206055 C87.9054393,50.1206055 88.3040356,49.966717 88.4755859,49.6589355 C88.6471363,49.3511541 88.7329102,48.4707104 88.7329102,47.0175781 C88.7329102,46.2506472 88.6622728,45.7132991 88.5209961,45.4055176 C88.3797193,45.0977361 88.1955578,44.9034835 87.9685059,44.8227539 C87.7414539,44.7420243 87.2999707,44.6966146 86.644043,44.6865234 Z M86.644043,53.9501953 L86.644043,60.8071289 C87.5421594,60.7768553 88.1148262,60.6355807 88.3620605,60.3833008 C88.6092949,60.1310209 88.7329102,59.5104216 88.7329102,58.5214844 L88.7329102,56.2358398 C88.7329102,55.1863554 88.6219087,54.5506196 88.3999023,54.3286133 C88.177896,54.106607 87.5926154,53.9804689 86.644043,53.9501953 Z M110.830761,55.3125 L102.914257,55.3125 L102.914257,59.6567383 C102.914257,60.5649459 102.979848,61.1502266 103.111034,61.4125977 C103.24222,61.6749688 103.494496,61.8061523 103.86787,61.8061523 C104.332065,61.8061523 104.642365,61.6320818 104.798778,61.2839355 C104.955192,60.9357893 105.033397,60.262212 105.033397,59.2631836 L105.033397,56.6142578 L110.830761,56.6142578 L110.830761,58.0976562 C110.830761,59.3388734 110.752555,60.2924771 110.596141,60.9584961 C110.439728,61.624515 110.073928,62.3359337 109.498729,63.0927734 C108.923531,63.8496132 108.194453,64.4172344 107.311473,64.7956543 C106.428494,65.1740742 105.321002,65.3632812 103.988964,65.3632812 C102.697291,65.3632812 101.557003,65.1765969 100.568065,64.8032227 C99.5791281,64.4298484 98.8096859,63.9177279 98.2597157,63.2668457 C97.7097455,62.6159635 97.3288085,61.8994994 97.1168934,61.1174316 C96.9049783,60.3353639 96.7990223,59.1975986 96.7990223,57.7041016 L96.7990223,51.8461914 C96.7990223,50.0903233 97.0361619,48.7053273 97.5104481,47.6911621 C97.9847343,46.6769969 98.7617448,45.8999864 99.8415028,45.3601074 C100.921261,44.8202284 102.162459,44.550293 103.565136,44.550293 C105.280639,44.550293 106.695908,44.8757292 107.810985,45.5266113 C108.926062,46.1774935 109.708118,47.0402778 110.157177,48.1149902 C110.606235,49.1897026 110.830761,50.7008366 110.830761,52.6484375 L110.830761,55.3125 Z M104.70039,52.0429688 L104.70039,50.574707 C104.70039,49.5353138 104.644889,48.8642593 104.533886,48.5615234 C104.422882,48.2587875 104.195834,48.1074219 103.852733,48.1074219 C103.428903,48.1074219 103.166536,48.2360827 103.065624,48.4934082 C102.964712,48.7507337 102.914257,49.444493 102.914257,50.574707 L102.914257,52.0429688 L104.70039,52.0429688 Z M118.715232,40.4936523 L118.715232,46.003418 C119.239974,45.5190405 119.807596,45.1557629 120.418113,44.9135742 C121.02863,44.6713855 121.682026,44.550293 122.378318,44.550293 C123.447985,44.550293 124.358702,44.8227512 125.110496,45.3676758 C125.86229,45.9126004 126.321432,46.5407679 126.487937,47.2521973 C126.654442,47.9636266 126.737693,49.2628486 126.737693,51.1499023 L126.737693,65 L120.622459,65 L120.622459,50.8623047 C120.622459,49.6917259 120.564435,48.9399431 120.448386,48.6069336 C120.332338,48.2739241 120.072493,48.1074219 119.668845,48.1074219 C119.295471,48.1074219 119.043195,48.2789696 118.912009,48.6220703 C118.780824,48.965171 118.715232,49.6463165 118.715232,50.6655273 L118.715232,65 L112.599998,65 L112.599998,40.4936523 L118.715232,40.4936523 Z M134.077243,52.6938477 L128.340426,52.6938477 L128.340426,51.3466797 C128.340426,49.7926355 128.519542,48.5943239 128.87778,47.751709 C129.236017,46.9090941 129.955004,46.1648795 131.034762,45.519043 C132.11452,44.8732064 133.517176,44.550293 135.24277,44.550293 C137.311465,44.550293 138.870532,44.9160933 139.920016,45.6477051 C140.969501,46.3793168 141.600191,47.2774198 141.812106,48.342041 C142.024021,49.4066622 142.129977,51.5989417 142.129977,54.9189453 L142.129977,65 L136.181247,65 L136.181247,63.2138672 C135.807872,63.9303421 135.326025,64.4676903 134.73569,64.8259277 C134.145355,65.1841652 133.441505,65.3632812 132.624118,65.3632812 C131.554451,65.3632812 130.573097,65.0630727 129.680026,64.4626465 C128.786955,63.8622203 128.340426,62.5478617 128.340426,60.5195312 L128.340426,58.8696289 C128.340426,57.3660407 128.577566,56.3417996 129.051852,55.796875 C129.526138,55.2519504 130.701745,54.6162146 132.578708,53.8896484 C134.586856,53.1025351 135.661552,52.5727553 135.802829,52.300293 C135.944105,52.0278307 136.014743,51.4728232 136.014743,50.6352539 C136.014743,49.5857695 135.936537,48.9021012 135.780124,48.5842285 C135.62371,48.2663558 135.363866,48.1074219 135.000583,48.1074219 C134.586844,48.1074219 134.329522,48.2411282 134.22861,48.5085449 C134.127698,48.7759616 134.077243,49.469721 134.077243,50.5898438 L134.077243,52.6938477 Z M136.014743,55.4487305 C135.035897,56.1652054 134.468275,56.7656226 134.311862,57.25 C134.155448,57.7343774 134.077243,58.4306595 134.077243,59.3388672 C134.077243,60.3782604 134.145357,61.0493149 134.281588,61.3520508 C134.41782,61.6547867 134.687755,61.8061523 135.091403,61.8061523 C135.474868,61.8061523 135.724622,61.6875826 135.84067,61.4504395 C135.956719,61.2132963 136.014743,60.5901743 136.014743,59.5810547 L136.014743,55.4487305 Z M156.644331,44.9135742 L153.783492,65 L145.806441,65 L142.733687,44.9135742 L148.198042,44.9135742 L149.908492,59.565918 C150.039677,58.4962512 150.26168,55.8725795 150.574507,51.6948242 C150.756149,49.3637579 150.95797,47.1033638 151.179976,44.9135742 L156.644331,44.9135742 Z M163.6206,40.4936523 L163.6206,43.6875 L157.323725,43.6875 L157.323725,40.4936523 L163.6206,40.4936523 Z M163.6206,44.9135742 L163.6206,65 L157.323725,65 L157.323725,44.9135742 L163.6206,44.9135742 Z M179.421575,51.9672852 L179.421575,56.8867188 C179.421575,58.6930429 179.330756,60.0174925 179.149114,60.8601074 C178.967473,61.7027223 178.578968,62.4898238 177.983587,63.2214355 C177.388206,63.9530473 176.62381,64.4929182 175.690374,64.8410645 C174.756939,65.1892107 173.684765,65.3632812 172.473821,65.3632812 C171.121601,65.3632812 169.976268,65.2144383 169.037786,64.916748 C168.099305,64.6190578 167.370227,64.1700063 166.85053,63.5695801 C166.330834,62.9691539 165.959988,62.2425987 165.737982,61.3898926 C165.515975,60.5371865 165.404974,59.2581465 165.404974,57.5527344 L165.404974,52.40625 C165.404974,50.5393787 165.606795,49.0812227 166.010443,48.0317383 C166.41409,46.9822539 167.140646,46.1396516 168.19013,45.5039062 C169.239614,44.8681609 170.581723,44.550293 172.216497,44.550293 C173.5889,44.550293 174.767029,44.7546366 175.750921,45.1633301 C176.734813,45.5720235 177.494164,46.1043261 178.028997,46.7602539 C178.563831,47.4161817 178.929631,48.0922817 179.126409,48.7885742 C179.323188,49.4848668 179.421575,50.5444265 179.421575,51.9672852 Z M173.306341,50.4536133 C173.306341,49.4243113 173.25084,48.7759616 173.139837,48.5085449 C173.028834,48.2411282 172.791694,48.1074219 172.428411,48.1074219 C172.065128,48.1074219 171.822943,48.2411282 171.701849,48.5085449 C171.580754,48.7759616 171.520208,49.4243113 171.520208,50.4536133 L171.520208,59.5205078 C171.520208,60.4690803 171.580754,61.0871568 171.701849,61.3747559 C171.822943,61.662355 172.060083,61.8061523 172.413275,61.8061523 C172.776558,61.8061523 173.01622,61.6749688 173.132269,61.4125977 C173.248317,61.1502266 173.306341,60.585128 173.306341,59.7172852 L173.306341,50.4536133 Z M195.207414,44.9135742 L195.207414,65 L188.986223,65 L189.09218,63.3349609 C188.668349,64.0110711 188.146138,64.5181461 187.525529,64.8562012 C186.904921,65.1942562 186.190979,65.3632812 185.383684,65.3632812 C184.465385,65.3632812 183.703511,65.2018245 183.098039,64.8789062 C182.492567,64.555988 182.046039,64.1271186 181.758439,63.5922852 C181.47084,63.0574518 181.291724,62.4999215 181.221086,61.9196777 C181.150448,61.3394339 181.115129,60.1865321 181.115129,58.4609375 L181.115129,44.9135742 L187.230363,44.9135742 L187.230363,58.5820312 C187.230363,60.1461667 187.278296,61.0745428 187.374162,61.3671875 C187.470028,61.6598322 187.729873,61.8061523 188.153703,61.8061523 C188.607807,61.8061523 188.877742,61.6547867 188.963518,61.3520508 C189.049293,61.0493149 189.09218,60.0755291 189.09218,58.4306641 L189.09218,44.9135742 L195.207414,44.9135742 Z M203.288663,44.9135742 L203.046475,47.5473633 C203.934501,45.6603096 205.221109,44.6612961 206.906339,44.550293 L206.906339,51.6191406 C205.786216,51.6191406 204.963796,51.7705063 204.439054,52.0732422 C203.914311,52.3759781 203.591398,52.7972792 203.470304,53.3371582 C203.349209,53.8770372 203.288663,55.1207585 203.288663,57.0683594 L203.288663,65 L197.173429,65 L197.173429,44.9135742 L203.288663,44.9135742 Z M228.336415,51.1801758 L221.963856,51.1801758 L221.963856,46.9116211 C221.963856,45.670404 221.895741,44.8959163 221.75951,44.5881348 C221.623279,44.2803533 221.323071,44.1264648 220.858876,44.1264648 C220.334133,44.1264648 220.001129,44.3131492 219.859852,44.6865234 C219.718575,45.0598977 219.647938,45.8671813 219.647938,47.1083984 L219.647938,58.4912109 C219.647938,59.6819721 219.718575,60.4589826 219.859852,60.8222656 C220.001129,61.1855487 220.318997,61.3671875 220.813465,61.3671875 C221.287752,61.3671875 221.598051,61.1855487 221.744374,60.8222656 C221.890696,60.4589826 221.963856,59.6062893 221.963856,58.2641602 L221.963856,55.1914062 L228.336415,55.1914062 L228.336415,56.1450195 C228.336415,58.6779098 228.157299,60.4741158 227.799061,61.5336914 C227.440824,62.593267 226.648677,63.5216431 225.422596,64.3188477 C224.196516,65.1160522 222.685382,65.5146484 220.889149,65.5146484 C219.022278,65.5146484 217.483393,65.1765984 216.27245,64.5004883 C215.061506,63.8243781 214.259268,62.8884337 213.865711,61.692627 C213.472155,60.4968202 213.275379,58.6980914 213.275379,56.2963867 L213.275379,49.1367188 C213.275379,47.3707594 213.335926,46.0463098 213.45702,45.1633301 C213.578114,44.2803504 213.938869,43.4301799 214.539295,42.612793 C215.139722,41.7954061 215.972233,41.152102 217.036854,40.6828613 C218.101475,40.2136207 219.325014,39.9790039 220.707508,39.9790039 C222.584471,39.9790039 224.133446,40.3422815 225.354481,41.0688477 C226.575516,41.7954138 227.377754,42.7010851 227.761219,43.7858887 C228.144685,44.8706923 228.336415,46.5584195 228.336415,48.8491211 L228.336415,51.1801758 Z M236.326843,40.4936523 L236.326843,46.003418 C236.851585,45.5190405 237.419207,45.1557629 238.029724,44.9135742 C238.640241,44.6713855 239.293637,44.550293 239.989929,44.550293 C241.059596,44.550293 241.970313,44.8227512 242.722107,45.3676758 C243.473901,45.9126004 243.933044,46.5407679 244.099548,47.2521973 C244.266053,47.9636266 244.349304,49.2628486 244.349304,51.1499023 L244.349304,65 L238.23407,65 L238.23407,50.8623047 C238.23407,49.6917259 238.176046,48.9399431 238.059997,48.6069336 C237.943949,48.2739241 237.684104,48.1074219 237.280456,48.1074219 C236.907082,48.1074219 236.654806,48.2789696 236.523621,48.6220703 C236.392435,48.965171 236.326843,49.6463165 236.326843,50.6655273 L236.326843,65 L230.211609,65 L230.211609,40.4936523 L236.326843,40.4936523 Z M251.688854,52.6938477 L245.952037,52.6938477 L245.952037,51.3466797 C245.952037,49.7926355 246.131153,48.5943239 246.489391,47.751709 C246.847628,46.9090941 247.566615,46.1648795 248.646373,45.519043 C249.726131,44.8732064 251.128787,44.550293 252.854381,44.550293 C254.923076,44.550293 256.482143,44.9160933 257.531627,45.6477051 C258.581112,46.3793168 259.211802,47.2774198 259.423717,48.342041 C259.635632,49.4066622 259.741588,51.5989417 259.741588,54.9189453 L259.741588,65 L253.792858,65 L253.792858,63.2138672 C253.419483,63.9303421 252.937636,64.4676903 252.347301,64.8259277 C251.756966,65.1841652 251.053116,65.3632812 250.235729,65.3632812 C249.166062,65.3632812 248.184708,65.0630727 247.291637,64.4626465 C246.398566,63.8622203 245.952037,62.5478617 245.952037,60.5195312 L245.952037,58.8696289 C245.952037,57.3660407 246.189177,56.3417996 246.663463,55.796875 C247.137749,55.2519504 248.313356,54.6162146 250.190319,53.8896484 C252.198467,53.1025351 253.273163,52.5727553 253.41444,52.300293 C253.555716,52.0278307 253.626354,51.4728232 253.626354,50.6352539 C253.626354,49.5857695 253.548148,48.9021012 253.391735,48.5842285 C253.235321,48.2663558 252.975477,48.1074219 252.612194,48.1074219 C252.198455,48.1074219 251.941133,48.2411282 251.840221,48.5085449 C251.739309,48.7759616 251.688854,49.469721 251.688854,50.5898438 L251.688854,52.6938477 Z M253.626354,55.4487305 C252.647508,56.1652054 252.079886,56.7656226 251.923473,57.25 C251.767059,57.7343774 251.688854,58.4306595 251.688854,59.3388672 C251.688854,60.3782604 251.756968,61.0493149 251.893199,61.3520508 C252.029431,61.6547867 252.299366,61.8061523 252.703014,61.8061523 C253.086479,61.8061523 253.336233,61.6875826 253.452282,61.4504395 C253.56833,61.2132963 253.626354,60.5901743 253.626354,59.5810547 L253.626354,55.4487305 Z M267.837974,44.9135742 L267.732017,46.7602539 C268.176029,46.0235966 268.718423,45.4711119 269.359214,45.1027832 C270.000005,44.7344545 270.739174,44.550293 271.576743,44.550293 C272.626228,44.550293 273.483967,44.7975236 274.149985,45.2919922 C274.816004,45.7864608 275.244874,46.4095828 275.436607,47.161377 C275.628339,47.9131711 275.724204,49.1669834 275.724204,50.9228516 L275.724204,65 L269.60897,65 L269.60897,51.0893555 C269.60897,49.7068616 269.56356,48.8642593 269.472739,48.5615234 C269.381919,48.2587875 269.129642,48.1074219 268.715903,48.1074219 C268.281982,48.1074219 268.009524,48.2814924 267.898521,48.6296387 C267.787517,48.9777849 267.732017,49.9086838 267.732017,51.4223633 L267.732017,65 L261.616782,65 L261.616782,44.9135742 L267.837974,44.9135742 Z M291.494906,44.9135742 L291.494906,60.3833008 C291.494906,62.4721784 291.446974,63.8218557 291.351107,64.432373 C291.255241,65.0428904 290.914668,65.6887173 290.329379,66.369873 C289.74409,67.0510288 288.929238,67.5707176 287.884799,67.9289551 C286.84036,68.2871925 285.526001,68.4663086 283.941684,68.4663086 C281.994083,68.4663086 280.429971,68.1358269 279.249301,67.4748535 C278.068631,66.8138802 277.458123,65.5146581 277.417758,63.5771484 L283.351352,63.5771484 C283.351352,64.4651737 283.674265,64.9091797 284.320102,64.9091797 C284.784297,64.9091797 285.092073,64.7729506 285.243441,64.5004883 C285.394809,64.228026 285.470492,63.6578819 285.470492,62.7900391 L285.470492,61.2763672 C284.94575,61.7506534 284.393265,62.1088855 283.813021,62.3510742 C283.232778,62.5932629 282.624792,62.7143555 281.989047,62.7143555 C280.889106,62.7143555 279.983435,62.4923525 279.272006,62.0483398 C278.560577,61.6043272 278.073684,61.0215694 277.811312,60.3000488 C277.548941,59.5785283 277.417758,58.5517645 277.417758,57.2197266 L277.417758,49.9238281 C277.417758,48.016592 277.760853,46.6442099 278.447055,45.8066406 C279.133256,44.9690713 280.177679,44.550293 281.580355,44.550293 C282.347286,44.550293 283.046091,44.7067042 283.676791,45.0195312 C284.307491,45.3323583 284.870067,45.8015919 285.364535,46.4272461 L285.8035,44.9135742 L291.494906,44.9135742 Z M285.364535,50.2416992 C285.364535,49.3234004 285.311557,48.7381198 285.2056,48.4858398 C285.099642,48.2335599 284.865025,48.1074219 284.501742,48.1074219 C284.14855,48.1074219 283.898797,48.2512193 283.752475,48.5388184 C283.606152,48.8264175 283.532992,49.3940387 283.532992,50.2416992 L283.532992,56.9926758 C283.532992,57.8907923 283.588493,58.4735501 283.699496,58.7409668 C283.810499,59.0083835 284.042593,59.1420898 284.395785,59.1420898 C284.799433,59.1420898 285.0618,58.9806331 285.182895,58.6577148 C285.303989,58.3347966 285.364535,57.6031958 285.364535,56.4628906 L285.364535,50.2416992 Z M307.295882,55.3125 L299.379378,55.3125 L299.379378,59.6567383 C299.379378,60.5649459 299.44497,61.1502266 299.576155,61.4125977 C299.707341,61.6749688 299.959617,61.8061523 300.332991,61.8061523 C300.797186,61.8061523 301.107486,61.6320818 301.263899,61.2839355 C301.420313,60.9357893 301.498518,60.262212 301.498518,59.2631836 L301.498518,56.6142578 L307.295882,56.6142578 L307.295882,58.0976562 C307.295882,59.3388734 307.217676,60.2924771 307.061263,60.9584961 C306.904849,61.624515 306.539049,62.3359337 305.96385,63.0927734 C305.388652,63.8496132 304.659574,64.4172344 303.776595,64.7956543 C302.893615,65.1740742 301.786123,65.3632812 300.454085,65.3632812 C299.162412,65.3632812 298.022124,65.1765969 297.033186,64.8032227 C296.044249,64.4298484 295.274807,63.9177279 294.724837,63.2668457 C294.174867,62.6159635 293.79393,61.8994994 293.582014,61.1174316 C293.370099,60.3353639 293.264143,59.1975986 293.264143,57.7041016 L293.264143,51.8461914 C293.264143,50.0903233 293.501283,48.7053273 293.975569,47.6911621 C294.449855,46.6769969 295.226866,45.8999864 296.306624,45.3601074 C297.386382,44.8202284 298.62758,44.550293 300.030257,44.550293 C301.74576,44.550293 303.161029,44.8757292 304.276106,45.5266113 C305.391183,46.1774935 306.173239,47.0402778 306.622298,48.1149902 C307.071356,49.1897026 307.295882,50.7008366 307.295882,52.6484375 L307.295882,55.3125 Z M301.165511,52.0429688 L301.165511,50.574707 C301.165511,49.5353138 301.11001,48.8642593 300.999007,48.5615234 C300.888004,48.2587875 300.660955,48.1074219 300.317854,48.1074219 C299.894024,48.1074219 299.631657,48.2360827 299.530745,48.4934082 C299.429833,48.7507337 299.379378,49.444493 299.379378,50.574707 L299.379378,52.0429688 L301.165511,52.0429688 Z" id="UnlockingBehaviourChange"></path>
            </g>
        </g>
    </g>
</svg>
